<svg xmlns="http://www.w3.org/2000/svg" viewBox="0 0 500 500"><g id="freepik--Character--inject-2"><g id="freepik--Bottom--inject-2"><g id="freepik--Leg--inject-2"><path d="M403.05,311.14c4.16-1.78,11.18-4.62,11.34-4.65a4.84,4.84,0,0,1,5.19,2.78c.91,1.78,6,2.86,6,9.33,0,1.76-5.06,3.17-6.44,1.76-1.67,1.7-10.64,8.82-10.64,8.82Z" style="fill:#ffa8a7"></path><path d="M418.77,336.42c.12.88-.15,1.46,1.09,2.41s6.05,2.35,10.08,1.66,9.07-2.71,9.74-8.3-.1-7.92-1.31-10.35-4.34-5.72-5.28-7.65-1-5.19-1.32-7-1-4.46-3.54-5.77a7.51,7.51,0,0,0-4.61-.87l-2.45,1.21s6.21,18.19,8,22.75S418.77,336.42,418.77,336.42Z" style="fill:#263238"></path><path d="M437.89,324.79c-1.3-5.56-6.11-7.88-7-10.65s.1-7.77-3-10.51a8,8,0,0,0-6.76-1.88s-5.34,1.57-7.49,3.13a10.61,10.61,0,0,0-3,3l1.18-.47c2.13-.45,5.72,1.21,6.76,2.89a21.64,21.64,0,0,1,1.41,2.41,11.08,11.08,0,0,0,1.4,2.63c.36.45,1.32,1.11,1.29,1.74s-1,.06-1.31-.12c-.75-.37-2.16-.9-2.64.15a3.31,3.31,0,0,0-.19,1.45,4.8,4.8,0,0,1-.17,1.85,3.31,3.31,0,0,1-1.08,1.53l-.68.58s.74.56,2,1.65a20.71,20.71,0,0,1,3.59,4.78s-2,1.66-3.29,2.89-.86,4.1.06,4.8,3.25,2.69,8.56,2.53c7.95-.22,9.94-4.24,10.63-6.57S438.72,328.32,437.89,324.79Z" style="fill:#4E5B97"></path><path d="M437.89,324.79c-1.3-5.56-6.11-7.88-7-10.65s.1-7.77-3-10.51a8,8,0,0,0-6.76-1.88s-5.34,1.57-7.49,3.13a10.61,10.61,0,0,0-3,3l1.18-.47c2.13-.45,5.72,1.21,6.76,2.89a21.64,21.64,0,0,1,1.41,2.41,11.08,11.08,0,0,0,1.4,2.63c.36.45,1.32,1.11,1.29,1.74s-1,.06-1.31-.12c-.75-.37-2.16-.9-2.64.15a3.31,3.31,0,0,0-.19,1.45,4.8,4.8,0,0,1-.17,1.85,3.31,3.31,0,0,1-1.08,1.53l-.68.58s.74.56,2,1.65a20.71,20.71,0,0,1,3.59,4.78s-2,1.66-3.29,2.89-.86,4.1.06,4.8,3.25,2.69,8.56,2.53c7.95-.22,9.94-4.24,10.63-6.57S438.72,328.32,437.89,324.79Z" style="opacity:0.15"></path><path d="M421.69,328c1.16-1.4,6-2.52,8.58-1.76.43-.59.57-.89-.11-1.38a10.22,10.22,0,0,0-6.28.12,7.59,7.59,0,0,0-3.06,1.73A1.56,1.56,0,0,0,421.69,328Z" style="fill:#fafafa"></path><path d="M420,325.67c1-1.53,5.64-3.24,8.29-2.8.36-.63.46-1-.28-1.35a10.19,10.19,0,0,0-6.21.88,7.77,7.77,0,0,0-2.82,2.09S419.16,325.49,420,325.67Z" style="fill:#fafafa"></path><path d="M379.88,276.61l25.45-6.41c1.24,5.13,2,15.26-.12,23s-9.32,20.66-9.32,20.66l9.93-4s3.31-.12,6.34,4.55,0,11.71,0,11.71a230.07,230.07,0,0,1-26.33,19.1c-13.15,7.91-21.46,10.37-28.64,4.64-4.24-3.38-4.27-10.44-2.71-19.45,1.76-10.12,25.36-53.82,25.36-53.82" style="fill:#455a64"></path><path d="M406.48,310a3.93,3.93,0,0,0-.66-.08l-9.93,4s5.81-10.45,8.53-18.19l-22.11-7.15c1.38,7.93,7.84,15.37,7.84,15.37s-9.35,23-13.23,34.55-10.72,11.25-17,9.34-6.26-10.41-6.26-10.51c-.37,5.71.48,10.15,3.57,12.61,7.18,5.73,15.49,3.27,28.64-4.64a217.09,217.09,0,0,0,22.53-16Z" style="fill:#37474f"></path><path d="M395.07,324.76a61.94,61.94,0,0,1,14.79-13c-2.28-2-4-1.85-4-1.85l-9.93,4s-8.53,18.47-15.48,21.28A32.91,32.91,0,0,0,395.07,324.76Z" style="opacity:0.15"></path></g><g id="freepik--Le--inject-2"><path d="M427.61,324.13c4.16-1.77,11.18-4.62,11.34-4.65a4.86,4.86,0,0,1,5.19,2.78c.91,1.79,6,2.86,6,9.33,0,1.76-5.05,3.17-6.43,1.77-1.67,1.7-10.65,8.81-10.65,8.81Z" style="fill:#ffa8a7"></path><path d="M443.33,349.41c.12.88-.31,1.28.93,2.24s6,2.53,10.05,1.85,9.08-3.15,9.74-7.83c.79-5.58.09-8.4-1.12-10.84s-4.34-5.71-5.28-7.65-1-5.18-1.32-7-1-4.46-3.54-5.77a7.42,7.42,0,0,0-4.61-.87l-2.46,1.21s6.22,18.19,8,22.75S443.33,349.41,443.33,349.41Z" style="fill:#263238"></path><path d="M462.45,337.78c-1.3-5.56-6.11-7.88-7-10.65s.1-7.76-3-10.51a8,8,0,0,0-6.77-1.87s-5.33,1.56-7.48,3.12a10.71,10.71,0,0,0-3,3l1.18-.48c2.13-.44,5.72,1.21,6.76,2.9a20,20,0,0,1,1.41,2.41,10.83,10.83,0,0,0,1.4,2.62c.36.45,1.32,1.12,1.29,1.74s-1,.06-1.32-.11c-.74-.38-2.15-.91-2.63.15a3.28,3.28,0,0,0-.19,1.44,5,5,0,0,1-.17,1.86,3.36,3.36,0,0,1-1.08,1.53l-.68.57s.74.56,2,1.65A20.71,20.71,0,0,1,446.8,342s-2,1.67-3.29,2.9-.86,4.09.06,4.8,3.25,2.68,8.56,2.53c7.95-.23,10.09-4.42,10.57-6.69A15.12,15.12,0,0,0,462.45,337.78Z" style="fill:#4E5B97"></path><path d="M462.45,337.78c-1.3-5.56-6.11-7.88-7-10.65s.1-7.76-3-10.51a8,8,0,0,0-6.77-1.87s-5.33,1.56-7.48,3.12a10.71,10.71,0,0,0-3,3l1.18-.48c2.13-.44,5.72,1.21,6.76,2.9a20,20,0,0,1,1.41,2.41,10.83,10.83,0,0,0,1.4,2.62c.36.45,1.32,1.12,1.29,1.74s-1,.06-1.32-.11c-.74-.38-2.15-.91-2.63.15a3.28,3.28,0,0,0-.19,1.44,5,5,0,0,1-.17,1.86,3.36,3.36,0,0,1-1.08,1.53l-.68.57s.74.56,2,1.65A20.71,20.71,0,0,1,446.8,342s-2,1.67-3.29,2.9-.86,4.09.06,4.8,3.25,2.68,8.56,2.53c7.95-.23,10.09-4.42,10.57-6.69A15.12,15.12,0,0,0,462.45,337.78Z" style="opacity:0.15"></path><path d="M446.25,341c1.16-1.41,6-2.53,8.58-1.77.43-.58.56-.89-.11-1.37a10.26,10.26,0,0,0-6.28.11,7.73,7.73,0,0,0-3.06,1.73A1.57,1.57,0,0,0,446.25,341Z" style="fill:#fafafa"></path><path d="M444.54,338.67c1-1.54,5.65-3.24,8.3-2.81.36-.63.45-.95-.28-1.35a10.28,10.28,0,0,0-6.21.88,7.83,7.83,0,0,0-2.83,2.1S443.72,338.49,444.54,338.67Z" style="fill:#fafafa"></path><path d="M437.43,327.07c-3-4.68-6.34-4.55-6.34-4.55l-9.93,4s7.72-12.63,10.64-20.11c3.47-8.85,4.74-14.1,3.2-26.9l-35.81-.63-19.31-2.25A34.19,34.19,0,0,0,393.3,303.1s-11.75,29.85-13.51,40c-1.56,9-1.53,16.07,2.71,19.45,7.18,5.73,15.49,3.27,28.64-4.64a230.07,230.07,0,0,0,26.33-19.1S440.47,331.75,437.43,327.07Z" style="fill:#455a64"></path><path d="M420.34,337.39a61.7,61.7,0,0,1,14.77-13c-2.52-2.13-4-1.88-4-1.88l-9.93,4s-8.53,18.47-15.48,21.28A32.88,32.88,0,0,0,420.34,337.39Z" style="fill:#37474f"></path></g></g><g id="freepik--Top--inject-2"><path d="M367.32,287.68c5.22-6.75,4.7-6,6-14.37s6-43.08,6-43.08L373.57,215s-10,3.05-12.39,12.16c-3.48,13.15-6.9,46.82-6.9,46.82l-2.9,6.1Z" style="fill:#ffa8a7"></path><path d="M375.12,214.18s-6.26,1.23-10.48,5.11c-3.13,2.87-4.47,9-5.69,14.61-1.44,6.62-3.11,20.7-3.11,20.7s9.57,9.27,21.32,7.76l6.35-27.84Z" style="fill:#455a64"></path><path d="M424.14,228.44a194.7,194.7,0,0,1,11.13,55.75c-6.81,7.91-46.39,15.74-59.25-.32,2.83-19-5.25-25.34-8-48.05-1.22-10-4.07-19.27,13.43-23.87s30.14-1.33,30.14-1.33C417.83,214,422,222.72,424.14,228.44Z" style="fill:#4E5B97"></path><path d="M438.54,201.82c1.23-2.52-.64-7.82-4.45-12.74s-9.66-7.62-12.24-3.89,2.31,12.84,5.93,15.28S436.74,205.49,438.54,201.82Z" style="fill:#37474f"></path><path d="M425.38,108.08c-2.72.39-1.09,6.06,0,10.58,1,4.17,1.81,7.49,1.18,8.18-.9,1-2.91-3.49-5.41-4.34-1.26-.43-2.76-.12-2.93.84s.62,1.25,2,3.34c1.06,1.58,3.12,8.24,6.15,11.17,1.18,1.15,2,4.94,2.11,7.87.58,13-.53,28.35-.53,28.35s-4.39,7.82-11.31,20.89c-3.18,6-8.53,15-8.53,15-1,6.26,3.58,20.74,16.66,20.16-1.63-5.51,11.12-27.44,17.41-39.11,4.4-8.17,4.92-9.23,4.79-12.86-.37-10.53-1.27-12.11-2.22-20.8-1.09-9.88-1.47-14.88-1.56-15.95-.36-4.26.84-6.19,1.21-8.62.54-3.6.72-6.17-.23-9.09a3,3,0,0,0-1.52-2c-.42-.16-.88-.17-1.29-.33a16.76,16.76,0,0,0-2-1c-.93-.21-2.05.62-3,.36-.4-.12-1.37-1-1.79-1a7,7,0,0,0-1.89.61c-.38.11-1.3.74-1.59.28a57.13,57.13,0,0,1-2.18-6.17C427.89,111.25,426.93,107.86,425.38,108.08Z" style="fill:#ffa8a7"></path><path d="M430.89,125.77c1,2.61,1.3,5.7,2.83,6.2a2.55,2.55,0,0,1,4.59-.75,2,2,0,0,0,1.75-1.15,2.08,2.08,0,0,0,3-.28c-.15.87-1.05,2.39-2.54,1.49,0,0-1.7,1.79-3.32.53,0,0,1.9,1.33,1.64,4.85a7.7,7.7,0,0,0-2.72-4.32,3.17,3.17,0,0,1-3.23.28C431.27,131.71,430.89,125.77,430.89,125.77Z" style="fill:#f28f8f"></path><path d="M404.91,209.67a38.74,38.74,0,0,0,5.94-5.93c2.76-3.28,11-18.55,11-18.55s.33,5.62,5.62,11.28c6.75,7.22,11.07,5.35,11.07,5.35s-5.22,9.7-7.93,15.74c-2.34,5.23-5.56,11.87-4.79,15.67-1.4,2.07-7.68.72-14.53-5.55C403.89,220.9,404.91,209.67,404.91,209.67Z" style="fill:#455a64"></path><path d="M376.82,194.07a13.79,13.79,0,0,0,5.95,1.3c1.76-.13,3.5.43,5.29.44,3.84,0,5.54,8.61,8.52,6.15.38-4.2,7.13-13.8,5.9-24.59-.62-5.47-3.58-10.64-9.09-10.89.27,0-1.34-2.73-1.57-2.95a9.44,9.44,0,0,0-3.54-2,20.06,20.06,0,0,0-8.64-.76,35.29,35.29,0,0,0-8.45,1.75c-2.89,1-5.65,2.15-8.74,1.27-2.6-.73-1,4.33.2,5.1-1.06.28-1.86-1.46-2.74-1.5s-1,1.47-1,2.08c.28,2.75.63,4.5,2.58,6.4-1.89,1.76-.43,3.9,1.25,5.13,2,1.48,3.15,3.87,4.76,5.81A24.55,24.55,0,0,0,376.82,194.07Z" style="fill:#37474f"></path><path d="M384.61,174c-1.42,3.14,0,12.9,1.77,21.66a11.78,11.78,0,0,0,1.68.14c3.84,0,5.54,8.61,8.52,6.15.38-4.2,7.13-13.8,5.9-24.59-.62-5.47-3.58-10.64-9.09-10.89A14,14,0,0,0,384.61,174Z" style="fill:#455a64"></path><path d="M384.61,174a9.73,9.73,0,0,0,7.84,5.62,23.89,23.89,0,0,0,.73,8.14,4.42,4.42,0,0,0,.79,1.56,2,2,0,0,0,1.54.74c.79,0,1.06-.54,1.23-1.18a19.77,19.77,0,0,1,.93-2.42,4.7,4.7,0,0,1,.6-1c1.07-1.24,4.45-3,6.51.59s-.4,9.21-3.16,10.33c-4.75,1.92-6.19-1.3-6.19-1.3l2.62,15.62c-5.05,7.63-18.62,8.46-16.23,4.2l-1.66-6.74a23.17,23.17,0,0,1-5.92.88c-3.62-.27-7-4-8.41-7.79-3-7.75-3.9-19.42-2.13-25.11C370.77,181,377.48,175.7,384.61,174Z" style="fill:#ffa8a7"></path><path d="M382.66,186.54a1.65,1.65,0,1,1-1.88-1.38A1.65,1.65,0,0,1,382.66,186.54Z" style="fill:#263238"></path><path d="M369.62,188.77a1.65,1.65,0,1,1-1.88-1.38A1.64,1.64,0,0,1,369.62,188.77Z" style="fill:#263238"></path><path d="M380.16,208.21s6.86-2.46,9.53-4.17a14.57,14.57,0,0,0,4.38-5.44,16.73,16.73,0,0,1-2.05,5.45c-1.83,2.78-11.38,6.1-11.38,6.1Z" style="fill:#f28f8f"></path><polygon points="374.85 184.54 376.43 195.18 370.9 195.25 374.85 184.54" style="fill:#f28f8f"></polygon><path d="M380.07,182l4,1.26a2.19,2.19,0,0,0-1.4-2.68A2,2,0,0,0,380.07,182Z" style="fill:#263238"></path><path d="M364.78,186.09l3.21-2.7a2,2,0,0,0-2.91-.31A2.2,2.2,0,0,0,364.78,186.09Z" style="fill:#263238"></path><path d="M381.64,196l-5.28,3.18a3,3,0,0,0,4.15,1.13A3.24,3.24,0,0,0,381.64,196Z" style="fill:#b16668"></path><path d="M381.43,197.44a2,2,0,0,1,.59-.11,3.22,3.22,0,0,1-1.51,3,1.63,1.63,0,0,0-.19.09,1.4,1.4,0,0,1-.1-.16A2.17,2.17,0,0,1,381.43,197.44Z" style="fill:#f28f8f"></path><path d="M354.28,274c-1.48,2.51-8.8,16.13-11.59,20.8-2.05,3.4-8.29,14.78-9.36,17.15-2.17,4.82-5.41,10.36-4.86,15.86.13,1.34.5,2.56.5,3.91,0,1.55-.19,3.09.78,4.38.29.38.79.66,1,1.09s.28,1.36.63,1.93c1,1.58,2.16,0,2.77-.93,2.48-3.87,3.93-8.28,6.41-12.13a39.7,39.7,0,0,1,3.34-4.78c.23-.26.92-.74,1.29-.56s.22,1,.22,1.37c0,1-.05,1.94,0,2.91a4.75,4.75,0,0,0,1.54,3.5,1.7,1.7,0,0,0,2,.21,1.64,1.64,0,0,0,.56-1.13c.05-.43,0-.87,0-1.3,0-1.79,1-3.41,1.5-5.13a17.14,17.14,0,0,0,.45-5.35,31,31,0,0,1,.09-5.37,10.62,10.62,0,0,1,2-5.22c1.18-1.5,4.19-5.52,6.65-8.55,4.39-5.4,7.77-9.29,10.8-14Z" style="fill:#ffa8a7"></path></g></g></svg>