<svg width="363" height="253" viewBox="0 0 363 253" fill="none" xmlns="http://www.w3.org/2000/svg">
<path d="M356.12 175.754L244.22 250.302C242.451 251.483 240.452 252.126 238.408 252.17C236.365 252.215 234.346 251.659 232.54 250.556L7.25007 100.467C3.70007 98.1013 0.820068 92.8159 0.820068 88.65C0.820068 84.4841 3.70007 79.1988 7.25007 76.8446L118.74 2.56162C120.733 1.40117 122.933 0.796631 125.165 0.796631C127.397 0.796631 129.598 1.40117 131.59 2.56162L356.12 152.155C359.67 154.52 362.55 159.806 362.55 163.972C362.55 168.138 359.67 173.446 356.12 175.754Z" fill="#6879C8"/>
<path opacity="0.4" d="M118.74 2.56162L7.25007 76.8446C3.70007 79.1526 0.820068 84.4956 0.820068 88.65C0.820068 92.8044 3.70007 98.1013 7.25007 100.467L232.54 250.579C234.27 251.607 236.184 252.153 238.13 252.172V73.5441L131.59 2.56162C129.598 1.40117 127.397 0.796631 125.165 0.796631C122.933 0.796631 120.733 1.40117 118.74 2.56162Z" fill="black"/>
<path opacity="0.25" d="M244.22 250.325L356.12 175.754C359.67 173.446 362.55 168.103 362.55 163.949C362.55 159.794 359.67 154.497 356.12 152.132L238.12 73.5211V252.172C240.26 252.199 242.367 251.562 244.22 250.325Z" fill="black"/>
<path d="M241.56 237.043C239.802 238.067 237.86 238.601 235.89 238.601C233.921 238.601 231.978 238.067 230.22 237.043L7.22012 88.4654C2.42012 85.2688 2.42012 80.0412 7.22012 76.8561L118.73 2.56162C120.723 1.40117 122.923 0.796631 125.155 0.796631C127.387 0.796631 129.588 1.40117 131.58 2.56162L356.11 152.155C359.65 154.463 359.65 158.363 356.11 160.717L241.56 237.043Z" fill="#6879C8"/>
<path opacity="0.15" d="M241.56 237.043C239.802 238.067 237.86 238.601 235.89 238.601C233.921 238.601 231.978 238.067 230.22 237.043L7.22012 88.4654C2.42012 85.2688 2.42012 80.0412 7.22012 76.8561L118.73 2.56162C120.723 1.40117 122.923 0.796631 125.155 0.796631C127.387 0.796631 129.588 1.40117 131.58 2.56162L356.11 152.155C359.65 154.463 359.65 158.363 356.11 160.717L241.56 237.043Z" fill="black"/>
<path d="M230.73 222.087C228.835 223.191 226.742 223.766 224.62 223.766C222.498 223.766 220.405 223.191 218.51 222.087L26.62 94.2354C23.25 91.9851 23.25 88.35 26.62 86.0997L131.52 16.2135C133.415 15.1098 135.508 14.5349 137.63 14.5349C139.752 14.5349 141.845 15.1098 143.74 16.2135L335.62 144.065C338.98 146.304 338.98 149.962 335.62 152.143L230.73 222.087Z" fill="#37474F"/>
<path d="M137.26 14.5632C135.259 14.5695 133.29 15.1358 131.52 16.2134L26.62 86.0997C23.25 88.35 23.25 91.9851 26.62 94.2354L47.42 108.083L137.26 41.8899V14.5632Z" fill="#263238"/>
<path d="M143.81 21.5103C141.915 20.4067 139.823 19.8318 137.7 19.8318C135.578 19.8318 133.485 20.4067 131.59 21.5103L26.7001 91.3851C26.1004 91.7732 25.5599 92.2722 25.1001 92.8622C25.545 93.4043 26.0573 93.8671 26.6201 94.2354L218.51 222.087C220.405 223.191 222.498 223.766 224.62 223.766C226.743 223.766 228.835 223.191 230.73 222.087L335.62 152.201C336.214 151.817 336.751 151.327 337.21 150.747C336.772 150.195 336.263 149.724 335.7 149.35L143.81 21.5103Z" fill="#455A64"/>
<path d="M65 53.4299L83.59 41.0474C84.7 40.3089 84.75 39.1549 83.71 38.4509C83.1007 38.1133 82.4312 37.9457 81.7554 37.9617C81.0797 37.9778 80.4167 38.177 79.82 38.5433L61.2 50.9026C60.09 51.6412 60.03 52.8067 61.07 53.4991C61.6827 53.8489 62.3588 54.0251 63.0422 54.013C63.7257 54.001 64.3968 53.8011 65 53.4299Z" fill="#263238"/>
<path d="M96.89 32.1732C97.1196 32.0878 97.3197 31.9206 97.4617 31.6956C97.6037 31.4706 97.6802 31.1994 97.6802 30.9211C97.6802 30.6428 97.6037 30.3716 97.4617 30.1466C97.3197 29.9217 97.1196 29.7544 96.89 29.669C96.3058 29.3274 95.66 29.1493 95.005 29.1493C94.35 29.1493 93.7043 29.3274 93.12 29.669C92.8905 29.7544 92.6903 29.9217 92.5483 30.1466C92.4063 30.3716 92.3298 30.6428 92.3298 30.9211C92.3298 31.1994 92.4063 31.4706 92.5483 31.6956C92.6903 31.9206 92.8905 32.0878 93.12 32.1732C93.7043 32.5149 94.35 32.6929 95.005 32.6929C95.66 32.6929 96.3058 32.5149 96.89 32.1732Z" fill="#263238"/>
<path d="M104.43 27.1418C104.66 27.0564 104.86 26.8892 105.002 26.6642C105.144 26.4392 105.22 26.1681 105.22 25.8897C105.22 25.6114 105.144 25.3402 105.002 25.1152C104.86 24.8903 104.66 24.723 104.43 24.6376C103.846 24.2959 103.2 24.1179 102.545 24.1179C101.89 24.1179 101.244 24.2959 100.66 24.6376C100.43 24.723 100.23 24.8903 100.088 25.1152C99.9464 25.3402 99.8699 25.6114 99.8699 25.8897C99.8699 26.1681 99.9464 26.4392 100.088 26.6642C100.23 26.8892 100.43 27.0564 100.66 27.1418C101.243 27.4889 101.889 27.6701 102.545 27.6701C103.201 27.6701 103.847 27.4889 104.43 27.1418Z" fill="#263238"/>
<path d="M44.14 67.2779C44.3696 67.1925 44.5697 67.0253 44.7117 66.8003C44.8537 66.5753 44.9302 66.3042 44.9302 66.0258C44.9302 65.7475 44.8537 65.4763 44.7117 65.2513C44.5697 65.0264 44.3696 64.8591 44.14 64.7737C43.5558 64.4321 42.91 64.254 42.255 64.254C41.6 64.254 40.9543 64.4321 40.37 64.7737C40.1405 64.8591 39.9403 65.0264 39.7983 65.2513C39.6563 65.4763 39.5798 65.7475 39.5798 66.0258C39.5798 66.3042 39.6563 66.5753 39.7983 66.8003C39.9403 67.0253 40.1405 67.1925 40.37 67.2779C40.9528 67.625 41.5992 67.8062 42.255 67.8062C42.9109 67.8062 43.5572 67.625 44.14 67.2779Z" fill="#263238"/>
<path d="M51.6701 62.2927C51.8984 62.2041 52.0968 62.035 52.2373 61.8093C52.3779 61.5836 52.4535 61.3127 52.4535 61.0348C52.4535 60.7569 52.3779 60.486 52.2373 60.2603C52.0968 60.0346 51.8984 59.8655 51.6701 59.7769C51.0858 59.4353 50.4401 59.2572 49.7851 59.2572C49.1301 59.2572 48.4843 59.4353 47.9001 59.7769C47.6718 59.8655 47.4734 60.0346 47.3329 60.2603C47.1923 60.486 47.1167 60.7569 47.1167 61.0348C47.1167 61.3127 47.1923 61.5836 47.3329 61.8093C47.4734 62.035 47.6718 62.2041 47.9001 62.2927C48.4843 62.6343 49.1301 62.8124 49.7851 62.8124C50.4401 62.8124 51.0858 62.6343 51.6701 62.2927Z" fill="#263238"/>
<path d="M77.9201 139.045C78.4914 139.46 78.9701 140.024 79.3176 140.691C79.665 141.359 79.8714 142.111 79.9201 142.888C79.9446 143.152 79.9053 143.42 79.8065 143.66C79.7077 143.9 79.5532 144.104 79.3601 144.25C79.1201 144.4 78.2101 145.034 77.9601 145.196C77.7243 145.311 77.4668 145.353 77.2127 145.319C76.9586 145.284 76.7165 145.174 76.5101 145L50.3901 127.597C49.8192 127.18 49.3409 126.614 48.9936 125.944C48.6463 125.275 48.4396 124.521 48.3901 123.743C48.3717 123.492 48.4088 123.239 48.498 123.009C48.5872 122.779 48.7255 122.579 48.9001 122.428C49.1501 122.243 50.1001 121.608 50.3501 121.447C50.5854 121.333 50.8421 121.29 51.0959 121.322C51.3496 121.354 51.592 121.461 51.8001 121.631L77.9201 139.045Z" fill="#6879C8"/>
<path opacity="0.4" d="M77.9201 139.045C78.4914 139.46 78.9701 140.024 79.3176 140.691C79.665 141.359 79.8714 142.111 79.9201 142.888C79.9446 143.152 79.9053 143.42 79.8065 143.66C79.7077 143.9 79.5532 144.104 79.3601 144.25C79.1201 144.4 78.2101 145.034 77.9601 145.196C77.7243 145.311 77.4668 145.353 77.2127 145.319C76.9586 145.284 76.7165 145.174 76.5101 145L50.3901 127.597C49.8192 127.18 49.3409 126.614 48.9936 125.944C48.6463 125.275 48.4396 124.521 48.3901 123.743C48.3717 123.492 48.4088 123.239 48.498 123.009C48.5872 122.779 48.7255 122.579 48.9001 122.428C49.1501 122.243 50.1001 121.608 50.3501 121.447C50.5854 121.333 50.8421 121.29 51.0959 121.322C51.3496 121.354 51.592 121.461 51.8001 121.631L77.9201 139.045Z" fill="black"/>
<path d="M76.5201 139.98L50.3901 122.566C49.2801 121.827 48.3901 122.358 48.3901 123.72C48.4396 124.498 48.6463 125.252 48.9936 125.921C49.3409 126.591 49.8192 127.157 50.3901 127.574L76.5201 144.977C77.6301 145.715 78.5201 145.196 78.5201 143.823C78.4714 143.046 78.265 142.293 77.9176 141.626C77.5701 140.958 77.0914 140.394 76.5201 139.98Z" fill="#6879C8"/>
<path opacity="0.3" d="M76.5201 139.98L50.3901 122.566C49.2801 121.827 48.3901 122.358 48.3901 123.72C48.4396 124.498 48.6463 125.252 48.9936 125.921C49.3409 126.591 49.8192 127.157 50.3901 127.574L76.5201 144.977C77.6301 145.715 78.5201 145.196 78.5201 143.823C78.4714 143.046 78.265 142.293 77.9176 141.626C77.5701 140.958 77.0914 140.394 76.5201 139.98Z" fill="black"/>
<path d="M43.0002 115.746C43.5715 116.161 44.0502 116.724 44.3976 117.392C44.7451 118.06 44.9515 118.812 45.0002 119.589C45.0217 119.851 44.981 120.116 44.8823 120.353C44.7837 120.591 44.6308 120.794 44.4402 120.939L43.0402 121.885C42.8059 122.005 42.5483 122.051 42.2936 122.019C42.0389 121.986 41.7962 121.877 41.5902 121.701L29.2702 113.496C28.6987 113.079 28.22 112.513 27.8726 111.843C27.5253 111.174 27.3189 110.42 27.2702 109.641C27.2488 109.39 27.2846 109.136 27.374 108.905C27.4634 108.675 27.6034 108.475 27.7802 108.326C28.0302 108.141 28.9802 107.506 29.2302 107.345C29.4662 107.231 29.7235 107.19 29.9774 107.224C30.2314 107.258 30.4734 107.368 30.6802 107.541L43.0002 115.746Z" fill="#6879C8"/>
<path opacity="0.4" d="M43.0002 115.746C43.5715 116.161 44.0502 116.724 44.3976 117.392C44.7451 118.06 44.9515 118.812 45.0002 119.589C45.0217 119.851 44.981 120.116 44.8823 120.353C44.7837 120.591 44.6308 120.794 44.4402 120.939L43.0402 121.885C42.8059 122.005 42.5483 122.051 42.2936 122.019C42.0389 121.986 41.7962 121.877 41.5902 121.701L29.2702 113.496C28.6987 113.079 28.22 112.513 27.8726 111.843C27.5253 111.174 27.3189 110.42 27.2702 109.641C27.2488 109.39 27.2846 109.136 27.374 108.905C27.4634 108.675 27.6034 108.475 27.7802 108.326C28.0302 108.141 28.9802 107.506 29.2302 107.345C29.4662 107.231 29.7235 107.19 29.9774 107.224C30.2314 107.258 30.4734 107.368 30.6802 107.541L43.0002 115.746Z" fill="black"/>
<path d="M41.55 116.681L29.23 108.476C28.12 107.737 27.23 108.257 27.23 109.63C27.2787 110.408 27.4851 111.162 27.8324 111.832C28.1798 112.501 28.6585 113.067 29.23 113.484L41.55 121.689C42.66 122.428 43.55 121.897 43.55 120.535C43.5036 119.756 43.2982 119.001 42.9507 118.331C42.6031 117.661 42.1231 117.096 41.55 116.681Z" fill="#6879C8"/>
<path opacity="0.3" d="M41.55 116.681L29.23 108.476C28.12 107.737 27.23 108.257 27.23 109.63C27.2787 110.408 27.4851 111.162 27.8324 111.832C28.1798 112.501 28.6585 113.067 29.23 113.484L41.55 121.689C42.66 122.428 43.55 121.897 43.55 120.535C43.5036 119.756 43.2982 119.001 42.9507 118.331C42.6031 117.661 42.1231 117.096 41.55 116.681Z" fill="black"/>
<path opacity="0.25" d="M229.55 214.794C227.515 214.83 225.506 214.257 223.72 213.132L199.88 197.253C198.9 196.74 198.069 195.912 197.486 194.869C196.903 193.825 196.593 192.609 196.593 191.368C196.593 190.126 196.903 188.91 197.486 187.867C198.069 186.823 198.9 185.995 199.88 185.482L276.53 134.418C278.33 133.334 280.33 132.768 282.36 132.768C284.39 132.768 286.39 133.334 288.19 134.418L312 150.366C312.984 150.873 313.82 151.698 314.406 152.742C314.993 153.785 315.305 155.002 315.305 156.246C315.305 157.489 314.993 158.706 314.406 159.75C313.82 160.793 312.984 161.618 312 162.125L235.36 213.19C233.574 214.29 231.574 214.842 229.55 214.794Z" fill="black"/>
<path d="M312.32 144.527C312.274 143.903 312.082 143.305 311.765 142.797C311.448 142.289 311.018 141.89 310.52 141.642L286.69 125.763C285.348 124.977 283.865 124.568 282.36 124.568C280.855 124.568 279.372 124.977 278.03 125.763L201.38 176.827C200.884 177.077 200.455 177.477 200.14 177.985C199.825 178.493 199.635 179.09 199.59 179.712V191.333C199.635 191.955 199.825 192.552 200.14 193.06C200.455 193.568 200.884 193.968 201.38 194.218L225.22 210.097C226.562 210.883 228.045 211.292 229.55 211.292C231.055 211.292 232.538 210.883 233.88 210.097L310.52 159.033C311.018 158.784 311.448 158.385 311.765 157.877C312.082 157.369 312.274 156.771 312.32 156.148V144.527Z" fill="#6879C8"/>
<path opacity="0.15" d="M310.52 141.642L286.69 125.763C285.348 124.977 283.864 124.568 282.36 124.568C280.855 124.568 279.372 124.977 278.03 125.763L229.55 158.075V211.297C231.055 211.343 232.545 210.946 233.88 210.143L310.52 159.079C311.018 158.831 311.448 158.431 311.765 157.923C312.082 157.415 312.274 156.817 312.32 156.194V144.527C312.274 143.903 312.082 143.305 311.765 142.797C311.448 142.289 311.018 141.89 310.52 141.642Z" fill="black"/>
<path opacity="0.25" d="M201.38 176.827C200.884 177.077 200.455 177.477 200.14 177.985C199.825 178.493 199.635 179.09 199.59 179.712V191.333C199.635 191.956 199.825 192.552 200.14 193.06C200.455 193.568 200.884 193.968 201.38 194.218L225.22 210.097C226.555 210.9 228.045 211.297 229.55 211.251V158.063L201.38 176.827Z" fill="black"/>
<path d="M225.22 198.476L201.38 182.597C198.99 181.005 198.99 178.42 201.38 176.827L278 125.763C279.342 124.977 280.825 124.568 282.33 124.568C283.835 124.568 285.318 124.977 286.66 125.763L310.49 141.642C312.88 143.234 312.88 145.819 310.49 147.412L233.85 198.476C232.512 199.256 231.034 199.663 229.535 199.663C228.036 199.663 226.558 199.256 225.22 198.476Z" fill="#6879C8"/>
<g opacity="0.2">
<path d="M225.22 198.476L201.38 182.597C198.99 181.005 198.99 178.42 201.38 176.827L278 125.763C279.342 124.977 280.825 124.568 282.33 124.568C283.835 124.568 285.318 124.977 286.66 125.763L310.49 141.642C312.88 143.234 312.88 145.819 310.49 147.412L233.85 198.476C232.512 199.256 231.034 199.663 229.535 199.663C228.036 199.663 226.558 199.256 225.22 198.476Z" fill="white"/>
</g>
<path d="M225.914 174.932C225.272 174.583 224.568 174.447 223.805 174.523C223.041 174.6 222.283 174.889 221.529 175.389C221.016 175.729 220.656 176.064 220.448 176.394C220.236 176.721 220.161 177.03 220.224 177.322C220.291 177.61 220.485 177.86 220.804 178.072C221.06 178.254 221.347 178.371 221.666 178.423C221.99 178.471 222.333 178.471 222.696 178.423C223.053 178.371 223.428 178.286 223.819 178.168C224.206 178.046 224.597 177.902 224.994 177.735L226.647 177.062C227.439 176.729 228.227 176.463 229.01 176.264C229.793 176.065 230.559 175.951 231.308 175.923C232.057 175.894 232.779 175.966 233.475 176.139C234.176 176.309 234.838 176.597 235.462 177.004C236.365 177.61 236.921 178.286 237.129 179.033C237.337 179.774 237.194 180.551 236.701 181.365C236.208 182.173 235.358 182.977 234.149 183.778C232.951 184.573 231.723 185.144 230.467 185.49C229.215 185.833 227.98 185.931 226.763 185.783C225.545 185.629 224.39 185.206 223.297 184.514L226.335 182.5C226.866 182.807 227.425 182.988 228.009 183.043C228.594 183.091 229.184 183.03 229.778 182.86C230.373 182.684 230.94 182.416 231.482 182.057C232.013 181.705 232.398 181.347 232.634 180.985C232.876 180.62 232.968 180.274 232.91 179.947C232.852 179.62 232.644 179.338 232.286 179.1C231.953 178.879 231.574 178.759 231.148 178.74C230.728 178.717 230.249 178.778 229.713 178.923C229.181 179.064 228.58 179.27 227.908 179.543L225.885 180.346C224.329 180.974 222.865 181.314 221.492 181.365C220.12 181.416 218.887 181.076 217.795 180.346C216.892 179.753 216.345 179.073 216.157 178.307C215.973 177.538 216.118 176.746 216.592 175.932C217.066 175.118 217.844 174.352 218.926 173.634C220.028 172.903 221.178 172.39 222.377 172.096C223.58 171.797 224.747 171.719 225.878 171.86C227.009 172.001 228.024 172.36 228.923 172.937L225.914 174.932ZM228.99 170.662L226.402 168.945L238.595 160.858L241.183 162.575L236.638 165.589L248.896 173.719L245.793 175.777L233.535 167.647L228.99 170.662ZM256.194 168.879L252.831 171.11L243.109 157.864L247.154 155.182L267.119 161.634L263.755 163.865L248.583 158.735L248.467 158.812L256.194 168.879ZM250.148 165.148L258.094 159.879L260.544 161.504L252.599 166.773L250.148 165.148ZM268.906 160.449L254.059 150.602L259.917 146.718C261.038 145.974 262.195 145.472 263.389 145.213C264.583 144.947 265.752 144.918 266.898 145.126C268.043 145.328 269.106 145.754 270.087 146.405C271.073 147.059 271.709 147.762 271.994 148.516C272.274 149.266 272.199 150.033 271.769 150.819C271.344 151.601 270.561 152.37 269.42 153.126L265.499 155.727L262.976 154.054L266.39 151.79C266.989 151.392 267.405 151.008 267.637 150.636C267.869 150.264 267.917 149.905 267.782 149.559C267.652 149.21 267.342 148.873 266.854 148.549C266.361 148.222 265.847 148.012 265.31 147.92C264.778 147.823 264.225 147.851 263.65 148.001C263.075 148.145 262.485 148.418 261.881 148.819L259.764 150.222L272.045 158.367L268.906 160.449ZM270.167 150.65L280.613 152.684L277.148 154.982L266.782 152.896L270.167 150.65ZM269.478 143.809L266.89 142.092L279.084 134.006L281.671 135.722L277.126 138.737L289.385 146.867L286.282 148.924L274.024 140.794L269.478 143.809Z" fill="white"/>
</svg>
