<svg width="255" height="414" viewBox="0 0 255 414" fill="none" xmlns="http://www.w3.org/2000/svg">
<path opacity="0.25" d="M251.6 367.902C250.034 366.916 248.314 366.3 246.54 366.09C246.48 363.621 245.04 361.163 242.21 359.282C236.42 355.427 227.04 355.427 221.21 359.282C216.21 362.605 215.54 367.706 219.15 371.514C212.84 370.775 206.15 372.022 201.24 375.264C198.24 377.261 196.4 379.707 195.66 382.281C186.66 379.257 175.37 380.238 167.84 385.247C166.507 386.128 165.274 387.198 164.17 388.432C155.93 382.95 142.57 382.95 134.33 388.432C131.24 390.497 129.33 393.048 128.53 395.702C127.343 392.895 125.404 390.604 123 389.17C115.94 384.462 105.11 383.804 96.9999 387.174C95.5833 384.647 93.6363 382.575 91.3399 381.15C83.9099 376.199 72.8299 375.184 63.8699 378.069C65.5899 373.741 63.8699 368.941 58.8699 365.548C53.6299 362.086 46.1499 360.932 39.5099 362.282C42.2299 358.647 41.3199 354.123 36.7799 351.1C31.0899 347.303 21.8699 347.303 16.1799 351.1C14.5903 352.056 13.2845 353.539 12.4299 355.358C9.35309 354.794 6.20068 355.376 3.42989 357.02C-0.290107 359.501 -0.290107 363.528 3.42989 366.009C5.52196 367.233 7.83443 367.871 10.1799 367.871C12.5254 367.871 14.8378 367.233 16.9299 366.009C17.1099 365.891 17.2835 365.76 17.4499 365.617C21.0403 367.378 24.9612 368.049 28.8399 367.567C23.7699 372.622 24.5699 379.511 31.2699 383.977C36.8299 387.681 44.9199 388.662 51.8399 386.954C48.6899 392.644 50.5099 399.279 57.3699 403.838C66.0299 409.608 79.6399 410.046 89.0699 405.165C90.2272 406.76 91.6309 408.095 93.2099 409.1C100.92 414.235 113.1 414.57 121.39 410.104C121.57 410.242 121.76 410.392 121.96 410.519C124.148 411.805 126.569 412.475 129.025 412.475C131.481 412.475 133.902 411.805 136.09 410.519C136.404 410.309 136.704 410.074 136.99 409.815C145.24 413.773 156.79 413.277 164.21 408.35C164.926 407.869 165.611 407.329 166.26 406.734C166.77 407.149 167.32 407.553 167.9 407.888C177.29 414.143 192.51 414.143 201.9 407.888C206.22 405.015 208.52 401.322 208.9 397.56C216.06 399.256 224.34 398.206 230.06 394.386C237.58 389.378 237.96 381.427 231.22 376.107C232.756 376.156 234.293 376.037 235.81 375.749C236.314 376.367 236.898 376.892 237.54 377.307C239.728 378.587 242.147 379.255 244.6 379.255C247.053 379.255 249.472 378.587 251.66 377.307C255.5 374.722 255.5 370.498 251.6 367.902Z" fill="black"/>
<path d="M127.5 396.579C159.632 396.579 185.68 384.256 185.68 369.056C185.68 353.856 159.632 341.533 127.5 341.533C95.3679 341.533 69.3198 353.856 69.3198 369.056C69.3198 384.256 95.3679 396.579 127.5 396.579Z" fill="#6879C8"/>
<path d="M127.5 396.579C159.632 396.579 185.68 384.256 185.68 369.056C185.68 353.856 159.632 341.533 127.5 341.533C95.3679 341.533 69.3198 353.856 69.3198 369.056C69.3198 384.256 95.3679 396.579 127.5 396.579Z" fill="#6879C8"/>
<g opacity="0.9">
<path d="M127.5 396.579C159.632 396.579 185.68 384.256 185.68 369.056C185.68 353.856 159.632 341.533 127.5 341.533C95.3679 341.533 69.3198 353.856 69.3198 369.056C69.3198 384.256 95.3679 396.579 127.5 396.579Z" fill="white"/>
</g>
<path d="M66.3697 350.661C66.5028 342.853 69.2843 335.416 74.1167 329.948C78.949 324.48 85.4469 321.417 92.2147 321.417C98.9825 321.417 105.48 324.48 110.313 329.948C115.145 335.416 117.927 342.853 118.06 350.661C118.06 350.95 118.06 351.204 118.06 351.492C118.06 351.781 118.06 352.035 118.06 352.323C117.76 356.454 115.24 360.505 110.49 363.678C100.41 370.406 84.0197 370.406 73.9097 363.678C69.1897 360.505 66.6697 356.454 66.3697 352.323C66.3697 352.035 66.3697 351.781 66.3697 351.492C66.3697 351.204 66.3497 350.95 66.3697 350.661Z" fill="#6879C8"/>
<g opacity="0.8">
<path d="M66.3697 350.661C66.5028 342.853 69.2843 335.416 74.1167 329.948C78.949 324.48 85.4469 321.417 92.2147 321.417C98.9825 321.417 105.48 324.48 110.313 329.948C115.145 335.416 117.927 342.853 118.06 350.661C118.06 350.95 118.06 351.204 118.06 351.492C118.06 351.781 118.06 352.035 118.06 352.323C117.76 356.454 115.24 360.505 110.49 363.678C100.41 370.406 84.0197 370.406 73.9097 363.678C69.1897 360.505 66.6697 356.454 66.3697 352.323C66.3697 352.035 66.3697 351.781 66.3697 351.492C66.3697 351.204 66.3497 350.95 66.3697 350.661Z" fill="white"/>
</g>
<g style="mix-blend-mode:lighten" opacity="0.3">
<path d="M80.9998 324.627C84.8841 322.457 89.1777 321.446 93.4882 321.685C97.7986 321.924 101.988 323.406 105.675 325.996C109.361 328.585 112.426 332.199 114.589 336.508C116.753 340.817 117.946 345.683 118.06 350.661C118.06 350.95 118.06 351.204 118.06 351.492C118.06 351.781 118.06 352.035 118.06 352.323C117.76 356.454 115.24 360.505 110.49 363.678C106.469 366.218 102.049 367.807 97.4898 368.352C104.2 367.014 108.49 358.37 106.49 348.826C104.12 337.76 94.4198 321.765 80.9998 324.627Z" fill="white"/>
</g>
<path opacity="0.1" d="M66.3699 352.323C66.3699 352.034 66.3699 351.781 66.3699 351.492C66.3699 351.204 66.3699 350.95 66.3699 350.661C66.4646 346.563 67.2936 342.532 68.8047 338.822C70.3158 335.112 72.4762 331.804 75.1499 329.104C72.3399 332.44 66.0899 344.995 72.8799 354.573C77.3499 360.863 98.5399 369.852 115.98 358.301C114.482 360.502 112.615 362.331 110.49 363.678C100.41 370.406 84.0199 370.406 73.9099 363.678C69.1899 360.505 66.6699 356.512 66.3699 352.323Z" fill="#6879C8"/>
<g style="mix-blend-mode:lighten" opacity="0.5">
<path d="M92.4799 328.366C91.3199 331.413 93.5399 335.475 97.4799 337.46C101.42 339.444 105.48 338.614 106.64 335.532C107.8 332.451 105.57 328.424 101.64 326.439C97.7099 324.454 93.6399 325.354 92.4799 328.366Z" fill="white"/>
</g>
<g style="mix-blend-mode:lighten" opacity="0.5">
<path d="M107.45 340.748C106.85 342.329 107.73 344.303 109.45 345.157C111.17 346.011 112.98 345.422 113.58 343.841C114.18 342.26 113.31 340.275 111.63 339.421C110.922 338.962 110.086 338.844 109.303 339.092C108.52 339.341 107.854 339.936 107.45 340.748V340.748Z" fill="white"/>
</g>
<path d="M176.18 351.458C175.786 345.051 173.304 339.054 169.231 334.676C165.159 330.298 159.8 327.864 154.235 327.864C148.669 327.864 143.31 330.298 139.238 334.676C135.166 339.054 132.683 345.051 132.29 351.458C132.29 351.7 132.29 351.919 132.29 352.162C132.29 352.404 132.29 352.623 132.29 352.865C132.54 356.327 134.68 359.789 138.72 362.513C147.28 368.225 161.2 368.225 169.78 362.513C173.78 359.824 175.94 356.374 176.18 352.865C176.18 352.623 176.18 352.404 176.18 352.162C176.18 351.919 176.2 351.7 176.18 351.458Z" fill="#6879C8"/>
<g opacity="0.8">
<path d="M176.18 351.458C175.786 345.051 173.304 339.054 169.231 334.676C165.159 330.298 159.8 327.864 154.235 327.864C148.669 327.864 143.31 330.298 139.238 334.676C135.166 339.054 132.683 345.051 132.29 351.458C132.29 351.7 132.29 351.919 132.29 352.162C132.29 352.404 132.29 352.623 132.29 352.865C132.54 356.327 134.68 359.789 138.72 362.513C147.28 368.225 161.2 368.225 169.78 362.513C173.78 359.824 175.94 356.374 176.18 352.865C176.18 352.623 176.18 352.404 176.18 352.162C176.18 351.919 176.2 351.7 176.18 351.458Z" fill="white"/>
</g>
<g style="mix-blend-mode:lighten" opacity="0.3">
<path d="M163.76 329.347C160.461 327.506 156.815 326.648 153.155 326.852C149.495 327.056 145.938 328.315 142.808 330.514C139.678 332.713 137.075 335.782 135.238 339.44C133.401 343.099 132.387 347.23 132.29 351.458C132.29 351.7 132.29 351.919 132.29 352.161C132.29 352.404 132.29 352.623 132.29 352.865C132.54 356.327 134.68 359.789 138.72 362.513C142.122 364.666 145.861 366.015 149.72 366.483C144.03 365.329 140.34 358.001 142.09 349.9C144.13 340.506 152.37 326.912 163.76 329.347Z" fill="white"/>
</g>
<path opacity="0.1" d="M176.18 352.865C176.18 352.623 176.18 352.404 176.18 352.162C176.18 351.919 176.18 351.7 176.18 351.458C176.102 347.978 175.4 344.555 174.118 341.405C172.835 338.255 171.001 335.446 168.73 333.155C171.12 335.982 176.42 346.645 170.66 354.781C166.87 360.124 148.87 367.752 134.06 357.955C135.332 359.82 136.917 361.371 138.72 362.513C147.28 368.225 161.2 368.225 169.78 362.513C173.79 359.824 175.94 356.374 176.18 352.865Z" fill="#6879C8"/>
<g style="mix-blend-mode:lighten" opacity="0.5">
<path d="M154 332.532C155 335.105 153.09 338.567 149.78 340.241C146.47 341.914 142.98 341.187 142 338.602C141.02 336.017 142.91 332.567 146.22 330.893C149.53 329.22 153 329.97 154 332.532Z" fill="white"/>
</g>
<g style="mix-blend-mode:lighten" opacity="0.5">
<path d="M141.3 343.045C141.641 343.609 141.822 344.282 141.819 344.97C141.815 345.658 141.628 346.328 141.281 346.888C140.935 347.448 140.447 347.871 139.885 348.098C139.322 348.326 138.712 348.347 138.139 348.159C137.565 347.971 137.056 347.583 136.681 347.048C136.306 346.513 136.084 345.858 136.045 345.171C136.006 344.485 136.151 343.801 136.462 343.214C136.772 342.626 137.233 342.164 137.78 341.891C138.38 341.509 139.086 341.416 139.746 341.632C140.405 341.848 140.963 342.356 141.3 343.045Z" fill="white"/>
</g>
<path d="M198.23 356.039C198.035 351.753 196.422 347.717 193.724 344.763C191.026 341.809 187.449 340.162 183.73 340.162C180.011 340.162 176.433 341.809 173.736 344.763C171.038 347.717 169.425 351.753 169.23 356.039C169.23 356.2 169.23 356.339 169.23 356.5C169.23 356.662 169.23 356.812 169.23 356.974C169.4 359.282 170.81 361.59 173.48 363.344C179.15 367.117 188.35 367.117 194.02 363.344C196.68 361.567 198.1 359.293 198.26 356.974C198.26 356.812 198.26 356.662 198.26 356.5C198.26 356.339 198.24 356.2 198.23 356.039Z" fill="#6879C8"/>
<g opacity="0.9">
<path d="M198.23 356.039C198.035 351.753 196.422 347.717 193.724 344.763C191.026 341.809 187.449 340.162 183.73 340.162C180.011 340.162 176.433 341.809 173.736 344.763C171.038 347.717 169.425 351.753 169.23 356.039C169.23 356.2 169.23 356.339 169.23 356.5C169.23 356.662 169.23 356.812 169.23 356.974C169.4 359.282 170.81 361.59 173.48 363.344C179.15 367.117 188.35 367.117 194.02 363.344C196.68 361.567 198.1 359.293 198.26 356.974C198.26 356.812 198.26 356.662 198.26 356.5C198.26 356.339 198.24 356.2 198.23 356.039Z" fill="white"/>
</g>
<g style="mix-blend-mode:lighten" opacity="0.5">
<path d="M190 341.418C187.818 340.197 185.406 339.628 182.984 339.761C180.562 339.894 178.208 340.726 176.137 342.181C174.066 343.635 172.344 345.666 171.128 348.087C169.913 350.508 169.243 353.242 169.18 356.039C169.18 356.2 169.18 356.339 169.18 356.501C169.18 356.662 169.18 356.812 169.18 356.974C169.35 359.282 170.76 361.59 173.43 363.344C175.684 364.77 178.163 365.661 180.72 365.963C176.95 365.213 174.51 360.366 175.67 355C177 348.792 182.48 339.802 190 341.418Z" fill="white"/>
</g>
<path opacity="0.1" d="M198.23 356.974C198.23 356.812 198.23 356.662 198.23 356.501C198.23 356.339 198.23 356.2 198.23 356.039C198.179 353.737 197.714 351.473 196.865 349.389C196.017 347.306 194.803 345.448 193.3 343.933C194.88 345.803 198.39 352.854 194.57 358.232C192.07 361.763 180.17 366.817 170.37 360.332C171.215 361.56 172.261 362.584 173.45 363.344C179.12 367.117 188.32 367.117 193.99 363.344C196.65 361.567 198.07 359.293 198.23 356.974Z" fill="#6879C8"/>
<g style="mix-blend-mode:lighten" opacity="0.5">
<path d="M183.57 343.518C184.22 345.226 182.97 347.511 180.78 348.619C178.59 349.726 176.29 349.242 175.64 347.534C174.99 345.826 176.24 343.541 178.43 342.433C180.62 341.325 182.92 341.81 183.57 343.518Z" fill="white"/>
</g>
<g style="mix-blend-mode:lighten" opacity="0.5">
<path d="M175.16 350.465C175.389 350.836 175.513 351.279 175.515 351.735C175.517 352.19 175.397 352.635 175.171 353.008C174.945 353.382 174.624 353.665 174.253 353.82C173.881 353.974 173.478 353.992 173.097 353.871C172.717 353.75 172.378 353.495 172.128 353.143C171.878 352.791 171.728 352.358 171.7 351.904C171.672 351.449 171.766 350.996 171.97 350.606C172.174 350.216 172.478 349.909 172.84 349.727C173.233 349.475 173.697 349.412 174.13 349.55C174.564 349.688 174.934 350.016 175.16 350.465Z" fill="white"/>
</g>
<path d="M223.18 363.263C223.064 357.315 220.935 351.655 217.248 347.496C213.562 343.336 208.611 341.007 203.455 341.007C198.299 341.007 193.348 343.336 189.661 347.496C185.975 351.655 183.846 357.315 183.73 363.263C183.73 363.482 183.73 363.678 183.73 363.898C183.73 364.117 183.73 364.313 183.73 364.532C183.96 367.683 185.88 370.776 189.51 373.187C197.2 378.323 209.71 378.323 217.42 373.187C221.03 370.776 222.96 367.683 223.18 364.532C223.206 364.11 223.206 363.686 223.18 363.263V363.263Z" fill="#6879C8"/>
<g opacity="0.7">
<path d="M223.18 363.263C223.064 357.315 220.935 351.655 217.248 347.496C213.562 343.336 208.611 341.007 203.455 341.007C198.299 341.007 193.348 343.336 189.661 347.496C185.975 351.655 183.846 357.315 183.73 363.263C183.73 363.482 183.73 363.678 183.73 363.898C183.73 364.117 183.73 364.313 183.73 364.532C183.96 367.683 185.88 370.776 189.51 373.187C197.2 378.323 209.71 378.323 217.42 373.187C221.03 370.776 222.96 367.683 223.18 364.532C223.206 364.11 223.206 363.686 223.18 363.263V363.263Z" fill="white"/>
</g>
<g style="mix-blend-mode:lighten" opacity="0.3">
<path d="M212 343.391C209.035 341.735 205.757 340.963 202.467 341.145C199.177 341.328 195.979 342.459 193.165 344.435C190.351 346.412 188.011 349.171 186.36 352.46C184.708 355.749 183.797 359.463 183.71 363.263C183.71 363.482 183.71 363.678 183.71 363.898C183.71 364.117 183.71 364.313 183.71 364.532C183.94 367.683 185.86 370.775 189.49 373.187C192.551 375.125 195.917 376.337 199.39 376.753C194.27 375.738 190.95 369.137 192.53 361.855C194.37 353.419 201.77 341.21 212 343.391Z" fill="white"/>
</g>
<path opacity="0.1" d="M223.18 364.59C223.206 364.167 223.206 363.743 223.18 363.321C223.108 360.193 222.476 357.115 221.322 354.283C220.169 351.451 218.521 348.925 216.48 346.865C218.62 349.403 223.39 358.993 218.21 366.298C214.8 371.11 198.63 377.965 185.32 369.148C186.46 370.829 187.886 372.224 189.51 373.245C197.2 378.38 209.71 378.38 217.42 373.245C221 370.775 223 367.683 223.18 364.59Z" fill="#6879C8"/>
<g style="mix-blend-mode:lighten" opacity="0.5">
<path d="M203.26 346.241C204.14 348.549 202.44 351.677 199.47 353.165C196.5 354.654 193.36 354.019 192.47 351.7C191.58 349.38 193.28 346.276 196.26 344.776C199.24 343.276 202.37 343.922 203.26 346.241Z" fill="white"/>
</g>
<g style="mix-blend-mode:lighten" opacity="0.5">
<path d="M191.83 355.693C192.137 356.197 192.302 356.798 192.302 357.415C192.302 358.031 192.136 358.633 191.828 359.137C191.52 359.64 191.085 360.022 190.582 360.229C190.078 360.436 189.532 360.458 189.017 360.293C188.503 360.127 188.045 359.782 187.707 359.305C187.369 358.827 187.167 358.241 187.129 357.626C187.091 357.011 187.218 356.398 187.494 355.87C187.77 355.342 188.181 354.925 188.67 354.677C189.207 354.338 189.838 354.254 190.429 354.443C191.019 354.633 191.522 355.081 191.83 355.693Z" fill="white"/>
</g>
<path d="M154.79 297.208C154.8 301.97 153.911 306.677 152.184 311.002C150.457 315.327 147.934 319.165 144.79 322.25C142.697 324.231 141.006 326.716 139.833 329.53C138.66 332.345 138.034 335.421 138 338.544V395.575C138 397.571 136.87 399.579 134.58 401.103C133.237 401.961 131.786 402.572 130.28 402.914C127.64 403.531 124.92 403.531 122.28 402.914C120.778 402.567 119.331 401.956 117.99 401.103C115.71 399.579 114.56 397.571 114.56 395.575V338.394C114.532 335.3 113.918 332.251 112.761 329.46C111.603 326.669 109.931 324.204 107.86 322.238C104.656 319.13 102.088 315.242 100.342 310.852C98.5953 306.462 97.7135 301.68 97.7598 296.85C97.9843 288.278 101.101 280.145 106.445 274.185C111.79 268.225 118.94 264.909 126.372 264.944C133.804 264.978 140.93 268.361 146.233 274.37C151.536 280.38 154.595 288.541 154.76 297.116L154.79 297.208Z" fill="#6879C8"/>
<g opacity="0.5">
<path d="M154.79 297.208C154.8 301.97 153.911 306.677 152.184 311.002C150.457 315.327 147.934 319.165 144.79 322.25C142.697 324.231 141.006 326.716 139.833 329.53C138.66 332.345 138.034 335.421 138 338.544V395.575C138 397.571 136.87 399.579 134.58 401.103C133.237 401.961 131.786 402.572 130.28 402.914C127.64 403.531 124.92 403.531 122.28 402.914C120.778 402.567 119.331 401.956 117.99 401.103C115.71 399.579 114.56 397.571 114.56 395.575V338.394C114.532 335.3 113.918 332.251 112.761 329.46C111.603 326.669 109.931 324.204 107.86 322.238C104.656 319.13 102.088 315.242 100.342 310.852C98.5953 306.462 97.7135 301.68 97.7598 296.85C97.9843 288.278 101.101 280.145 106.445 274.185C111.79 268.225 118.94 264.909 126.372 264.944C133.804 264.978 140.93 268.361 146.233 274.37C151.536 280.38 154.595 288.541 154.76 297.116L154.79 297.208Z" fill="white"/>
</g>
<path d="M142.19 297.208C142.188 300.137 141.578 303.022 140.411 305.622C139.243 308.223 137.552 310.462 135.48 312.152C133.836 313.563 132.506 315.405 131.6 317.526C130.694 319.647 130.238 321.986 130.27 324.35V395.575C130.281 396.189 130.185 396.799 129.989 397.37C129.792 397.941 129.499 398.46 129.127 398.899C128.754 399.337 128.31 399.686 127.819 399.923C127.329 400.161 126.802 400.283 126.27 400.283H126.19C125.663 400.274 125.143 400.145 124.659 399.903C124.175 399.662 123.738 399.312 123.372 398.874C123.006 398.437 122.718 397.92 122.525 397.354C122.333 396.788 122.239 396.183 122.25 395.575V324.119C122.268 321.787 121.804 319.484 120.896 317.401C119.989 315.317 118.663 313.514 117.03 312.141C114.897 310.4 113.17 308.079 112.002 305.384C110.833 302.688 110.259 299.702 110.33 296.689C110.475 291.888 112.245 287.344 115.259 284.032C118.274 280.719 122.293 278.902 126.455 278.97C130.617 279.038 134.591 280.986 137.523 284.395C140.455 287.805 142.113 292.405 142.14 297.208H142.19Z" fill="#6879C8"/>
<g opacity="0.7">
<path d="M142.19 297.208C142.188 300.137 141.578 303.022 140.411 305.622C139.243 308.223 137.552 310.462 135.48 312.152C133.836 313.563 132.506 315.405 131.6 317.526C130.694 319.647 130.238 321.986 130.27 324.35V395.575C130.281 396.189 130.185 396.799 129.989 397.37C129.792 397.941 129.499 398.46 129.127 398.899C128.754 399.337 128.31 399.686 127.819 399.923C127.329 400.161 126.802 400.283 126.27 400.283H126.19C125.663 400.274 125.143 400.145 124.659 399.903C124.175 399.662 123.738 399.312 123.372 398.874C123.006 398.437 122.718 397.92 122.525 397.354C122.333 396.788 122.239 396.183 122.25 395.575V324.119C122.268 321.787 121.804 319.484 120.896 317.401C119.989 315.317 118.663 313.514 117.03 312.141C114.897 310.4 113.17 308.079 112.002 305.384C110.833 302.688 110.259 299.702 110.33 296.689C110.475 291.888 112.245 287.344 115.259 284.032C118.274 280.719 122.293 278.902 126.455 278.97C130.617 279.038 134.591 280.986 137.523 284.395C140.455 287.805 142.113 292.405 142.14 297.208H142.19Z" fill="white"/>
</g>
<g opacity="0.7">
<path d="M130.75 309.36C130.75 307.664 131.186 306.006 132.002 304.596C132.818 303.186 133.979 302.087 135.336 301.438C136.694 300.789 138.188 300.619 139.629 300.95C141.071 301.281 142.394 302.098 143.434 303.297C144.473 304.496 145.18 306.024 145.467 307.687C145.754 309.35 145.607 311.074 145.044 312.641C144.482 314.208 143.53 315.547 142.308 316.489C141.086 317.431 139.649 317.934 138.18 317.934C136.209 317.934 134.319 317.03 132.926 315.423C131.533 313.815 130.75 311.634 130.75 309.36V309.36Z" fill="white"/>
</g>
<g opacity="0.7">
<path d="M133.64 292.292C133.64 291.256 133.906 290.243 134.405 289.381C134.904 288.52 135.613 287.848 136.443 287.452C137.272 287.055 138.185 286.951 139.066 287.153C139.946 287.356 140.755 287.855 141.39 288.587C142.025 289.32 142.457 290.253 142.633 291.27C142.808 292.286 142.718 293.339 142.374 294.297C142.031 295.254 141.449 296.072 140.702 296.648C139.956 297.224 139.078 297.531 138.18 297.531C137.584 297.531 136.993 297.396 136.443 297.132C135.892 296.869 135.391 296.483 134.97 295.997C134.548 295.51 134.214 294.932 133.985 294.297C133.757 293.661 133.64 292.98 133.64 292.292V292.292Z" fill="white"/>
</g>
<g opacity="0.7">
<path d="M125 283.925C125 283.412 125.132 282.91 125.379 282.483C125.626 282.056 125.978 281.723 126.389 281.527C126.8 281.33 127.252 281.279 127.689 281.379C128.125 281.479 128.526 281.726 128.841 282.089C129.155 282.453 129.37 282.915 129.457 283.419C129.543 283.923 129.499 284.445 129.328 284.919C129.158 285.394 128.87 285.799 128.5 286.084C128.13 286.37 127.695 286.522 127.25 286.522C126.653 286.522 126.081 286.248 125.659 285.761C125.237 285.275 125 284.614 125 283.925V283.925Z" fill="white"/>
</g>
<g opacity="0.7">
<path d="M107 287.053C106.998 285.658 107.354 284.293 108.025 283.132C108.695 281.971 109.648 281.066 110.765 280.53C111.881 279.995 113.11 279.854 114.296 280.124C115.481 280.395 116.571 281.066 117.427 282.051C118.282 283.037 118.865 284.293 119.102 285.661C119.338 287.03 119.218 288.448 118.756 289.737C118.293 291.026 117.51 292.128 116.505 292.903C115.5 293.678 114.319 294.092 113.11 294.092C111.492 294.089 109.941 293.347 108.796 292.028C107.651 290.709 107.005 288.92 107 287.053V287.053Z" fill="white"/>
</g>
<g opacity="0.7">
<path d="M106 299.781C105.998 300.437 106.164 301.078 106.479 301.625C106.793 302.171 107.24 302.597 107.765 302.849C108.289 303.102 108.866 303.169 109.424 303.043C109.981 302.916 110.493 302.602 110.896 302.139C111.298 301.676 111.572 301.086 111.684 300.443C111.795 299.801 111.739 299.134 111.522 298.528C111.305 297.922 110.937 297.404 110.465 297.04C109.993 296.675 109.438 296.481 108.87 296.481C108.11 296.481 107.382 296.828 106.844 297.447C106.306 298.066 106.002 298.905 106 299.781V299.781Z" fill="white"/>
</g>
<g opacity="0.7">
<path d="M108.11 311.344C108.11 310.283 108.383 309.246 108.894 308.363C109.404 307.481 110.131 306.793 110.98 306.387C111.83 305.981 112.765 305.874 113.667 306.082C114.569 306.289 115.398 306.8 116.048 307.55C116.698 308.301 117.141 309.257 117.321 310.298C117.5 311.339 117.408 312.417 117.056 313.398C116.704 314.379 116.108 315.217 115.343 315.806C114.579 316.396 113.68 316.711 112.76 316.711C111.527 316.711 110.344 316.145 109.472 315.139C108.6 314.133 108.11 312.768 108.11 311.344V311.344Z" fill="white"/>
</g>
<g opacity="0.7">
<path d="M119.2 319.446C119.2 318.571 119.425 317.717 119.845 316.99C120.266 316.263 120.864 315.697 121.564 315.362C122.264 315.028 123.034 314.94 123.777 315.111C124.52 315.281 125.203 315.702 125.738 316.32C126.274 316.938 126.639 317.726 126.786 318.583C126.934 319.441 126.858 320.329 126.568 321.137C126.279 321.945 125.788 322.635 125.158 323.121C124.528 323.606 123.787 323.865 123.03 323.865C122.014 323.865 121.04 323.4 120.322 322.571C119.603 321.742 119.2 320.618 119.2 319.446V319.446Z" fill="white"/>
</g>
<g opacity="0.7">
<path d="M100.54 292.292C100.53 291.833 100.639 291.381 100.852 290.994C101.066 290.607 101.375 290.303 101.739 290.119C102.104 289.935 102.507 289.881 102.899 289.964C103.29 290.046 103.651 290.261 103.936 290.582C104.22 290.902 104.416 291.313 104.497 291.762C104.578 292.212 104.542 292.679 104.392 293.104C104.242 293.529 103.986 293.893 103.656 294.149C103.326 294.405 102.938 294.542 102.54 294.542C102.28 294.55 102.021 294.497 101.778 294.388C101.536 294.278 101.315 294.114 101.129 293.904C100.942 293.694 100.794 293.444 100.693 293.167C100.592 292.89 100.54 292.592 100.54 292.292V292.292Z" fill="white"/>
</g>
<g opacity="0.7">
<path d="M143 282.979C143 282.393 143.15 281.819 143.433 281.332C143.715 280.844 144.117 280.464 144.586 280.239C145.056 280.015 145.573 279.956 146.071 280.07C146.57 280.185 147.028 280.467 147.387 280.882C147.746 281.297 147.991 281.825 148.09 282.401C148.19 282.976 148.139 283.572 147.944 284.114C147.75 284.656 147.42 285.119 146.998 285.445C146.575 285.771 146.078 285.945 145.57 285.945C144.889 285.942 144.237 285.629 143.755 285.073C143.274 284.517 143.002 283.765 143 282.979V282.979Z" fill="white"/>
</g>
<g opacity="0.7">
<path d="M148.15 300.52C149.58 300.52 150.74 299.182 150.74 297.531C150.74 295.88 149.58 294.542 148.15 294.542C146.719 294.542 145.56 295.88 145.56 297.531C145.56 299.182 146.719 300.52 148.15 300.52Z" fill="white"/>
</g>
<g opacity="0.7">
<path d="M118.75 299.966C118.75 299.375 118.902 298.797 119.186 298.305C119.471 297.814 119.875 297.431 120.349 297.205C120.822 296.978 121.343 296.919 121.845 297.035C122.347 297.15 122.809 297.435 123.171 297.853C123.533 298.271 123.78 298.803 123.88 299.383C123.98 299.963 123.929 300.564 123.733 301.11C123.537 301.656 123.205 302.123 122.779 302.451C122.353 302.78 121.852 302.955 121.34 302.955C120.653 302.955 119.994 302.64 119.508 302.079C119.023 301.519 118.75 300.759 118.75 299.966V299.966Z" fill="white"/>
</g>
<path d="M243.75 363.321C243.75 359.648 242.485 356.126 240.235 353.529C237.985 350.932 234.932 349.473 231.75 349.473C228.567 349.473 225.515 350.932 223.264 353.529C221.014 356.126 219.75 359.648 219.75 363.321C219.75 363.448 219.75 363.575 219.75 363.701C219.75 363.828 219.75 363.955 219.75 364.094C219.89 366.009 221.06 367.902 223.27 369.368C227.96 372.507 235.58 372.507 240.27 369.368C242.47 367.902 243.64 366.009 243.78 364.094C243.78 363.955 243.78 363.84 243.78 363.701C243.78 363.563 243.76 363.436 243.75 363.321Z" fill="#6879C8"/>
<g opacity="0.5">
<path d="M243.75 363.321C243.75 359.648 242.485 356.126 240.235 353.529C237.985 350.932 234.932 349.473 231.75 349.473C228.567 349.473 225.515 350.932 223.264 353.529C221.014 356.126 219.75 359.648 219.75 363.321C219.75 363.448 219.75 363.575 219.75 363.701C219.75 363.828 219.75 363.955 219.75 364.094C219.89 366.009 221.06 367.902 223.27 369.368C227.96 372.507 235.58 372.507 240.27 369.368C242.47 367.902 243.64 366.009 243.78 364.094C243.78 363.955 243.78 363.84 243.78 363.701C243.78 363.563 243.76 363.436 243.75 363.321Z" fill="white"/>
</g>
<g style="mix-blend-mode:lighten" opacity="0.5">
<path d="M237 351.204C235.193 350.191 233.194 349.717 231.187 349.827C229.181 349.937 227.23 350.627 225.514 351.833C223.798 353.038 222.372 354.722 221.367 356.729C220.362 358.737 219.809 361.003 219.76 363.321C219.76 363.448 219.76 363.575 219.76 363.702C219.76 363.828 219.76 363.955 219.76 364.094C219.9 366.01 221.07 367.902 223.28 369.368C225.134 370.549 227.174 371.291 229.28 371.549C226.16 370.926 224.14 366.933 225.1 362.467C226.19 357.32 230.7 349.877 237 351.204Z" fill="white"/>
</g>
<path opacity="0.2" d="M243.75 364.094C243.75 363.955 243.75 363.84 243.75 363.701C243.75 363.563 243.75 363.448 243.75 363.321C243.704 361.415 243.319 359.541 242.617 357.815C241.915 356.09 240.911 354.55 239.67 353.292C240.97 354.839 243.88 360.69 240.72 365.132C238.65 368.064 228.79 372.241 220.72 366.875C221.413 367.899 222.281 368.747 223.27 369.368C227.96 372.506 235.58 372.506 240.27 369.368C242.44 367.902 243.61 366.009 243.75 364.094Z" fill="#6879C8"/>
<g style="mix-blend-mode:lighten" opacity="0.5">
<path d="M231.61 352.946C232.15 354.366 231.11 356.258 229.3 357.181C227.49 358.105 225.58 357.689 225.04 356.281C224.5 354.873 225.53 352.969 227.35 352.058C229.17 351.146 231.07 351.538 231.61 352.946Z" fill="white"/>
</g>
<g style="mix-blend-mode:lighten" opacity="0.5">
<path d="M224.64 358.705C224.829 359.011 224.932 359.378 224.933 359.755C224.935 360.132 224.835 360.5 224.648 360.808C224.461 361.117 224.196 361.351 223.889 361.479C223.582 361.606 223.248 361.621 222.933 361.521C222.618 361.421 222.338 361.21 222.131 360.919C221.924 360.628 221.801 360.27 221.777 359.894C221.754 359.518 221.832 359.143 222.001 358.821C222.17 358.498 222.421 358.244 222.72 358.093C223.045 357.884 223.429 357.831 223.788 357.945C224.148 358.06 224.453 358.332 224.64 358.705V358.705Z" fill="white"/>
</g>
<path d="M232.2 382.189C232.094 377.203 230.303 372.463 227.21 368.98C224.117 365.497 219.966 363.548 215.645 363.548C211.323 363.548 207.173 365.497 204.08 368.98C200.987 372.463 199.196 377.203 199.09 382.189C199.09 382.373 199.09 382.535 199.09 382.719C199.09 382.904 199.09 383.066 199.09 383.25C199.28 385.893 200.89 388.489 203.94 390.52C210.4 394.825 220.89 394.825 227.37 390.52C230.37 388.489 232.01 385.904 232.2 383.25C232.2 383.066 232.2 382.904 232.2 382.719C232.2 382.535 232.21 382.373 232.2 382.189Z" fill="#6879C8"/>
<g opacity="0.6">
<path d="M232.2 382.189C232.094 377.203 230.303 372.463 227.21 368.98C224.117 365.497 219.966 363.548 215.645 363.548C211.323 363.548 207.173 365.497 204.08 368.98C200.987 372.463 199.196 377.203 199.09 382.189C199.09 382.373 199.09 382.535 199.09 382.719C199.09 382.904 199.09 383.066 199.09 383.25C199.28 385.893 200.89 388.489 203.94 390.52C210.4 394.825 220.89 394.825 227.37 390.52C230.37 388.489 232.01 385.904 232.2 383.25C232.2 383.066 232.2 382.904 232.2 382.719C232.2 382.535 232.21 382.373 232.2 382.189Z" fill="white"/>
</g>
<g style="mix-blend-mode:lighten" opacity="0.5">
<path d="M222.83 365.513C220.342 364.12 217.591 363.47 214.829 363.622C212.067 363.773 209.382 364.722 207.02 366.381C204.658 368.04 202.694 370.357 201.309 373.118C199.923 375.88 199.16 378.999 199.09 382.189C199.09 382.373 199.09 382.535 199.09 382.719C199.09 382.904 199.09 383.066 199.09 383.25C199.28 385.893 200.89 388.489 203.94 390.52C206.505 392.15 209.327 393.166 212.24 393.509C207.95 392.655 205.17 387.128 206.49 381.011C208 373.926 214.23 363.678 222.83 365.513Z" fill="white"/>
</g>
<path opacity="0.1" d="M232.2 383.25C232.2 383.066 232.2 382.904 232.2 382.719C232.2 382.535 232.2 382.373 232.2 382.189C232.143 379.558 231.614 376.969 230.647 374.585C229.679 372.202 228.295 370.076 226.58 368.341C228.37 370.475 232.38 378.519 228.03 384.658C225.17 388.686 211.59 394.444 200.42 387.047C201.379 388.463 202.576 389.64 203.94 390.509C210.4 394.813 220.89 394.813 227.37 390.509C230.39 388.489 232 385.893 232.2 383.25Z" fill="#6879C8"/>
<g style="mix-blend-mode:lighten" opacity="0.3">
<path d="M215.48 367.914C216.22 369.852 214.79 372.46 212.29 373.684C209.79 374.907 207.17 374.399 206.43 372.449C205.69 370.499 207.11 367.833 209.61 366.679C212.11 365.525 214.73 365.963 215.48 367.914Z" fill="white"/>
</g>
<g style="mix-blend-mode:lighten" opacity="0.3">
<path d="M205.88 375.83C206.142 376.253 206.283 376.759 206.286 377.279C206.288 377.799 206.15 378.306 205.893 378.732C205.635 379.158 205.269 379.482 204.845 379.658C204.421 379.834 203.961 379.855 203.527 379.717C203.092 379.579 202.706 379.289 202.42 378.887C202.135 378.485 201.964 377.991 201.931 377.473C201.899 376.955 202.006 376.437 202.239 375.992C202.471 375.547 202.818 375.196 203.23 374.988C203.681 374.711 204.207 374.643 204.7 374.8C205.193 374.957 205.615 375.325 205.88 375.83V375.83Z" fill="white"/>
</g>
<path d="M205.39 392.286C205.271 386.089 203.055 380.191 199.215 375.856C195.375 371.522 190.217 369.094 184.845 369.094C179.473 369.094 174.315 371.522 170.475 375.856C166.635 380.191 164.418 386.089 164.3 392.286C164.29 392.505 164.29 392.725 164.3 392.944C164.29 393.167 164.29 393.39 164.3 393.613C164.53 396.891 166.54 400.11 170.3 402.626C178.3 407.98 191.35 407.98 199.38 402.626C203.14 400.11 205.14 396.856 205.38 393.613C205.38 393.382 205.38 393.175 205.38 392.944C205.38 392.713 205.4 392.482 205.39 392.286Z" fill="#6879C8"/>
<g opacity="0.8">
<path d="M205.39 392.286C205.271 386.089 203.055 380.191 199.215 375.856C195.375 371.522 190.217 369.094 184.845 369.094C179.473 369.094 174.315 371.522 170.475 375.856C166.635 380.191 164.418 386.089 164.3 392.286C164.29 392.505 164.29 392.725 164.3 392.944C164.29 393.167 164.29 393.39 164.3 393.613C164.53 396.891 166.54 400.11 170.3 402.626C178.3 407.98 191.35 407.98 199.38 402.626C203.14 400.11 205.14 396.856 205.38 393.613C205.38 393.382 205.38 393.175 205.38 392.944C205.38 392.713 205.4 392.482 205.39 392.286Z" fill="white"/>
</g>
<g style="mix-blend-mode:lighten" opacity="0.3">
<path d="M193.76 371.514C190.668 369.782 187.248 368.975 183.814 369.167C180.381 369.358 177.045 370.542 174.111 372.611C171.178 374.679 168.743 377.564 167.028 381.002C165.314 384.44 164.376 388.32 164.3 392.286C164.29 392.505 164.29 392.725 164.3 392.944C164.29 393.167 164.29 393.39 164.3 393.613C164.53 396.891 166.54 400.11 170.3 402.626C173.486 404.649 176.992 405.913 180.61 406.342C175.28 405.28 171.83 398.414 173.47 390.832C175.38 381.992 183.09 369.275 193.76 371.514Z" fill="white"/>
</g>
<path opacity="0.1" d="M205.39 393.579C205.39 393.348 205.39 393.14 205.39 392.909C205.39 392.678 205.39 392.482 205.39 392.251C205.312 388.992 204.649 385.787 203.445 382.837C202.24 379.888 200.519 377.258 198.39 375.115C200.62 377.769 205.59 387.751 200.19 395.356C196.64 400.364 179.8 407.507 165.93 398.321C167.119 400.069 168.602 401.521 170.29 402.591C178.29 407.946 191.34 407.946 199.37 402.591C203.15 400.076 205.15 396.902 205.39 393.579Z" fill="#6879C8"/>
<g style="mix-blend-mode:lighten" opacity="0.3">
<path d="M184.63 374.538C185.55 376.949 183.79 380.181 180.69 381.75C177.59 383.32 174.33 382.639 173.41 380.227C172.49 377.815 174.26 374.572 177.41 373.003C180.56 371.433 183.71 372.114 184.63 374.538Z" fill="white"/>
</g>
<g style="mix-blend-mode:lighten" opacity="0.3">
<path d="M172.73 384.37C173.052 384.894 173.226 385.521 173.227 386.164C173.228 386.807 173.057 387.435 172.737 387.961C172.417 388.488 171.963 388.887 171.439 389.104C170.914 389.321 170.344 389.346 169.807 389.174C169.27 389.003 168.792 388.644 168.439 388.147C168.086 387.649 167.874 387.038 167.834 386.396C167.794 385.755 167.927 385.115 168.214 384.564C168.502 384.013 168.93 383.578 169.44 383.319C169.998 382.963 170.656 382.874 171.27 383.07C171.885 383.266 172.409 383.733 172.73 384.37V384.37Z" fill="white"/>
</g>
<path d="M251.41 371.514C251.41 369.292 250.645 367.161 249.283 365.59C247.922 364.019 246.075 363.136 244.15 363.136C242.224 363.136 240.378 364.019 239.016 365.59C237.655 367.161 236.89 369.292 236.89 371.514C236.877 371.668 236.877 371.822 236.89 371.976C236.991 372.667 237.237 373.32 237.606 373.878C237.976 374.435 238.458 374.879 239.01 375.172C240.603 376.106 242.364 376.592 244.15 376.592C245.936 376.592 247.697 376.106 249.29 375.172C249.842 374.879 250.324 374.435 250.694 373.878C251.063 373.32 251.309 372.667 251.41 371.976C251.423 371.822 251.423 371.668 251.41 371.514Z" fill="#6879C8"/>
<g opacity="0.2">
<path d="M251.41 371.514C251.41 369.292 250.645 367.161 249.283 365.59C247.922 364.019 246.075 363.136 244.15 363.136C242.224 363.136 240.378 364.019 239.016 365.59C237.655 367.161 236.89 369.292 236.89 371.514C236.877 371.668 236.877 371.822 236.89 371.976C236.991 372.667 237.237 373.32 237.606 373.878C237.976 374.435 238.458 374.879 239.01 375.172C240.603 376.106 242.364 376.592 244.15 376.592C245.936 376.592 247.697 376.106 249.29 375.172C249.842 374.879 250.324 374.435 250.694 373.878C251.063 373.32 251.309 372.667 251.41 371.976C251.423 371.822 251.423 371.668 251.41 371.514Z" fill="white"/>
</g>
<g style="mix-blend-mode:lighten" opacity="0.5">
<path d="M247.3 364.209C246.21 363.596 245.003 363.309 243.792 363.374C242.58 363.439 241.402 363.854 240.366 364.581C239.33 365.308 238.468 366.324 237.861 367.535C237.254 368.747 236.92 370.115 236.89 371.514C236.877 371.668 236.877 371.822 236.89 371.976C236.991 372.668 237.237 373.32 237.606 373.878C237.976 374.435 238.458 374.879 239.01 375.172C240.14 375.882 241.38 376.329 242.66 376.488C240.77 376.107 239.55 373.684 240.13 370.995C240.81 367.902 243.53 363.436 247.3 364.209Z" fill="white"/>
</g>
<g opacity="0.05">
<path d="M251.41 371.987C251.423 371.834 251.423 371.679 251.41 371.526C251.385 370.374 251.153 369.242 250.73 368.199C250.306 367.156 249.7 366.226 248.95 365.467C249.74 366.402 251.49 369.933 249.58 372.622C248.33 374.387 242.37 376.915 237.47 373.672C237.893 374.287 238.416 374.8 239.01 375.184C240.602 376.117 242.363 376.604 244.15 376.604C245.936 376.604 247.697 376.117 249.29 375.184C249.842 374.891 250.324 374.446 250.693 373.889C251.063 373.332 251.309 372.679 251.41 371.987Z" fill="black"/>
</g>
<g style="mix-blend-mode:lighten" opacity="0.3">
<path d="M244.08 365.259C244.4 366.113 243.78 367.256 242.68 367.81C241.58 368.364 240.43 368.121 240.11 367.267C239.79 366.413 240.41 365.271 241.5 364.717C242.59 364.163 243.75 364.405 244.08 365.259Z" fill="white"/>
</g>
<g style="mix-blend-mode:lighten" opacity="0.3">
<path d="M239.87 368.733C239.998 368.925 240.07 369.158 240.077 369.4C240.084 369.642 240.024 369.88 239.907 370.081C239.79 370.282 239.621 370.435 239.425 370.519C239.228 370.603 239.014 370.614 238.811 370.549C238.609 370.485 238.43 370.349 238.298 370.16C238.167 369.972 238.09 369.74 238.079 369.499C238.068 369.257 238.122 369.017 238.236 368.814C238.349 368.61 238.515 368.453 238.71 368.364C238.907 368.241 239.138 368.211 239.354 368.28C239.57 368.348 239.755 368.511 239.87 368.733V368.733Z" fill="white"/>
</g>
<path d="M14.3198 355.693C14.3198 352.02 15.5841 348.498 17.8345 345.901C20.0849 343.304 23.1372 341.845 26.3198 341.845C29.5024 341.845 32.5546 343.304 34.8051 345.901C37.0555 348.498 38.3198 352.02 38.3198 355.693C38.3198 355.82 38.3198 355.947 38.3198 356.074C38.3198 356.2 38.3198 356.327 38.3198 356.466C38.1798 358.382 37.0098 360.263 34.7998 361.74C30.1098 364.867 22.4898 364.867 17.7998 361.74C15.5998 360.263 14.4298 358.382 14.2898 356.466C14.2898 356.327 14.2898 356.212 14.2898 356.074C14.2898 355.935 14.3098 355.82 14.3198 355.693Z" fill="#6879C8"/>
<g opacity="0.5">
<path d="M14.3198 355.693C14.3198 352.02 15.5841 348.498 17.8345 345.901C20.0849 343.304 23.1372 341.845 26.3198 341.845C29.5024 341.845 32.5546 343.304 34.8051 345.901C37.0555 348.498 38.3198 352.02 38.3198 355.693C38.3198 355.82 38.3198 355.947 38.3198 356.074C38.3198 356.2 38.3198 356.327 38.3198 356.466C38.1798 358.382 37.0098 360.263 34.7998 361.74C30.1098 364.867 22.4898 364.867 17.7998 361.74C15.5998 360.263 14.4298 358.382 14.2898 356.466C14.2898 356.327 14.2898 356.212 14.2898 356.074C14.2898 355.935 14.3098 355.82 14.3198 355.693Z" fill="white"/>
</g>
<g style="mix-blend-mode:lighten" opacity="0.5">
<path d="M21.1199 343.576C22.9269 342.563 24.9254 342.089 26.9322 342.199C28.9389 342.309 30.8897 342.999 32.6055 344.205C34.3213 345.411 35.7473 347.094 36.7527 349.102C37.7581 351.109 38.3107 353.375 38.3599 355.693C38.3599 355.82 38.3599 355.947 38.3599 356.074C38.3599 356.2 38.3599 356.327 38.3599 356.466C38.2199 358.382 37.0499 360.263 34.8399 361.74C32.9853 362.917 30.9452 363.655 28.8399 363.909C31.9599 363.298 33.9799 359.293 33.0199 354.839C31.8799 349.692 27.3599 342.249 21.1199 343.576Z" fill="white"/>
</g>
<path opacity="0.2" d="M14.3198 356.512C14.3198 356.374 14.3198 356.258 14.3198 356.12C14.3198 355.981 14.3198 355.866 14.3198 355.739C14.3609 353.832 14.7448 351.956 15.4471 350.23C16.1495 348.504 17.155 346.965 18.3998 345.711C17.0998 347.257 14.1898 353.096 17.3498 357.551C19.4198 360.482 29.2798 364.659 37.3498 359.293C36.6569 360.317 35.7889 361.165 34.7998 361.786C30.1098 364.913 22.4898 364.913 17.7998 361.786C15.6298 360.263 14.4598 358.381 14.3198 356.512Z" fill="#6879C8"/>
<g style="mix-blend-mode:lighten" opacity="0.3">
<path d="M26.4599 345.318C25.9199 346.738 26.9599 348.63 28.7699 349.542C30.5799 350.454 32.4899 350.061 33.0299 348.653C33.5699 347.245 32.5299 345.341 30.7199 344.418C28.9099 343.495 26.9999 343.91 26.4599 345.318Z" fill="white"/>
</g>
<g style="mix-blend-mode:lighten" opacity="0.3">
<path d="M33.4298 351.077C33.2403 351.383 33.1377 351.75 33.1362 352.127C33.1347 352.504 33.2344 352.872 33.4215 353.18C33.6086 353.489 33.8739 353.723 34.181 353.851C34.4882 353.978 34.822 353.993 35.1367 353.893C35.4513 353.793 35.7313 353.582 35.9383 353.291C36.1452 353 36.2688 352.642 36.2922 352.266C36.3155 351.89 36.2375 351.515 36.0688 351.193C35.9 350.87 35.6489 350.616 35.3498 350.465C35.0243 350.256 34.6405 350.203 34.2813 350.317C33.9222 350.432 33.6163 350.704 33.4298 351.077V351.077Z" fill="white"/>
</g>
<path d="M38.7699 359.236C38.8789 353.983 40.7636 348.988 44.0214 345.317C47.2793 341.646 51.6518 339.592 56.2049 339.592C60.7579 339.592 65.1305 341.646 68.3883 345.317C71.6461 348.988 73.5308 353.983 73.6399 359.236C73.6399 359.432 73.6399 359.605 73.6399 359.801C73.6399 359.997 73.6399 360.17 73.6399 360.355C73.4399 363.148 71.7399 365.883 68.5299 368.017C61.7299 372.553 50.6699 372.553 43.8499 368.017C40.6599 365.883 38.9599 363.148 38.7699 360.355C38.7597 360.17 38.7597 359.985 38.7699 359.801C38.7598 359.613 38.7598 359.424 38.7699 359.236Z" fill="#6879C8"/>
<g opacity="0.7">
<path d="M38.7699 359.236C38.8789 353.983 40.7636 348.988 44.0214 345.317C47.2793 341.646 51.6518 339.592 56.2049 339.592C60.7579 339.592 65.1305 341.646 68.3883 345.317C71.6461 348.988 73.5308 353.983 73.6399 359.236C73.6399 359.432 73.6399 359.605 73.6399 359.801C73.6399 359.997 73.6399 360.17 73.6399 360.355C73.4399 363.148 71.7399 365.883 68.5299 368.017C61.7299 372.553 50.6699 372.553 43.8499 368.017C40.6599 365.883 38.9599 363.148 38.7699 360.355C38.7597 360.17 38.7597 359.985 38.7699 359.801C38.7598 359.613 38.7598 359.424 38.7699 359.236Z" fill="white"/>
</g>
<g style="mix-blend-mode:lighten" opacity="0.3">
<path d="M48.6299 341.672C51.2506 340.212 54.1464 339.533 57.053 339.696C59.9596 339.859 62.7846 340.859 65.2702 342.605C67.7559 344.352 69.8231 346.788 71.2833 349.693C72.7435 352.598 73.5502 355.878 73.6299 359.235C73.6299 359.432 73.6299 359.605 73.6299 359.801C73.6299 359.997 73.6299 360.17 73.6299 360.355C73.4299 363.147 71.7299 365.882 68.5199 368.017C65.8159 369.734 62.8402 370.806 59.7699 371.168C64.2999 370.268 67.2299 364.44 65.8299 358.001C64.2299 350.534 57.6899 339.744 48.6299 341.672Z" fill="white"/>
</g>
<path opacity="0.1" d="M38.7699 360.355C38.7597 360.17 38.7597 359.985 38.7699 359.801C38.7598 359.613 38.7598 359.424 38.7699 359.235C38.8331 356.471 39.3918 353.753 40.4107 351.25C41.4296 348.747 42.8866 346.516 44.6899 344.695C42.7899 346.945 38.5799 355.416 43.1599 361.878C46.1599 366.125 60.4699 372.183 72.2299 364.394C71.2232 365.88 69.9642 367.113 68.5299 368.017C61.7299 372.553 50.6699 372.553 43.8499 368.017C40.6599 365.882 38.9999 363.148 38.7699 360.355Z" fill="#6879C8"/>
<g style="mix-blend-mode:lighten" opacity="0.5">
<path d="M56.3799 344.199C55.5999 346.253 57.0999 348.999 59.7299 350.327C62.3599 351.654 65.1299 351.077 65.9099 349.023C66.6899 346.968 65.1899 344.233 62.5599 342.895C59.9299 341.556 57.1599 342.145 56.3799 344.199Z" fill="white"/>
</g>
<g style="mix-blend-mode:lighten" opacity="0.5">
<path d="M66.4799 352.554C66.2079 353 66.0621 353.532 66.0625 354.077C66.0629 354.622 66.2095 355.154 66.4821 355.6C66.7548 356.045 67.1401 356.382 67.5854 356.565C68.0306 356.748 68.514 356.767 68.9691 356.62C69.4242 356.473 69.8288 356.168 70.1274 355.745C70.426 355.322 70.604 354.803 70.6369 354.259C70.6699 353.715 70.5562 353.173 70.3114 352.706C70.0667 352.24 69.7029 351.872 69.2699 351.654C68.7948 351.356 68.2377 351.283 67.7168 351.451C67.196 351.619 66.7523 352.015 66.4799 352.554V352.554Z" fill="white"/>
</g>
<path d="M28.4898 371.514C28.639 366.564 30.448 361.874 33.5354 358.432C36.6228 354.991 40.7475 353.068 45.0398 353.068C49.3322 353.068 53.4568 354.991 56.5443 358.432C59.6317 361.874 61.4407 366.564 61.5898 371.514C61.5898 371.687 61.5898 371.86 61.5898 372.045C61.5898 372.23 61.5898 372.391 61.5898 372.576C61.3998 375.218 59.7898 377.815 56.7398 379.846C50.2898 384.15 39.7898 384.15 33.3198 379.846C30.3198 377.815 28.6698 375.23 28.4898 372.576C28.4799 372.399 28.4799 372.222 28.4898 372.045C28.4796 371.868 28.4796 371.691 28.4898 371.514V371.514Z" fill="#6879C8"/>
<g opacity="0.6">
<path d="M28.4898 371.514C28.639 366.564 30.448 361.874 33.5354 358.432C36.6228 354.991 40.7475 353.068 45.0398 353.068C49.3322 353.068 53.4568 354.991 56.5443 358.432C59.6317 361.874 61.4407 366.564 61.5898 371.514C61.5898 371.687 61.5898 371.86 61.5898 372.045C61.5898 372.23 61.5898 372.391 61.5898 372.576C61.3998 375.218 59.7898 377.815 56.7398 379.846C50.2898 384.15 39.7898 384.15 33.3198 379.846C30.3198 377.815 28.6698 375.23 28.4898 372.576C28.4799 372.399 28.4799 372.222 28.4898 372.045C28.4796 371.868 28.4796 371.691 28.4898 371.514V371.514Z" fill="white"/>
</g>
<g style="mix-blend-mode:lighten" opacity="0.5">
<path d="M37.8499 354.862C40.3365 353.473 43.085 352.825 45.8445 352.977C48.6039 353.129 51.2865 354.076 53.6472 355.732C56.008 357.388 57.9717 359.699 59.3591 362.456C60.7465 365.213 61.5134 368.327 61.5899 371.514C61.5899 371.687 61.5899 371.86 61.5899 372.045C61.5899 372.23 61.5899 372.391 61.5899 372.576C61.3999 375.218 59.7899 377.815 56.7399 379.846C54.1715 381.465 51.3505 382.481 48.4399 382.835C52.7299 381.981 55.5099 376.442 54.1899 370.337C52.6599 363.286 46.4499 353.05 37.8499 354.862Z" fill="white"/>
</g>
<path opacity="0.15" d="M28.4898 372.668C28.4799 372.491 28.4799 372.314 28.4898 372.137C28.4796 371.96 28.4796 371.783 28.4898 371.606C28.544 368.975 29.0715 366.385 30.039 364.001C31.0064 361.617 32.3927 359.491 34.1098 357.758C32.3098 359.893 28.3098 367.937 32.6498 374.064C35.5098 378.103 49.0898 383.862 60.2598 376.465C59.3006 377.881 58.1033 379.058 56.7398 379.927C50.2898 384.231 39.7898 384.231 33.3198 379.927C30.2898 377.849 28.6698 375.253 28.4898 372.668Z" fill="#6879C8"/>
<g style="mix-blend-mode:lighten" opacity="0.3">
<path d="M45.2098 357.262C44.4598 359.212 45.8898 361.878 48.3898 363.09C50.8898 364.302 53.5098 363.794 54.2498 361.855C54.9898 359.916 53.5698 357.297 51.0698 356.027C48.5698 354.758 45.9998 355.358 45.2098 357.262Z" fill="white"/>
</g>
<g style="mix-blend-mode:lighten" opacity="0.3">
<path d="M54.7999 365.19C54.5383 365.613 54.3966 366.119 54.3943 366.639C54.3921 367.159 54.5293 367.667 54.7873 368.093C55.0452 368.519 55.4112 368.842 55.8348 369.018C56.2585 369.195 56.7191 369.215 57.1532 369.077C57.5874 368.939 57.9739 368.649 58.2596 368.247C58.5453 367.846 58.7161 367.352 58.7486 366.833C58.7811 366.315 58.6737 365.798 58.4412 365.353C58.2086 364.908 57.8623 364.557 57.4499 364.348C56.9985 364.071 56.4724 364.004 55.9796 364.16C55.4868 364.317 55.0646 364.686 54.7999 365.19Z" fill="white"/>
</g>
<path d="M52.9198 389.389C53.0864 383.231 55.3234 377.389 59.1572 373.101C62.991 368.813 68.1206 366.415 73.4598 366.415C78.7991 366.415 83.9286 368.813 87.7625 373.101C91.5963 377.389 93.8333 383.231 93.9998 389.389C94.0097 389.609 94.0097 389.828 93.9998 390.047C94.0098 390.27 94.0098 390.494 93.9998 390.717C93.7698 393.994 91.7598 397.214 87.9998 399.741C79.9998 405.084 66.9998 405.084 58.9198 399.741C55.1598 397.214 53.1598 393.971 52.9198 390.717C52.9099 390.494 52.9099 390.27 52.9198 390.047C52.91 389.828 52.91 389.609 52.9198 389.389V389.389Z" fill="#6879C8"/>
<g opacity="0.8">
<path d="M52.9198 389.389C53.0864 383.231 55.3234 377.389 59.1572 373.101C62.991 368.813 68.1206 366.415 73.4598 366.415C78.7991 366.415 83.9286 368.813 87.7625 373.101C91.5963 377.389 93.8333 383.231 93.9998 389.389C94.0097 389.609 94.0097 389.828 93.9998 390.047C94.0098 390.27 94.0098 390.494 93.9998 390.717C93.7698 393.994 91.7598 397.214 87.9998 399.741C79.9998 405.084 66.9998 405.084 58.9198 399.741C55.1598 397.214 53.1598 393.971 52.9198 390.717C52.9099 390.494 52.9099 390.27 52.9198 390.047C52.91 389.828 52.91 389.609 52.9198 389.389V389.389Z" fill="white"/>
</g>
<g style="mix-blend-mode:lighten" opacity="0.3">
<path d="M64.5398 368.698C67.6269 366.969 71.0406 366.161 74.4684 366.349C77.8961 366.537 81.2282 367.714 84.1596 369.773C87.0909 371.831 89.5278 374.706 91.247 378.133C92.9661 381.561 93.9126 385.431 93.9998 389.39C94.0096 389.609 94.0096 389.828 93.9998 390.047C94.0098 390.27 94.0098 390.494 93.9998 390.717C93.7698 393.994 91.7598 397.214 87.9998 399.741C84.8111 401.756 81.3059 403.015 77.6898 403.445C83.0198 402.384 86.4698 395.517 84.8298 387.936C82.9198 379.142 75.2098 366.425 64.5398 368.698Z" fill="white"/>
</g>
<path opacity="0.1" d="M52.9198 390.717C52.9099 390.494 52.9099 390.27 52.9198 390.047C52.91 389.828 52.91 389.609 52.9198 389.39C52.9974 386.13 53.6594 382.924 54.8642 379.975C56.069 377.025 57.7904 374.396 59.9198 372.253C57.6898 374.907 52.7198 384.889 58.1198 392.494C61.6698 397.502 78.5198 404.645 92.3798 395.471C91.1873 397.215 89.705 398.667 88.0198 399.741C80.0198 405.084 67.0198 405.084 58.9398 399.741C55.1498 397.214 53.1498 393.994 52.9198 390.717Z" fill="#6879C8"/>
<g style="mix-blend-mode:lighten" opacity="0.3">
<path d="M73.6697 371.676C72.7497 374.087 74.5197 377.319 77.6697 378.888C80.8197 380.458 84.0197 379.777 84.9397 377.365C85.8597 374.953 84.0997 371.71 80.9997 370.141C77.8997 368.571 74.5897 369.206 73.6697 371.676Z" fill="white"/>
</g>
<g style="mix-blend-mode:lighten" opacity="0.3">
<path d="M85.5698 381.508C85.2475 382.032 85.0738 382.659 85.0725 383.302C85.0712 383.945 85.2424 384.573 85.5626 385.1C85.8827 385.626 86.3362 386.025 86.8607 386.242C87.3852 386.459 87.9552 386.484 88.4923 386.313C89.0294 386.141 89.5074 385.782 89.8607 385.285C90.2139 384.787 90.4252 384.176 90.4654 383.535C90.5057 382.893 90.373 382.253 90.0855 381.702C89.798 381.151 89.3699 380.716 88.8598 380.457C88.3013 380.101 87.6441 380.012 87.0292 380.208C86.4142 380.404 85.8903 380.871 85.5698 381.508Z" fill="white"/>
</g>
<path d="M168 393.648C167.841 388.031 165.796 382.707 162.297 378.798C158.798 374.89 154.119 372.705 149.25 372.705C144.381 372.705 139.702 374.89 136.203 378.798C132.704 382.707 130.659 388.031 130.5 393.648C130.49 393.848 130.49 394.048 130.5 394.248C130.49 394.452 130.49 394.656 130.5 394.859C130.71 397.848 132.5 400.791 135.99 403.087C143.3 407.98 155.2 407.98 162.53 403.087C165.96 400.779 167.79 397.848 168 394.859C168.01 394.656 168.01 394.452 168 394.248C168.01 394.048 168.01 393.848 168 393.648V393.648Z" fill="#6879C8"/>
<g opacity="0.9">
<path d="M168 393.648C167.841 388.031 165.796 382.707 162.297 378.798C158.798 374.89 154.119 372.705 149.25 372.705C144.381 372.705 139.702 374.89 136.203 378.798C132.704 382.707 130.659 388.031 130.5 393.648C130.49 393.848 130.49 394.048 130.5 394.248C130.49 394.452 130.49 394.656 130.5 394.859C130.71 397.848 132.5 400.791 135.99 403.087C143.3 407.98 155.2 407.98 162.53 403.087C165.96 400.779 167.79 397.848 168 394.859C168.01 394.656 168.01 394.452 168 394.248C168.01 394.048 168.01 393.848 168 393.648V393.648Z" fill="white"/>
</g>
<g style="mix-blend-mode:lighten" opacity="0.5">
<path d="M157.41 374.757C154.592 373.178 151.476 372.44 148.346 372.612C145.217 372.783 142.175 373.858 139.5 375.738C136.824 377.618 134.6 380.242 133.031 383.371C131.462 386.501 130.599 390.034 130.52 393.648C130.51 393.848 130.51 394.048 130.52 394.248C130.51 394.452 130.51 394.656 130.52 394.86C130.73 397.848 132.52 400.791 136.01 403.087C138.918 404.935 142.118 406.089 145.42 406.48C140.55 405.511 137.42 399.245 138.9 392.321C140.63 384.289 147.67 372.668 157.41 374.757Z" fill="white"/>
</g>
<path opacity="0.1" d="M168 394.859C168.01 394.656 168.01 394.452 168 394.248C168.01 394.048 168.01 393.848 168 393.648C167.932 390.674 167.332 387.749 166.237 385.056C165.143 382.363 163.578 379.961 161.64 378C163.64 380.423 168.21 389.54 163.28 396.464C160.04 401.08 144.66 407.553 132 399.175C133.093 400.769 134.454 402.091 136 403.064C143.31 407.957 155.21 407.957 162.54 403.064C166 400.791 167.81 397.848 168 394.859Z" fill="#6879C8"/>
<g style="mix-blend-mode:lighten" opacity="0.5">
<path d="M145.679 386.355C148.524 384.928 150.154 381.974 149.319 379.757C148.484 377.541 145.5 376.901 142.655 378.329C139.81 379.757 138.18 382.711 139.015 384.927C139.85 387.144 142.834 387.783 145.679 386.355Z" fill="white"/>
</g>
<g style="mix-blend-mode:lighten" opacity="0.5">
<path d="M138.21 386.516C138.502 386.995 138.658 387.567 138.657 388.153C138.656 388.738 138.498 389.309 138.205 389.787C137.912 390.265 137.497 390.627 137.019 390.823C136.541 391.018 136.022 391.039 135.533 390.881C135.045 390.723 134.61 390.395 134.29 389.941C133.969 389.487 133.778 388.93 133.743 388.345C133.707 387.761 133.829 387.179 134.092 386.678C134.355 386.177 134.745 385.782 135.21 385.547C135.72 385.221 136.321 385.141 136.882 385.322C137.443 385.504 137.92 385.932 138.21 386.516Z" fill="white"/>
</g>
<path d="M89.6897 396.002C89.8 390.628 91.7275 385.517 95.0602 381.761C98.3929 378.005 102.866 375.902 107.525 375.902C112.183 375.902 116.657 378.005 119.989 381.761C123.322 385.517 125.249 390.628 125.36 396.002C125.37 396.194 125.37 396.387 125.36 396.579C125.37 396.767 125.37 396.956 125.36 397.144C125.16 399.995 123.42 402.799 120.14 404.98C113.14 409.596 101.87 409.596 94.8997 404.98C91.6297 402.799 89.8997 399.995 89.6897 397.144C89.6897 396.948 89.6897 396.775 89.6897 396.579C89.6897 396.383 89.6797 396.198 89.6897 396.002Z" fill="#6879C8"/>
<g opacity="0.9">
<path d="M89.6897 396.002C89.8 390.628 91.7275 385.517 95.0602 381.761C98.3929 378.005 102.866 375.902 107.525 375.902C112.183 375.902 116.657 378.005 119.989 381.761C123.322 385.517 125.249 390.628 125.36 396.002C125.37 396.194 125.37 396.387 125.36 396.579C125.37 396.767 125.37 396.956 125.36 397.144C125.16 399.995 123.42 402.799 120.14 404.98C113.14 409.596 101.87 409.596 94.8997 404.98C91.6297 402.799 89.8997 399.995 89.6897 397.144C89.6897 396.948 89.6897 396.775 89.6897 396.579C89.6897 396.383 89.6797 396.198 89.6897 396.002Z" fill="white"/>
</g>
<g style="mix-blend-mode:lighten" opacity="0.5">
<path d="M99.7798 378.034C102.46 376.53 105.425 375.826 108.402 375.988C111.38 376.15 114.274 377.172 116.82 378.96C119.366 380.748 121.482 383.246 122.974 386.223C124.466 389.201 125.287 392.563 125.36 396.002C125.37 396.194 125.37 396.387 125.36 396.579C125.37 396.767 125.37 396.956 125.36 397.144C125.16 399.995 123.42 402.799 120.14 404.98C117.372 406.731 114.329 407.83 111.19 408.211C115.82 407.288 118.81 401.287 117.39 394.733C115.74 387.093 109.05 376.061 99.7798 378.034Z" fill="white"/>
</g>
<path opacity="0.1" d="M89.6899 397.144C89.6899 396.948 89.6899 396.775 89.6899 396.579C89.6899 396.383 89.6899 396.198 89.6899 396.002C89.7534 393.174 90.3247 390.391 91.3678 387.831C92.4109 385.27 93.9031 382.988 95.7499 381.127C93.8099 383.435 89.4999 392.09 94.1799 398.702C97.2599 403.041 111.89 409.25 123.93 401.276C122.898 402.795 121.608 404.055 120.14 404.98C113.14 409.596 101.87 409.596 94.8999 404.98C91.6299 402.799 89.8899 399.995 89.6899 397.144Z" fill="#6879C8"/>
<g style="mix-blend-mode:lighten" opacity="0.5">
<path d="M107.71 380.619C106.91 382.719 108.44 385.524 111.13 386.885C113.82 388.247 116.66 387.659 117.45 385.558C118.24 383.458 116.72 380.654 114.03 379.28C111.34 377.907 108.51 378.519 107.71 380.619Z" fill="white"/>
</g>
<g style="mix-blend-mode:lighten" opacity="0.5">
<path d="M118 389.159C117.719 389.615 117.567 390.161 117.565 390.721C117.564 391.281 117.712 391.828 117.991 392.286C118.269 392.745 118.664 393.093 119.12 393.282C119.577 393.472 120.073 393.493 120.541 393.344C121.009 393.195 121.425 392.882 121.733 392.449C122.04 392.016 122.224 391.484 122.259 390.926C122.294 390.367 122.178 389.81 121.928 389.33C121.677 388.85 121.304 388.472 120.86 388.247C120.375 387.937 119.803 387.859 119.269 388.029C118.734 388.2 118.279 388.605 118 389.159V389.159Z" fill="white"/>
</g>
<path d="M136 403.203C136 400.981 135.235 398.85 133.873 397.279C132.512 395.708 130.665 394.825 128.74 394.825C126.814 394.825 124.968 395.708 123.606 397.279C122.245 398.85 121.48 400.981 121.48 403.203C121.466 403.356 121.466 403.511 121.48 403.664C121.581 404.356 121.828 405.008 122.197 405.565C122.566 406.122 123.048 406.567 123.6 406.861C125.194 407.788 126.954 408.271 128.74 408.271C130.525 408.271 132.286 407.788 133.88 406.861C134.432 406.567 134.913 406.122 135.282 405.565C135.652 405.008 135.898 404.356 136 403.664C136.013 403.511 136.013 403.356 136 403.203Z" fill="#6879C8"/>
<g opacity="0.9">
<path d="M136 403.203C136 400.981 135.235 398.85 133.873 397.279C132.512 395.708 130.665 394.825 128.74 394.825C126.814 394.825 124.968 395.708 123.606 397.279C122.245 398.85 121.48 400.981 121.48 403.203C121.466 403.356 121.466 403.511 121.48 403.664C121.581 404.356 121.828 405.008 122.197 405.565C122.566 406.122 123.048 406.567 123.6 406.861C125.194 407.788 126.954 408.271 128.74 408.271C130.525 408.271 132.286 407.788 133.88 406.861C134.432 406.567 134.913 406.122 135.282 405.565C135.652 405.008 135.898 404.356 136 403.664C136.013 403.511 136.013 403.356 136 403.203Z" fill="white"/>
</g>
<g style="mix-blend-mode:lighten" opacity="0.6">
<path d="M131.86 395.875C130.768 395.267 129.561 394.985 128.35 395.054C127.139 395.123 125.962 395.541 124.927 396.27C123.892 396.998 123.031 398.015 122.424 399.226C121.816 400.437 121.482 401.804 121.45 403.203C121.437 403.356 121.437 403.511 121.45 403.664C121.552 404.356 121.798 405.009 122.167 405.565C122.537 406.122 123.018 406.567 123.57 406.861C124.701 407.567 125.941 408.01 127.22 408.165C125.33 407.796 124.11 405.361 124.69 402.684C125.37 399.568 128.09 395.079 131.86 395.875Z" fill="white"/>
</g>
<path opacity="0.1" d="M136 403.665C136.013 403.511 136.013 403.356 136 403.203C135.975 402.052 135.743 400.919 135.32 399.876C134.897 398.833 134.29 397.903 133.54 397.144C134.33 398.079 136.08 401.61 134.17 404.299C132.92 406.065 126.96 408.592 122.06 405.349C122.483 405.964 123.006 406.478 123.6 406.861C125.194 407.788 126.955 408.271 128.74 408.271C130.525 408.271 132.286 407.788 133.88 406.861C134.432 406.567 134.913 406.122 135.283 405.565C135.652 405.009 135.898 404.356 136 403.665V403.665Z" fill="#6879C8"/>
<g style="mix-blend-mode:lighten" opacity="0.5">
<path d="M128.64 396.902C128.96 397.756 128.34 398.898 127.24 399.452C126.14 400.006 124.99 399.764 124.67 398.91C124.35 398.056 124.97 396.914 126.06 396.36C127.15 395.806 128.31 396.083 128.64 396.902Z" fill="white"/>
</g>
<g style="mix-blend-mode:lighten" opacity="0.5">
<path d="M124.43 400.364C124.557 400.556 124.628 400.789 124.635 401.03C124.641 401.271 124.581 401.509 124.464 401.709C124.348 401.909 124.179 402.062 123.983 402.146C123.787 402.23 123.573 402.241 123.371 402.178C123.169 402.114 122.99 401.979 122.858 401.791C122.727 401.604 122.649 401.373 122.637 401.132C122.624 400.891 122.678 400.652 122.79 400.448C122.901 400.244 123.066 400.085 123.26 399.995C123.458 399.868 123.691 399.836 123.91 399.905C124.128 399.974 124.315 400.139 124.43 400.364V400.364Z" fill="white"/>
</g>
<path d="M2.82985 360.297C2.89962 358.127 3.69557 356.073 5.05039 354.567C6.40522 353.06 8.2134 352.219 10.0948 352.219C11.9763 352.219 13.7845 353.06 15.1393 354.567C16.4941 356.073 17.2901 358.127 17.3598 360.297V360.759C17.2571 361.451 17.0094 362.105 16.6382 362.662C16.267 363.219 15.7836 363.663 15.2299 363.955C13.6372 364.889 11.8761 365.375 10.0898 365.375C8.30355 365.375 6.54247 364.889 4.94984 363.955C4.39749 363.662 3.91559 363.218 3.5461 362.661C3.1766 362.103 2.93072 361.451 2.82985 360.759C2.81648 360.605 2.81648 360.451 2.82985 360.297Z" fill="#6879C8"/>
<g opacity="0.2">
<path d="M2.82985 360.297C2.89962 358.127 3.69557 356.073 5.05039 354.567C6.40522 353.06 8.2134 352.219 10.0948 352.219C11.9763 352.219 13.7845 353.06 15.1393 354.567C16.4941 356.073 17.2901 358.127 17.3598 360.297V360.759C17.2571 361.451 17.0094 362.105 16.6382 362.662C16.267 363.219 15.7836 363.663 15.2299 363.955C13.6372 364.889 11.8761 365.375 10.0898 365.375C8.30355 365.375 6.54247 364.889 4.94984 363.955C4.39749 363.662 3.91559 363.218 3.5461 362.661C3.1766 362.103 2.93072 361.451 2.82985 360.759C2.81648 360.605 2.81648 360.451 2.82985 360.297Z" fill="white"/>
</g>
<g style="mix-blend-mode:lighten" opacity="0.5">
<path d="M6.93994 352.981C8.03158 352.368 9.23914 352.081 10.4518 352.147C11.6645 352.212 12.8435 352.628 13.8806 353.356C14.9178 354.085 15.7798 355.102 16.3877 356.315C16.9956 357.527 17.3299 358.897 17.3599 360.297V360.759C17.2572 361.451 17.0095 362.105 16.6383 362.662C16.2671 363.219 15.7837 363.663 15.2299 363.955C14.1015 364.67 12.8605 365.118 11.5799 365.271C13.4699 364.89 14.6899 362.467 14.1099 359.778C13.4399 356.674 10.7099 352.173 6.93994 352.981Z" fill="white"/>
</g>
<g opacity="0.05">
<path d="M2.82985 360.759C2.81648 360.605 2.81648 360.451 2.82985 360.297C2.85134 359.139 3.08213 357.999 3.50746 356.95C3.93279 355.901 4.54328 354.965 5.29985 354.204C4.50985 355.139 2.74985 358.67 4.65985 361.359C5.90985 363.125 11.8698 365.652 16.7698 362.409C16.3491 363.026 15.8255 363.541 15.2299 363.921C13.6372 364.854 11.8761 365.341 10.0898 365.341C8.30355 365.341 6.54247 364.854 4.94984 363.921C4.4012 363.631 3.92169 363.192 3.55244 362.641C3.1832 362.09 2.93524 361.444 2.82985 360.759Z" fill="black"/>
</g>
<g style="mix-blend-mode:lighten" opacity="0.3">
<path d="M10.1698 354.031C9.83984 354.885 10.4698 356.027 11.5598 356.581C12.6498 357.135 13.8098 356.893 14.1398 356.039C14.4698 355.185 13.8398 354.042 12.7398 353.489C11.6398 352.935 10.4898 353.177 10.1698 354.031Z" fill="white"/>
</g>
<g style="mix-blend-mode:lighten" opacity="0.3">
<path d="M14.38 357.504C14.252 357.696 14.1796 357.93 14.1729 358.171C14.1662 358.413 14.2255 358.652 14.3425 358.852C14.4595 359.053 14.6283 359.206 14.8249 359.291C15.0216 359.375 15.2361 359.385 15.4383 359.321C15.6404 359.257 15.82 359.12 15.9514 358.932C16.0829 358.743 16.1597 358.512 16.1709 358.27C16.1822 358.029 16.1273 357.789 16.0141 357.585C15.9008 357.382 15.735 357.224 15.54 357.135C15.3432 357.009 15.1115 356.978 14.8947 357.047C14.6778 357.116 14.493 357.28 14.38 357.504V357.504Z" fill="white"/>
</g>
<path d="M144.49 273.736L126.29 268.289L108.08 273.736C108.08 273.736 105.9 284.987 108.28 302.586C110.66 320.184 121.28 337.852 126.28 337.852C131.28 337.852 141.9 320.207 144.28 302.586C146.66 284.964 144.49 273.736 144.49 273.736Z" fill="#6879C8"/>
<g opacity="0.7">
<path d="M144.49 273.736L126.29 268.289L108.08 273.736C108.08 273.736 105.9 284.987 108.28 302.586C110.66 320.184 121.28 337.852 126.28 337.852C131.28 337.852 141.9 320.207 144.28 302.586C146.66 284.964 144.49 273.736 144.49 273.736Z" fill="white"/>
</g>
<path d="M138.2 276.274H113.28C109.72 301.108 121.15 320.126 125.74 320.126C130.33 320.126 141.76 301.12 138.2 276.274Z" fill="#6879C8"/>
<path d="M125.74 276.274H130C131.985 280.31 132.802 284.972 132.33 289.58C131.81 296.285 128.33 304.997 125.74 304.997C123.15 304.997 119.67 296.285 119.16 289.58C118.694 284.989 119.503 280.347 121.47 276.321H125.74" fill="white"/>
<path d="M154.18 266.142L151.8 236.923H100.7L98.3298 266.142C97.8398 271.301 100.53 276.528 106.45 280.51C117.39 287.791 135.11 287.791 146.03 280.51C152 276.563 154.68 271.301 154.18 266.142Z" fill="#37474F"/>
<path d="M108.18 250.136C98.1799 243.478 98.1799 232.676 108.18 226.006C118.18 219.336 134.4 219.347 144.4 226.006C154.4 232.665 154.4 243.478 144.4 250.136C134.4 256.795 118.19 256.795 108.18 250.136Z" fill="#455A64"/>
<path d="M153.63 258.987L152.83 249.19C152.1 252.964 149.57 256.61 145.22 259.507C134.77 266.431 117.82 266.431 107.36 259.507C103.01 256.61 100.47 252.964 99.7399 249.201L98.9399 258.976C99.5799 263.003 102.21 266.915 106.84 269.997C117.59 277.14 135 277.14 145.74 269.997C150.36 266.915 153 263.038 153.63 258.987Z" fill="#6879C8"/>
<path opacity="0.2" d="M126.69 268.208C140.94 268.208 149.59 262.53 153.49 257.326L152.9 250.09C146.24 255.399 137.18 258.284 127.09 258.284H126.29C119.755 258.46 113.251 257.207 107.12 254.591C107.39 252.733 107.7 250.713 108.04 248.486L105.88 236.946H102.88L100.5 239.531L98.3398 266.165C97.8498 271.324 100.54 276.551 106.46 280.533C117.4 287.814 135.12 287.814 146.04 280.533C146.41 280.29 146.77 280.036 147.11 279.783C147.11 279.783 138.83 284.537 126.11 283.914C113.39 283.291 105.6 277.694 105.37 273.528C105.267 270.138 105.448 266.745 105.91 263.396C110.92 266.281 117.84 268.208 126.69 268.208Z" fill="black"/>
<path d="M127.09 258.283H126.29C115.04 258.433 105.02 255.064 98.0799 248.751C96.8198 247.586 96.01 245.893 95.8269 244.041C95.6437 242.19 96.1021 240.33 97.1022 238.867C98.1023 237.404 99.563 236.456 101.166 236.23C102.769 236.004 104.384 236.519 105.66 237.661C110.42 242 117.72 244.32 126.2 244.17H126.38C134.87 244.274 142.16 242 146.92 237.661C147.55 237.079 148.274 236.645 149.05 236.387C149.826 236.128 150.639 236.05 151.441 236.155C152.244 236.261 153.02 236.549 153.726 237.003C154.432 237.456 155.052 238.067 155.553 238.799C156.053 239.53 156.422 240.369 156.64 241.267C156.858 242.164 156.92 243.103 156.822 244.028C156.724 244.953 156.469 245.847 156.07 246.658C155.672 247.468 155.138 248.18 154.5 248.751C147.73 254.96 138 258.283 127.09 258.283Z" fill="#455A64"/>
<path d="M101.79 247.205C103.63 247.205 110.53 253.148 125.91 253.148C141.29 253.148 151.56 246.224 156.47 240.8C156.247 240.085 155.926 239.415 155.52 238.816C154.511 237.349 153.039 236.403 151.427 236.187C149.814 235.971 148.194 236.501 146.92 237.662C142.16 242.001 134.92 244.274 126.38 244.17H126.2C117.72 244.32 110.42 242.001 105.66 237.662C104.384 236.519 102.769 236.004 101.166 236.23C99.563 236.456 98.1023 237.404 97.1022 238.867C96.1021 240.33 95.6437 242.19 95.8269 244.042C96.01 245.893 96.8198 247.586 98.0799 248.751C105.02 255.064 115.08 258.434 126.29 258.284C120.205 258.158 114.189 256.771 108.53 254.187C102.41 251.498 99.9999 247.205 101.79 247.205Z" fill="#37474F"/>
<path d="M126.29 250.344C116.96 250.344 108.21 247.921 101.63 243.535C95.0499 239.15 91.5199 233.461 91.5199 227.379V226.941C91.1399 219.301 86.9299 132.821 89.3999 101.155C92.3099 63.8576 116.54 32.942 123.89 24.3562C124.205 23.9867 124.581 23.6933 124.996 23.493C125.41 23.2927 125.855 23.1896 126.305 23.1896C126.754 23.1896 127.199 23.2927 127.614 23.493C128.029 23.6933 128.404 23.9867 128.72 24.3562C136.08 32.942 160.3 63.8576 163.21 101.155C165.68 132.775 161.48 219.255 161.1 226.941V227.379C161.1 233.473 157.51 239.208 151 243.535C144.49 247.863 135.61 250.344 126.29 250.344Z" fill="#F5F5F5"/>
<path d="M126.29 23.6292C126.688 23.6295 127.083 23.7216 127.45 23.8999C127.818 24.0782 128.151 24.3393 128.43 24.6678C135.76 33.2304 159.91 64.0422 162.81 101.189C165.24 132.29 161.2 216.532 160.72 226.445H160.67V227.333C160.67 233.253 157.15 238.873 150.76 243.12C144.37 247.367 135.54 249.859 126.29 249.859C117.04 249.859 108.34 247.471 101.82 243.12C95.2998 238.769 91.9098 233.253 91.9098 227.333V226.445C91.4198 216.532 87.3897 132.29 89.8097 101.189C92.7097 64.0422 116.86 33.2304 124.19 24.6678C124.47 24.3379 124.805 24.076 125.174 23.8977C125.543 23.7193 125.939 23.628 126.34 23.6292M126.34 22.7521C125.839 22.7495 125.344 22.8625 124.882 23.0845C124.42 23.3065 124.001 23.6329 123.65 24.0446C115.58 33.4612 91.9498 63.9615 89.0498 101.109C86.8398 129.439 90.0498 203.919 91.1898 227.333C91.1898 233.322 94.6198 239.312 101.49 243.893C108.36 248.475 117.34 250.748 126.34 250.748C135.34 250.748 144.34 248.44 151.19 243.893C158.04 239.346 161.48 233.322 161.48 227.333C162.65 203.919 165.82 129.439 163.61 101.109C160.67 63.9615 137 33.4612 129 24.0446C128.65 23.6343 128.233 23.3087 127.773 23.0868C127.312 22.8648 126.819 22.7511 126.32 22.7521H126.34Z" fill="#E0E0E0"/>
<path d="M161.16 190.336C159.419 193.554 157.104 196.308 154.37 198.414C152.999 199.45 151.584 200.405 150.13 201.276C148.63 202.049 147.13 202.903 145.6 203.503C133.101 208.55 119.488 208.55 106.99 203.503C105.43 202.915 103.99 202.049 102.46 201.287C101.03 200.353 99.5599 199.522 98.2099 198.425C95.4787 196.319 93.1674 193.565 91.4299 190.347C93.3799 193.318 95.8244 195.81 98.6199 197.675C99.9799 198.668 101.45 199.418 102.88 200.249C104.31 201.08 105.88 201.691 107.37 202.199C119.698 206.603 132.892 206.603 145.22 202.199C146.76 201.691 148.22 200.93 149.71 200.249C151.2 199.568 152.61 198.656 153.97 197.664C156.766 195.798 159.21 193.307 161.16 190.336V190.336Z" fill="#E0E0E0"/>
<path d="M161.16 146.646C159.42 149.864 157.105 152.618 154.37 154.724C153.002 155.764 151.586 156.719 150.13 157.585C148.654 158.418 147.142 159.161 145.6 159.813C133.103 164.867 119.487 164.867 106.99 159.813C105.43 159.213 103.99 158.359 102.46 157.585C101.001 156.717 99.5829 155.762 98.2099 154.724C95.4759 152.621 93.164 149.866 91.4299 146.646C93.3853 149.61 95.8287 152.101 98.6199 153.973C99.9799 154.954 101.45 155.716 102.88 156.547C104.31 157.378 105.88 157.989 107.37 158.497C119.698 162.901 132.892 162.901 145.22 158.497C146.76 157.989 148.22 157.216 149.71 156.535C151.2 155.854 152.61 154.954 153.97 153.962C156.762 152.096 159.206 149.609 161.16 146.646Z" fill="#E0E0E0"/>
<path d="M127.56 170.06C127.56 170.352 127.485 170.638 127.344 170.881C127.203 171.124 127.003 171.313 126.77 171.425C126.536 171.537 126.278 171.566 126.03 171.509C125.782 171.452 125.554 171.311 125.375 171.105C125.196 170.898 125.074 170.635 125.024 170.348C124.975 170.062 125 169.765 125.097 169.495C125.194 169.225 125.358 168.994 125.569 168.832C125.779 168.67 126.027 168.583 126.28 168.583C126.619 168.583 126.945 168.739 127.185 169.016C127.425 169.293 127.56 169.668 127.56 170.06Z" fill="#E0E0E0"/>
<path d="M148.03 165.329C148.737 165.329 149.31 164.667 149.31 163.852C149.31 163.036 148.737 162.375 148.03 162.375C147.323 162.375 146.75 163.036 146.75 163.852C146.75 164.667 147.323 165.329 148.03 165.329Z" fill="#E0E0E0"/>
<path d="M104.53 165.329C105.237 165.329 105.81 164.667 105.81 163.852C105.81 163.036 105.237 162.375 104.53 162.375C103.823 162.375 103.25 163.036 103.25 163.852C103.25 164.667 103.823 165.329 104.53 165.329Z" fill="#E0E0E0"/>
<path d="M149.3 209.389C149.3 209.681 149.225 209.966 149.084 210.209C148.943 210.452 148.743 210.641 148.51 210.753C148.276 210.865 148.018 210.894 147.77 210.837C147.522 210.78 147.294 210.64 147.115 210.433C146.936 210.226 146.814 209.963 146.764 209.677C146.715 209.39 146.74 209.093 146.837 208.823C146.934 208.553 147.098 208.323 147.309 208.16C147.519 207.998 147.767 207.911 148.02 207.911C148.188 207.91 148.355 207.947 148.511 208.021C148.667 208.094 148.809 208.203 148.928 208.341C149.047 208.478 149.141 208.642 149.205 208.821C149.269 209.001 149.301 209.194 149.3 209.389V209.389Z" fill="#E0E0E0"/>
<path d="M105.81 209.389C105.81 209.681 105.735 209.966 105.594 210.209C105.453 210.452 105.253 210.641 105.02 210.753C104.786 210.865 104.528 210.894 104.28 210.837C104.032 210.78 103.804 210.64 103.625 210.433C103.446 210.226 103.324 209.963 103.274 209.677C103.225 209.39 103.25 209.093 103.347 208.823C103.444 208.553 103.608 208.323 103.819 208.16C104.029 207.998 104.277 207.911 104.53 207.911C104.698 207.91 104.865 207.947 105.021 208.021C105.177 208.094 105.319 208.203 105.438 208.341C105.557 208.478 105.651 208.642 105.715 208.821C105.779 209.001 105.811 209.194 105.81 209.389V209.389Z" fill="#E0E0E0"/>
<path d="M147.27 85.2181C135.68 92.9383 116.9 92.9383 105.27 85.2181C98.0399 80.3828 95.2699 73.6781 97.1299 67.4696C97.5199 66.4771 97.9199 65.5078 98.3299 64.5499C104.891 49.6327 113.404 35.9708 123.57 24.0445C123.92 23.636 124.336 23.3116 124.795 23.0902C125.255 22.8688 125.747 22.7548 126.245 22.7548C126.743 22.7548 127.235 22.8688 127.694 23.0902C128.154 23.3116 128.57 23.636 128.92 24.0445C139.067 35.9346 147.567 49.5577 154.12 64.4345C154.56 65.4501 154.98 66.454 155.39 67.4811C157.21 73.7819 154.48 80.4059 147.27 85.2181Z" fill="#6879C8"/>
<path opacity="0.15" d="M126.29 86.5914C119.03 86.5914 112.29 84.745 107.22 81.3869C101.94 77.9249 99.5799 73.3781 100.74 69.0506C101.09 68.1851 101.44 67.3427 101.8 66.5003C108.179 52.0308 116.438 38.7719 126.29 27.1835C126.29 27.1835 119.09 44.1011 117.45 58.3415C115.81 72.5818 120.08 81.7792 126.29 86.5914Z" fill="black"/>
<path opacity="0.5" d="M129.39 30.4377C131.742 33.0979 133.949 35.9228 136 38.8966C138.06 41.8508 140 44.9204 141.82 48.0593C142.74 49.6288 143.61 51.2444 144.48 52.8369C145.35 54.4294 146.18 56.0912 146.94 57.7645C148.518 61.0773 149.918 64.4997 151.13 68.012L145.87 58.4569C144.11 55.2949 142.34 52.1445 140.51 49.0287C138.68 45.9129 136.86 42.8086 135.01 39.7044L129.39 30.4377Z" fill="white"/>
<path d="M128.48 25.1755L126.28 0.341431L124.08 25.1755C124.099 25.3996 124.169 25.6139 124.283 25.7964C124.397 25.9789 124.551 26.1231 124.73 26.2141C125.211 26.4932 125.742 26.6385 126.28 26.6385C126.818 26.6385 127.349 26.4932 127.83 26.2141C128.008 26.1231 128.162 25.9789 128.277 25.7964C128.391 25.6139 128.461 25.3996 128.48 25.1755V25.1755Z" fill="#455A64"/>
<path d="M133.763 143.223C143.723 138.462 148.453 125.285 144.327 113.791C140.202 102.297 128.783 96.8393 118.823 101.6C108.863 106.361 104.133 119.538 108.259 131.032C112.385 142.526 123.803 147.984 133.763 143.223Z" fill="#6879C8"/>
<path opacity="0.15" d="M133.763 143.223C143.723 138.462 148.453 125.285 144.327 113.791C140.202 102.297 128.783 96.8393 118.823 101.6C108.863 106.361 104.133 119.538 108.259 131.032C112.385 142.526 123.803 147.984 133.763 143.223Z" fill="black"/>
<path d="M126.29 147.557C137.07 147.557 145.81 137.472 145.81 125.031C145.81 112.59 137.07 102.505 126.29 102.505C115.509 102.505 106.77 112.59 106.77 125.031C106.77 137.472 115.509 147.557 126.29 147.557Z" fill="#6879C8"/>
<path opacity="0.2" d="M133.32 146.045L127 126.024L143 136.675C143.13 136.421 143.26 136.167 143.38 135.913L127.38 125.25L145.57 121.558C145.57 121.258 145.48 120.969 145.43 120.681L127.24 124.385L139.11 108.067C138.92 107.871 138.73 107.675 138.53 107.49L126.66 123.819V102.517H125.89V123.819L114 107.49L113.42 108.067L125.29 124.385L107.1 120.681C107.1 120.969 107.01 121.258 106.97 121.558L125.16 125.25L109.16 135.913C109.28 136.167 109.41 136.421 109.54 136.675L125.54 126.024L119.22 146.045L119.94 146.346L126.26 126.324L132.57 146.346C132.85 146.253 133.08 146.149 133.32 146.045Z" fill="black"/>
<path d="M126.29 141.303C134.077 141.303 140.39 134.018 140.39 125.031C140.39 116.045 134.077 108.76 126.29 108.76C118.503 108.76 112.19 116.045 112.19 125.031C112.19 134.018 118.503 141.303 126.29 141.303Z" fill="#37474F"/>
<path d="M126.29 108.76C122.788 108.77 119.416 110.283 116.828 113.005C114.24 115.727 112.623 119.462 112.29 123.485C112.604 127.525 114.213 131.283 116.804 134.025C119.394 136.766 122.779 138.292 126.293 138.303C129.808 138.315 133.2 136.811 135.804 134.087C138.408 131.363 140.036 127.615 140.37 123.577C140.055 119.522 138.434 115.751 135.827 113.008C133.22 110.265 129.818 108.749 126.29 108.76V108.76Z" fill="#455A64"/>
<path d="M137.55 120.888C137.55 121.849 137.303 122.788 136.84 123.587C136.378 124.386 135.72 125.009 134.951 125.377C134.182 125.744 133.335 125.841 132.519 125.653C131.702 125.466 130.952 125.003 130.363 124.324C129.774 123.644 129.373 122.778 129.211 121.836C129.048 120.894 129.132 119.917 129.45 119.029C129.769 118.141 130.309 117.383 131.001 116.849C131.693 116.315 132.507 116.03 133.34 116.03C134.456 116.03 135.527 116.542 136.317 117.453C137.106 118.364 137.55 119.6 137.55 120.888V120.888Z" fill="#E0E0E0"/>
<path d="M134.92 130.513C134.92 131.067 134.777 131.609 134.51 132.071C134.243 132.532 133.864 132.891 133.42 133.103C132.976 133.316 132.487 133.371 132.016 133.263C131.544 133.155 131.111 132.888 130.772 132.496C130.432 132.103 130.2 131.604 130.107 131.06C130.013 130.516 130.061 129.952 130.245 129.439C130.429 128.927 130.74 128.489 131.14 128.181C131.539 127.873 132.009 127.708 132.49 127.708C132.809 127.707 133.126 127.778 133.421 127.919C133.717 128.059 133.985 128.266 134.211 128.526C134.437 128.787 134.616 129.097 134.738 129.438C134.859 129.779 134.921 130.144 134.92 130.513V130.513Z" fill="#E0E0E0"/>
<path d="M134.55 196.579C134.597 195.292 134.418 194.007 134.024 192.801C133.63 191.596 133.028 190.495 132.255 189.564C131.483 188.634 130.555 187.893 129.528 187.387C128.501 186.882 127.396 186.621 126.28 186.62V186.62C125.163 186.621 124.058 186.882 123.031 187.387C122.004 187.893 121.077 188.634 120.304 189.564C119.532 190.495 118.93 191.596 118.536 192.801C118.142 194.007 117.963 195.292 118.01 196.579C118.01 196.579 118.01 200.099 118.01 200.71L119.86 251.417C119.904 252.913 120.45 254.331 121.383 255.371C122.316 256.411 123.563 256.992 124.86 256.991H127.64C128.937 256.992 130.184 256.411 131.117 255.371C132.05 254.331 132.596 252.913 132.64 251.417L134.55 200.722C134.58 200.099 134.55 196.579 134.55 196.579Z" fill="#455A64"/>
<path d="M127.67 256.991H124.89C123.593 256.992 122.346 256.411 121.413 255.371C120.48 254.331 119.934 252.913 119.89 251.417L118 200.722C117.953 199.435 118.132 198.149 118.526 196.944C118.92 195.738 119.522 194.637 120.294 193.707C121.067 192.777 121.994 192.036 123.021 191.53C124.048 191.024 125.153 190.763 126.27 190.763C127.386 190.763 128.491 191.024 129.518 191.53C130.545 192.036 131.473 192.777 132.245 193.707C133.018 194.637 133.62 195.738 134.014 196.944C134.408 198.149 134.587 199.435 134.54 200.722L132.69 251.429C132.643 252.927 132.093 254.345 131.156 255.383C130.219 256.421 128.969 256.998 127.67 256.991V256.991Z" fill="#37474F"/>
<path d="M126.28 291.38C125.636 291.381 125.017 291.092 124.554 290.575C124.091 290.058 123.821 289.354 123.8 288.611L121.65 204.576C121.627 203.858 121.73 203.142 121.952 202.471C122.175 201.8 122.512 201.188 122.944 200.671C123.377 200.154 123.895 199.742 124.468 199.462C125.041 199.181 125.657 199.037 126.28 199.037V199.037C126.902 199.037 127.519 199.181 128.092 199.462C128.665 199.742 129.183 200.154 129.615 200.671C130.048 201.188 130.385 201.8 130.607 202.471C130.83 203.142 130.933 203.858 130.91 204.576L128.76 288.611C128.739 289.354 128.469 290.058 128.006 290.575C127.543 291.092 126.924 291.381 126.28 291.38V291.38Z" fill="#6879C8"/>
<path opacity="0.2" d="M123.8 288.611C123.8 289.376 124.063 290.11 124.532 290.651C125.001 291.192 125.637 291.496 126.3 291.496C126.963 291.496 127.599 291.192 128.068 290.651C128.536 290.11 128.8 289.376 128.8 288.611L129 278.04L128.89 277.705C128.89 277.705 128.54 282.633 126.25 281.41C124.61 280.533 123.6 274.659 123.25 268.82L123.8 288.611Z" fill="black"/>
<path opacity="0.5" d="M130.91 204.576C130.933 203.858 130.83 203.142 130.607 202.471C130.385 201.8 130.047 201.188 129.615 200.671C129.183 200.154 128.665 199.742 128.092 199.462C127.519 199.181 126.902 199.037 126.28 199.037V199.037C126.018 199.04 125.758 199.067 125.5 199.118C128.33 199.741 129.23 201.726 129.39 209.654C129.55 217.951 128.84 285.172 128.84 285.172L130.91 204.576Z" fill="white"/>
<path d="M164.85 167.452C163.73 166.714 162.18 166.841 160.45 167.995C158.563 169.43 157.008 171.373 155.917 173.657C154.826 175.941 154.234 178.497 154.19 181.104L155.68 237.038C155.645 237.515 155.719 237.994 155.894 238.427C156.07 238.86 156.341 239.233 156.68 239.508C157.23 239.866 159.23 241.227 159.8 241.585C160.18 241.782 160.598 241.861 161.012 241.812C161.426 241.763 161.822 241.59 162.16 241.308L164.86 239.519C165.826 238.786 166.635 237.808 167.226 236.661C167.817 235.513 168.174 234.226 168.27 232.896L169.78 174.538C169.84 172.045 169.13 170.291 167.94 169.506L164.85 167.452Z" fill="#263238"/>
<path d="M162.21 241.331C160.38 242.554 158.85 241.562 158.79 239.127L157.29 183.193C157.332 180.581 157.925 178.02 159.018 175.732C160.11 173.444 161.669 171.497 163.56 170.06C167.14 167.671 169.94 169.691 169.83 174.561L168.32 232.919C168.224 234.249 167.867 235.536 167.276 236.684C166.685 237.831 165.876 238.809 164.91 239.543L162.21 241.331Z" fill="#37474F"/>
<path d="M164.85 167.452C165.39 167.798 167.46 169.183 167.98 169.529C166.85 168.779 165.3 168.906 163.55 170.06C160.848 172.093 158.852 175.156 157.91 178.715L154.8 176.638C155.749 173.079 157.748 170.017 160.45 167.983C162.19 166.84 163.73 166.714 164.85 167.452Z" fill="#455A64"/>
<path d="M169.48 182.258L166.66 180.389L163.56 182.454V273.77C166.82 275.951 169.86 276.078 172.31 274.416L175.39 272.351C178.47 270.32 180.62 265.554 181.13 258.687L184 221.09C185.05 206.342 178.26 188.132 169.48 182.258Z" fill="#6879C8"/>
<g opacity="0.2">
<path d="M169.48 182.258L166.66 180.389L163.56 182.454V273.77C166.82 275.951 169.86 276.078 172.31 274.416L175.39 272.351C178.47 270.32 180.62 265.554 181.13 258.687L184 221.09C185.05 206.342 178.26 188.132 169.48 182.258Z" fill="white"/>
</g>
<path d="M163.56 273.77V182.477L166.37 184.358C175.15 190.209 181.94 208.419 180.84 223.156L178 260.73C177.1 273.089 170.9 278.663 163.56 273.77Z" fill="#6879C8"/>
<path opacity="0.2" d="M163.56 273.77V182.477L166.37 184.358C175.15 190.209 181.94 208.419 180.84 223.156L178 260.73C177.1 273.089 170.9 278.663 163.56 273.77Z" fill="black"/>
<path opacity="0.2" d="M178.1 259.714C177.65 265.727 172.48 268.046 168.72 263.442C164.96 258.837 163.56 252.871 163.56 234.315V273.77C170.9 278.663 177.1 273.089 178.02 260.765L178.1 259.714Z" fill="black"/>
<path d="M87.7198 167.452C88.8398 166.714 90.3898 166.841 92.1198 167.995C94.0077 169.429 95.5649 171.372 96.6572 173.656C97.7495 175.94 98.3441 178.496 98.3898 181.104L96.8898 237.038C96.9248 237.515 96.8509 237.994 96.6754 238.427C96.5 238.86 96.2291 239.233 95.8898 239.508C95.3398 239.866 93.3398 241.227 92.7798 241.585C92.3983 241.782 91.9787 241.86 91.5628 241.812C91.1469 241.763 90.7494 241.589 90.4098 241.308L87.7198 239.519C86.7512 238.788 85.9398 237.811 85.3472 236.663C84.7546 235.515 84.3964 234.227 84.2998 232.896L82.7898 174.538C82.7398 172.045 83.4498 170.291 84.6398 169.506C85.1098 169.183 87.1798 167.798 87.7198 167.452Z" fill="#263238"/>
<path d="M90.3599 241.331C92.1899 242.554 93.7199 241.562 93.7799 239.127L95.2799 183.193C95.2312 180.581 94.6344 178.022 93.5406 175.734C92.4468 173.447 90.8888 171.5 88.9999 170.06C85.4199 167.671 82.6099 169.691 82.7199 174.561L84.2299 232.919C84.3265 234.25 84.6846 235.538 85.2772 236.686C85.8698 237.834 86.6813 238.811 87.6499 239.543L90.3599 241.331Z" fill="#37474F"/>
<path d="M87.7198 167.452C87.1798 167.798 85.1098 169.183 84.5898 169.529C85.7198 168.779 87.2799 168.906 89.0199 170.06C91.7241 172.089 93.7214 175.154 94.6599 178.715L97.7798 176.638C96.827 173.079 94.8245 170.017 92.1198 167.983C90.3898 166.84 88.8398 166.714 87.7198 167.452Z" fill="#455A64"/>
<path d="M83.0898 182.258L85.9098 180.389L89.0198 182.454V273.77C85.7498 275.951 82.7098 276.078 80.2598 274.416L77.1798 272.351C74.1098 270.32 71.9598 265.554 71.4398 258.687L68.6298 221.09C67.5198 206.342 74.3098 188.132 83.0898 182.258Z" fill="#6879C8"/>
<g opacity="0.2">
<path d="M83.0898 182.258L85.9098 180.389L89.0198 182.454V273.77C85.7498 275.951 82.7098 276.078 80.2598 274.416L77.1798 272.351C74.1098 270.32 71.9598 265.554 71.4398 258.687L68.6298 221.09C67.5198 206.342 74.3098 188.132 83.0898 182.258Z" fill="white"/>
</g>
<path d="M88.9999 273.77V182.477L86.1799 184.358C77.3999 190.209 70.6099 208.419 71.7099 223.156L74.5499 260.73C75.4699 273.089 81.6699 278.663 88.9999 273.77Z" fill="#6879C8"/>
<path opacity="0.2" d="M88.9999 273.77V182.477L86.1799 184.358C77.3999 190.209 70.6099 208.419 71.7099 223.156L74.5499 260.73C75.4699 273.089 81.6699 278.663 88.9999 273.77Z" fill="black"/>
<path opacity="0.2" d="M74.4697 259.714C74.9197 265.727 80.0997 268.046 83.8497 263.442C87.5997 258.837 89.0097 252.871 89.0197 234.315V273.77C81.6697 278.663 75.4697 273.089 74.5497 260.765L74.4697 259.714Z" fill="black"/>
</svg>
