<svg width="182" height="204" viewBox="0 0 182 204" fill="none" xmlns="http://www.w3.org/2000/svg">
<path d="M93.6151 128.103L125.535 125.751L125.815 124.479C126.815 119.471 130.595 100.66 130.005 88.7001C129.951 86.5708 129.632 84.457 129.055 82.4095C125.155 70.0727 86.8751 45.2056 86.8751 45.2056L85.0151 60.1279L107.515 88.8121C100.605 104.671 93.6151 128.103 93.6151 128.103Z" fill="#2E91E7"/>
<path opacity="0.7" d="M93.6151 128.103L125.535 125.751L125.815 124.479C126.815 119.471 130.595 100.66 130.005 88.7001C129.951 86.5708 129.632 84.457 129.055 82.4095C125.155 70.0727 86.8751 45.2056 86.8751 45.2056L85.0151 60.1279L107.515 88.8121C100.605 104.671 93.6151 128.103 93.6151 128.103Z" fill="white"/>
<path d="M67.8849 169.154C63.8849 171.933 59.8849 174.916 55.8849 177.766C53.8849 179.221 51.8849 180.616 49.9649 181.99C48.0449 183.364 46.0449 184.677 44.3049 185.726C43.8849 185.99 43.4549 186.235 43.1349 186.418C42.8149 186.601 42.5649 186.703 42.6249 186.744C42.7444 186.728 42.8654 186.728 42.9849 186.744H43.0749H42.9749H42.7749L41.9549 186.896L40.2649 187.212C37.9749 187.639 35.5649 187.985 33.1449 188.393C28.3049 189.176 23.3249 189.94 18.3949 191.059H18.3049C17.3042 191.293 16.4095 191.861 15.7643 192.674C15.1191 193.486 14.7608 194.496 14.747 195.541C14.7332 196.586 15.0645 197.605 15.688 198.435C16.3114 199.265 17.1907 199.858 18.1849 200.119C23.23 201.376 28.3613 202.244 33.5349 202.714C36.1249 202.969 38.7449 203.101 41.4549 203.152C42.1349 203.152 42.8049 203.152 43.5149 203.152H44.5649H44.9649H45.2849C45.7149 203.091 46.1449 203.01 46.5749 202.928C47.5945 202.677 48.5966 202.357 49.5749 201.971C50.4049 201.656 51.1149 201.34 51.8149 201.035C54.5549 199.773 56.8149 198.46 59.1949 197.126C61.5749 195.793 63.6949 194.388 65.8849 192.983C70.2349 190.113 74.4149 187.212 78.5249 183.955C79.4868 183.25 80.303 182.36 80.9269 181.334C81.5507 180.309 81.9701 179.168 82.1609 177.978C82.3517 176.787 82.3103 175.57 82.039 174.396C81.7678 173.222 81.272 172.113 80.5799 171.134C79.8878 170.155 79.013 169.324 78.0055 168.689C76.998 168.054 75.8775 167.627 74.708 167.433C73.5384 167.239 72.3428 167.281 71.1892 167.557C70.0356 167.833 68.9468 168.338 67.9849 169.042L67.8849 169.154Z" fill="#2E91E7"/>
<path opacity="0.7" d="M67.8849 169.154C63.8849 171.933 59.8849 174.916 55.8849 177.766C53.8849 179.221 51.8849 180.616 49.9649 181.99C48.0449 183.364 46.0449 184.677 44.3049 185.726C43.8849 185.99 43.4549 186.235 43.1349 186.418C42.8149 186.601 42.5649 186.703 42.6249 186.744C42.7444 186.728 42.8654 186.728 42.9849 186.744H43.0749H42.9749H42.7749L41.9549 186.896L40.2649 187.212C37.9749 187.639 35.5649 187.985 33.1449 188.393C28.3049 189.176 23.3249 189.94 18.3949 191.059H18.3049C17.3042 191.293 16.4095 191.861 15.7643 192.674C15.1191 193.486 14.7608 194.496 14.747 195.541C14.7332 196.586 15.0645 197.605 15.688 198.435C16.3114 199.265 17.1907 199.858 18.1849 200.119C23.23 201.376 28.3613 202.244 33.5349 202.714C36.1249 202.969 38.7449 203.101 41.4549 203.152C42.1349 203.152 42.8049 203.152 43.5149 203.152H44.5649H44.9649H45.2849C45.7149 203.091 46.1449 203.01 46.5749 202.928C47.5945 202.677 48.5966 202.357 49.5749 201.971C50.4049 201.656 51.1149 201.34 51.8149 201.035C54.5549 199.773 56.8149 198.46 59.1949 197.126C61.5749 195.793 63.6949 194.388 65.8849 192.983C70.2349 190.113 74.4149 187.212 78.5249 183.955C79.4868 183.25 80.303 182.36 80.9269 181.334C81.5507 180.309 81.9701 179.168 82.1609 177.978C82.3517 176.787 82.3103 175.57 82.039 174.396C81.7678 173.222 81.272 172.113 80.5799 171.134C79.8878 170.155 79.013 169.324 78.0055 168.689C76.998 168.054 75.8775 167.627 74.708 167.433C73.5384 167.239 72.3428 167.281 71.1892 167.557C70.0356 167.833 68.9468 168.338 67.9849 169.042L67.8849 169.154Z" fill="white"/>
<path d="M42.6553 186.744C42.6553 186.744 49.1253 196.648 47.6553 202.582L49.6553 201.91C49.6553 201.91 49.1153 190.998 43.1853 186.418L42.6553 186.744Z" fill="#2E91E7"/>
<path d="M16.4449 191.568L7.7749 192.668L13.0049 200.974C13.0049 200.974 20.6749 199.518 19.7749 195.518L16.4449 191.568Z" fill="#2E91E7"/>
<path d="M0.995117 198.144L7.87511 203.732L13.0051 200.974L7.7751 192.668L0.995117 198.144Z" fill="#2E91E7"/>
<g opacity="0.5">
<path d="M16.4449 191.568L7.7749 192.668L13.0049 200.974C13.0049 200.974 20.6749 199.518 19.7749 195.518L16.4449 191.568Z" fill="white"/>
<path d="M0.995117 198.144L7.87511 203.732L13.0051 200.974L7.7751 192.668L0.995117 198.144Z" fill="white"/>
</g>
<path d="M16.4453 191.568C16.4453 191.568 19.9953 195.976 17.0453 199.712L18.2153 200.2C18.2153 200.2 22.9253 197.147 18.4253 191.121L16.4453 191.568Z" fill="#2E91E7"/>
<path opacity="0.4" d="M42.6553 186.744C42.6553 186.744 49.1253 196.648 47.6553 202.582L49.6553 201.91C49.6553 201.91 49.1153 190.998 43.1853 186.418L42.6553 186.744Z" fill="white"/>
<path opacity="0.4" d="M16.4453 191.568C16.4453 191.568 19.9953 195.976 17.0453 199.712L18.2153 200.2C18.2153 200.2 22.9253 197.147 18.4253 191.121L16.4453 191.568Z" fill="white"/>
<path d="M88.7249 50.2136L87.2649 58.8657C87.2649 59.2932 85.4349 60.1992 85.0049 60.1686L75.3749 59.619C74.8737 59.5577 74.4165 59.2979 74.102 58.8959C73.7876 58.494 73.6414 57.9821 73.6949 57.4712C74.2649 53.1961 74.6949 51.1807 75.4149 45.7858C75.8149 42.4675 76.2849 35.8715 77.5249 31.4234C78.7649 26.9752 83.0549 28.3697 82.9149 30.3342C82.5949 35.0674 84.8449 41.8364 86.8649 45.2056C87.2249 45.796 88.8349 49.5317 88.7249 50.2136Z" fill="#2E91E7"/>
<path opacity="0.5" d="M89.5849 50.7531L86.645 59.6292C86.645 60.0567 85.4549 60.1992 85.0249 60.1686L75.395 59.619C74.8938 59.5577 74.4365 59.2979 74.1221 58.8959C73.8077 58.494 73.6614 57.9821 73.7149 57.4712C74.2849 53.1961 74.7149 51.1807 75.4349 45.7858C75.8349 42.4675 76.305 35.8715 77.545 31.4234C78.785 26.9752 83.0749 28.3697 82.9349 30.3342C82.6149 35.0674 84.865 41.8364 86.885 45.2056C87.225 45.796 89.6649 50.0711 89.5849 50.7531Z" fill="white"/>
<path opacity="0.1" d="M125.815 124.479C126.815 119.471 130.595 100.66 130.005 88.7002C127.145 93.6268 120.725 105.933 119.725 118.616C119.175 124.927 121.995 126.22 125.815 124.479Z" fill="black"/>
<path d="M95.5049 133.233C95.5049 133.233 98.1449 113.893 118.095 110.341C118.095 110.341 132.475 91.6725 150.555 72.9433L140.885 21.672L151.335 16.3586C151.335 16.3586 173.535 54.8044 170.255 79.9159C166.975 105.027 130.455 140.653 130.455 140.653L95.5049 133.233Z" fill="#2E91E7"/>
<path opacity="0.7" d="M95.5049 133.233C95.5049 133.233 98.1449 113.893 118.095 110.341C118.095 110.341 132.475 91.6725 150.555 72.9433L140.885 21.672L151.335 16.3586C151.335 16.3586 173.535 54.8045 170.255 79.9159C166.975 105.027 130.455 140.653 130.455 140.653L95.5049 133.233Z" fill="white"/>
<path d="M128.905 113.191C128.902 114.949 128.244 116.641 127.063 117.926C125.883 119.21 124.269 119.991 122.545 120.112L98.5451 121.812C97.0118 121.923 95.4866 121.504 94.2163 120.623C92.946 119.742 92.0049 118.45 91.5451 116.957C91.383 116.438 91.2823 115.902 91.2451 115.359C91.2451 115.196 91.2451 115.033 91.2451 114.87C91.2461 113.113 91.902 111.421 93.0805 110.136C94.2591 108.852 95.8725 108.07 97.5951 107.949L121.595 106.249C123.4 106.126 125.18 106.736 126.544 107.945C127.909 109.155 128.747 110.865 128.875 112.702C128.895 112.865 128.905 113.058 128.905 113.191Z" fill="#2E91E7"/>
<path opacity="0.2" d="M127.725 111.023C127.722 112.78 127.065 114.47 125.887 115.754C124.709 117.038 123.097 117.821 121.375 117.944L97.3751 119.644C96.2657 119.723 95.1544 119.523 94.1381 119.064C93.1218 118.604 92.2316 117.898 91.5451 117.008C91.383 116.489 91.2823 115.953 91.2451 115.41C91.2451 115.247 91.2451 115.084 91.2451 114.921C91.2461 113.164 91.902 111.472 93.0805 110.187C94.2591 108.902 95.8725 108.121 97.5951 108L121.595 106.3C122.704 106.221 123.816 106.42 124.832 106.88C125.848 107.34 126.739 108.045 127.425 108.936C127.587 109.455 127.688 109.991 127.725 110.534C127.725 110.646 127.725 110.809 127.725 111.023Z" fill="white"/>
<path d="M132.545 142.577C132.481 138.888 131.271 135.314 129.088 132.368C126.905 129.422 123.862 127.256 120.395 126.179C107.865 121.802 109.685 137.671 109.685 137.671L132.025 143.514L132.545 142.577Z" fill="#2E91E7"/>
<path opacity="0.4" d="M132.545 142.577C132.481 138.888 131.271 135.314 129.088 132.368C126.905 129.422 123.862 127.256 120.395 126.179C107.865 121.802 109.685 137.671 109.685 137.671L132.025 143.514L132.545 142.577Z" fill="white"/>
<path d="M116.605 127.146C116.605 127.146 129.235 130.2 131.785 140.725C134.335 151.25 116.625 174.315 109.255 178.387C101.885 182.458 72.425 186.398 68.925 182.112C56.865 167.353 82.725 143.402 91.615 137.488C100.505 131.574 116.605 127.146 116.605 127.146Z" fill="#2E91E7"/>
<path opacity="0.7" d="M68.9252 182.132C69.0911 182.329 69.2869 182.498 69.5052 182.631C71.7952 184.117 78.1352 184.27 85.1852 183.649C94.0552 182.865 104.055 180.87 108.535 178.753L109.255 178.397C114.945 175.231 126.815 160.736 130.745 149.468C131.905 146.15 132.365 143.106 131.745 140.714C129.195 130.21 116.565 127.136 116.565 127.136C116.565 127.136 100.475 131.645 91.5652 137.518C82.6552 143.391 56.8652 167.342 68.9252 182.132Z" fill="white"/>
<path opacity="0.1" d="M69.5049 182.631C71.7949 184.117 78.1349 184.27 85.1849 183.649C99.7449 167.699 91.4349 155.454 91.4349 155.454C79.1849 154.324 70.5749 171.475 69.5049 182.631Z" fill="black"/>
<path d="M125.815 124.479C125.815 124.479 123.725 113.364 121.225 112.04C118.725 110.717 92.0053 113.13 88.5853 114.443C85.1653 115.756 66.6854 132.205 65.4454 136.836C64.2054 141.468 69.8053 153.509 69.8053 153.509C69.8053 153.509 88.9254 157.398 96.7254 154.09C104.525 150.781 123.805 130.566 125.815 124.479Z" fill="#2E91E7"/>
<path opacity="0.5" d="M69.8051 153.499C69.8051 153.499 88.9251 157.378 96.7251 154.069C104.525 150.761 123.815 130.576 125.805 124.479C125.805 124.479 123.675 113.364 121.225 112C118.775 110.636 92.0151 113.099 88.5851 114.402C85.1551 115.705 66.6851 132.175 65.4551 136.796C65.1868 138.208 65.2209 139.663 65.5551 141.061C66.5451 146.466 69.8051 153.499 69.8051 153.499Z" fill="white"/>
<path opacity="0.2" d="M65.5549 141.081C68.1449 141.58 84.9549 144.654 92.1449 141.6C99.9349 138.282 119.225 118.148 121.225 112.041C118.775 110.687 92.0149 113.14 88.5849 114.443C85.1549 115.746 66.6849 132.215 65.4549 136.836C65.1895 138.242 65.2236 139.69 65.5549 141.081Z" fill="white"/>
<path d="M82.7381 180.267C93.1014 171.049 94.1609 155.024 85.1044 144.475C76.0479 133.927 60.3051 132.848 49.9417 142.067C39.5784 151.285 38.5189 167.31 47.5754 177.859C56.6319 188.407 72.3747 189.486 82.7381 180.267Z" fill="#263238"/>
<path opacity="0.7" d="M82.7381 180.267C93.1014 171.049 94.1609 155.024 85.1044 144.475C76.0479 133.927 60.3051 132.848 49.9417 142.067C39.5784 151.285 38.5189 167.31 47.5754 177.859C56.6319 188.407 72.3747 189.486 82.7381 180.267Z" fill="white"/>
<path opacity="0.2" d="M74.7253 183.945C79.1568 182.256 82.9969 179.268 85.7598 175.358C88.5226 171.448 90.0841 166.792 90.2468 161.978C90.4094 157.164 89.1658 152.41 86.6734 148.316C84.1809 144.222 80.5516 140.972 76.2444 138.978C71.9373 136.984 67.1458 136.335 62.4763 137.113C57.8067 137.891 53.4687 140.062 50.0111 143.35C46.5536 146.638 44.1317 150.896 43.052 155.585C41.9723 160.275 42.2831 165.185 43.9453 169.694C46.1747 175.735 50.6682 180.629 56.4391 183.301C62.21 185.972 68.7867 186.204 74.7253 183.945Z" fill="black"/>
<path opacity="0.3" d="M90.812 168.048C93.211 158.239 89.3253 148.81 82.1332 146.988C74.9411 145.165 67.1659 151.639 64.767 161.447C62.3681 171.256 66.2537 180.685 73.4459 182.507C80.638 184.33 88.4131 177.856 90.812 168.048Z" fill="black"/>
<path d="M69.7251 173.888C69.7251 173.888 74.3851 178.56 75.7751 177.389C77.1651 176.219 79.8551 179.822 82.1051 177.776C84.3551 175.73 88.7651 169.755 86.5351 164.136C84.3051 158.518 70.2151 165.47 69.7251 173.888Z" fill="#263238"/>
<path opacity="0.8" d="M69.7251 173.888C69.7251 173.888 74.3951 178.56 75.7751 177.389C75.9855 177.246 76.2291 177.161 76.4818 177.143C76.7344 177.125 76.9872 177.175 77.2151 177.287C78.6351 177.786 80.4851 179.252 82.1051 177.776C84.3551 175.74 88.7551 169.755 86.5351 164.136C85.5851 161.724 82.4451 161.632 79.1251 162.966C78.2273 163.329 77.361 163.768 76.5351 164.279C73.1551 166.375 70.1551 169.765 69.7551 173.44C69.7751 173.603 69.7251 173.755 69.7251 173.888Z" fill="white"/>
<path opacity="0.2" d="M69.7251 173.888C69.7251 173.888 74.3951 178.56 75.7751 177.389C75.9855 177.246 76.2291 177.161 76.4818 177.143C76.7344 177.125 76.9872 177.175 77.2151 177.287C82.7651 173.908 80.2151 165.816 79.1251 162.966C78.2273 163.329 77.361 163.768 76.5351 164.279C73.9502 167.069 71.6764 170.141 69.7551 173.44C69.7751 173.603 69.7251 173.755 69.7251 173.888Z" fill="black"/>
<path d="M59.7249 173.501C59.8946 173.516 60.0653 173.516 60.2349 173.501C65.0149 173.267 63.6849 163.525 61.3649 157.958C60.3649 155.494 58.9349 154.364 57.6649 154.303C56.0449 154.212 54.6649 155.82 54.3649 158.548C54.1849 160.38 55.3649 162.894 55.1649 164.116C54.9649 165.337 55.4549 173.114 59.7249 173.501Z" fill="#263238"/>
<path opacity="0.9" d="M59.7249 173.501C59.8946 173.516 60.0653 173.516 60.2349 173.501C65.0149 173.267 63.6849 163.525 61.3649 157.958C60.3649 155.494 58.9349 154.364 57.6649 154.303C56.0449 154.212 54.6649 155.82 54.3649 158.548C54.1849 160.38 55.3649 162.894 55.1649 164.116C54.9649 165.337 55.4549 173.114 59.7249 173.501Z" fill="white"/>
<path opacity="0.2" d="M59.7252 173.501C59.8948 173.517 60.0655 173.517 60.2352 173.501C65.0152 173.267 63.6852 163.526 61.3652 157.958C60.3652 155.494 58.9352 154.365 57.6652 154.303C57.3087 154.567 56.9743 154.86 56.6652 155.179C55.0752 156.777 56.6652 162.986 56.6652 164.615C56.5552 166.111 57.1052 171.078 59.7252 173.501Z" fill="black"/>
<path d="M76.8551 157.031C78.6951 164.38 80.1351 168.595 77.7151 173.43C74.0651 180.707 64.2351 180.178 60.2651 173.521C56.6951 167.526 54.2651 156.512 60.3451 151.443C61.6877 150.32 63.2882 149.562 64.9968 149.239C66.7055 148.916 68.4666 149.04 70.1156 149.598C71.7647 150.156 73.2478 151.131 74.4264 152.431C75.6049 153.731 76.4406 155.313 76.8551 157.031Z" fill="#EBB376"/>
<path d="M66.7252 162.457C66.9052 163.047 66.7252 163.617 66.3752 163.739C66.0252 163.861 65.5352 163.485 65.3752 162.894C65.2152 162.304 65.3752 161.734 65.7252 161.612C66.0752 161.49 66.5052 161.917 66.7252 162.457Z" fill="#263238"/>
<path d="M60.1451 164.533C60.3251 165.113 60.1451 165.694 59.7951 165.816C59.4451 165.938 58.9551 165.551 58.7951 164.961C58.6351 164.37 58.7951 163.8 59.1451 163.688C59.4951 163.576 59.9551 163.953 60.1451 164.533Z" fill="#263238"/>
<path d="M62.3152 164.167C62.1497 166.128 61.719 168.056 61.0352 169.897C61.5187 170.044 62.0271 170.084 62.5269 170.015C63.0268 169.947 63.5067 169.771 63.9352 169.501L62.3152 164.167Z" fill="#D58745"/>
<path d="M64.8249 158.568C64.882 158.538 64.9455 158.522 65.0099 158.522C65.0743 158.522 65.1378 158.538 65.1949 158.568C65.5612 158.83 65.9824 159.001 66.425 159.068C66.8677 159.136 67.3196 159.097 67.7449 158.955C67.8325 158.918 67.931 158.917 68.0191 158.953C68.1071 158.99 68.1775 159.06 68.2149 159.149C68.2346 159.191 68.2456 159.237 68.2471 159.284C68.2487 159.331 68.2408 159.378 68.2239 159.422C68.2071 159.466 68.1816 159.506 68.1491 159.539C68.1166 159.573 68.0778 159.599 68.0349 159.617C67.4987 159.809 66.9252 159.869 66.3618 159.791C65.7983 159.713 65.2612 159.5 64.7949 159.169C64.718 159.115 64.6646 159.033 64.6459 158.94C64.6273 158.847 64.6449 158.75 64.6949 158.67C64.7323 158.629 64.7763 158.595 64.8249 158.568Z" fill="#263238"/>
<path d="M58.1349 160.166C58.2035 160.146 58.2764 160.146 58.3449 160.166C58.3899 160.179 58.4319 160.201 58.4684 160.231C58.505 160.26 58.5353 160.297 58.5577 160.339C58.5801 160.381 58.594 160.426 58.5987 160.474C58.6034 160.521 58.5987 160.569 58.5849 160.614C58.4336 161.166 58.1549 161.672 57.7723 162.092C57.3896 162.512 56.9139 162.832 56.3849 163.027C56.2935 163.05 56.1969 163.038 56.1137 162.993C56.0305 162.948 55.9668 162.873 55.9349 162.782C55.9212 162.737 55.9165 162.689 55.9212 162.642C55.9259 162.595 55.9398 162.549 55.9622 162.507C55.9845 162.465 56.0149 162.428 56.0514 162.399C56.088 162.369 56.13 162.347 56.1749 162.334C56.5953 162.178 56.9723 161.921 57.2736 161.584C57.5749 161.247 57.7915 160.841 57.9049 160.4C57.9192 160.344 57.9481 160.293 57.9885 160.251C58.029 160.21 58.0795 160.181 58.1349 160.166Z" fill="#263238"/>
<path d="M69.365 173.165C69.205 173.277 69.025 173.389 68.845 173.491L65.335 171.679C65.335 171.679 65.465 171.475 65.685 171.18C66.405 170.162 68.135 167.984 69.685 168.126C69.8621 168.153 70.0362 168.198 70.205 168.259C70.8291 168.46 71.3614 168.882 71.705 169.45C72.175 170.355 71.865 171.597 69.365 173.165Z" fill="#263238"/>
<path d="M70.2251 168.309L66.1351 171.363L65.6851 171.21C66.4051 170.193 68.1351 168.014 69.6851 168.157C69.8696 168.189 70.0505 168.24 70.2251 168.309Z" fill="white"/>
<path d="M69.365 173.165C68.695 171.669 70.525 170.213 71.725 169.5C72.175 170.356 71.865 171.597 69.365 173.165Z" fill="#DE5753"/>
<path d="M68.5453 177.44L68.2354 176.473C69.1554 176.158 71.7153 175.15 72.5453 174.244C73.9866 172.125 75.2766 169.904 76.4053 167.597L77.2953 168.076C77.1753 168.3 74.4153 173.694 73.2953 174.936C72.1753 176.178 68.7253 177.389 68.5453 177.44Z" fill="#263238"/>
<path d="M68.5952 177.633L69.6452 177.226C69.8213 177.16 69.9645 177.025 70.0432 176.851C70.1219 176.678 70.1298 176.48 70.0652 176.3C69.9959 176.122 69.8608 175.978 69.6888 175.9C69.5168 175.822 69.3217 175.816 69.1452 175.883L68.0952 176.28C67.9208 176.348 67.7801 176.484 67.7033 176.657C67.6265 176.831 67.62 177.028 67.6852 177.206C67.7504 177.385 67.8829 177.531 68.0534 177.611C68.224 177.691 68.4188 177.699 68.5952 177.633Z" fill="#263238"/>
<path d="M81.4753 162.141C81.4794 163.087 81.2984 164.024 80.943 164.898C80.5877 165.771 80.0649 166.565 79.4053 167.231C77.6353 168.992 75.5353 167.658 75.0253 165.327C74.5553 163.22 74.9153 159.78 77.1853 158.894C77.6833 158.712 78.2178 158.658 78.7412 158.737C79.2645 158.816 79.7606 159.026 80.1852 159.347C80.6098 159.669 80.9497 160.092 81.1748 160.579C81.3999 161.067 81.5031 161.603 81.4753 162.141Z" fill="#EBB376"/>
<path d="M60.575 153.998C62.775 153.286 68.525 152.298 69.805 153.489C71.085 154.68 73.755 168.931 76.615 169.775C79.475 170.62 84.515 165.836 84.095 161.52C83.9146 159.064 82.8201 156.77 81.035 155.108C81.035 155.108 80.275 143.768 68.665 144.644C57.055 145.519 54.235 155.189 54.395 158.568C55.9218 156.411 58.0878 154.81 60.575 153.998Z" fill="#263238"/>
<path opacity="0.9" d="M60.575 153.998C62.775 153.286 68.525 152.298 69.805 153.489C71.085 154.68 73.755 168.931 76.615 169.775C79.475 170.62 84.515 165.836 84.095 161.52C83.9146 159.064 82.8201 156.77 81.035 155.108C81.035 155.108 80.275 143.768 68.665 144.644C57.055 145.519 54.235 155.189 54.395 158.568C55.9218 156.411 58.0878 154.81 60.575 153.998Z" fill="white"/>
<path d="M51.615 139.666L53.155 139.239C57.5498 136.483 62.5937 134.985 67.755 134.902C76.695 134.628 89.865 142.873 92.095 158.843C92.185 159.454 92.245 160.014 92.285 160.533C92.3411 160.996 92.3711 161.461 92.375 161.927V161.978C92.3956 162.56 92.3722 163.141 92.305 163.719C91.485 173.318 83.645 180.545 83.645 180.545C80.694 183.354 77.2279 185.543 73.445 186.988L71.725 185.919C87.795 179.344 85.345 161.429 85.345 161.429L79.885 150.914C79.885 150.914 65.275 134.007 48.045 143.962L47.335 143.331C48.6494 141.979 50.082 140.753 51.615 139.666Z" fill="#2E91E7"/>
<path opacity="0.7" d="M47.3052 143.331L48.0052 143.951C65.2452 134.007 79.8452 150.914 79.8452 150.914L85.3052 161.429C85.3052 161.429 87.7252 179.344 71.7252 185.919L73.4952 186.998C75.0782 186.385 76.6098 185.643 78.0752 184.779C80.1188 183.623 82.0048 182.199 83.6852 180.545C83.6852 180.545 91.5252 173.318 92.3452 163.719C92.4173 163.142 92.4408 162.56 92.4152 161.978C92.4105 161.958 92.4105 161.937 92.4152 161.917C92.4152 161.439 92.3652 160.981 92.3152 160.533C92.2652 160.085 92.2152 159.464 92.1252 158.843C89.9052 142.862 76.7252 134.628 67.7852 134.902C62.6616 134.992 57.6538 136.468 53.2752 139.178L53.1852 139.239L51.6452 139.666C50.0904 140.749 48.6375 141.975 47.3052 143.331Z" fill="white"/>
<path opacity="0.2" d="M47.3052 143.33L48.0052 143.951C65.2452 134.007 79.8452 150.914 79.8452 150.914L85.3052 161.429C85.3052 161.429 87.7252 179.343 71.7252 185.919L73.4952 186.998C75.0782 186.385 76.6098 185.643 78.0752 184.779C82.3952 180.85 89.5652 168.645 86.3652 161.988C84.412 158.004 82.8575 153.83 81.7252 149.529C81.7252 149.529 68.8152 135.126 53.2252 139.177C52.6952 139.31 52.1452 139.483 51.5952 139.666C50.0577 140.751 48.6217 141.978 47.3052 143.33Z" fill="black"/>
<path d="M80.845 149.702C82.565 149.051 84.565 149.753 86.245 151.362C87.8888 152.246 89.1564 153.715 89.8071 155.488C90.4578 157.261 90.4463 159.216 89.775 160.981C89.545 163.312 88.495 165.174 86.775 165.836C83.875 166.935 80.205 164.218 78.565 159.729C76.925 155.24 77.955 150.842 80.845 149.702Z" fill="#2E91E7"/>
<path opacity="0.5" d="M80.845 149.702C82.565 149.051 84.565 149.753 86.245 151.362C87.8888 152.246 89.1564 153.715 89.8071 155.488C90.4578 157.261 90.4463 159.216 89.775 160.981C89.545 163.312 88.495 165.174 86.775 165.836C83.875 166.935 80.205 164.218 78.565 159.729C76.925 155.24 77.955 150.842 80.845 149.702Z" fill="white"/>
<path opacity="0.2" d="M82.5552 158.283C83.6852 161.337 86.2252 163.241 88.2352 162.477C90.2452 161.714 90.9352 158.599 89.8052 155.515C88.6752 152.431 86.1352 150.558 84.1352 151.321C82.1352 152.084 81.4252 155.199 82.5552 158.283Z" fill="white"/>
<path opacity="0.2" d="M47.085 150.486C48.8415 150.733 50.5766 151.118 52.275 151.637C54.3834 148.671 56.966 146.087 59.915 143.992C59.915 143.992 57.235 142.71 52.115 143.911C50.0543 145.768 48.349 147.997 47.085 150.486Z" fill="white"/>
<path opacity="0.2" d="M45.8654 169.47C46.3072 163.673 48.1521 158.078 51.2354 153.184C49.5954 152.451 48.0053 151.779 46.7153 151.27C44.5353 156.095 42.9254 162.742 45.8654 169.47Z" fill="white"/>
<path d="M152.385 18.5063L142.175 25.2041C142.093 25.2645 142 25.3078 141.902 25.3313C141.804 25.3548 141.702 25.3582 141.602 25.3411C141.503 25.324 141.407 25.2869 141.322 25.2319C141.237 25.177 141.163 25.1052 141.105 25.0208L135.395 17.1118C135.122 16.6818 135.026 16.1594 135.129 15.6582C135.232 15.157 135.525 14.7173 135.945 14.4348C139.545 12.1547 141.385 11.2488 145.945 8.32741C148.715 6.52574 154.005 2.69847 158.165 0.835724C162.325 -1.02702 164.025 3.2176 162.425 4.37799C158.635 7.14666 154.945 13.2133 153.675 16.949C153.433 17.6031 152.977 18.1528 152.385 18.5063Z" fill="#2E91E7"/>
<path opacity="0.5" d="M152.385 18.5063L142.175 25.2041C142.093 25.2645 142 25.3078 141.902 25.3313C141.804 25.3548 141.702 25.3582 141.602 25.3411C141.503 25.324 141.407 25.2869 141.322 25.2319C141.237 25.177 141.163 25.1052 141.105 25.0208L135.395 17.1118C135.122 16.6818 135.026 16.1594 135.129 15.6582C135.232 15.157 135.525 14.7173 135.945 14.4348C139.545 12.1547 141.385 11.2488 145.945 8.32741C148.715 6.52574 154.005 2.69847 158.165 0.835724C162.325 -1.02702 164.025 3.2176 162.425 4.37799C158.635 7.14666 154.945 13.2133 153.675 16.949C153.433 17.6031 152.977 18.1528 152.385 18.5063Z" fill="white"/>
<path d="M153.385 17.4478L154.165 19.5751L141.095 26.1914L140.435 24.4101L153.385 17.4478Z" fill="#2E91E7"/>
<path d="M86.725 44.8596C86.725 44.8596 89.785 54.8757 84.415 60.5046L86.255 61.6956C86.255 61.6956 92.8551 54.835 88.8651 46.0404L86.725 44.8596Z" fill="#2E91E7"/>
<path d="M149.895 73.6252L150.295 71.5894C150.295 71.5894 158.905 65.6245 170.525 72.078V76.4346C170.525 76.4346 160.725 69.4213 149.895 73.6252Z" fill="#2E91E7"/>
<path d="M128.075 79.7224C128.075 79.7224 117.415 94.2681 107.075 89.9013L106.735 87.8655C106.735 87.8655 116.065 91.3874 126.045 77.1675L128.075 79.7224Z" fill="#2E91E7"/>
<path opacity="0.1" d="M108.535 178.763L109.255 178.407C114.945 175.241 126.815 160.747 130.745 149.479C124.745 151.128 109.405 155.637 104.635 160.248C98.985 165.704 101.725 176.951 108.535 178.763Z" fill="black"/>
<path opacity="0.4" d="M86.725 44.8596C86.725 44.8596 89.785 54.8757 84.415 60.5046L86.255 61.6956C86.255 61.6956 92.8551 54.835 88.8651 46.0404L86.725 44.8596Z" fill="white"/>
<path opacity="0.4" d="M128.075 79.7224C128.075 79.7224 117.415 94.2681 107.075 89.9013L106.735 87.8655C106.735 87.8655 116.065 91.3874 126.045 77.1675L128.075 79.7224Z" fill="white"/>
<path opacity="0.4" d="M153.385 17.4478L154.165 19.5751L141.095 26.1914L140.435 24.4101L153.385 17.4478Z" fill="white"/>
<path opacity="0.4" d="M149.895 73.6252L150.295 71.5894C150.295 71.5894 158.905 65.6245 170.525 72.078V76.4346C170.525 76.4346 160.725 69.4213 149.895 73.6252Z" fill="white"/>
<path d="M125.815 163.118C125.483 163.118 125.161 163.006 124.898 162.799C124.635 162.592 124.448 162.303 124.364 161.975C124.281 161.648 124.306 161.302 124.437 160.991C124.567 160.681 124.795 160.423 125.085 160.258C128.755 158.222 130.715 155.586 131.085 152.268C132.235 142.19 118.435 129.365 118.295 129.233C118.129 129.105 117.99 128.944 117.888 128.759C117.786 128.575 117.723 128.37 117.703 128.159C117.683 127.948 117.706 127.735 117.771 127.534C117.836 127.333 117.942 127.147 118.081 126.99C118.221 126.832 118.391 126.706 118.581 126.619C118.771 126.532 118.976 126.486 119.185 126.485C119.393 126.483 119.599 126.526 119.79 126.61C119.982 126.694 120.154 126.818 120.295 126.973C120.915 127.543 135.375 141 134.055 152.624C133.565 156.93 131.055 160.401 126.515 162.925C126.302 163.048 126.061 163.115 125.815 163.118Z" fill="#2E91E7"/>
<path d="M124.055 169.043C123.786 169.04 123.522 168.964 123.291 168.823C123.06 168.682 122.871 168.48 122.742 168.239C122.614 167.998 122.551 167.727 122.56 167.453C122.569 167.179 122.65 166.912 122.795 166.681C132.575 151.301 114.185 137.61 113.395 137.04C113.235 136.923 113.099 136.775 112.995 136.605C112.891 136.434 112.821 136.245 112.789 136.047C112.756 135.849 112.763 135.646 112.808 135.451C112.853 135.255 112.935 135.071 113.05 134.908C113.165 134.744 113.31 134.606 113.478 134.5C113.645 134.394 113.831 134.323 114.026 134.29C114.221 134.258 114.419 134.264 114.611 134.31C114.803 134.356 114.985 134.439 115.145 134.556C115.355 134.709 136.645 150.517 125.315 168.34C125.181 168.557 124.995 168.735 124.774 168.857C124.554 168.98 124.306 169.044 124.055 169.043Z" fill="#2E91E7"/>
<path d="M109.215 177.969C113.925 176.88 118.755 175.628 123.475 174.478C125.835 173.877 128.185 173.328 130.475 172.788C132.765 172.249 135.095 171.77 137.095 171.445C137.585 171.363 138.095 171.292 138.435 171.251C138.775 171.211 139.065 171.19 139.025 171.129C138.923 171.127 138.822 171.11 138.725 171.078H138.635H138.735H138.945L139.755 171.241L141.445 171.587C143.725 172.055 146.085 172.605 148.445 173.175C153.225 174.264 158.135 175.435 163.125 176.229H163.205C164.219 176.389 165.256 176.198 166.151 175.687C167.045 175.175 167.745 174.373 168.138 173.408C168.531 172.444 168.595 171.373 168.319 170.367C168.043 169.361 167.443 168.479 166.615 167.862C162.387 164.788 157.934 162.048 153.295 159.668C150.985 158.446 148.605 157.337 146.105 156.278C145.475 156.003 144.855 155.749 144.185 155.515L143.185 155.148L142.935 155.057H142.805L142.495 154.975C142.075 154.873 141.645 154.782 141.215 154.7C140.169 154.542 139.113 154.457 138.055 154.446C137.165 154.446 136.395 154.446 135.635 154.446C132.635 154.578 130.005 154.934 127.355 155.291C124.705 155.647 122.175 156.136 119.635 156.614C114.545 157.632 109.635 158.772 104.635 160.248C102.322 160.851 100.34 162.365 99.1237 164.456C97.9075 166.547 97.5573 169.045 98.1501 171.399C98.7428 173.753 100.23 175.771 102.284 177.009C104.339 178.247 106.792 178.603 109.105 178L109.215 177.969Z" fill="#2E91E7"/>
<path opacity="0.7" d="M109.215 177.969C113.925 176.88 118.755 175.628 123.475 174.478C125.835 173.877 128.185 173.328 130.475 172.788C132.765 172.249 135.095 171.77 137.095 171.445C137.585 171.363 138.095 171.292 138.435 171.251C138.775 171.211 139.065 171.19 139.025 171.129C138.923 171.127 138.822 171.11 138.725 171.078H138.635H138.735H138.945L139.755 171.241L141.445 171.587C143.725 172.055 146.085 172.605 148.445 173.175C153.225 174.264 158.135 175.435 163.125 176.229H163.205C164.219 176.389 165.256 176.198 166.151 175.687C167.045 175.175 167.745 174.373 168.138 173.408C168.531 172.444 168.595 171.373 168.319 170.367C168.043 169.361 167.443 168.479 166.615 167.862C162.387 164.788 157.934 162.048 153.295 159.668C150.985 158.446 148.605 157.337 146.105 156.278C145.475 156.003 144.855 155.749 144.185 155.515L143.185 155.148L142.935 155.057H142.805L142.495 154.975C142.075 154.873 141.645 154.782 141.215 154.7C140.169 154.542 139.113 154.457 138.055 154.446C137.165 154.446 136.395 154.446 135.635 154.446C132.635 154.578 130.005 154.934 127.355 155.291C124.705 155.647 122.175 156.136 119.635 156.614C114.545 157.632 109.635 158.772 104.635 160.248C102.322 160.851 100.34 162.365 99.1237 164.456C97.9075 166.547 97.5573 169.045 98.1501 171.399C98.7428 173.753 100.23 175.771 102.284 177.009C104.339 178.247 106.792 178.603 109.105 178L109.215 177.969Z" fill="white"/>
<path d="M165.105 169.043L173.805 168.228L170.445 177.471C170.445 177.471 162.635 177.725 162.685 173.623L165.105 169.043Z" fill="#2E91E7"/>
<path d="M181.575 172.076L176.035 179.028L170.445 177.44L173.805 168.198L181.575 172.076Z" fill="#2E91E7"/>
<g opacity="0.5">
<path d="M165.105 169.043L173.805 168.228L170.445 177.471C170.445 177.471 162.635 177.725 162.685 173.623L165.105 169.043Z" fill="white"/>
<path d="M181.575 172.076L176.035 179.028L170.445 177.44L173.805 168.198L181.575 172.076Z" fill="white"/>
</g>
<path d="M167.775 168.757C167.775 168.757 162.995 171.302 164.425 176.28L162.425 176.107C162.425 176.107 159.985 171.221 166.675 167.882L167.775 168.757Z" fill="#2E91E7"/>
<path d="M106.725 159.423C106.725 159.423 93.3952 170.518 108.135 178.163L106.395 178.824C106.395 178.824 98.3452 178.458 98.1552 169.327C97.9552 160.431 106.725 159.423 106.725 159.423Z" fill="#2E91E7"/>
<path d="M141.245 154.67C141.245 154.67 136.655 160.716 139.055 171.129L137.835 171.333C137.058 168.533 136.835 165.604 137.178 162.716C137.522 159.828 138.425 157.037 139.835 154.507L141.245 154.67Z" fill="#2E91E7"/>
<path opacity="0.4" d="M167.775 168.757C167.775 168.757 162.995 171.302 164.425 176.28L162.425 176.107C162.425 176.107 159.985 171.221 166.675 167.882L167.775 168.757Z" fill="white"/>
<path opacity="0.4" d="M106.725 159.423C106.725 159.423 93.3952 170.518 108.135 178.163L106.395 178.824C106.395 178.824 98.3452 178.458 98.1552 169.327C97.9552 160.431 106.725 159.423 106.725 159.423Z" fill="white"/>
<path opacity="0.4" d="M141.245 154.67C141.245 154.67 136.655 160.716 139.055 171.129L137.835 171.333C137.058 168.533 136.835 165.604 137.178 162.716C137.522 159.828 138.425 157.037 139.835 154.507L141.245 154.67Z" fill="white"/>
<path d="M113.475 116.041L93.2453 135.778H86.1753L106.725 116.041C106.725 116.041 110.805 113.323 113.475 116.041Z" fill="#2E91E7"/>
<path opacity="0.2" d="M113.475 116.041L93.2453 135.778C92.2795 134.879 91.0186 134.381 89.7103 134.381C88.402 134.381 87.141 134.879 86.1753 135.778L106.725 116.041C106.725 116.041 110.805 113.323 113.475 116.041Z" fill="white"/>
<path d="M91.0452 117.802C90.7297 118.02 90.3949 118.207 90.0452 118.362C89.449 118.619 88.8121 118.763 88.1652 118.789C87.4252 118.789 86.8652 118.575 86.6752 118.138C86.4852 117.7 86.8852 116.835 87.6752 116.214C88.0399 115.941 88.4362 115.716 88.8552 115.542C89.3825 115.302 89.9483 115.16 90.5252 115.125C91.3652 115.054 92.0152 115.277 92.2152 115.766C92.4152 116.255 91.9652 117.13 91.0452 117.802Z" fill="#263238"/>
<path d="M40.165 40.5947L40.085 40.0857C40.085 40.0857 42.425 39.6888 43.205 38.335L43.635 38.5894C42.725 40.157 40.265 40.5743 40.165 40.5947Z" fill="white"/>
<path d="M40.2551 41.8059L39.9951 41.3682C41.946 40.19 44.1208 39.4475 46.3751 39.1899V39.6989C44.2132 39.9594 42.1286 40.6771 40.2551 41.8059Z" fill="white"/>
<path d="M40.2351 42.1825L40.0151 41.7245C43.1351 40.2078 44.5351 40.9611 44.5951 40.9916L44.3551 41.4395C44.3551 41.4395 43.0851 40.788 40.2351 42.1825Z" fill="white"/>
<path d="M91.0451 117.802C90.7296 118.02 90.3948 118.207 90.0451 118.362C89.4489 118.619 88.812 118.763 88.1651 118.789C88.0751 118.128 87.9351 117.232 87.7051 116.214C87.0715 112.901 85.5762 109.822 83.3751 107.297C76.6951 100.365 68.6851 99.8157 60.2051 99.2456C52.0951 98.696 43.7051 98.126 36.1151 91.9066C28.3751 85.5652 24.5051 73.6762 26.2351 61.6142C27.7951 50.794 33.4151 42.3963 41.2851 39.1289L42.4151 41.9586C35.5451 44.8087 30.6051 52.3208 29.2051 62.062C27.6251 73.0654 31.0751 83.8449 37.9951 89.5451C44.9151 95.2453 52.4051 95.6525 60.4051 96.2123C69.0651 96.8027 78.0351 97.4134 85.5251 105.18C88.02 107.999 89.7442 111.435 90.5251 115.145C90.7751 116.112 90.9351 117.049 91.0451 117.802Z" fill="#263238"/>
<g opacity="0.5">
<path d="M91.0451 117.802C90.7296 118.02 90.3948 118.207 90.0451 118.362C89.4489 118.619 88.812 118.763 88.1651 118.789C88.0751 118.128 87.9351 117.232 87.7051 116.214C87.0715 112.901 85.5762 109.822 83.3751 107.297C76.6951 100.365 68.6851 99.8157 60.2051 99.2456C52.0951 98.696 43.7051 98.126 36.1151 91.9066C28.3751 85.5652 24.5051 73.6762 26.2351 61.6142C27.7951 50.794 33.4151 42.3963 41.2851 39.1289L42.4151 41.9586C35.5451 44.8087 30.6051 52.3208 29.2051 62.062C27.6251 73.0654 31.0751 83.8449 37.9951 89.5451C44.9151 95.2453 52.4051 95.6525 60.4051 96.2123C69.0651 96.8027 78.0351 97.4134 85.5251 105.18C88.02 107.999 89.7442 111.435 90.5251 115.145C90.7751 116.112 90.9351 117.049 91.0451 117.802Z" fill="white"/>
</g>
</svg>
