<svg width="306" height="354" viewBox="0 0 306 354" fill="none" xmlns="http://www.w3.org/2000/svg">
<path d="M21.6053 32.9303C28.6303 32.9303 34.3253 27.1335 34.3253 19.9828C34.3253 12.832 28.6303 7.03516 21.6053 7.03516C14.5802 7.03516 8.88525 12.832 8.88525 19.9828C8.88525 27.1335 14.5802 32.9303 21.6053 32.9303Z" fill="#B14DB8"/>
<path opacity="0.2" d="M21.6053 32.9303C28.6303 32.9303 34.3253 27.1335 34.3253 19.9828C34.3253 12.832 28.6303 7.03516 21.6053 7.03516C14.5802 7.03516 8.88525 12.832 8.88525 19.9828C8.88525 27.1335 14.5802 32.9303 21.6053 32.9303Z" fill="white"/>
<path opacity="0.5" d="M8.91555 20.9293C10.4955 20.1557 11.2655 19.5246 11.1155 20.4C11.0226 21.1605 11.0226 21.9298 11.1155 22.6903C11.1155 22.6903 11.3755 23.1992 12.1155 22.9753C12.8555 22.7514 12.8255 22.6394 13.1155 22.6394C13.4055 22.6394 15.5956 22.6903 14.9356 23.5351C14.2756 24.38 14.5456 24.7566 13.9356 24.9296C13.3256 25.1027 13.1055 25.9475 13.0555 26.1104C12.8662 26.3754 12.6482 26.6178 12.4055 26.8331L11.0255 27.3726C11.4627 28.0219 11.9581 28.6285 12.5055 29.1844C12.8216 29.5056 13.1555 29.8081 13.5055 30.0904C13.8713 29.8587 14.2862 29.7191 14.7156 29.6832C15.4256 29.6832 15.5355 30.0802 15.8855 30.2227C16.2355 30.3652 16.1955 30.2227 16.1955 30.2227C16.1955 30.2227 16.5255 30.64 16.8855 30.4466C17.4955 30.3539 18.1156 30.3539 18.7255 30.4466C18.9455 30.4466 19.9355 29.9988 20.3755 30.3245C20.8155 30.6502 20.9255 30.5586 20.9755 30.9556C21.0077 31.6523 20.8106 32.34 20.4155 32.9099C21.7552 33.0366 23.1063 32.9404 24.4155 32.6249C23.8855 32.2992 24.1355 30.2227 23.6955 29.3269C23.2555 28.4312 23.2555 28.2073 23.4155 27.8205C23.5755 27.4337 23.9156 27.8205 24.1856 27.8205C24.4104 27.7812 24.6152 27.665 24.7662 27.4909C24.9172 27.3169 25.0051 27.0956 25.0155 26.8636C25.0626 26.4279 25.1531 25.9982 25.2855 25.5811C25.2855 25.5811 25.7755 24.6345 26.0055 24.6345C26.3732 24.6698 26.7439 24.6492 27.1056 24.5734C27.3156 24.4614 27.3155 24.2985 27.4255 24.0034C27.5355 23.7082 27.5955 22.3849 27.3155 22.446C27.0287 22.4382 26.7477 22.3615 26.4956 22.222C26.1682 22.1268 25.8337 22.0587 25.4956 22.0185C25.3356 22.0185 25.2755 21.4993 25.2755 21.4993C25.2755 21.4993 26.2755 20.8784 26.2755 20.6545C26.2755 20.4306 25.8955 20.3797 25.8455 19.7079C25.7955 19.0361 26.3356 19.0361 26.9356 19.1582C27.5356 19.2803 26.9356 19.4228 26.9356 19.9522C26.9356 20.4815 26.9955 20.4306 27.6555 19.9522C28.3155 19.4737 28.1455 19.9522 28.3155 19.9522C28.6532 19.9804 28.9877 20.0382 29.3155 20.1252C29.3155 20.1252 29.2555 21.4993 29.3155 22.8939C29.3755 24.2884 31.3955 22.9549 32.0055 22.446C32.2955 22.2119 33.1455 22.3238 33.9255 22.731C34.2925 20.9968 34.3043 19.2041 33.9602 17.4651C33.6161 15.726 32.9234 14.0777 31.9255 12.6233C31.9031 12.6378 31.8771 12.6455 31.8505 12.6455C31.824 12.6455 31.798 12.6378 31.7755 12.6233C31.5355 12.5114 30.7755 12.7353 30.6255 12.6233C30.4755 12.5114 29.7455 12.7862 29.3855 12.6233C29.1815 12.4999 29.0131 12.3238 28.8972 12.1129C28.7813 11.9021 28.7221 11.6638 28.7255 11.4222C28.6321 10.7182 28.4367 10.0321 28.1455 9.38643C28.0555 9.14213 28.0455 9.03016 28.1455 8.99962C26.6233 8.05668 24.9237 7.44902 23.1565 7.21584C21.3893 6.98266 19.5937 7.12913 17.8855 7.64583C18.3555 8.46014 18.7056 9.38642 18.2156 9.79358C17.2156 10.5774 17.7855 11.239 18.4555 11.8294C18.5612 11.911 18.6469 12.0164 18.7059 12.1374C18.7649 12.2584 18.7956 12.3916 18.7956 12.5266C18.7956 12.6617 18.7649 12.7949 18.7059 12.9158C18.6469 13.0368 18.5612 13.1422 18.4555 13.2239C18.2455 13.4478 17.8556 14.0077 18.2156 14.2418C18.5756 14.4759 19.3655 14.8525 18.8055 15.1884C18.2455 15.5243 18.5755 16.359 17.6355 15.6363C16.6955 14.9136 17.0255 14.2418 16.3155 14.2418C15.6055 14.2418 15.4955 15.0764 14.5555 15.3615C13.6155 15.6465 13.5556 15.5854 13.2956 15.4632C13.0356 15.3411 13.0255 14.6286 12.4155 14.0178C12.3248 13.9145 12.2109 13.8349 12.0837 13.7857C11.9564 13.7365 11.8193 13.7192 11.6841 13.7352C11.5488 13.7511 11.4193 13.7999 11.3064 13.8775C11.1936 13.955 11.1007 14.059 11.0355 14.1807C10.9355 14.4657 10.7555 15.7686 11.0355 15.9315C11.3155 16.0943 11.0356 16.9494 10.4356 17.1529C9.83555 17.3565 9.34554 16.4302 9.14554 17.0104C9.13884 17.0577 9.13884 17.1057 9.14554 17.1529C9.14554 17.1529 9.14554 17.1529 9.14554 17.214C8.88874 18.4341 8.81124 19.6861 8.91555 20.9293V20.9293ZM22.0055 27.2199C21.1255 27.4438 22.0055 27.2199 21.0855 26.202C20.1655 25.1841 21.6056 25.8661 21.6056 25.8661C21.7707 25.3525 21.9043 24.829 22.0055 24.2986C22.1155 23.6267 22.9355 24.2986 23.3955 24.2986C23.8555 24.2986 24.3155 24.9704 23.7755 25.8661C23.7755 25.8661 23.7755 26.4259 23.3955 26.314C23.0155 26.202 22.8855 26.9451 22.0055 27.169V27.2199ZM21.6056 28.7366C21.8656 28.5635 22.4955 28.9605 22.3955 29.6832L21.5655 29.9071C21.2725 29.7022 21.0069 29.4593 20.7755 29.1844C20.5355 28.8078 21.3456 28.8485 21.6056 28.6857V28.7366ZM14.8556 18.7714C14.8556 18.2116 15.0256 17.7535 15.4656 17.7535C16.1756 17.5805 16.3455 18.2625 16.9755 18.3235C17.6055 18.3846 17.3355 20.0845 17.3355 20.0845C17.3355 20.0845 17.5555 20.9497 16.4255 20.6749C15.2955 20.4 14.6955 20.6138 14.5855 20.1964C14.4755 19.7791 14.8556 19.2803 14.8556 18.7205V18.7714Z" fill="white"/>
<path d="M41.8756 14.5471C41.8775 14.9385 41.7652 15.3217 41.5528 15.648C41.3404 15.9743 41.0375 16.229 40.6826 16.3797C40.3277 16.5304 39.9368 16.5704 39.5596 16.4945C39.1823 16.4186 38.8357 16.2303 38.5638 15.9536C38.2919 15.6768 38.1069 15.324 38.0324 14.94C37.9579 14.556 37.9971 14.1581 38.1452 13.7969C38.2933 13.4356 38.5435 13.1273 38.864 12.9111C39.1846 12.6949 39.561 12.5805 39.9456 12.5825C40.4574 12.5825 40.9483 12.7895 41.3103 13.1579C41.6722 13.5264 41.8756 14.0261 41.8756 14.5471V14.5471Z" fill="#B14DB8"/>
<path opacity="0.6" d="M41.8756 14.5471C41.8775 14.9385 41.7652 15.3217 41.5528 15.648C41.3404 15.9743 41.0375 16.229 40.6826 16.3797C40.3277 16.5304 39.9368 16.5704 39.5596 16.4945C39.1823 16.4186 38.8357 16.2303 38.5638 15.9536C38.2919 15.6768 38.1069 15.324 38.0324 14.94C37.9579 14.556 37.9971 14.1581 38.1452 13.7969C38.2933 13.4356 38.5435 13.1273 38.864 12.9111C39.1846 12.6949 39.561 12.5805 39.9456 12.5825C40.4574 12.5825 40.9483 12.7895 41.3103 13.1579C41.6722 13.5264 41.8756 14.0261 41.8756 14.5471V14.5471Z" fill="white"/>
<path opacity="0.1" d="M38.9955 15.626C39.2109 15.626 39.3855 15.4483 39.3855 15.229C39.3855 15.0098 39.2109 14.832 38.9955 14.832C38.7801 14.832 38.6055 15.0098 38.6055 15.229C38.6055 15.4483 38.7801 15.626 38.9955 15.626Z" fill="black"/>
<path opacity="0.1" d="M40.8656 14.435C40.8656 14.4539 40.8582 14.472 40.8451 14.4854C40.8319 14.4988 40.8142 14.5063 40.7956 14.5063C40.777 14.5063 40.7592 14.4988 40.7461 14.4854C40.733 14.472 40.7256 14.4539 40.7256 14.435C40.7256 14.4161 40.733 14.398 40.7461 14.3846C40.7592 14.3713 40.777 14.3638 40.7956 14.3638C40.8048 14.3638 40.8139 14.3656 40.8224 14.3692C40.8309 14.3728 40.8386 14.378 40.8451 14.3846C40.8516 14.3913 40.8567 14.3991 40.8603 14.4078C40.8638 14.4164 40.8656 14.4257 40.8656 14.435Z" fill="black"/>
<path opacity="0.1" d="M39.7953 16.0232C39.7932 16.0413 39.7851 16.0582 39.7724 16.0711C39.7597 16.0841 39.7431 16.0923 39.7253 16.0944C39.7067 16.0944 39.6889 16.0869 39.6758 16.0735C39.6627 16.0602 39.6553 16.0421 39.6553 16.0232C39.6553 16.0043 39.6627 15.9861 39.6758 15.9728C39.6889 15.9594 39.7067 15.9519 39.7253 15.9519C39.7431 15.9541 39.7597 15.9623 39.7724 15.9752C39.7851 15.9881 39.7932 16.005 39.7953 16.0232Z" fill="black"/>
<path opacity="0.1" d="M40.4856 12.9082C40.4901 12.9205 40.4915 12.9337 40.4899 12.9467C40.4883 12.9598 40.4836 12.9722 40.4762 12.983C40.4689 12.9938 40.459 13.0026 40.4476 13.0087C40.4362 13.0148 40.4235 13.0179 40.4106 13.0179C40.3977 13.0179 40.385 13.0148 40.3735 13.0087C40.3621 13.0026 40.3523 12.9938 40.3449 12.983C40.3375 12.9722 40.3328 12.9598 40.3312 12.9467C40.3296 12.9337 40.3311 12.9205 40.3356 12.9082C40.3377 12.89 40.3457 12.8731 40.3584 12.8602C40.3711 12.8473 40.3877 12.8391 40.4056 12.8369C40.4252 12.8368 40.4441 12.8439 40.4589 12.8571C40.4736 12.8702 40.4831 12.8884 40.4856 12.9082V12.9082Z" fill="black"/>
<path opacity="0.1" d="M41.7252 14.6283C41.7227 14.6481 41.7132 14.6663 41.6985 14.6794C41.6838 14.6925 41.6648 14.6997 41.6452 14.6996C41.6266 14.6996 41.6088 14.692 41.5957 14.6787C41.5826 14.6653 41.5752 14.6472 41.5752 14.6283C41.575 14.6084 41.5821 14.589 41.595 14.574C41.6079 14.559 41.6257 14.5494 41.6452 14.5469C41.6657 14.5491 41.6848 14.5584 41.6993 14.5732C41.7139 14.588 41.723 14.6075 41.7252 14.6283Z" fill="black"/>
<path opacity="0.1" d="M38.7254 14.0075C38.7254 14.0264 38.7181 14.0446 38.7049 14.0579C38.6918 14.0713 38.674 14.0788 38.6554 14.0788C38.6369 14.0788 38.6191 14.0713 38.606 14.0579C38.5928 14.0446 38.5854 14.0264 38.5854 14.0075C38.5854 13.9886 38.5928 13.9705 38.606 13.9572C38.6191 13.9438 38.6369 13.9363 38.6554 13.9363C38.6646 13.9363 38.6737 13.9381 38.6822 13.9417C38.6907 13.9453 38.6984 13.9505 38.7049 13.9572C38.7114 13.9638 38.7166 13.9716 38.7201 13.9803C38.7236 13.9889 38.7254 13.9982 38.7254 14.0075Z" fill="black"/>
<path opacity="0.1" d="M39.7256 13.4578C39.7256 13.5253 39.6992 13.5901 39.6524 13.6378C39.6055 13.6855 39.5419 13.7123 39.4756 13.7123C39.4093 13.7123 39.3457 13.6855 39.2988 13.6378C39.2519 13.5901 39.2256 13.5253 39.2256 13.4578C39.2256 13.3904 39.2519 13.3256 39.2988 13.2779C39.3457 13.2302 39.4093 13.2034 39.4756 13.2034C39.5419 13.2034 39.6055 13.2302 39.6524 13.2779C39.6992 13.3256 39.7256 13.3904 39.7256 13.4578Z" fill="black"/>
<path opacity="0.1" d="M41.1152 15.7684C41.1152 15.8187 41.1006 15.8679 41.0731 15.9098C41.0456 15.9516 41.0066 15.9842 40.9609 16.0035C40.9152 16.0228 40.865 16.0278 40.8165 16.018C40.768 16.0082 40.7234 15.9839 40.6885 15.9483C40.6535 15.9127 40.6297 15.8674 40.62 15.818C40.6104 15.7687 40.6153 15.7175 40.6343 15.671C40.6532 15.6245 40.6852 15.5848 40.7263 15.5568C40.7675 15.5288 40.8158 15.5139 40.8652 15.5139C40.9315 15.5139 40.9951 15.5407 41.042 15.5884C41.0889 15.6362 41.1152 15.7009 41.1152 15.7684Z" fill="black"/>
<path d="M295.365 161.602C296.955 161.24 298.615 161.366 300.134 161.964C301.653 162.563 302.963 163.607 303.899 164.964C304.835 166.321 305.354 167.931 305.391 169.588C305.428 171.246 304.98 172.878 304.105 174.276C303.23 175.675 301.967 176.778 300.476 177.445C298.985 178.113 297.333 178.315 295.729 178.026C294.125 177.737 292.641 176.97 291.465 175.822C290.29 174.674 289.476 173.197 289.125 171.577C288.657 169.413 289.051 167.147 290.221 165.278C291.391 163.408 293.24 162.086 295.365 161.602V161.602Z" fill="#B14DB8"/>
<path opacity="0.5" d="M295.365 161.602C296.955 161.24 298.615 161.366 300.134 161.964C301.653 162.563 302.963 163.607 303.899 164.964C304.835 166.321 305.354 167.931 305.391 169.588C305.428 171.246 304.98 172.878 304.105 174.276C303.23 175.675 301.967 176.778 300.476 177.445C298.985 178.113 297.333 178.315 295.729 178.026C294.125 177.737 292.641 176.97 291.465 175.822C290.29 174.674 289.476 173.197 289.125 171.577C288.657 169.413 289.051 167.147 290.221 165.278C291.391 163.408 293.24 162.086 295.365 161.602V161.602Z" fill="white"/>
<path opacity="0.2" d="M292.216 166.63C292.221 166.671 292.221 166.712 292.216 166.753C292.156 166.966 291.846 166.895 291.636 166.956C291.196 167.099 291.306 167.882 290.876 168.086C290.666 168.178 290.416 168.086 290.206 168.178C290.065 168.28 289.937 168.4 289.826 168.534C289.714 168.635 289.582 168.71 289.438 168.752C289.294 168.794 289.143 168.803 288.996 168.778C289.168 167.199 289.79 165.706 290.786 164.483C290.865 164.468 290.946 164.468 291.026 164.483C291.103 164.51 291.17 164.559 291.222 164.624C291.273 164.689 291.305 164.767 291.316 164.849C291.345 165.017 291.345 165.19 291.316 165.358L291.636 165.114C291.67 165.137 291.7 165.168 291.723 165.203C291.746 165.239 291.762 165.279 291.769 165.32C291.777 165.362 291.776 165.405 291.767 165.447C291.757 165.488 291.74 165.527 291.716 165.562C291.616 165.704 291.416 165.725 291.236 165.755C291.056 165.786 290.856 165.887 290.846 166.06C290.836 166.233 290.946 166.335 291.036 166.447C291.126 166.559 291.216 166.732 291.136 166.854L291.836 166.437C291.876 166.413 291.92 166.396 291.966 166.386C292.029 166.391 292.089 166.417 292.134 166.462C292.18 166.507 292.209 166.566 292.216 166.63V166.63Z" fill="black"/>
<path opacity="0.2" d="M292.726 165.521L292.666 165.714C292.843 165.78 293.038 165.78 293.216 165.714C293.273 165.689 293.324 165.65 293.366 165.602C293.436 165.508 293.477 165.395 293.486 165.276C293.505 165.124 293.505 164.97 293.486 164.818C293.477 164.742 293.45 164.67 293.408 164.606C293.367 164.542 293.311 164.49 293.246 164.452C293.179 164.415 293.101 164.406 293.028 164.427C292.955 164.448 292.893 164.497 292.856 164.564C292.796 164.696 292.856 164.859 292.786 164.991C292.716 165.124 292.586 165.154 292.546 165.266C292.538 165.295 292.537 165.326 292.542 165.355C292.548 165.384 292.56 165.412 292.577 165.437C292.594 165.461 292.616 165.481 292.642 165.496C292.668 165.51 292.696 165.519 292.726 165.521V165.521Z" fill="black"/>
<path opacity="0.2" d="M296.215 162.08C295.965 162.294 295.565 162.009 295.265 162.152C294.965 162.294 295.025 162.447 294.855 162.477C294.762 162.482 294.669 162.482 294.575 162.477C294.475 162.477 294.375 162.549 294.385 162.64C294.398 162.684 294.422 162.722 294.455 162.752L294.705 162.986C294.735 163.018 294.762 163.052 294.785 163.088C294.795 163.115 294.798 163.144 294.796 163.173C294.794 163.202 294.786 163.23 294.773 163.256C294.76 163.282 294.742 163.304 294.72 163.323C294.698 163.341 294.673 163.355 294.645 163.363C294.538 163.398 294.423 163.398 294.315 163.363C294.246 163.357 294.179 163.34 294.115 163.312C294.055 163.312 294.015 163.18 294.055 163.119L294.125 163.047C294.157 163.016 294.181 162.978 294.195 162.935C294.209 162.893 294.213 162.847 294.205 162.803C294.2 162.755 294.178 162.711 294.143 162.679C294.108 162.647 294.062 162.63 294.015 162.63L293.885 162.691L293.455 162.956C293.255 163.068 293.005 163.19 292.805 163.088C292.786 163.087 292.768 163.08 292.752 163.07C292.737 163.059 292.724 163.044 292.715 163.027C292.715 163.027 292.715 162.946 292.715 162.895C292.73 162.841 292.73 162.785 292.715 162.732C293.524 162.194 294.422 161.811 295.365 161.602C295.672 161.53 295.982 161.479 296.295 161.449V161.449C296.355 161.683 296.375 161.948 296.215 162.08Z" fill="black"/>
<path opacity="0.1" d="M292.255 168.595C292.338 168.616 292.423 168.616 292.505 168.595C292.625 168.595 293.015 168.707 292.855 168.931C292.695 169.155 292.445 168.676 292.235 168.798C292.355 168.798 292.345 169.033 292.285 169.155C292.225 169.277 292.155 169.429 292.235 169.541C292.395 169.47 292.555 169.623 292.735 169.664C292.915 169.704 293.185 169.531 293.415 169.572C293.415 169.491 293.415 169.399 293.415 169.307C293.415 169.216 293.585 169.236 293.665 169.175C293.745 169.114 293.845 169.043 293.925 169.104C294.005 169.165 293.925 168.9 293.925 168.809C293.848 168.738 293.777 168.66 293.715 168.574C293.665 168.483 293.715 168.34 293.775 168.31C293.835 168.279 293.965 168.31 294.045 168.31C294.078 168.29 294.104 168.261 294.122 168.227C294.139 168.193 294.147 168.155 294.145 168.116C294.141 168.038 294.141 167.96 294.145 167.882H293.955C293.965 167.923 293.959 167.965 293.938 168.001C293.918 168.037 293.885 168.064 293.845 168.076C293.767 168.096 293.684 168.096 293.605 168.076C293.636 167.838 293.605 167.596 293.515 167.373H293.265C293.265 167.475 293.155 167.536 293.055 167.536C292.962 167.515 292.876 167.469 292.805 167.404C292.755 167.353 292.695 167.302 292.625 167.322C292.555 167.343 292.495 167.455 292.505 167.557C292.505 167.923 292.355 167.831 292.205 168.035C292.142 168.117 292.111 168.221 292.12 168.325C292.13 168.429 292.178 168.526 292.255 168.595V168.595Z" fill="black"/>
<path opacity="0.1" d="M292.426 172.117C292.225 172.151 292.019 172.123 291.836 172.036C291.756 171.985 291.656 171.924 291.566 171.975C291.527 172 291.496 172.037 291.478 172.081C291.461 172.124 291.456 172.173 291.466 172.219C291.466 172.3 291.556 172.382 291.586 172.473C291.642 172.59 291.671 172.719 291.671 172.85C291.671 172.98 291.642 173.109 291.586 173.226C291.391 173.265 291.191 173.261 290.998 173.216C290.805 173.17 290.623 173.084 290.466 172.962C290.433 172.927 290.402 172.89 290.376 172.85C290.306 172.687 290.526 172.504 290.486 172.341C290.446 172.178 290.136 172.056 290.236 171.903C290.336 171.751 290.426 171.842 290.516 171.801C290.541 171.789 290.564 171.771 290.582 171.749C290.6 171.727 290.614 171.701 290.623 171.673C290.631 171.646 290.634 171.617 290.631 171.588C290.628 171.559 290.619 171.532 290.606 171.506C290.49 171.451 290.358 171.44 290.235 171.475C290.112 171.511 290.005 171.59 289.936 171.7C289.766 171.7 289.716 171.445 289.706 171.282C289.696 171.119 289.586 170.875 289.416 170.936C289.386 170.95 289.36 170.971 289.341 170.998C289.322 171.025 289.309 171.056 289.306 171.089C289.176 171.476 289.486 171.842 289.766 172.107C289.84 172.163 289.89 172.247 289.906 172.341C289.906 172.443 289.846 172.555 289.746 172.534L290.096 172.931C290.124 172.97 290.142 173.016 290.146 173.064C290.153 173.094 290.153 173.125 290.146 173.155C290.049 173.286 289.959 173.422 289.876 173.562C289.543 172.922 289.301 172.236 289.156 171.527C289.019 170.881 288.955 170.222 288.966 169.562C289.021 169.476 289.096 169.406 289.186 169.359C289.296 169.359 289.426 169.359 289.526 169.297C289.776 169.226 289.886 168.9 290.136 168.799C290.234 168.764 290.34 168.762 290.441 168.791C290.541 168.82 290.63 168.879 290.696 168.962C290.759 169.05 290.803 169.151 290.824 169.258C290.844 169.366 290.842 169.476 290.816 169.582C290.753 169.744 290.733 169.919 290.756 170.091C290.856 170.387 291.216 170.417 291.516 170.407C291.5 170.498 291.514 170.592 291.555 170.675C291.597 170.758 291.664 170.824 291.746 170.865C291.788 170.879 291.832 170.883 291.876 170.877C291.92 170.871 291.962 170.856 292 170.831C292.037 170.807 292.068 170.775 292.092 170.736C292.115 170.698 292.13 170.655 292.136 170.611C292.326 170.611 292.566 170.733 292.566 170.936C292.53 171.061 292.452 171.17 292.346 171.242C292.266 171.343 292.196 171.496 292.276 171.598C292.356 171.7 292.626 171.598 292.696 171.771C292.766 171.944 292.556 172.097 292.426 172.117Z" fill="black"/>
<path opacity="0.2" d="M297.725 175.323C297.691 175.491 297.691 175.664 297.725 175.832C297.534 175.951 297.304 175.987 297.085 175.934C297.008 176.144 297.01 176.376 297.092 176.585C297.173 176.794 297.328 176.964 297.525 177.064C297.459 177.119 297.381 177.156 297.297 177.172C297.213 177.188 297.127 177.182 297.045 177.155C296.89 177.086 296.748 176.989 296.625 176.87L295.625 176.087C295.465 176.148 295.565 176.402 295.725 176.484C295.885 176.565 296.075 176.575 296.155 176.728C296.235 176.881 296.155 177.186 296.245 177.349C296.327 177.408 296.414 177.459 296.505 177.501C296.579 177.558 296.634 177.636 296.664 177.725C296.694 177.814 296.698 177.909 296.675 178V178.133C295.416 178.071 294.188 177.705 293.095 177.064V177.064C293.1 176.999 293.1 176.935 293.095 176.87C293.095 176.565 293.375 176.361 293.605 176.178C293.732 176.102 293.838 175.995 293.915 175.867C293.992 175.74 294.037 175.595 294.045 175.445C293.655 175.547 293.505 176.046 293.175 176.26C293.088 176.316 292.994 176.36 292.895 176.392C292.729 176.478 292.572 176.58 292.425 176.697C291.615 176.138 290.913 175.431 290.355 174.611C290.517 174.392 290.595 174.12 290.575 173.847C290.665 173.735 290.805 173.939 290.935 173.949C291.065 173.959 291.165 173.756 291.315 173.745C291.465 173.735 291.525 174.183 291.755 174.265C291.985 174.346 292.055 174.132 292.215 174.112C292.375 174.092 292.565 174.244 292.755 174.183C293.305 174.01 292.895 173.399 292.975 173.053C293.025 172.89 293.225 172.86 293.355 172.778C293.45 172.713 293.528 172.625 293.582 172.522C293.636 172.419 293.664 172.305 293.665 172.188C293.66 171.96 293.623 171.734 293.555 171.516C293.513 171.413 293.495 171.301 293.504 171.189C293.513 171.078 293.548 170.97 293.605 170.875C293.815 170.641 294.225 170.794 294.515 170.641C294.805 170.488 294.805 170.203 295.015 170.04C295.206 169.905 295.434 169.837 295.665 169.847C295.725 169.837 295.786 169.837 295.845 169.847C295.955 169.908 295.935 170.081 295.915 170.193C295.844 170.542 295.74 170.882 295.605 171.211C295.865 171.333 296.225 171.445 296.415 171.211C296.45 171.147 296.494 171.088 296.545 171.038C296.598 171.01 296.656 170.996 296.715 170.996C296.775 170.996 296.833 171.01 296.885 171.038C296.975 171.241 297.075 171.435 297.175 171.618C296.925 171.602 296.675 171.669 296.465 171.808C296.254 171.947 296.093 172.152 296.005 172.392C295.994 172.465 295.966 172.534 295.925 172.595C295.891 172.636 295.848 172.668 295.799 172.689C295.751 172.71 295.698 172.72 295.645 172.717C295.316 172.673 294.997 172.566 294.705 172.402C294.385 172.3 293.935 172.402 293.855 172.687C294.115 172.595 294.335 172.87 294.585 172.972C294.731 173.02 294.882 173.048 295.035 173.053C295.408 173.087 295.773 173.183 296.115 173.338C296.241 173.287 296.35 173.2 296.43 173.089C296.509 172.977 296.556 172.845 296.565 172.707C296.686 172.88 296.845 173.022 297.029 173.121C297.213 173.22 297.417 173.273 297.625 173.277C297.527 173.609 297.527 173.963 297.625 174.295C297.745 174.539 297.985 174.763 297.975 175.038C297.913 175.06 297.857 175.097 297.813 175.147C297.77 175.197 297.739 175.258 297.725 175.323V175.323Z" fill="black"/>
<path d="M177.005 0.215088C178.706 -0.171001 180.481 -0.0351812 182.105 0.605379C183.73 1.24594 185.132 2.36247 186.133 3.81381C187.134 5.26514 187.69 6.98611 187.731 8.75911C187.771 10.5321 187.295 12.2775 186.361 13.7747C185.427 15.2718 184.078 16.4535 182.484 17.1703C180.89 17.887 179.123 18.1067 177.407 17.8015C175.691 17.4963 174.102 16.6799 172.841 15.4557C171.581 14.2314 170.705 12.6541 170.325 10.9233C170.073 9.77373 170.046 8.58479 170.245 7.42443C170.444 6.26406 170.866 5.15499 171.486 4.16059C172.106 3.16618 172.913 2.30591 173.86 1.62893C174.807 0.951953 175.876 0.471527 177.005 0.215088V0.215088Z" fill="#6A01FF"/>
<path opacity="0.2" d="M185.425 6.36326C185.606 6.36527 185.784 6.3124 185.935 6.2114C186.086 6.11039 186.204 5.96584 186.274 5.79618C186.344 5.62651 186.363 5.43943 186.328 5.25881C186.294 5.07818 186.207 4.9122 186.079 4.78205C185.951 4.6519 185.788 4.56347 185.61 4.52805C185.433 4.49263 185.249 4.51184 185.083 4.5832C184.916 4.65457 184.774 4.77487 184.675 4.92875C184.575 5.08262 184.523 5.2631 184.525 5.44715C184.525 5.69012 184.62 5.92314 184.789 6.09494C184.958 6.26674 185.187 6.36326 185.425 6.36326V6.36326Z" fill="black"/>
<path opacity="0.2" d="M182.465 1.89471C182.489 2.12233 182.594 2.33302 182.761 2.48616C182.929 2.63929 183.145 2.72403 183.37 2.72403C183.595 2.72403 183.812 2.63929 183.979 2.48616C184.146 2.33302 184.252 2.12233 184.275 1.89471C183.884 1.59269 183.47 1.32375 183.035 1.09058C182.875 1.15585 182.737 1.2661 182.636 1.40847C182.535 1.55084 182.476 1.71947 182.465 1.89471V1.89471Z" fill="black"/>
<path opacity="0.2" d="M172.725 10.4448C172.451 10.4448 172.182 10.5278 171.953 10.6833C171.725 10.8387 171.546 11.0597 171.441 11.3182C171.336 11.5768 171.309 11.8613 171.362 12.1357C171.416 12.4102 171.548 12.6623 171.743 12.8602C171.937 13.058 172.185 13.1928 172.454 13.2474C172.724 13.302 173.003 13.274 173.257 13.1669C173.511 13.0598 173.728 12.8784 173.881 12.6458C174.034 12.4131 174.115 12.1395 174.115 11.8597C174.113 11.4853 173.966 11.1269 173.705 10.8622C173.445 10.5974 173.093 10.4475 172.725 10.4448Z" fill="black"/>
<path opacity="0.2" d="M187.315 6.27148C187.177 5.82847 187.006 5.39641 186.805 4.97876C186.801 5.03973 186.801 5.10101 186.805 5.16198C186.804 5.37388 186.849 5.58342 186.937 5.77536C187.026 5.96729 187.155 6.13677 187.315 6.27148V6.27148Z" fill="black"/>
<path opacity="0.2" d="M172.105 6.14928C172.102 5.84576 172.003 5.55128 171.823 5.30934C171.643 5.06739 171.392 4.89081 171.105 4.80566C170.673 5.645 170.372 6.54839 170.215 7.48272C170.369 7.53956 170.532 7.5705 170.695 7.57433C170.88 7.57567 171.063 7.5398 171.234 7.46879C171.405 7.39777 171.561 7.29302 171.692 7.16056C171.823 7.0281 171.927 6.87054 171.998 6.69698C172.069 6.52342 172.105 6.33728 172.105 6.14928V6.14928Z" fill="black"/>
<path opacity="0.2" d="M186.345 10.1089C186.344 10.4159 186.441 10.715 186.621 10.961C186.802 11.2071 187.056 11.3867 187.345 11.4728C187.611 10.5789 187.74 9.64833 187.725 8.71436C187.361 8.71435 187.011 8.86094 186.753 9.12217C186.494 9.38341 186.348 9.73809 186.345 10.1089V10.1089Z" fill="black"/>
<path opacity="0.2" d="M177.725 4.23589C177.723 3.95826 177.641 3.68739 177.489 3.45701C177.336 3.22664 177.121 3.04693 176.869 2.9403C176.617 2.83367 176.34 2.80481 176.072 2.85733C175.805 2.90985 175.558 3.04142 175.363 3.23565C175.168 3.42988 175.034 3.67819 174.976 3.94964C174.919 4.2211 174.941 4.5037 175.041 4.76225C175.14 5.0208 175.312 5.24387 175.535 5.40367C175.758 5.56347 176.023 5.65295 176.295 5.66095C176.482 5.66501 176.667 5.63116 176.84 5.56136C177.014 5.49157 177.171 5.38724 177.305 5.25451C177.438 5.12177 177.544 4.9633 177.616 4.78838C177.688 4.61347 177.725 4.42563 177.725 4.23589V4.23589Z" fill="black"/>
<path opacity="0.2" d="M182.345 13.4377C182.842 13.4377 183.245 13.0275 183.245 12.5216C183.245 12.0156 182.842 11.6055 182.345 11.6055C181.848 11.6055 181.445 12.0156 181.445 12.5216C181.445 13.0275 181.848 13.4377 182.345 13.4377Z" fill="black"/>
<path opacity="0.2" d="M185.725 12.9897C185.725 13.1835 185.787 13.3722 185.9 13.5279C186.014 13.6837 186.173 13.7983 186.355 13.8549C186.676 13.3542 186.947 12.8223 187.165 12.267C187.033 12.1614 186.875 12.0959 186.708 12.0781C186.541 12.0604 186.372 12.0911 186.222 12.1666C186.071 12.2422 185.944 12.3596 185.857 12.5052C185.769 12.6509 185.723 12.8188 185.725 12.9897V12.9897Z" fill="black"/>
<path opacity="0.2" d="M183.366 16.4403C183.36 16.525 183.36 16.61 183.366 16.6948C184.344 16.106 185.203 15.332 185.896 14.4147C185.591 14.3239 185.269 14.3083 184.958 14.3691C184.646 14.4299 184.353 14.5654 184.103 14.7643C183.853 14.9632 183.653 15.2199 183.519 15.5131C183.386 15.8063 183.323 16.1276 183.336 16.4505L183.366 16.4403Z" fill="black"/>
<path opacity="0.2" d="M171.076 9.66108C171.075 9.31988 170.993 8.98393 170.836 8.68238C170.679 8.38083 170.453 8.1228 170.176 7.93066C170.061 8.92974 170.112 9.9412 170.326 10.9233C170.326 11.0149 170.326 11.1065 170.396 11.1981C170.61 11.0062 170.782 10.7697 170.899 10.5046C171.016 10.2395 171.077 9.95184 171.076 9.66108V9.66108Z" fill="black"/>
<path opacity="0.2" d="M175.195 0.968414C175.195 0.968414 175.195 0.897161 175.195 0.856445C173.717 1.56303 172.461 2.67294 171.565 4.06281C171.748 4.07834 171.932 4.07834 172.115 4.06281C172.925 4.06025 173.701 3.73469 174.276 3.15608C174.852 2.57747 175.182 1.79199 175.195 0.968414V0.968414Z" fill="black"/>
<path opacity="0.2" d="M179.385 1.42654C179.758 1.42311 180.123 1.31727 180.442 1.12019C180.76 0.923106 181.021 0.6421 181.195 0.306857C179.984 -0.016355 178.72 -0.0753232 177.485 0.133817C177.634 0.521043 177.896 0.852512 178.236 1.08363C178.576 1.31474 178.977 1.43441 179.385 1.42654Z" fill="black"/>
<path opacity="0.2" d="M178.925 15.5242C178.745 15.5222 178.567 15.5751 178.416 15.6761C178.265 15.7771 178.147 15.9216 178.077 16.0913C178.006 16.261 177.988 16.4481 178.022 16.6287C178.057 16.8093 178.144 16.9753 178.272 17.1054C178.4 17.2356 178.563 17.324 178.74 17.3594C178.918 17.3948 179.102 17.3756 179.268 17.3043C179.435 17.2329 179.577 17.1126 179.676 16.9587C179.775 16.8049 179.827 16.6244 179.825 16.4403C179.825 16.1974 179.73 15.9643 179.562 15.7925C179.393 15.6207 179.164 15.5242 178.925 15.5242V15.5242Z" fill="black"/>
<path opacity="0.2" d="M176.975 17.2039C176.845 17.2037 176.717 17.2328 176.6 17.2891C176.482 17.3454 176.378 17.4276 176.295 17.5296C176.796 17.6824 177.308 17.7947 177.825 17.8655C177.775 17.6755 177.664 17.5077 177.511 17.3881C177.357 17.2685 177.169 17.2037 176.975 17.2039V17.2039Z" fill="black"/>
<path opacity="0.2" d="M173.406 15.0356C173.28 15.0385 173.156 15.068 173.043 15.1223C172.929 15.1767 172.828 15.2546 172.746 15.3512C173.164 15.7807 173.627 16.1629 174.126 16.4912C174.244 16.3406 174.311 16.1547 174.316 15.9619C174.316 15.7163 174.22 15.4807 174.049 15.3069C173.878 15.1332 173.647 15.0356 173.406 15.0356V15.0356Z" fill="black"/>
<path opacity="0.2" d="M183.775 7.40139C183.817 7.40139 183.858 7.38885 183.892 7.36536C183.927 7.34188 183.954 7.30849 183.969 7.26943C183.985 7.23037 183.989 7.1874 183.981 7.14593C183.973 7.10447 183.953 7.06638 183.924 7.03649C183.895 7.00659 183.857 6.98623 183.816 6.97799C183.776 6.96974 183.733 6.97397 183.695 6.99015C183.657 7.00633 183.624 7.03372 183.601 7.06888C183.578 7.10403 183.565 7.14536 183.565 7.18763C183.568 7.24353 183.591 7.29646 183.63 7.33602C183.669 7.37559 183.721 7.3989 183.775 7.40139V7.40139Z" fill="black"/>
<path opacity="0.2" d="M184.995 3.96072C185.051 3.96072 185.104 3.93819 185.144 3.89811C185.183 3.85802 185.205 3.80365 185.205 3.74696C185.205 3.69027 185.183 3.63589 185.144 3.5958C185.104 3.55572 185.051 3.5332 184.995 3.5332C184.968 3.53317 184.941 3.53875 184.916 3.54961C184.891 3.56047 184.869 3.57638 184.85 3.59638C184.831 3.61637 184.817 3.64004 184.807 3.66592C184.798 3.69181 184.794 3.71938 184.795 3.74696C184.795 3.80193 184.816 3.85481 184.853 3.89462C184.89 3.93443 184.941 3.9581 184.995 3.96072Z" fill="black"/>
<path opacity="0.2" d="M186.585 7.40139C186.627 7.40139 186.668 7.38885 186.702 7.36536C186.737 7.34188 186.764 7.30849 186.78 7.26943C186.795 7.23037 186.8 7.1874 186.791 7.14593C186.783 7.10447 186.763 7.06638 186.734 7.03649C186.705 7.00659 186.667 6.98623 186.626 6.97799C186.586 6.96974 186.543 6.97397 186.505 6.99015C186.467 7.00633 186.434 7.03372 186.411 7.06888C186.388 7.10403 186.375 7.14536 186.375 7.18763C186.375 7.24433 186.398 7.29869 186.437 7.33878C186.476 7.37887 186.53 7.40139 186.585 7.40139V7.40139Z" fill="black"/>
<path opacity="0.2" d="M179.355 2.1185C179.409 2.1185 179.459 2.09706 179.497 2.05888C179.534 2.0207 179.555 1.96892 179.555 1.91493C179.557 1.88735 179.553 1.85978 179.543 1.83389C179.534 1.80801 179.519 1.78434 179.501 1.76435C179.482 1.74435 179.459 1.72844 179.434 1.71758C179.409 1.70672 179.383 1.70114 179.355 1.70117C179.3 1.70117 179.246 1.72369 179.207 1.76378C179.168 1.80387 179.146 1.85824 179.146 1.91493C179.145 1.94254 179.151 1.96987 179.162 1.99526C179.172 2.02065 179.188 2.04356 179.208 2.06261C179.227 2.08165 179.25 2.09642 179.276 2.10603C179.301 2.11564 179.328 2.11988 179.355 2.1185V2.1185Z" fill="black"/>
<path opacity="0.2" d="M176.725 5.94581C176.699 5.94581 176.673 5.95108 176.649 5.96131C176.624 5.97154 176.602 5.98653 176.584 6.00544C176.565 6.02434 176.55 6.04679 176.54 6.07149C176.53 6.09619 176.525 6.12266 176.525 6.14939C176.524 6.17697 176.528 6.20454 176.537 6.23042C176.547 6.25631 176.561 6.27997 176.58 6.29997C176.599 6.31996 176.621 6.33588 176.646 6.34674C176.671 6.3576 176.698 6.36319 176.725 6.36315C176.781 6.36315 176.834 6.34063 176.874 6.30054C176.913 6.26046 176.935 6.20609 176.935 6.14939C176.935 6.12178 176.93 6.09444 176.919 6.06906C176.908 6.04367 176.893 6.02076 176.873 6.00172C176.853 5.98267 176.83 5.96789 176.805 5.95828C176.779 5.94867 176.752 5.94443 176.725 5.94581Z" fill="black"/>
<path opacity="0.2" d="M175.316 11.8598C175.316 11.8322 175.31 11.8049 175.299 11.7795C175.289 11.7541 175.273 11.7312 175.253 11.7122C175.234 11.6931 175.211 11.6783 175.185 11.6687C175.16 11.6591 175.133 11.6549 175.106 11.6563C175.052 11.6563 175.002 11.6777 174.964 11.7159C174.927 11.7541 174.906 11.8058 174.906 11.8598C174.904 11.8874 174.908 11.915 174.918 11.9409C174.927 11.9668 174.942 11.9904 174.96 12.0104C174.979 12.0304 175.002 12.0463 175.027 12.0572C175.052 12.0681 175.078 12.0736 175.106 12.0736C175.161 12.0736 175.215 12.0511 175.254 12.011C175.293 11.9709 175.316 11.9165 175.316 11.8598V11.8598Z" fill="black"/>
<path opacity="0.2" d="M171.896 9.45766C171.896 9.49994 171.908 9.54126 171.931 9.57642C171.954 9.61157 171.987 9.63896 172.025 9.65514C172.063 9.67132 172.106 9.67556 172.146 9.66731C172.187 9.65906 172.225 9.6387 172.254 9.60881C172.283 9.57891 172.303 9.54082 172.311 9.49936C172.32 9.45789 172.315 9.41491 172.299 9.37585C172.284 9.3368 172.257 9.30341 172.222 9.27992C172.188 9.25643 172.147 9.2439 172.105 9.2439C172.05 9.2439 171.996 9.26642 171.957 9.30651C171.918 9.34659 171.896 9.40097 171.896 9.45766Z" fill="black"/>
<path opacity="0.2" d="M180.965 10.4652C180.965 10.5075 180.978 10.5488 181.001 10.584C181.024 10.6191 181.057 10.6465 181.095 10.6627C181.133 10.6789 181.176 10.6831 181.216 10.6749C181.257 10.6666 181.294 10.6463 181.324 10.6164C181.353 10.5865 181.373 10.5484 181.381 10.5069C181.389 10.4655 181.385 10.4225 181.369 10.3834C181.353 10.3444 181.327 10.311 181.292 10.2875C181.257 10.264 181.217 10.2515 181.175 10.2515C181.12 10.2515 181.066 10.274 181.027 10.3141C180.987 10.3542 180.965 10.4085 180.965 10.4652V10.4652Z" fill="black"/>
<path opacity="0.2" d="M180.965 8.09353C181.081 8.09353 181.175 7.99783 181.175 7.87977C181.175 7.76172 181.081 7.66602 180.965 7.66602C180.849 7.66602 180.755 7.76172 180.755 7.87977C180.755 7.99783 180.849 8.09353 180.965 8.09353Z" fill="black"/>
<path opacity="0.2" d="M182.835 14.3435C182.808 14.3435 182.782 14.3491 182.757 14.3599C182.732 14.3708 182.709 14.3867 182.69 14.4067C182.672 14.4267 182.657 14.4503 182.648 14.4762C182.638 14.5021 182.634 14.5297 182.636 14.5573C182.636 14.584 182.641 14.6105 182.651 14.6352C182.661 14.6599 182.675 14.6823 182.694 14.7012C182.713 14.7201 182.735 14.7351 182.759 14.7453C182.783 14.7556 182.809 14.7608 182.835 14.7608C182.863 14.7622 182.89 14.758 182.915 14.7484C182.941 14.7388 182.964 14.724 182.983 14.7049C183.003 14.6859 183.019 14.663 183.029 14.6376C183.04 14.6122 183.046 14.5849 183.046 14.5573C183.046 14.5006 183.023 14.4462 182.984 14.4061C182.945 14.366 182.891 14.3435 182.835 14.3435V14.3435Z" fill="black"/>
<path opacity="0.2" d="M173.615 4.7344C173.671 4.7344 173.724 4.71188 173.764 4.6718C173.803 4.63171 173.825 4.57733 173.825 4.52064C173.825 4.46395 173.803 4.40958 173.764 4.36949C173.724 4.32941 173.671 4.30688 173.615 4.30688C173.56 4.30688 173.506 4.32941 173.467 4.36949C173.427 4.40958 173.405 4.46395 173.405 4.52064C173.405 4.57733 173.427 4.63171 173.467 4.6718C173.506 4.71188 173.56 4.7344 173.615 4.7344V4.7344Z" fill="black"/>
<path opacity="0.2" d="M178.015 4.43956C178.042 4.44094 178.069 4.43669 178.095 4.42708C178.12 4.41747 178.143 4.40269 178.163 4.38365C178.183 4.36461 178.198 4.34169 178.209 4.3163C178.22 4.29092 178.225 4.26359 178.225 4.23597C178.225 4.17928 178.203 4.12491 178.164 4.08483C178.124 4.04474 178.071 4.02222 178.015 4.02222C177.988 4.02218 177.961 4.02776 177.936 4.03863C177.911 4.04949 177.889 4.0654 177.87 4.0854C177.851 4.1054 177.837 4.12905 177.827 4.15494C177.818 4.18082 177.814 4.2084 177.815 4.23597C177.815 4.28997 177.836 4.34175 177.874 4.37993C177.911 4.41811 177.962 4.43956 178.015 4.43956V4.43956Z" fill="black"/>
<path opacity="0.2" d="M177.815 15.0356C177.773 15.0336 177.732 15.0444 177.696 15.0666C177.66 15.0888 177.632 15.1215 177.614 15.1603C177.597 15.1991 177.591 15.2424 177.598 15.2845C177.605 15.3266 177.624 15.3657 177.653 15.3966C177.682 15.4275 177.719 15.4489 177.76 15.458C177.801 15.4671 177.844 15.4635 177.883 15.4477C177.922 15.4318 177.955 15.4045 177.979 15.3691C178.003 15.3338 178.015 15.2921 178.015 15.2494C178.015 15.1944 177.995 15.1415 177.957 15.1017C177.92 15.0619 177.869 15.0383 177.815 15.0356V15.0356Z" fill="black"/>
<path opacity="0.2" d="M177.325 12.5215C177.298 12.5201 177.271 12.5244 177.246 12.534C177.22 12.5436 177.197 12.5584 177.177 12.5774C177.158 12.5964 177.142 12.6194 177.131 12.6447C177.121 12.6701 177.115 12.6975 177.115 12.7251C177.115 12.7818 177.137 12.8361 177.177 12.8762C177.216 12.9163 177.27 12.9388 177.325 12.9388C177.352 12.9389 177.379 12.9333 177.404 12.9224C177.429 12.9116 177.452 12.8956 177.47 12.8757C177.489 12.8557 177.504 12.832 177.513 12.8061C177.522 12.7802 177.527 12.7527 177.525 12.7251C177.525 12.6711 177.504 12.6193 177.467 12.5811C177.429 12.5429 177.378 12.5215 177.325 12.5215V12.5215Z" fill="black"/>
<path opacity="0.2" d="M172.305 13.7024C172.278 13.7024 172.251 13.7079 172.226 13.7188C172.201 13.7297 172.179 13.7456 172.16 13.7656C172.141 13.7856 172.127 13.8092 172.117 13.8351C172.108 13.861 172.104 13.8886 172.105 13.9161C172.105 13.9701 172.126 14.0219 172.164 14.0601C172.201 14.0983 172.252 14.1197 172.305 14.1197C172.332 14.1211 172.359 14.1169 172.385 14.1073C172.41 14.0976 172.434 14.0829 172.453 14.0638C172.473 14.0448 172.488 14.0219 172.499 13.9965C172.51 13.9711 172.515 13.9438 172.515 13.9161C172.515 13.8595 172.493 13.8051 172.454 13.765C172.414 13.7249 172.361 13.7024 172.305 13.7024V13.7024Z" fill="black"/>
<path opacity="0.2" d="M180.305 17.1528C180.264 17.1528 180.223 17.1654 180.189 17.1889C180.154 17.2123 180.127 17.2457 180.111 17.2848C180.095 17.3238 180.091 17.3668 180.099 17.4083C180.107 17.4498 180.127 17.4878 180.157 17.5177C180.186 17.5476 180.224 17.568 180.264 17.5762C180.305 17.5845 180.347 17.5803 180.386 17.5641C180.424 17.5479 180.457 17.5205 180.48 17.4853C180.503 17.4502 180.515 17.4089 180.515 17.3666C180.515 17.3099 180.493 17.2555 180.454 17.2154C180.414 17.1754 180.361 17.1528 180.305 17.1528V17.1528Z" fill="black"/>
<path opacity="0.2" d="M181.445 4.71424C181.541 4.71422 181.634 4.68529 181.713 4.63114C181.792 4.57699 181.854 4.50007 181.89 4.4102C181.926 4.32032 181.935 4.22157 181.915 4.12652C181.896 4.03148 181.849 3.94445 181.781 3.87655C181.713 3.80864 181.627 3.76293 181.533 3.74524C181.439 3.72755 181.342 3.7387 181.255 3.77724C181.167 3.81579 181.093 3.87999 181.041 3.96167C180.99 4.04334 180.963 4.13879 180.965 4.23583C180.965 4.29952 180.978 4.36258 181.002 4.42129C181.026 4.48001 181.062 4.53321 181.107 4.57777C181.151 4.62233 181.204 4.65735 181.263 4.68078C181.321 4.70422 181.383 4.71559 181.445 4.71424V4.71424Z" fill="black"/>
<path opacity="0.2" d="M181.445 2.39344C181.541 2.39342 181.634 2.36449 181.713 2.31033C181.792 2.25618 181.854 2.17927 181.89 2.08939C181.926 1.99952 181.935 1.90077 181.915 1.80572C181.896 1.71068 181.849 1.62365 181.781 1.55575C181.713 1.48784 181.627 1.44213 181.533 1.42444C181.439 1.40675 181.342 1.4179 181.255 1.45644C181.167 1.49499 181.093 1.55919 181.041 1.64087C180.99 1.72254 180.963 1.81799 180.965 1.91503C180.965 1.97872 180.978 2.04178 181.002 2.10049C181.026 2.15921 181.062 2.21241 181.107 2.25697C181.151 2.30153 181.204 2.33655 181.263 2.35998C181.321 2.38342 181.383 2.39479 181.445 2.39344V2.39344Z" fill="black"/>
<path opacity="0.2" d="M176.295 2.39338C176.428 2.39338 176.555 2.33976 176.649 2.24431C176.743 2.14887 176.795 2.01942 176.795 1.88443C176.795 1.74945 176.743 1.62 176.649 1.52455C176.555 1.42911 176.428 1.37549 176.295 1.37549C176.163 1.37549 176.036 1.42911 175.942 1.52455C175.848 1.62 175.795 1.74945 175.795 1.88443C175.795 2.01942 175.848 2.14887 175.942 2.24431C176.036 2.33976 176.163 2.39338 176.295 2.39338Z" fill="black"/>
<path opacity="0.2" d="M180.305 15.0355C180.305 14.9388 180.277 14.8444 180.224 14.764C180.172 14.6837 180.097 14.6211 180.009 14.5841C179.921 14.5471 179.825 14.5374 179.732 14.5563C179.638 14.5751 179.553 14.6217 179.486 14.69C179.419 14.7583 179.373 14.8454 179.354 14.9401C179.336 15.0349 179.345 15.1332 179.382 15.2224C179.418 15.3117 179.48 15.388 179.559 15.4417C179.637 15.4954 179.73 15.5241 179.825 15.5241C179.889 15.5254 179.952 15.5138 180.011 15.4897C180.069 15.4656 180.123 15.4297 180.168 15.384C180.213 15.3384 180.248 15.284 180.271 15.2241C180.295 15.1642 180.307 15.1 180.305 15.0355V15.0355Z" fill="black"/>
<path opacity="0.2" d="M175.315 15.4734C175.221 15.4734 175.128 15.502 175.049 15.5557C174.97 15.6094 174.908 15.6857 174.872 15.775C174.836 15.8643 174.826 15.9625 174.845 16.0573C174.863 16.1521 174.909 16.2391 174.976 16.3075C175.043 16.3758 175.129 16.4223 175.222 16.4412C175.315 16.46 175.411 16.4504 175.499 16.4134C175.587 16.3764 175.662 16.3138 175.715 16.2334C175.767 16.1531 175.795 16.0586 175.795 15.962C175.795 15.8978 175.783 15.8343 175.759 15.775C175.735 15.7157 175.699 15.6619 175.655 15.6165C175.61 15.5711 175.557 15.5351 175.499 15.5106C175.441 15.486 175.378 15.4734 175.315 15.4734Z" fill="black"/>
<path opacity="0.2" d="M173.615 14.608C173.88 14.608 174.095 14.3893 174.095 14.1194C174.095 13.8496 173.88 13.6309 173.615 13.6309C173.35 13.6309 173.135 13.8496 173.135 14.1194C173.135 14.3893 173.35 14.608 173.615 14.608Z" fill="black"/>
<path opacity="0.2" d="M181.445 15.9618C181.35 15.9598 181.256 15.987 181.175 16.0399C181.095 16.0928 181.032 16.169 180.994 16.2586C180.956 16.3483 180.946 16.4474 180.964 16.5431C180.983 16.6388 181.028 16.7268 181.096 16.7957C181.164 16.8647 181.25 16.9114 181.344 16.9299C181.438 16.9485 181.536 16.9379 181.624 16.8997C181.712 16.8615 181.787 16.7973 181.839 16.7154C181.891 16.6335 181.917 16.5376 181.915 16.4402C181.915 16.3133 181.866 16.1916 181.778 16.1019C181.69 16.0122 181.57 15.9618 181.445 15.9618V15.9618Z" fill="black"/>
<path opacity="0.2" d="M178.226 9.94617C178.321 9.94617 178.413 9.91751 178.492 9.86383C178.571 9.81014 178.633 9.73384 178.669 9.64456C178.705 9.55528 178.715 9.45704 178.696 9.36227C178.678 9.26749 178.632 9.18043 178.565 9.1121C178.498 9.04377 178.412 8.99724 178.319 8.97838C178.226 8.95953 178.13 8.9692 178.042 9.00618C177.954 9.04316 177.879 9.10579 177.827 9.18614C177.774 9.26648 177.746 9.36095 177.746 9.45759C177.748 9.58635 177.8 9.70912 177.889 9.80019C177.979 9.89126 178.099 9.94357 178.226 9.94617Z" fill="black"/>
<path opacity="0.2" d="M184.995 11.4324C185.091 11.4344 185.185 11.4072 185.266 11.3543C185.346 11.3014 185.409 11.2252 185.447 11.1355C185.485 11.0458 185.495 10.9468 185.477 10.8511C185.458 10.7553 185.413 10.6674 185.345 10.5984C185.277 10.5295 185.191 10.4828 185.097 10.4642C185.003 10.4457 184.905 10.4562 184.817 10.4945C184.729 10.5327 184.654 10.5969 184.602 10.6788C184.55 10.7607 184.524 10.8565 184.525 10.954C184.525 11.0809 184.575 11.2026 184.663 11.2923C184.751 11.382 184.871 11.4324 184.995 11.4324V11.4324Z" fill="black"/>
<path opacity="0.2" d="M174.095 8.71446C174 8.71245 173.905 8.73964 173.825 8.79255C173.745 8.84545 173.681 8.92165 173.644 9.01133C173.606 9.10101 173.596 9.20008 173.614 9.29579C173.632 9.39151 173.678 9.47949 173.746 9.54842C173.814 9.61736 173.9 9.6641 173.994 9.68263C174.088 9.70115 174.186 9.69062 174.274 9.65239C174.362 9.61415 174.437 9.54996 174.489 9.46807C174.541 9.38618 174.567 9.29034 174.565 9.19287C174.565 9.06599 174.516 8.9443 174.428 8.85458C174.34 8.76486 174.22 8.71446 174.095 8.71446V8.71446Z" fill="black"/>
<path opacity="0.2" d="M172.105 8.54163C172.371 8.54163 172.585 8.32288 172.585 8.05304C172.585 7.7832 172.371 7.56445 172.105 7.56445C171.84 7.56445 171.625 7.7832 171.625 8.05304C171.625 8.32288 171.84 8.54163 172.105 8.54163Z" fill="black"/>
<path d="M214.645 303.354C201.115 309.706 191.785 318.459 193.805 322.908C195.825 327.356 208.415 325.819 221.945 319.467C235.475 313.115 244.805 304.362 242.785 299.913C240.765 295.465 228.175 297.002 214.645 303.354ZM221.055 317.513C209.225 323.06 198.305 324.638 196.655 320.994C195.005 317.35 203.275 309.919 215.105 304.362C226.935 298.804 237.855 297.236 239.505 300.88C241.155 304.524 232.885 311.955 221.055 317.513V317.513Z" fill="#2E91E7"/>
<path opacity="0.5" d="M214.645 303.354C201.115 309.706 191.785 318.459 193.805 322.908C195.825 327.356 208.415 325.819 221.945 319.467C235.475 313.115 244.805 304.362 242.785 299.913C240.765 295.465 228.175 297.002 214.645 303.354ZM221.055 317.513C209.225 323.06 198.305 324.638 196.655 320.994C195.005 317.35 203.275 309.919 215.105 304.362C226.935 298.804 237.855 297.236 239.505 300.88C241.155 304.524 232.885 311.955 221.055 317.513V317.513Z" fill="white"/>
<path d="M215.046 304.239C204.426 309.227 197.106 316.118 198.726 319.599C200.346 323.08 210.206 321.879 220.826 316.892C231.446 311.904 238.766 305.043 237.186 301.542C235.606 298.04 225.666 299.262 215.046 304.239ZM220.046 315.355C210.756 319.711 202.176 320.943 200.886 318.093C199.596 315.243 206.086 309.4 215.366 305.033C224.646 300.666 233.236 299.455 234.526 302.305C235.816 305.155 229.376 311.029 220.086 315.355H220.046Z" fill="#2E91E7"/>
<path opacity="0.7" d="M215.046 304.239C204.426 309.227 197.106 316.118 198.726 319.599C200.346 323.08 210.206 321.879 220.826 316.892C231.446 311.904 238.766 305.043 237.186 301.542C235.606 298.04 225.666 299.262 215.046 304.239ZM220.046 315.355C210.756 319.711 202.176 320.943 200.886 318.093C199.596 315.243 206.086 309.4 215.366 305.033C224.646 300.666 233.236 299.455 234.526 302.305C235.816 305.155 229.376 311.029 220.086 315.355H220.046Z" fill="white"/>
<path d="M234.028 318.168C236.909 309.689 232.492 300.437 224.162 297.504C215.832 294.571 206.743 299.068 203.862 307.547C200.98 316.026 205.398 325.277 213.728 328.21C222.058 331.143 231.147 326.647 234.028 318.168Z" fill="#2E91E7"/>
<path opacity="0.2" d="M207.345 301.715C209.01 299.929 211.051 298.55 213.315 297.683C215.579 296.815 218.007 296.482 220.415 296.707C220.795 296.707 221.185 296.799 221.555 296.86C225.228 297.47 228.574 299.376 231.005 302.244C231.275 302.57 231.535 302.896 231.775 303.262C232.513 304.27 233.13 305.364 233.615 306.519C233.878 307.119 234.095 307.739 234.265 308.372C234.809 310.225 235.012 312.164 234.865 314.093C234.876 314.194 234.876 314.296 234.865 314.398C234.815 314.876 234.765 315.334 234.675 315.792C234.401 317.368 233.892 318.892 233.165 320.312C232.913 320.842 232.622 321.352 232.295 321.839C230.704 324.292 228.489 326.261 225.887 327.537C223.285 328.813 220.392 329.348 217.515 329.086C215.786 328.924 214.095 328.466 212.515 327.732C212.382 327.686 212.255 327.624 212.135 327.549C210.625 326.839 209.246 325.872 208.055 324.689C208.055 324.689 207.965 324.618 207.925 324.567C206.653 323.34 205.601 321.896 204.815 320.302C204.618 319.947 204.451 319.576 204.315 319.192C204.15 318.847 204.009 318.49 203.895 318.123C203.698 317.545 203.541 316.953 203.425 316.352C203.066 314.734 202.958 313.068 203.105 311.415C203.4 307.787 204.895 304.367 207.345 301.715V301.715Z" fill="white"/>
<g opacity="0.2">
<path d="M232.145 321.981C230.548 324.384 228.345 326.307 225.768 327.548C223.191 328.789 220.334 329.302 217.495 329.035C215.938 328.896 214.41 328.515 212.965 327.905C218.055 327.559 225.555 326.684 232.145 321.981Z" fill="white"/>
<path d="M219.255 309.675C222.655 308.341 229.545 306.774 232.635 304.534C232.779 304.744 232.906 304.966 233.015 305.196C231.298 306.407 229.688 307.769 228.205 309.268C224.785 312.443 223.075 315.375 217.395 315.599C211.715 315.823 215.465 311.181 219.255 309.675Z" fill="white"/>
<path d="M209.246 325.758C214.246 325.116 226.306 322.928 234.566 316.291C234.436 316.871 234.276 317.431 234.096 318.011C228.856 320.729 219.096 325.982 210.866 326.847C210.302 326.522 209.761 326.158 209.246 325.758V325.758Z" fill="white"/>
<path d="M205.436 321.472C208.67 321.01 211.87 320.33 215.016 319.436C221.446 317.482 230.386 312.861 234.506 309.258C234.72 310.183 234.844 311.127 234.876 312.077C229.736 315.579 217.316 323.274 206.976 323.549C206.404 322.904 205.888 322.209 205.436 321.472Z" fill="white"/>
<path d="M205.195 304.657C205.411 304.237 205.659 303.836 205.935 303.456C210.755 302 220.035 299.74 224.265 297.552C224.904 297.771 225.526 298.04 226.125 298.356C220.855 299.588 209.925 303.527 205.195 304.657Z" fill="white"/>
<path d="M203.955 307.262C207.614 306.053 211.4 305.291 215.235 304.993C217.815 304.993 225.455 301.939 228.155 299.598C228.37 299.742 228.574 299.902 228.765 300.076C222.145 302.916 214.075 309.929 210.355 311.965C208.059 313.239 205.648 314.286 203.155 315.09C202.968 313.858 202.931 312.606 203.045 311.364C203.175 309.963 203.481 308.585 203.955 307.262Z" fill="white"/>
</g>
<path opacity="0.2" d="M203.365 316.301C204.528 316.021 205.676 315.681 206.805 315.283C211.175 313.777 219.055 307.293 226.025 304.31C228.645 303.201 230.145 302.56 231.025 302.214C231.295 302.539 231.555 302.865 231.795 303.232C229.798 304.419 227.727 305.473 225.595 306.387C221.155 308.28 216.415 310.845 213.685 313.166C211.595 314.927 206.315 317.238 203.855 318.093C203.65 317.508 203.486 316.91 203.365 316.301Z" fill="black"/>
<path opacity="0.2" d="M204.255 319.172C208.276 318.157 212.353 317.392 216.465 316.882C223.385 316.067 226.005 312.942 228.835 309.97C230.243 308.569 231.856 307.398 233.615 306.499C233.878 307.099 234.095 307.718 234.265 308.352C231.082 311.049 227.569 313.317 223.815 315.1C217.265 318.225 208.165 319.742 204.755 320.241C204.56 319.899 204.393 319.541 204.255 319.172Z" fill="black"/>
<path opacity="0.2" d="M207.865 324.516C213.865 323.729 219.698 321.952 225.135 319.253C229.585 317.024 232.755 315.263 234.865 314.042C234.876 314.143 234.876 314.245 234.865 314.347C234.815 314.825 234.765 315.283 234.675 315.741C229.675 318.459 218.115 324.068 208.015 324.638C207.945 324.628 207.905 324.567 207.865 324.516Z" fill="black"/>
<path opacity="0.2" d="M207.345 301.695C209.01 299.909 211.051 298.53 213.315 297.663C215.579 296.795 218.006 296.461 220.415 296.687C220.795 296.687 221.185 296.778 221.555 296.839C218.155 298.448 211.845 301.074 207.345 301.695Z" fill="black"/>
<path opacity="0.2" d="M212.075 327.498C216.075 326.531 226.295 323.915 230.645 321.493C231.452 321.028 232.287 320.616 233.145 320.261C232.893 320.791 232.602 321.301 232.275 321.788C229.165 323.172 223.155 325.707 219.765 326.267C216.765 326.755 214.085 327.284 212.475 327.681C212.335 327.636 212.201 327.575 212.075 327.498V327.498Z" fill="black"/>
<path opacity="0.2" d="M225.576 299.659C225.576 299.659 219.726 303.344 217.096 303.792C215.499 304.068 213.885 304.221 212.266 304.25C212.266 304.25 220.726 299.832 225.576 299.659Z" fill="black"/>
<path d="M238.725 299.964C239.046 300.201 239.304 300.516 239.475 300.88C241.115 304.514 232.855 311.955 221.025 317.513C209.195 323.07 198.275 324.638 196.625 320.994C196.466 320.622 196.398 320.217 196.425 319.813L193.525 321.177C193.452 321.766 193.539 322.365 193.775 322.907C195.775 327.356 208.385 325.819 221.915 319.467C235.445 313.115 244.775 304.361 242.755 299.913C242.505 299.378 242.114 298.923 241.625 298.6L238.725 299.964Z" fill="#2E91E7"/>
<path opacity="0.5" d="M238.725 299.964C239.046 300.201 239.304 300.516 239.475 300.88C241.115 304.514 232.855 311.955 221.025 317.513C209.195 323.07 198.275 324.638 196.625 320.994C196.466 320.622 196.398 320.217 196.425 319.813L193.525 321.177C193.452 321.766 193.539 322.365 193.775 322.907C195.775 327.356 208.385 325.819 221.915 319.467C235.445 313.115 244.775 304.361 242.755 299.913C242.505 299.378 242.114 298.923 241.625 298.6L238.725 299.964Z" fill="white"/>
<path d="M234.376 302.02C234.445 302.111 234.508 302.206 234.566 302.305C235.856 305.155 229.376 310.998 220.086 315.355C210.796 319.711 202.216 320.943 200.926 318.093C200.89 317.983 200.86 317.87 200.836 317.757L198.496 318.856C198.517 319.113 198.582 319.364 198.686 319.599C200.266 323.091 210.166 321.879 220.786 316.892C231.406 311.904 238.726 305.043 237.146 301.542C237.036 301.315 236.895 301.106 236.726 300.921L234.376 302.02Z" fill="#2E91E7"/>
<path opacity="0.7" d="M234.376 302.02C234.445 302.111 234.508 302.206 234.566 302.305C235.856 305.155 229.376 310.998 220.086 315.355C210.796 319.711 202.216 320.943 200.926 318.093C200.89 317.983 200.86 317.87 200.836 317.757L198.496 318.856C198.517 319.113 198.582 319.364 198.686 319.599C200.266 323.091 210.166 321.879 220.786 316.892C231.406 311.904 238.726 305.043 237.146 301.542C237.036 301.315 236.895 301.106 236.726 300.921L234.376 302.02Z" fill="white"/>
<path d="M3.63525 282.528C4.9187 278.528 6.67845 274.702 8.87524 271.138C9.86097 269.504 10.9395 267.93 12.1053 266.425C15.1131 262.461 18.6584 258.951 22.6353 256.002C23.4153 255.432 24.1553 254.902 24.9653 254.373C26.6351 253.23 28.3829 252.209 30.1953 251.319C31.3328 250.708 32.5011 250.157 33.6953 249.67C35.4058 248.934 37.1552 248.295 38.9353 247.757C41.3061 247.05 43.7218 246.509 46.1653 246.138C49.1955 245.702 52.2556 245.518 55.3152 245.589C64.3649 245.759 73.2165 248.316 81.0052 253.009C81.0052 253.009 81.0553 253.009 81.0753 253.009C83.3263 254.343 85.4668 255.861 87.4753 257.549C88.4252 258.322 89.3353 259.126 90.2253 259.961C91.1152 260.796 92.0253 261.732 92.8853 262.669C93.4853 263.3 94.0652 263.982 94.6452 264.705C95.3852 265.59 96.0952 266.506 96.7652 267.473C98.244 269.467 99.5807 271.566 100.765 273.754C101.075 274.364 101.405 274.975 101.685 275.586C102.67 277.587 103.525 279.65 104.245 281.764C104.545 282.613 104.815 283.468 105.055 284.329C106.185 288.308 106.856 292.408 107.055 296.544C107.135 298 107.175 299.445 107.125 300.911C107.125 301.654 107.125 302.387 107.025 303.11C106.945 304.27 106.845 305.43 106.705 306.57C106.405 308.895 105.958 311.196 105.365 313.462C105.002 314.939 104.554 316.394 104.025 317.818C103.455 319.533 102.787 321.211 102.025 322.847C100.64 325.815 98.9823 328.643 97.0753 331.295C95.9746 332.881 94.7755 334.394 93.4852 335.825C92.0101 337.494 90.4337 339.068 88.7652 340.538C87.02 342.064 85.1831 343.478 83.2652 344.772C80.844 346.406 78.2916 347.829 75.6353 349.027C73.6438 349.941 71.5962 350.723 69.5052 351.368C67.8611 351.882 66.1923 352.31 64.5052 352.65C64.5052 352.65 64.5053 352.65 64.4453 352.65C53.8199 354.821 42.7958 353.617 32.8652 349.2C31.4653 348.589 30.0852 347.897 28.7652 347.164C27.8252 346.645 26.8852 346.085 25.9852 345.515C24.8552 344.813 23.7952 344.059 22.7352 343.276C22.1952 342.858 21.6552 342.451 21.1252 342.013C19.2086 340.483 17.4039 338.813 15.7252 337.016C10.0269 330.967 5.7946 323.647 3.36525 315.64C2.15266 311.709 1.39421 307.647 1.10525 303.537C1.00525 301.827 0.955254 300.076 0.995254 298.326C1.02915 296.681 1.14932 295.04 1.35525 293.409C1.7142 289.707 2.47895 286.057 3.63525 282.528Z" fill="#B14DB8"/>
<path opacity="0.2" d="M3.63525 282.528C4.9187 278.528 6.67845 274.702 8.87524 271.138C9.86097 269.504 10.9395 267.93 12.1053 266.425C15.1131 262.461 18.6584 258.951 22.6353 256.002C23.4153 255.432 24.1553 254.902 24.9653 254.373C26.6351 253.23 28.3829 252.209 30.1953 251.319C31.3328 250.708 32.5011 250.157 33.6953 249.67C35.4058 248.934 37.1552 248.295 38.9353 247.757C41.3061 247.05 43.7218 246.509 46.1653 246.138C49.1955 245.702 52.2556 245.518 55.3152 245.589C64.3649 245.759 73.2165 248.316 81.0052 253.009C81.0052 253.009 81.0553 253.009 81.0753 253.009C83.3263 254.343 85.4668 255.861 87.4753 257.549C88.4252 258.322 89.3353 259.126 90.2253 259.961C91.1152 260.796 92.0253 261.732 92.8853 262.669C93.4853 263.3 94.0652 263.982 94.6452 264.705C95.3852 265.59 96.0952 266.506 96.7652 267.473C98.244 269.467 99.5807 271.566 100.765 273.754C101.075 274.364 101.405 274.975 101.685 275.586C102.67 277.587 103.525 279.65 104.245 281.764C104.545 282.613 104.815 283.468 105.055 284.329C106.185 288.308 106.856 292.408 107.055 296.544C107.135 298 107.175 299.445 107.125 300.911C107.125 301.654 107.125 302.387 107.025 303.11C106.945 304.27 106.845 305.43 106.705 306.57C106.405 308.895 105.958 311.196 105.365 313.462C105.002 314.939 104.554 316.394 104.025 317.818C103.455 319.533 102.787 321.211 102.025 322.847C100.64 325.815 98.9823 328.643 97.0753 331.295C95.9746 332.881 94.7755 334.394 93.4852 335.825C92.0101 337.494 90.4337 339.068 88.7652 340.538C87.02 342.064 85.1831 343.478 83.2652 344.772C80.844 346.406 78.2916 347.829 75.6353 349.027C73.6438 349.941 71.5962 350.723 69.5052 351.368C67.8611 351.882 66.1923 352.31 64.5052 352.65C64.5052 352.65 64.5053 352.65 64.4453 352.65C53.8199 354.821 42.7958 353.617 32.8652 349.2C31.4653 348.589 30.0852 347.897 28.7652 347.164C27.8252 346.645 26.8852 346.085 25.9852 345.515C24.8552 344.813 23.7952 344.059 22.7352 343.276C22.1952 342.858 21.6552 342.451 21.1252 342.013C19.2086 340.483 17.4039 338.813 15.7252 337.016C10.0269 330.967 5.7946 323.647 3.36525 315.64C2.15266 311.709 1.39421 307.647 1.10525 303.537C1.00525 301.827 0.955254 300.076 0.995254 298.326C1.02915 296.681 1.14932 295.04 1.35525 293.409C1.7142 289.707 2.47895 286.057 3.63525 282.528Z" fill="white"/>
<path opacity="0.2" d="M3.63519 282.528C5.31477 282.539 6.98931 282.716 8.63519 283.057C10.9852 283.566 13.2652 284.462 15.6352 284.909C18.6352 285.459 21.7452 285.296 24.7752 285.642C27.8052 285.988 30.9852 286.966 33.0052 289.327C25.5934 289.709 18.2123 290.562 10.9052 291.882C7.71518 292.462 4.5152 293.063 1.3252 293.368C1.69681 289.678 2.4716 286.042 3.63519 282.528Z" fill="black"/>
<path opacity="0.2" d="M87.2656 303.628C91.7771 302.97 96.328 302.63 100.886 302.611C102.946 302.65 105.002 302.806 107.046 303.079C106.966 304.239 106.866 305.4 106.726 306.54H106.216C99.7716 306.861 93.3293 305.872 87.2656 303.628Z" fill="black"/>
<path opacity="0.2" d="M62.0353 286.518C62.8664 286.289 63.7366 286.247 64.5853 286.396C68.017 286.643 71.4634 286.585 74.8853 286.222C77.8853 285.978 80.8153 285.642 83.7753 285.327C86.075 285.153 88.3526 284.751 90.5753 284.126C91.7842 283.663 93.024 283.289 94.2853 283.006C95.8609 282.861 97.449 282.961 98.9953 283.301C100.995 283.647 102.995 283.963 104.995 284.319C106.125 288.298 106.796 292.397 106.995 296.534C105.629 296.501 104.27 296.334 102.935 296.035C100.655 295.506 98.4653 294.508 96.1153 294.243C94.0353 294.02 91.9253 294.366 89.8353 294.243C87.6226 294.023 85.4338 293.6 83.2953 292.981C75.8053 291.241 67.9253 291.241 60.7253 288.584C60.6482 288.135 60.7403 287.673 60.9831 287.29C61.2259 286.907 61.6016 286.631 62.0353 286.518Z" fill="black"/>
<path opacity="0.2" d="M22.6353 255.93C23.4153 255.36 24.1553 254.831 24.9653 254.302C26.6351 253.158 28.3829 252.138 30.1953 251.248C31.3328 250.636 32.5011 250.086 33.6953 249.599C33.9353 249.599 34.1652 249.721 34.4052 249.782C46.2803 253.026 58.3775 255.36 70.5952 256.765C77.1452 257.528 83.9453 258.088 90.2253 259.961C91.1452 260.836 92.0253 261.732 92.8853 262.669C86.1982 260.969 79.3853 259.832 72.5152 259.269C66.6652 258.882 60.7752 259.167 54.9552 258.597C49.6852 258.098 44.4453 256.887 39.1653 257.172C37.9953 257.243 36.8252 257.365 35.6452 257.437C31.7034 257.573 27.7614 257.169 23.9252 256.236C23.4904 256.156 23.0598 256.055 22.6353 255.93Z" fill="black"/>
<path opacity="0.2" d="M54.9854 264.328C60.1854 263.238 65.5954 263.747 70.8854 264.256C76.9616 264.973 83.0819 265.229 89.1954 265.02C91.0154 264.928 92.8154 264.735 94.6454 264.684C95.3854 265.569 96.0954 266.486 96.7654 267.453C98.2441 269.446 99.5808 271.545 100.765 273.733C101.075 274.344 101.405 274.954 101.685 275.565C101.135 275.494 100.605 275.433 100.115 275.392C96.9954 275.138 93.8854 274.903 90.7954 274.425C88.4361 274.066 86.0989 273.57 83.7954 272.939C81.9471 272.454 80.1384 271.824 78.3854 271.056C76.9054 270.404 75.5054 269.631 74.0254 269.02C72.2886 268.314 70.5161 267.702 68.7154 267.188C64.2254 265.814 59.6654 264.45 54.9854 264.328Z" fill="black"/>
<path opacity="0.2" d="M82.9555 269.295C85.3255 268.735 87.8055 269.295 90.1755 268.806C91.0855 268.623 91.9355 268.298 92.8355 268.063C94.1198 267.71 95.437 267.495 96.7655 267.422C98.2443 269.416 99.581 271.515 100.766 273.702C97.7716 273.45 94.7937 273.028 91.8455 272.44C90.2155 272.115 88.5755 271.748 86.9555 271.422C86.0255 271.209 82.7855 270.964 82.2455 270.293C81.9055 269.916 82.4955 269.438 82.9555 269.295Z" fill="black"/>
<path opacity="0.2" d="M12.1055 266.374C13.7053 264.269 15.4568 262.289 17.3455 260.45C19.9772 260.708 22.5809 261.205 25.1255 261.936C27.1684 262.54 29.2599 262.959 31.3755 263.188C34.1355 263.351 36.8955 262.76 39.6655 262.699C42.4355 262.638 45.4255 263.157 47.3555 265.203C43.7755 265.427 40.1855 265.671 36.6055 265.885C30.3755 266.252 24.1455 266.506 17.8955 266.476C15.9655 266.465 14.0355 266.445 12.1055 266.374Z" fill="black"/>
<path opacity="0.2" d="M26.4853 254.709C26.1053 254.587 25.5653 254.444 24.9653 254.301C26.6352 253.158 28.3829 252.138 30.1953 251.248C32.8222 251.935 35.4966 252.418 38.1953 252.693C42.6753 253.172 47.4953 253.172 51.1953 255.859L45.3853 255.218C41.5289 254.637 37.619 254.517 33.7353 254.861C32.3036 255.133 30.8516 255.279 29.3953 255.299C28.4067 255.214 27.4306 255.016 26.4853 254.709Z" fill="black"/>
<path opacity="0.2" d="M38.9355 247.685C41.3064 246.978 43.722 246.437 46.1655 246.067C49.1958 245.631 52.2559 245.447 55.3155 245.517C64.3715 245.709 73.2235 248.29 81.0055 253.009C81.0055 253.009 81.0555 253.009 81.0755 253.009C83.3266 254.342 85.4671 255.861 87.4755 257.548C83.9355 257.548 79.2155 256.144 77.6855 255.879C73.6855 255.177 69.6155 254.464 65.5955 253.701C56.6655 251.991 47.7255 249.955 38.9355 247.685Z" fill="black"/>
<path opacity="0.2" d="M46.1855 246.046C49.2158 245.61 52.2759 245.427 55.3355 245.497C64.3865 245.698 73.2313 248.287 81.0055 253.009C80.3097 252.81 79.588 252.72 78.8655 252.744C78.1755 252.744 77.4855 252.978 76.7855 253.08C75.8956 253.134 75.0029 253.117 74.1155 253.029C70.7477 252.803 67.4034 252.299 64.1155 251.523C61.1155 250.749 58.3355 249.487 55.4455 248.469C52.4236 247.424 49.328 246.614 46.1855 246.046Z" fill="black"/>
<path opacity="0.2" d="M21.0754 311.873C21.4554 311.232 22.2954 311.08 22.9954 310.856C25.9354 310.113 28.3954 308.117 31.1454 306.845C35.5554 304.809 40.5354 304.636 45.3654 304.494C48.0651 304.363 50.7701 304.4 53.4654 304.606C55.8231 304.891 58.1609 305.327 60.4654 305.909C65.4654 307.1 70.3654 308.525 75.2654 309.98C84.2654 312.657 93.2654 315.487 102.505 317.289C103.033 317.404 103.554 317.55 104.065 317.726C103.495 319.441 102.828 321.12 102.065 322.755C99.0654 322.867 95.7954 322.256 93.0654 322.185C84.8654 321.94 76.7754 324.037 68.9154 326.47C66.6525 327.283 64.3027 327.819 61.9154 328.068C58.6854 328.251 55.5154 327.325 52.4254 326.409C48.8254 325.31 45.2254 324.21 41.6554 323.08C39.7631 322.526 37.92 321.811 36.1454 320.943C34.6454 320.118 33.2554 319.101 31.7954 318.195C29.4333 316.769 26.87 315.722 24.1954 315.09C23.3399 314.958 22.5199 314.65 21.7854 314.184C21.4144 313.95 21.1386 313.587 21.0083 313.163C20.8779 312.739 20.9018 312.281 21.0754 311.873Z" fill="black"/>
<path opacity="0.2" d="M69.7753 321.757C66.5132 322.458 63.1703 322.688 59.8452 322.439C55.546 322.486 51.2544 322.06 47.0453 321.167C43.8413 320.267 40.717 319.096 37.7052 317.665C35.8752 316.861 33.9353 315.966 32.8853 314.245C42.8253 308.138 55.4752 309.095 66.7852 311.833C73.7252 313.512 80.5153 315.762 87.2953 318.022C86.6853 317.818 83.6652 319.508 82.8452 319.701C81.6116 319.925 80.3488 319.925 79.1152 319.701C75.7253 319.498 72.9553 320.913 69.7753 321.757Z" fill="black"/>
<path opacity="0.2" d="M3.29541 315.548C4.5083 315.621 5.71461 315.781 6.9054 316.027C8.9854 316.464 11.4454 317.757 11.2854 319.915C16.2854 319.844 21.6954 319.864 25.8354 322.745C23.8954 323.223 21.9554 323.701 20.0154 324.21L69.8354 332.242C71.2869 332.557 72.7744 332.667 74.2554 332.567C77.3854 332.272 80.0954 330.297 83.1454 329.514C86.8954 328.597 92.7254 329.422 97.0654 331.213C95.9647 332.8 94.7656 334.313 93.4754 335.743C92.0002 337.413 90.4238 338.987 88.7554 340.456C87.0101 341.982 85.1732 343.396 83.2554 344.69C72.5454 343.764 62.0554 340.782 51.6754 337.809C55.5354 337.463 59.3754 337.117 63.2354 336.792C65.3554 336.588 67.6354 336.354 69.2354 334.929C62.9754 333.789 56.6854 332.924 50.3654 332.333C46.7854 332.007 43.1754 331.763 39.5754 331.529C33.3954 331.142 27.2154 330.742 21.0354 330.328C20.4655 330.225 19.8786 330.292 19.3454 330.521C19.0846 330.653 18.8855 330.884 18.7918 331.164C18.698 331.445 18.7173 331.752 18.8454 332.018C18.9726 332.161 19.1265 332.277 19.2982 332.359C19.4699 332.441 19.6559 332.488 19.8454 332.496L25.6154 333.84C27.3854 334.247 29.6154 335.438 29.0754 337.168C25.7954 337.168 22.4854 337.056 19.1854 336.985C18.0254 336.985 16.8454 336.985 15.6554 336.883C9.96238 330.846 5.73041 323.541 3.29541 315.548Z" fill="black"/>
<path opacity="0.2" d="M21.0552 290.79C23.8217 290.37 26.6256 290.264 29.4152 290.475C35.6452 290.872 41.7752 292.327 47.8752 293.6C49.5117 294.007 51.1905 294.212 52.8752 294.21C54.7552 294.149 56.6052 293.579 58.4952 293.569C61.4452 293.569 64.2252 294.791 66.9852 295.808C68.6352 296.409 72.5652 296.877 75.6552 297.844C73.6637 298.759 71.6161 299.541 69.5252 300.185C69.4707 300.168 69.4172 300.148 69.3652 300.124C65.5678 298.711 61.6095 297.794 57.5852 297.396C48.8552 296.134 40.0552 294.903 31.2752 295.554C30.4209 295.6 29.5734 295.733 28.7452 295.951C27.8052 295.432 26.8652 294.872 25.9652 294.302C24.8352 293.6 23.7752 292.846 22.7152 292.063C22.1252 291.635 21.5852 291.228 21.0552 290.79Z" fill="black"/>
<path opacity="0.2" d="M77.9253 337.575C82.6053 335.102 88.1353 335.183 93.4753 335.764C92.0001 337.433 90.4237 339.007 88.7553 340.476C85.0432 339.959 81.4066 338.985 77.9253 337.575Z" fill="black"/>
<path opacity="0.2" d="M32.8154 297.987C40.6154 296.602 48.6454 297.539 56.3054 299.432C59.0344 299.97 61.7346 300.649 64.3954 301.468C53.7701 303.639 42.746 302.434 32.8154 298.017V297.987Z" fill="black"/>
<path opacity="0.2" d="M22.665 292.052C23.185 291.951 23.725 291.91 24.255 291.859C27.925 291.533 31.715 291.218 35.255 292.195C32.725 291.554 29.255 292.999 25.895 294.292C24.785 293.589 23.725 292.836 22.665 292.052Z" fill="black"/>
<path opacity="0.2" d="M1.28529 293.317C1.07936 294.949 0.959191 296.59 0.925293 298.234C0.925293 299.985 0.925294 301.735 1.03529 303.446C2.29034 303.666 3.56982 303.704 4.8353 303.557C10.7853 303.12 16.7153 302.692 22.6653 302.275C20.7553 300.148 17.5453 300.056 14.7353 300.361C11.9253 300.667 8.9153 301.206 6.3853 299.893C10.5878 296.995 15.5815 295.52 20.6553 295.679C24.1353 295.791 27.5853 296.697 31.0153 296.33C34.0153 296.035 37.0153 294.773 40.0153 295.119C41.472 295.357 42.9045 295.728 44.2953 296.229C59.4753 300.697 76.5353 292.157 91.2953 297.949C82.162 299.001 73.0353 300.019 63.9153 301.003C67.7453 304.524 73.4853 304.301 78.5853 304.952C84.2183 305.665 89.6253 307.643 94.4153 310.744C96.01 311.976 97.8035 312.917 99.7153 313.523C101.202 313.772 102.719 313.772 104.205 313.523C104.605 313.523 105.005 313.431 105.405 313.39C105.998 311.125 106.445 308.823 106.745 306.499C106.885 305.359 106.985 304.199 107.065 303.038C107.125 302.316 107.145 301.583 107.165 300.84C107.215 299.374 107.165 297.929 107.095 296.473C106.896 292.336 106.225 288.237 105.095 284.258C104.855 283.39 104.585 282.535 104.285 281.693C100.615 281.693 96.8953 282.141 93.2853 281.459C91.7853 281.174 90.2853 280.716 88.8253 280.441C87.1473 280.183 85.4523 280.057 83.7553 280.065L49.6353 279.281C44.9053 279.169 40.2053 279.067 35.5153 278.507C45.9884 275.866 56.7961 274.867 67.5653 275.545C69.2453 275.647 71.0453 275.759 72.4853 274.873C67.3653 271.077 60.2953 272.532 53.9853 271.82C51.1453 271.524 48.3553 270.741 45.4953 270.802C42.8753 270.863 40.3053 271.575 37.7053 271.891C34.8927 272.162 32.0625 272.189 29.2453 271.972C22.4953 271.677 15.7253 271.351 8.9453 271.046C6.71753 274.636 4.93402 278.493 3.6353 282.528C2.46172 286.025 1.67354 289.643 1.28529 293.317ZM26.7253 275.647C28.8558 275.062 31.049 274.748 33.2553 274.71L34.0353 275.504C30.5002 277.006 26.5961 277.362 22.8553 276.522C24.1253 276.197 25.3953 275.922 26.7253 275.647Z" fill="black"/>
</svg>
