<svg width="282" height="323" viewBox="0 0 282 323" fill="none" xmlns="http://www.w3.org/2000/svg">
<path opacity="0.1" d="M172.966 2.23915C116.306 -6.86081 60.1457 24.9891 61.6457 32.1347C63.1457 39.2803 76.4757 33.7938 84.4457 33.7226C92.4157 33.6513 50.2357 62.5798 46.0057 79.1206C41.7757 95.6613 86.0757 46.3648 126.006 38.4049C165.936 30.445 148.606 26.5668 145.816 20.0828C143.026 13.5988 185.416 6.2293 218.416 23.1874C251.416 40.1455 271.026 64.5953 280.106 79.1715C280.136 79.1206 258.256 15.9298 172.966 2.23915Z" fill="#005FB1"/>
<path opacity="0.1" d="M157.996 74.6317C160.666 61.0123 194.796 58.6203 220.256 76.413C245.716 94.2058 249.536 113.536 243.906 112.915C238.276 112.294 267.246 128.285 277.546 166.731C287.846 205.176 276.966 249.801 243.906 274.739C243.906 274.739 265.636 251.949 261.706 210.307C257.776 168.665 211.276 160.328 201.826 148.928C192.376 137.527 199.746 120.427 216.896 117.678C234.046 114.93 219.486 93.5645 200.896 92.9945C182.306 92.4245 167.896 96.9541 165.346 93.3508C162.796 89.7474 116.016 97.972 106.716 134.392C97.4157 170.812 83.9857 160.257 92.2857 134.392C100.586 108.528 154.696 82.8665 164.826 80.9325C174.956 78.9985 157.376 77.7974 157.996 74.6317Z" fill="#005FB1"/>
<path opacity="0.1" d="M45.7254 130.565C64.3954 121.597 44.5254 168.481 50.4154 212.831C56.3054 257.18 109.415 293.244 147.725 288.949C186.035 284.653 209.775 231.947 180.245 211.874C180.245 211.874 210.245 213.391 216.895 244.996C223.545 276.602 207.895 304.991 185.125 306.63C162.355 308.269 150.445 323.211 141.875 322.987C133.305 322.763 144.985 318.173 140.195 311.882C135.405 305.591 101.285 311.241 60.0654 291.524C18.8454 271.808 9.9954 251.582 2.2854 223.325C-5.4246 195.069 11.2054 227.774 19.7654 222.409C28.3254 217.045 20.4354 202.927 21.4554 189.124C22.4754 175.322 28.4554 162.109 36.5554 171.321C44.6554 180.533 36.7254 134.881 45.7254 130.565Z" fill="#005FB1"/>
</svg>
