<svg width="312" height="314" viewBox="0 0 312 314" fill="none" xmlns="http://www.w3.org/2000/svg">
<path d="M43.0352 236.548L43.9252 235.286L42.6852 236.192L42.4352 234.655L42.1852 236.192L40.9452 235.286L41.8352 236.548L40.3252 236.803L41.8352 237.057L40.9452 238.319L42.1852 237.413L42.4352 238.95L42.6852 237.413L43.9252 238.319L43.0352 237.057L44.5452 236.803L43.0352 236.548Z" fill="#263238"/>
<path d="M310.345 207.335L311.245 206.062L309.995 206.978L309.745 205.441L309.495 206.978L308.255 206.062L309.145 207.335L307.635 207.589L309.145 207.844L308.255 209.106L309.495 208.2L309.745 209.737L309.995 208.2L311.245 209.106L310.345 207.844L311.855 207.589L310.345 207.335Z" fill="#263238"/>
<path d="M178.105 257.578L178.995 256.315L177.755 257.221L177.505 255.684L177.255 257.221L176.005 256.315L176.905 257.578L175.395 257.832L176.905 258.087L176.005 259.359L177.255 258.443L177.505 259.99L177.755 258.443L178.995 259.359L178.105 258.087L179.615 257.832L178.105 257.578Z" fill="#263238"/>
<path d="M52.6248 199.181L54.1548 197.003L52.0148 198.571L51.5848 195.924L51.1548 198.571L49.0148 197.003L50.5448 199.181L47.9448 199.619L50.5448 200.057L49.0148 202.235L51.1548 200.678L51.5848 203.324L52.0148 200.678L54.1548 202.235L52.6248 200.057L55.2248 199.619L52.6248 199.181Z" fill="#263238"/>
<path d="M18.2247 130.372L19.7547 128.183L17.6147 129.751L17.1847 127.104L16.7547 129.751L14.6147 128.183L16.1547 130.372L13.5547 130.81L16.1547 131.237L14.6147 133.426L16.7547 131.858L17.1847 134.505L17.6147 131.858L19.7547 133.426L18.2247 131.237L20.8247 130.81L18.2247 130.372Z" fill="#263238"/>
<path d="M194.395 3.79673L195.925 1.60826L193.785 3.17582L193.355 0.529297L192.925 3.17582L190.785 1.60826L192.325 3.79673L189.715 4.23443L192.325 4.66194L190.785 6.85041L192.925 5.28285L193.355 7.92937L193.785 5.28285L195.925 6.85041L194.395 4.66194L196.995 4.23443L194.395 3.79673Z" fill="#263238"/>
<path d="M225.975 130.117L227.515 127.929L225.375 129.496L224.945 126.85L224.515 129.496L222.365 127.929L223.905 130.117L221.305 130.555L223.905 130.983L222.365 133.171L224.515 131.603L224.945 134.25L225.375 131.603L227.515 133.171L225.975 130.983L228.585 130.555L225.975 130.117Z" fill="#263238"/>
<path d="M147.255 8.11265L148.795 5.93436L146.655 7.49173L146.225 4.84521L145.795 7.49173L143.655 5.93436L145.195 8.11265L142.585 8.55034L145.195 8.98804L143.655 11.1663L145.795 9.59877L146.225 12.2555L146.655 9.59877L148.795 11.1663L147.255 8.98804L149.865 8.55034L147.255 8.11265Z" fill="#263238"/>
<path d="M151.395 212.892L154.025 209.157L150.355 211.834L149.625 207.304L148.895 211.834L145.225 209.157L147.855 212.892L143.405 213.635L147.855 214.378L145.225 218.114L148.895 215.437L149.625 219.967L150.355 215.437L154.025 218.114L151.395 214.378L155.845 213.635L151.395 212.892Z" fill="#263238"/>
<path d="M280.835 35.6772L276.385 34.9342L279.015 31.1985L275.345 33.8756L274.615 29.3459L273.885 33.8756L270.215 31.1985L272.845 34.9342L268.395 35.6772L272.845 36.4203L270.215 40.156L273.885 37.4789L274.615 42.0085L275.345 37.4789L279.015 40.156L276.385 36.4203L280.835 35.6772Z" fill="#263238"/>
<path d="M140.905 65.5116L143.535 61.7862L139.865 64.4632L139.135 59.9336L138.405 64.4632L134.735 61.7862L137.365 65.5116L132.915 66.2649L137.365 67.0079L134.735 70.7436L138.405 68.0665L139.135 72.5962L139.865 68.0665L143.535 70.7436L140.905 67.0079L145.355 66.2649L140.905 65.5116Z" fill="#263238"/>
<path d="M271.085 245.231L273.715 241.495L270.055 244.172L269.315 239.642L268.585 244.172L264.915 241.495L267.545 245.231L263.095 245.974L267.545 246.717L264.915 250.452L268.585 247.775L269.315 252.305L270.055 247.775L273.715 250.452L271.085 246.717L275.545 245.974L271.085 245.231Z" fill="#263238"/>
<path d="M65.9852 48.3601L61.5352 47.6069L64.1652 43.8814L60.4952 46.5584L59.7552 42.0288L59.0252 46.5584L55.3552 43.8814L57.9852 47.6069L53.5352 48.3601L57.9852 49.1032L55.3552 52.8388L59.0252 50.1618L59.7552 54.6914L60.4952 50.1618L64.1652 52.8388L61.5352 49.1032L65.9852 48.3601Z" fill="#263238"/>
<path opacity="0.2" d="M42.7352 236.497L44.5452 236.803L42.7352 237.108L42.4352 238.95L42.1352 237.108L40.3252 236.803L42.1352 236.497L42.4352 234.655L42.7352 236.497Z" fill="white"/>
<path opacity="0.2" d="M42.8548 236.803L43.9248 238.319L42.4348 237.23L40.9448 238.319L42.0148 236.803L40.9448 235.286L42.4348 236.375L43.9248 235.286L42.8548 236.803Z" fill="white"/>
<path d="M42.8546 236.803C42.8546 236.887 42.83 236.97 42.7839 237.04C42.7377 237.11 42.6721 237.165 42.5954 237.198C42.5186 237.23 42.4342 237.238 42.3527 237.222C42.2712 237.205 42.1964 237.165 42.1377 237.105C42.0789 237.045 42.0389 236.969 42.0227 236.886C42.0065 236.803 42.0148 236.717 42.0466 236.639C42.0784 236.561 42.1322 236.494 42.2013 236.447C42.2704 236.4 42.3516 236.375 42.4346 236.375C42.546 236.375 42.6529 236.42 42.7316 236.5C42.8104 236.58 42.8546 236.689 42.8546 236.803Z" fill="white"/>
<path opacity="0.2" d="M310.045 207.284L311.855 207.589L310.045 207.895L309.745 209.737L309.445 207.895L307.635 207.589L309.445 207.284L309.745 205.441L310.045 207.284Z" fill="white"/>
<path opacity="0.2" d="M310.165 207.589L311.245 209.106L309.745 208.017L308.255 209.106L309.325 207.589L308.255 206.062L309.745 207.151L311.245 206.062L310.165 207.589Z" fill="white"/>
<path d="M310.165 207.589C310.165 207.703 310.121 207.811 310.042 207.891C309.963 207.972 309.857 208.017 309.745 208.017C309.634 208.017 309.527 207.972 309.448 207.891C309.369 207.811 309.325 207.703 309.325 207.589C309.325 207.476 309.369 207.367 309.448 207.287C309.527 207.207 309.634 207.162 309.745 207.162C309.857 207.162 309.963 207.207 310.042 207.287C310.121 207.367 310.165 207.476 310.165 207.589V207.589Z" fill="white"/>
<path opacity="0.2" d="M177.805 257.527L179.615 257.832L177.805 258.137L177.505 259.99L177.205 258.137L175.395 257.832L177.205 257.527L177.505 255.684L177.805 257.527Z" fill="white"/>
<path opacity="0.2" d="M177.925 257.832L178.995 259.359L177.505 258.27L176.005 259.359L177.085 257.832L176.005 256.316L177.505 257.405L178.995 256.316L177.925 257.832Z" fill="white"/>
<path d="M177.925 257.832C177.925 257.945 177.881 258.054 177.802 258.134C177.723 258.215 177.616 258.26 177.505 258.26C177.394 258.26 177.287 258.215 177.208 258.134C177.129 258.054 177.085 257.945 177.085 257.832C177.085 257.776 177.096 257.72 177.117 257.668C177.138 257.617 177.169 257.569 177.208 257.53C177.247 257.49 177.293 257.459 177.344 257.437C177.395 257.416 177.45 257.405 177.505 257.405C177.56 257.405 177.615 257.416 177.666 257.437C177.717 257.459 177.763 257.49 177.802 257.53C177.841 257.569 177.872 257.617 177.893 257.668C177.914 257.72 177.925 257.776 177.925 257.832Z" fill="white"/>
<path opacity="0.2" d="M52.0948 199.1L55.2248 199.619L52.0948 200.148L51.5848 203.324L51.0748 200.148L47.9448 199.619L51.0748 199.1L51.5848 195.924L52.0948 199.1Z" fill="white"/>
<path opacity="0.2" d="M52.3147 199.619L54.1546 202.235L51.5847 200.362L49.0146 202.235L50.8547 199.619L49.0146 197.003L51.5847 198.876L54.1546 197.003L52.3147 199.619Z" fill="white"/>
<path d="M51.5852 200.352C51.9829 200.352 52.3052 200.024 52.3052 199.619C52.3052 199.214 51.9829 198.886 51.5852 198.886C51.1876 198.886 50.8652 199.214 50.8652 199.619C50.8652 200.024 51.1876 200.352 51.5852 200.352Z" fill="white"/>
<path opacity="0.2" d="M17.7047 130.28L20.8247 130.81L17.7047 131.329L17.1847 134.505L16.6747 131.329L13.5547 130.81L16.6747 130.28L17.1847 127.104L17.7047 130.28Z" fill="white"/>
<path opacity="0.2" d="M17.9152 130.809L19.7552 133.425L17.1852 131.542L14.6152 133.425L16.4552 130.809L14.6152 128.183L17.1852 130.066L19.7552 128.183L17.9152 130.809Z" fill="white"/>
<path d="M17.9148 130.809C17.9122 131.005 17.8342 131.191 17.6975 131.328C17.5609 131.465 17.3767 131.542 17.1848 131.542C16.9939 131.542 16.8108 131.465 16.6757 131.328C16.5407 131.19 16.4648 131.004 16.4648 130.809C16.4648 130.614 16.5404 130.427 16.6751 130.288C16.8099 130.149 16.993 130.069 17.1848 130.066C17.3785 130.066 17.5641 130.145 17.701 130.284C17.8379 130.423 17.9148 130.612 17.9148 130.809V130.809Z" fill="white"/>
<path opacity="0.2" d="M193.865 3.70512L196.995 4.23443L193.865 4.75354L193.355 7.92937L192.845 4.75354L189.715 4.23443L192.845 3.70512L193.355 0.529297L193.865 3.70512Z" fill="white"/>
<path opacity="0.2" d="M194.085 4.23456L195.925 6.85055L193.355 4.96744L190.785 6.85055L192.625 4.23456L190.785 1.6084L193.355 3.4915L195.925 1.6084L194.085 4.23456Z" fill="white"/>
<path d="M193.355 4.96722C193.752 4.96722 194.075 4.63911 194.075 4.23435C194.075 3.82959 193.752 3.50146 193.355 3.50146C192.957 3.50146 192.635 3.82959 192.635 4.23435C192.635 4.63911 192.957 4.96722 193.355 4.96722Z" fill="white"/>
<path opacity="0.2" d="M225.455 130.026L228.585 130.555L225.455 131.074L224.945 134.25L224.425 131.074L221.305 130.555L224.425 130.026L224.945 126.85L225.455 130.026Z" fill="white"/>
<path opacity="0.2" d="M225.665 130.555L227.515 133.171L224.945 131.288L222.365 133.171L224.215 130.555L222.365 127.929L224.945 129.812L227.515 127.929L225.665 130.555Z" fill="white"/>
<path d="M224.945 131.288C225.342 131.288 225.665 130.96 225.665 130.555C225.665 130.15 225.342 129.822 224.945 129.822C224.547 129.822 224.225 130.15 224.225 130.555C224.225 130.96 224.547 131.288 224.945 131.288Z" fill="white"/>
<path opacity="0.2" d="M146.735 8.02104L149.865 8.55034L146.735 9.06947L146.225 12.2555L145.715 9.06947L142.585 8.55034L145.715 8.02104L146.225 4.84521L146.735 8.02104Z" fill="white"/>
<path opacity="0.2" d="M146.955 8.55031L148.795 11.1663L146.225 9.29337L143.655 11.1663L145.495 8.55031L143.655 5.93433L146.225 7.80724L148.795 5.93433L146.955 8.55031Z" fill="white"/>
<path d="M146.225 9.28315C146.623 9.28315 146.945 8.95503 146.945 8.55027C146.945 8.14551 146.623 7.81738 146.225 7.81738C145.827 7.81738 145.505 8.14551 145.505 8.55027C145.505 8.95503 145.827 9.28315 146.225 9.28315Z" fill="white"/>
<path opacity="0.2" d="M150.505 212.74L155.845 213.635L150.505 214.531L149.625 219.967L148.745 214.531L143.405 213.635L148.745 212.74L149.625 207.304L150.505 212.74Z" fill="white"/>
<path opacity="0.2" d="M150.875 213.635L154.025 218.114L149.625 214.897L145.225 218.114L148.385 213.635L145.225 209.156L149.625 212.363L154.025 209.156L150.875 213.635Z" fill="white"/>
<path d="M150.865 213.615C150.865 213.865 150.792 214.109 150.656 214.316C150.52 214.524 150.326 214.686 150.099 214.781C149.873 214.877 149.623 214.902 149.383 214.853C149.142 214.804 148.921 214.684 148.748 214.507C148.575 214.331 148.456 214.106 148.409 213.861C148.361 213.616 148.385 213.363 148.479 213.132C148.573 212.901 148.732 212.704 148.936 212.565C149.14 212.427 149.38 212.353 149.625 212.353C149.954 212.353 150.269 212.486 150.502 212.722C150.734 212.959 150.865 213.28 150.865 213.615Z" fill="white"/>
<path opacity="0.2" d="M275.495 34.7815L280.835 35.6772L275.495 36.573L274.615 42.0085L273.735 36.573L268.395 35.6772L273.735 34.7815L274.615 29.3459L275.495 34.7815Z" fill="white"/>
<path opacity="0.2" d="M275.855 35.677L279.015 40.1557L274.615 36.9493L270.215 40.1557L273.375 35.677L270.215 31.1982L274.615 34.4148L279.015 31.1982L275.855 35.677Z" fill="white"/>
<path d="M275.855 35.6772C275.855 35.9269 275.782 36.1709 275.646 36.3785C275.51 36.586 275.316 36.7478 275.09 36.8433C274.863 36.9389 274.614 36.9639 274.373 36.9152C274.133 36.8665 273.912 36.7463 273.738 36.5697C273.565 36.3932 273.447 36.1683 273.399 35.9235C273.351 35.6786 273.376 35.4248 273.469 35.1942C273.563 34.9636 273.722 34.7665 273.926 34.6278C274.13 34.4891 274.37 34.415 274.615 34.415C274.943 34.4177 275.257 34.5515 275.489 34.7877C275.721 35.0238 275.852 35.3433 275.855 35.6772V35.6772Z" fill="white"/>
<path opacity="0.2" d="M140.015 65.3691L145.355 66.2649L140.015 67.1606L139.135 72.5962L138.255 67.1606L132.915 66.2649L138.255 65.3691L139.135 59.9336L140.015 65.3691Z" fill="white"/>
<path opacity="0.2" d="M140.385 66.2649L143.535 70.7436L139.135 67.527L134.735 70.7436L137.895 66.2649L134.735 61.7861L139.135 64.9925L143.535 61.7861L140.385 66.2649Z" fill="white"/>
<path d="M140.375 66.2649C140.375 66.5145 140.302 66.7585 140.166 66.9661C140.03 67.1737 139.836 67.3354 139.61 67.431C139.383 67.5265 139.134 67.5515 138.893 67.5028C138.653 67.4541 138.432 67.3339 138.258 67.1574C138.085 66.9808 137.967 66.756 137.919 66.5111C137.871 66.2663 137.896 66.0125 137.989 65.7819C138.083 65.5512 138.242 65.3541 138.446 65.2154C138.65 65.0767 138.89 65.0027 139.135 65.0027C139.463 65.0053 139.777 65.1392 140.009 65.3753C140.241 65.6114 140.372 65.9309 140.375 66.2649V66.2649Z" fill="white"/>
<path opacity="0.2" d="M270.195 245.078L275.545 245.974L270.195 246.869L269.315 252.305L268.435 246.869L263.095 245.974L268.435 245.078L269.315 239.642L270.195 245.078Z" fill="white"/>
<path opacity="0.2" d="M270.565 245.974L273.715 250.453L269.315 247.246L264.915 250.453L268.075 245.974L264.915 241.495L269.315 244.712L273.715 241.495L270.565 245.974Z" fill="white"/>
<path d="M270.555 245.974C270.555 246.308 270.425 246.629 270.192 246.866C269.959 247.103 269.644 247.236 269.315 247.236C268.986 247.236 268.671 247.103 268.438 246.866C268.206 246.629 268.075 246.308 268.075 245.974C268.075 245.639 268.206 245.318 268.438 245.081C268.671 244.844 268.986 244.711 269.315 244.711C269.644 244.711 269.959 244.844 270.192 245.081C270.425 245.318 270.555 245.639 270.555 245.974Z" fill="white"/>
<path opacity="0.2" d="M60.6352 47.4644L65.9852 48.3601L60.6352 49.2559L59.7552 54.6914L58.8852 49.2559L53.5352 48.3601L58.8852 47.4644L59.7552 42.0288L60.6352 47.4644Z" fill="white"/>
<path opacity="0.2" d="M61.005 48.3601L64.165 52.8388L59.755 49.6223L55.355 52.8388L58.515 48.3601L55.355 43.8813L59.755 47.0877L64.165 43.8813L61.005 48.3601Z" fill="white"/>
<path d="M60.9947 48.3601C60.9946 48.6102 60.9217 48.8546 60.785 49.0624C60.6482 49.2702 60.454 49.432 60.2268 49.5272C59.9997 49.6224 59.7498 49.6468 59.509 49.5973C59.2682 49.5477 59.0473 49.4265 58.8743 49.249C58.7013 49.0714 58.584 48.8456 58.5373 48.6001C58.4906 48.3546 58.5165 48.1005 58.6119 47.87C58.7073 47.6396 58.8678 47.4432 59.073 47.3057C59.2783 47.1682 59.519 47.0959 59.7646 47.0979C60.0918 47.1006 60.4046 47.2348 60.635 47.4712C60.8654 47.7076 60.9947 48.0271 60.9947 48.3601Z" fill="white"/>
<path d="M198.785 307.627L194.335 306.884L196.965 303.149L193.295 305.826L192.565 301.296L191.835 305.826L188.165 303.149L190.795 306.884L186.345 307.627L190.795 308.37L188.165 312.106L191.835 309.429L192.565 313.959L193.295 309.429L196.965 312.106L194.335 308.37L198.785 307.627Z" fill="#263238"/>
<path opacity="0.2" d="M193.445 306.732L198.785 307.627L193.445 308.523L192.565 313.959L191.685 308.523L186.345 307.627L191.685 306.732L192.565 301.296L193.445 306.732Z" fill="white"/>
<path opacity="0.2" d="M193.805 307.628L196.965 312.106L192.565 308.89L188.165 312.106L191.315 307.628L188.165 303.149L192.565 306.355L196.965 303.149L193.805 307.628Z" fill="white"/>
<path d="M193.805 307.627C193.805 307.962 193.675 308.283 193.442 308.52C193.209 308.757 192.894 308.89 192.565 308.89C192.236 308.89 191.921 308.757 191.688 308.52C191.456 308.283 191.325 307.962 191.325 307.627C191.325 307.293 191.456 306.972 191.688 306.735C191.921 306.498 192.236 306.365 192.565 306.365C192.894 306.365 193.209 306.498 193.442 306.735C193.675 306.972 193.805 307.293 193.805 307.627Z" fill="white"/>
<path d="M3.00492 185.623L3.90492 184.351L2.65492 185.267L2.40492 183.73L2.15492 185.267L0.914925 184.351L1.80492 185.623L0.294922 185.877L1.80492 186.132L0.914925 187.394L2.15492 186.488L2.40492 188.025L2.65492 186.488L3.90492 187.394L3.00492 186.132L4.52493 185.877L3.00492 185.623Z" fill="#263238"/>
<path opacity="0.2" d="M2.70493 185.572L4.52493 185.877L2.70493 186.183L2.40492 188.025L2.11492 186.183L0.294922 185.877L2.11492 185.572L2.40492 183.73L2.70493 185.572Z" fill="white"/>
<path opacity="0.2" d="M2.83504 185.877L3.90504 187.394L2.40504 186.305L0.915039 187.394L1.98504 185.877L0.915039 184.351L2.40504 185.45L3.90504 184.351L2.83504 185.877Z" fill="white"/>
<path d="M2.82486 185.877C2.82486 185.991 2.78061 186.099 2.70184 186.18C2.62308 186.26 2.51625 186.305 2.40486 186.305C2.29347 186.305 2.18664 186.26 2.10788 186.18C2.02911 186.099 1.98486 185.991 1.98486 185.877C1.98486 185.764 2.02911 185.655 2.10788 185.575C2.18664 185.495 2.29347 185.45 2.40486 185.45C2.51625 185.45 2.62308 185.495 2.70184 185.575C2.78061 185.655 2.82486 185.764 2.82486 185.877Z" fill="white"/>
<path d="M123.085 161.183L123.975 159.911L122.735 160.817L122.485 159.28L122.235 160.817L120.995 159.911L121.885 161.183L120.375 161.428L121.885 161.682L120.995 162.954L122.235 162.038L122.485 163.585L122.735 162.038L123.975 162.954L123.085 161.682L124.595 161.428L123.085 161.183Z" fill="#263238"/>
<path opacity="0.2" d="M122.785 161.132L124.595 161.428L122.785 161.733L122.485 163.585L122.185 161.733L120.375 161.428L122.185 161.132L122.485 159.28L122.785 161.132Z" fill="white"/>
<path opacity="0.2" d="M122.905 161.428L123.975 162.955L122.485 161.866L120.995 162.955L122.065 161.428L120.995 159.911L122.485 161L123.975 159.911L122.905 161.428Z" fill="white"/>
<path d="M122.905 161.428C122.905 161.541 122.861 161.65 122.782 161.73C122.703 161.81 122.596 161.855 122.485 161.855C122.374 161.855 122.267 161.81 122.188 161.73C122.109 161.65 122.065 161.541 122.065 161.428C122.065 161.314 122.109 161.205 122.188 161.125C122.267 161.045 122.374 161 122.485 161C122.596 161 122.703 161.045 122.782 161.125C122.861 161.205 122.905 161.314 122.905 161.428Z" fill="white"/>
<path d="M82.0547 106.176L82.9547 104.914L81.7047 105.82L81.4547 104.283L81.2047 105.82L79.9647 104.914L80.8547 106.176L79.3447 106.431L80.8547 106.685L79.9647 107.947L81.2047 107.041L81.4547 108.578L81.7047 107.041L82.9547 107.947L82.0547 106.685L83.5647 106.431L82.0547 106.176Z" fill="#263238"/>
<path opacity="0.2" d="M81.7547 106.125L83.5647 106.431L81.7547 106.736L81.4547 108.578L81.1547 106.736L79.3447 106.431L81.1547 106.125L81.4547 104.283L81.7547 106.125Z" fill="white"/>
<path opacity="0.2" d="M81.8848 106.431L82.9548 107.948L81.4548 106.858L79.9648 107.948L81.0348 106.431L79.9648 104.914L81.4548 106.003L82.9548 104.914L81.8848 106.431Z" fill="white"/>
<path d="M81.8752 106.431C81.8752 106.544 81.8309 106.653 81.7521 106.733C81.6734 106.813 81.5665 106.858 81.4552 106.858C81.3438 106.858 81.2369 106.813 81.1582 106.733C81.0794 106.653 81.0352 106.544 81.0352 106.431C81.0352 106.318 81.0794 106.209 81.1582 106.129C81.2369 106.048 81.3438 106.003 81.4552 106.003C81.5665 106.003 81.6734 106.048 81.7521 106.129C81.8309 106.209 81.8752 106.318 81.8752 106.431Z" fill="white"/>
</svg>
