<svg width="1715" height="536" viewBox="0 0 1715 536" fill="none" xmlns="http://www.w3.org/2000/svg">
<path d="M789.519 374.49C828.607 374.49 853.037 355.644 861.762 334.355H863.158V371H897.709V250.944H788.472V283.401H861.413V288.985C861.413 325.63 841.171 338.194 798.244 338.194C746.592 338.194 725.652 314.811 725.652 254.085C725.652 193.359 745.894 169.976 795.103 169.976C839.775 169.976 857.574 185.681 857.574 220.93V223.373H897.36V220.93C897.36 167.184 859.319 133.68 796.848 133.68C727.397 133.68 685.517 181.144 685.517 254.085C685.517 328.422 723.209 374.49 789.519 374.49ZM1015.07 374.49C1068.12 374.49 1100.23 338.194 1100.23 284.099C1100.23 230.353 1068.12 194.057 1015.07 194.057C961.677 194.057 928.522 230.353 928.522 284.099C928.522 338.194 961.677 374.49 1015.07 374.49ZM1015.07 340.986C978.429 340.986 965.516 323.187 965.516 284.099C965.516 245.36 978.429 227.561 1015.07 227.561C1051.37 227.561 1063.93 245.36 1063.93 284.099C1063.93 323.187 1051.37 340.986 1015.07 340.986ZM1214.22 371C1286.46 371 1332.53 326.328 1332.53 254.085C1332.53 181.842 1286.46 137.17 1214.22 137.17H1131.16V371H1214.22ZM1214.22 171.023C1270.06 171.023 1292.4 194.057 1292.4 254.085C1292.4 314.113 1270.06 337.147 1214.22 337.147H1168.85V171.023H1214.22ZM1439.68 374.49C1486.44 374.49 1517.51 351.456 1517.51 315.858V312.717H1480.16V315.509C1480.16 331.214 1468.99 340.986 1440.03 340.986C1403.73 340.986 1392.21 324.932 1390.82 293.173H1516.81C1517.85 287.938 1518.9 278.515 1518.9 269.441C1518.9 221.977 1486.1 194.057 1439.33 194.057C1387.68 194.057 1355.57 230.353 1355.57 284.099C1355.57 338.194 1382.44 374.49 1439.68 374.49ZM1438.63 225.816C1468.3 225.816 1484.35 238.38 1482.95 268.045H1391.17C1393.26 241.172 1405.83 225.816 1438.63 225.816ZM1642.33 371L1712.13 197.547H1671.3L1620.35 335.053H1617.9L1567.3 197.547H1525.42L1594.87 371H1642.33Z" fill="white"/>
<path d="M229.822 244.564L76.2101 148.5L79.9999 331.064" stroke="#D30490" stroke-width="30" stroke-linecap="round" stroke-linejoin="round"/>
<path d="M229.822 244.564L76.2101 148.5L79.9999 331.064" stroke="#D30490" stroke-width="30" stroke-linecap="round" stroke-linejoin="round"/>
<path d="M268.072 310.815L274.46 491.879L118.25 397.315" stroke="#D30490" stroke-width="30" stroke-linecap="round" stroke-linejoin="round"/>
<path d="M268.072 310.815L274.46 491.879L118.25 397.315" stroke="#D30490" stroke-width="30" stroke-linecap="round" stroke-linejoin="round"/>
<path d="M396.25 244.564L549.862 148.5L546.072 331.064" stroke="#D30490" stroke-width="30" stroke-linecap="round" stroke-linejoin="round"/>
<path d="M396.25 244.564L549.862 148.5L546.072 331.064" stroke="#D30490" stroke-width="30" stroke-linecap="round" stroke-linejoin="round"/>
<path d="M358 310.815L351.612 491.879L507.822 397.315" stroke="#D30490" stroke-width="30" stroke-linecap="round" stroke-linejoin="round"/>
<path d="M358 310.815L351.612 491.879L507.822 397.315" stroke="#D30490" stroke-width="30" stroke-linecap="round" stroke-linejoin="round"/>
<path d="M349.5 16L509.5 101L349.5 189" stroke="#D30490" stroke-width="30" stroke-linecap="round" stroke-linejoin="round"/>
<path d="M349.5 16L509.5 101L349.5 189" stroke="#D30490" stroke-width="30" stroke-linecap="round" stroke-linejoin="round"/>
<path d="M273 16L113 101L273 189" stroke="#D30490" stroke-width="30" stroke-linecap="round" stroke-linejoin="round"/>
<path d="M273 16L113 101L273 189" stroke="#D30490" stroke-width="30" stroke-linecap="round" stroke-linejoin="round"/>
</svg>
