<svg width="1956" height="535" viewBox="0 0 1956 535" fill="none" xmlns="http://www.w3.org/2000/svg">
<path d="M873.279 370H691.45V136.17H729.142V336.147H873.279V370ZM984.896 373.49C928.009 373.49 890.666 341.382 890.666 283.448C890.666 229.353 927.66 193.057 984.198 193.057C1037.94 193.057 1074.59 222.722 1074.59 275.421C1074.59 281.703 1074.24 286.589 1073.19 291.824H925.915C927.311 325.328 943.714 343.127 983.849 343.127C1020.15 343.127 1035.15 331.261 1035.15 310.67V307.878H1072.84V311.019C1072.84 348.013 1036.55 373.49 984.896 373.49ZM983.5 222.722C945.11 222.722 928.358 239.823 926.264 270.884H1038.99V270.186C1038.99 238.078 1020.49 222.722 983.5 222.722ZM1153.77 373.49C1117.83 373.49 1095.14 356.738 1095.14 328.12C1095.14 301.247 1116.78 287.287 1150.98 283.448L1229.86 275.072V264.951C1229.86 236.333 1217.29 226.212 1184.14 226.212C1152.03 226.212 1136.32 236.682 1136.32 262.159V263.555H1098.98V262.159C1098.98 222.722 1131.79 193.057 1186.93 193.057C1242.07 193.057 1266.85 223.071 1266.85 264.602V370H1232.3V326.724H1229.86C1220.78 356.04 1193.21 373.49 1153.77 373.49ZM1132.83 325.677C1132.83 339.637 1142.26 346.268 1163.9 346.268C1203.33 346.268 1229.86 331.61 1229.86 297.408L1161.8 305.086C1142.26 307.529 1132.83 312.066 1132.83 325.677ZM1409.03 370H1302.59V136.17H1409.03C1481.63 136.17 1527.35 180.842 1527.35 253.085C1527.35 325.328 1481.63 370 1409.03 370ZM1409.03 170.023H1339.93V336.147H1409.03C1463.13 336.147 1487.56 313.113 1487.56 253.085C1487.56 193.057 1463.13 170.023 1409.03 170.023ZM1642.68 373.49C1585.79 373.49 1548.45 341.382 1548.45 283.448C1548.45 229.353 1585.44 193.057 1641.98 193.057C1695.73 193.057 1732.37 222.722 1732.37 275.421C1732.37 281.703 1732.02 286.589 1730.98 291.824H1583.7C1585.09 325.328 1601.5 343.127 1641.63 343.127C1677.93 343.127 1692.94 331.261 1692.94 310.67V307.878H1730.63V311.019C1730.63 348.013 1694.33 373.49 1642.68 373.49ZM1641.28 222.722C1602.89 222.722 1586.14 239.823 1584.05 270.884H1696.77V270.186C1696.77 238.078 1678.28 222.722 1641.28 222.722ZM1871.93 370H1825.87L1744.9 196.547H1786.43L1848.2 333.355H1850.99L1912.77 196.547H1953.6L1871.93 370Z" fill="white"/>
<path d="M229.822 243.564L76.2101 147.5L79.9999 330.064" stroke="#D30490" stroke-width="30" stroke-linecap="round" stroke-linejoin="round"/>
<path d="M229.822 243.564L76.2101 147.5L79.9999 330.064" stroke="#D30490" stroke-width="30" stroke-linecap="round" stroke-linejoin="round"/>
<path d="M268.072 309.815L274.46 490.879L118.25 396.315" stroke="#D30490" stroke-width="30" stroke-linecap="round" stroke-linejoin="round"/>
<path d="M268.072 309.815L274.46 490.879L118.25 396.315" stroke="#D30490" stroke-width="30" stroke-linecap="round" stroke-linejoin="round"/>
<path d="M396.25 243.564L549.862 147.5L546.072 330.064" stroke="#D30490" stroke-width="30" stroke-linecap="round" stroke-linejoin="round"/>
<path d="M396.25 243.564L549.862 147.5L546.072 330.064" stroke="#D30490" stroke-width="30" stroke-linecap="round" stroke-linejoin="round"/>
<path d="M358 309.815L351.612 490.879L507.822 396.315" stroke="#D30490" stroke-width="30" stroke-linecap="round" stroke-linejoin="round"/>
<path d="M358 309.815L351.612 490.879L507.822 396.315" stroke="#D30490" stroke-width="30" stroke-linecap="round" stroke-linejoin="round"/>
<path d="M349.5 15L509.5 100L349.5 188" stroke="#D30490" stroke-width="30" stroke-linecap="round" stroke-linejoin="round"/>
<path d="M349.5 15L509.5 100L349.5 188" stroke="#D30490" stroke-width="30" stroke-linecap="round" stroke-linejoin="round"/>
<path d="M273 15L113 100L273 188" stroke="#D30490" stroke-width="30" stroke-linecap="round" stroke-linejoin="round"/>
<path d="M273 15L113 100L273 188" stroke="#D30490" stroke-width="30" stroke-linecap="round" stroke-linejoin="round"/>
</svg>
