<svg width="3467" height="535" viewBox="0 0 3467 535" fill="none" xmlns="http://www.w3.org/2000/svg">
<path d="M799.942 373.49C731.189 373.49 685.47 326.026 685.47 253.085C685.47 180.144 734.679 132.68 809.365 132.68C875.675 132.68 921.743 166.184 921.743 220.279V223.071H880.212V220.279C880.212 186.775 856.829 168.627 808.318 168.627C752.129 168.627 725.256 194.802 725.256 253.085C725.256 311.368 751.78 337.194 806.573 337.194C862.413 337.194 884.4 321.838 884.4 282.401V279.26H797.848V250.642H921.743V370H887.541V319.395H885.098C875.326 353.597 845.661 373.49 799.942 373.49ZM1042.16 373.49C984.579 373.49 945.84 336.845 945.84 283.448C945.84 229.353 984.579 193.057 1042.16 193.057C1100.1 193.057 1138.84 229.353 1138.84 283.448C1138.84 336.845 1100.1 373.49 1042.16 373.49ZM1042.16 339.986C1084.39 339.986 1101.84 320.093 1101.84 283.448C1101.84 246.454 1084.39 226.212 1042.16 226.212C1000.28 226.212 982.834 246.454 982.834 283.448C982.834 320.093 1000.28 339.986 1042.16 339.986ZM1274.73 370H1168.28V136.17H1274.73C1347.32 136.17 1393.04 180.842 1393.04 253.085C1393.04 325.328 1347.32 370 1274.73 370ZM1274.73 170.023H1205.63V336.147H1274.73C1328.82 336.147 1353.25 313.113 1353.25 253.085C1353.25 193.057 1328.82 170.023 1274.73 170.023ZM1508.37 373.49C1451.49 373.49 1414.14 341.382 1414.14 283.448C1414.14 229.353 1451.14 193.057 1507.68 193.057C1561.42 193.057 1598.07 222.722 1598.07 275.421C1598.07 281.703 1597.72 286.589 1596.67 291.824H1449.39C1450.79 325.328 1467.19 343.127 1507.33 343.127C1543.62 343.127 1558.63 331.261 1558.63 310.67V307.878H1596.32V311.019C1596.32 348.013 1560.03 373.49 1508.37 373.49ZM1506.98 222.722C1468.59 222.722 1451.84 239.823 1449.74 270.884H1562.47V270.186C1562.47 238.078 1543.97 222.722 1506.98 222.722ZM1737.63 370H1691.56L1610.59 196.547H1652.12L1713.9 333.355H1716.69L1778.46 196.547H1819.29L1737.63 370ZM1952.4 373.49C1879.81 373.49 1831.65 326.026 1831.65 253.085C1831.65 180.144 1879.81 132.68 1952.4 132.68C2018.36 132.68 2064.43 167.58 2064.43 223.42V228.306H2022.9V223.42C2022.9 187.822 2000.22 168.627 1952.75 168.627C1897.96 168.627 1871.43 194.802 1871.43 253.085C1871.43 311.368 1897.96 337.194 1952.75 337.194C2000.22 337.194 2022.9 318.348 2022.9 282.401V277.864H2064.43V282.401C2064.43 338.59 2018.71 373.49 1952.4 373.49ZM2180.85 373.49C2123.26 373.49 2084.52 336.845 2084.52 283.448C2084.52 229.353 2123.26 193.057 2180.85 193.057C2238.78 193.057 2277.52 229.353 2277.52 283.448C2277.52 336.845 2238.78 373.49 2180.85 373.49ZM2180.85 339.986C2223.07 339.986 2240.52 320.093 2240.52 283.448C2240.52 246.454 2223.07 226.212 2180.85 226.212C2138.97 226.212 2121.52 246.454 2121.52 283.448C2121.52 320.093 2138.97 339.986 2180.85 339.986ZM2342.56 370H2304.87V196.547H2339.42V248.897H2341.52C2346.05 219.93 2364.9 193.057 2408.17 193.057C2447.61 193.057 2468.9 217.138 2473.79 250.293H2475.88C2480.42 220.628 2499.96 193.057 2543.94 193.057C2588.96 193.057 2611.64 223.769 2611.64 265.649V370H2574.3V275.77C2574.3 241.568 2560.69 226.91 2527.18 226.91C2490.19 226.91 2476.93 245.756 2476.93 284.146V370H2439.58V275.77C2439.58 241.568 2426.32 226.91 2392.82 226.91C2355.48 226.91 2342.56 245.756 2342.56 284.146V370ZM2683.04 429.33H2645.35V196.547H2679.9V244.709H2683.04C2690.02 212.601 2714.45 193.057 2755.29 193.057C2809.03 193.057 2839.39 229.702 2839.39 283.448C2839.39 337.194 2809.73 373.49 2755.63 373.49C2716.55 373.49 2691.42 352.899 2684.44 321.14H2683.04V429.33ZM2683.04 286.24C2683.04 321.838 2705.73 339.288 2742.72 339.288C2780.06 339.288 2801.7 324.979 2801.7 283.448C2801.7 241.568 2779.72 227.608 2743.42 227.608C2704.68 227.608 2683.04 245.756 2683.04 283.099V286.24ZM2916.47 373.49C2880.53 373.49 2857.84 356.738 2857.84 328.12C2857.84 301.247 2879.48 287.287 2913.68 283.448L2992.56 275.072V264.951C2992.56 236.333 2979.99 226.212 2946.84 226.212C2914.73 226.212 2899.02 236.682 2899.02 262.159V263.555H2861.68V262.159C2861.68 222.722 2894.49 193.057 2949.63 193.057C3004.77 193.057 3029.55 223.071 3029.55 264.602V370H2995V326.724H2992.56C2983.48 356.04 2955.91 373.49 2916.47 373.49ZM2895.53 325.677C2895.53 339.637 2904.96 346.268 2926.6 346.268C2966.03 346.268 2992.56 331.61 2992.56 297.408L2924.5 305.086C2904.96 307.529 2895.53 312.066 2895.53 325.677ZM3100.89 370H3063.2V196.547H3097.75V250.293H3100.19C3105.43 220.977 3128.46 193.057 3172.43 193.057C3220.6 193.057 3244.33 225.514 3244.33 265.649V370H3206.64V275.77C3206.64 243.313 3191.98 226.91 3156.03 226.91C3117.99 226.91 3100.89 246.454 3100.89 284.146V370ZM3305.83 429.33H3281.05V395.128H3314.91C3330.26 395.128 3336.54 390.94 3341.78 379.074L3345.97 370L3260.46 196.547H3302.69L3347.01 288.683L3364.12 330.214H3366.91L3383.31 288.334L3424.14 196.547H3465.67L3375.28 388.846C3360.97 419.907 3341.43 429.33 3305.83 429.33Z" fill="white"/>
<path d="M229.822 243.564L76.2101 147.5L79.9999 330.064" stroke="#D30490" stroke-width="30" stroke-linecap="round" stroke-linejoin="round"/>
<path d="M229.822 243.564L76.2101 147.5L79.9999 330.064" stroke="#D30490" stroke-width="30" stroke-linecap="round" stroke-linejoin="round"/>
<path d="M268.072 309.815L274.46 490.879L118.25 396.315" stroke="#D30490" stroke-width="30" stroke-linecap="round" stroke-linejoin="round"/>
<path d="M268.072 309.815L274.46 490.879L118.25 396.315" stroke="#D30490" stroke-width="30" stroke-linecap="round" stroke-linejoin="round"/>
<path d="M396.25 243.564L549.862 147.5L546.072 330.064" stroke="#D30490" stroke-width="30" stroke-linecap="round" stroke-linejoin="round"/>
<path d="M396.25 243.564L549.862 147.5L546.072 330.064" stroke="#D30490" stroke-width="30" stroke-linecap="round" stroke-linejoin="round"/>
<path d="M358 309.815L351.612 490.879L507.822 396.315" stroke="#D30490" stroke-width="30" stroke-linecap="round" stroke-linejoin="round"/>
<path d="M358 309.815L351.612 490.879L507.822 396.315" stroke="#D30490" stroke-width="30" stroke-linecap="round" stroke-linejoin="round"/>
<path d="M349.5 15L509.5 100L349.5 188" stroke="#D30490" stroke-width="30" stroke-linecap="round" stroke-linejoin="round"/>
<path d="M349.5 15L509.5 100L349.5 188" stroke="#D30490" stroke-width="30" stroke-linecap="round" stroke-linejoin="round"/>
<path d="M273 15L113 100L273 188" stroke="#D30490" stroke-width="30" stroke-linecap="round" stroke-linejoin="round"/>
<path d="M273 15L113 100L273 188" stroke="#D30490" stroke-width="30" stroke-linecap="round" stroke-linejoin="round"/>
</svg>
