<svg width="417" height="372" viewBox="0 0 417 372" fill="none" xmlns="http://www.w3.org/2000/svg">
<g clip-path="url(#clip0_261_766)">
<path d="M196.9 199.384C196.813 197.775 196.353 196.209 195.557 194.813C194.762 193.418 193.653 192.231 192.32 191.349C191.901 191.062 191.425 190.873 190.925 190.794C190.426 190.715 189.915 190.749 189.43 190.893V190.893L169.59 198.706L179.3 215.576L195.86 202.137C196.223 201.784 196.504 201.354 196.684 200.878C196.864 200.402 196.938 199.892 196.9 199.384V199.384Z" fill="#F5F5F5"/>
<path d="M185.91 192.209C186.421 192.091 186.951 192.08 187.467 192.176C187.982 192.271 188.473 192.472 188.91 192.766C190.382 193.74 191.608 195.05 192.487 196.592C193.366 198.134 193.874 199.864 193.97 201.641C193.997 202.16 193.923 202.679 193.751 203.169C193.58 203.658 193.314 204.109 192.97 204.495L194.58 203.179L195.87 202.096C196.226 201.747 196.502 201.323 196.68 200.855C196.858 200.387 196.933 199.885 196.9 199.384C196.813 197.775 196.353 196.209 195.557 194.813C194.762 193.418 193.653 192.231 192.32 191.349C191.901 191.062 191.425 190.873 190.926 190.794C190.426 190.715 189.915 190.749 189.43 190.893L187.75 191.531L185.91 192.209Z" fill="#2F589A"/>
<path opacity="0.1" d="M196.49 196.905L175.59 209.11L179.3 215.576L195.86 202.137C196.223 201.784 196.504 201.354 196.684 200.878C196.864 200.402 196.938 199.892 196.9 199.384C196.892 198.541 196.753 197.705 196.49 196.905V196.905Z" fill="#07020C"/>
<path d="M174 199.384C175.999 200.705 177.663 202.483 178.857 204.575C180.05 206.667 180.74 209.015 180.87 211.427C180.87 215.86 177.79 217.651 174 215.475C172.001 214.155 170.337 212.376 169.144 210.284C167.95 208.192 167.26 205.844 167.13 203.432C167.13 198.919 170.21 197.127 174 199.384Z" fill="#E0E0E0"/>
<path d="M190.7 180.419C190.612 178.812 190.152 177.248 189.356 175.854C188.561 174.46 187.452 173.274 186.12 172.394C185.702 172.105 185.226 171.915 184.726 171.836C184.226 171.757 183.715 171.792 183.23 171.939L163.39 179.751L173.12 196.682L189.66 183.192C190.025 182.836 190.307 182.403 190.487 181.923C190.666 181.444 190.739 180.931 190.7 180.419V180.419Z" fill="#F5F5F5"/>
<path d="M179.71 173.295C180.213 173.18 180.734 173.17 181.242 173.266C181.749 173.362 182.231 173.561 182.66 173.851C184.134 174.821 185.362 176.13 186.243 177.67C187.124 179.21 187.633 180.939 187.73 182.717C187.758 183.236 187.684 183.755 187.513 184.245C187.341 184.735 187.075 185.185 186.73 185.57L188.34 184.265L189.63 183.182C189.986 182.823 190.26 182.39 190.433 181.913C190.605 181.436 190.673 180.926 190.63 180.419C190.542 178.812 190.082 177.248 189.286 175.854C188.491 174.46 187.382 173.274 186.05 172.394C185.632 172.105 185.156 171.915 184.656 171.836C184.156 171.757 183.645 171.792 183.16 171.939L181.48 172.566L179.71 173.295Z" fill="#2F589A"/>
<path opacity="0.1" d="M190.28 177.98L169.39 190.195L173.1 196.652L189.66 183.192C190.016 182.833 190.29 182.4 190.463 181.923C190.635 181.446 190.703 180.936 190.66 180.429C190.657 179.598 190.529 178.772 190.28 177.98V177.98Z" fill="#07020C"/>
<path d="M172.652 196.952C175.335 195.384 175.337 190.303 172.656 185.603C169.974 180.903 165.625 178.364 162.942 179.932C160.259 181.5 160.257 186.581 162.939 191.281C165.62 195.98 169.969 198.52 172.652 196.952Z" fill="#E0E0E0"/>
<path d="M69.3601 241.17L91.7601 214.989L97.3601 172.445L108.56 165.897L153.37 192.088L69.3601 241.17Z" fill="#2F589A"/>
<path opacity="0.6" d="M69.3601 241.17L91.7601 214.989L97.3601 172.445L108.56 165.897L153.37 192.088L69.3601 241.17Z" fill="white"/>
<path d="M108.56 165.897L97.3601 172.445L142.17 198.625L153.37 192.088L108.56 165.897Z" fill="#2F589A"/>
<path opacity="0.3" d="M108.56 165.897L97.3601 172.445L142.17 198.625L153.37 192.088L108.56 165.897Z" fill="#07020C"/>
<path d="M170.18 175.642C166.26 173.355 162.63 172.687 159.65 173.416C158.897 173.59 158.173 173.872 157.5 174.256L157.06 174.499L89.7699 213.825C78.7217 220.284 69.3182 229.266 62.3099 240.056L40.6699 273.351L44.9999 279.504L78.2499 274.1C88.6054 272.425 98.5699 268.844 107.65 263.535L183.3 219.341C185.95 217.681 187.73 214.554 188.24 210.233C188.337 209.352 188.387 208.467 188.39 207.581C188.38 195.812 180.23 181.522 170.18 175.642Z" fill="#2F589A"/>
<path opacity="0.9" d="M170.18 175.642C166.26 173.355 162.63 172.687 159.65 173.416C158.897 173.59 158.173 173.872 157.5 174.256L157.06 174.499L89.7699 213.825C78.7217 220.284 69.3182 229.266 62.3099 240.056L40.6699 273.351L44.9999 279.504L78.2499 274.1C88.6054 272.425 98.5699 268.844 107.65 263.535L183.3 219.341C185.95 217.681 187.73 214.554 188.24 210.233C188.337 209.352 188.387 208.467 188.39 207.581C188.38 195.812 180.23 181.522 170.18 175.642Z" fill="white"/>
<path d="M174.64 224.37C177.29 222.711 179.07 219.584 179.58 215.262C179.678 214.382 179.728 213.497 179.73 212.611C179.73 200.862 171.58 186.572 161.53 180.703C157.61 178.405 153.99 177.737 151.01 178.466C150.257 178.638 149.532 178.921 148.86 179.306L157.5 174.246C158.173 173.862 158.897 173.58 159.65 173.406C162.65 172.677 166.26 173.345 170.18 175.632C180.18 181.512 188.38 195.802 188.38 207.551C188.378 208.437 188.328 209.322 188.23 210.202C187.72 214.544 185.94 217.671 183.29 219.31L174.64 224.37Z" fill="#2F589A"/>
<path d="M47.4101 267.401C46.6838 266.931 45.8312 266.701 44.9701 266.743L42.5301 270.497L40.6701 273.361C40.2761 273.971 40.0519 274.676 40.021 275.404C39.9901 276.132 40.1538 276.854 40.4947 277.495C40.8356 278.137 41.3412 278.673 41.9582 279.048C42.5751 279.423 43.2805 279.623 44.0001 279.626C44.338 279.62 44.6739 279.573 45.0001 279.484V279.484L47.8401 279.029L51.6701 278.401C52.0123 277.884 52.222 277.29 52.2801 276.671C52.2801 276.448 52.2801 276.205 52.2801 275.952C52.1889 274.24 51.7004 272.573 50.8543 271.088C50.0083 269.602 48.8283 268.339 47.4101 267.401V267.401Z" fill="#2F589A"/>
<path opacity="0.6" d="M91.76 231.353C101.59 225.473 149.09 197.775 177.2 181.401C175.154 179.148 172.797 177.209 170.2 175.642C166.28 173.355 162.65 172.687 159.67 173.416C158.917 173.59 158.193 173.872 157.52 174.256L157.08 174.499L89.79 213.825C78.7418 220.284 69.3383 229.266 62.33 240.056L41.43 272.177L40.67 273.361C40.2343 274.024 40.0012 274.802 40 275.598C39.9964 276.58 40.3527 277.528 41 278.259C39 273.898 56.77 262.179 66.61 252.777C76.45 243.376 86.23 234.662 91.76 231.353Z" fill="white"/>
<path d="M81.9301 253.901C79.1101 248.031 74.8501 243.123 70.2401 240.441C68.2012 239.175 65.8793 238.451 63.4901 238.336C63.1001 238.913 62.6901 239.469 62.3101 240.056L53.3101 253.901L54.4001 253.799C54.5365 253.789 54.6736 253.789 54.8101 253.799C56.1145 253.856 57.3822 254.254 58.4901 254.953C61.3264 256.777 63.6374 259.325 65.1901 262.341L65.8301 263.515L82.5301 255.166L81.9301 253.901Z" fill="#2F589A"/>
<path d="M69.55 241.645C67.4651 240.3 65.0203 239.639 62.55 239.753L54.27 252.413C55.9988 252.325 57.7117 252.785 59.17 253.729C62.2328 255.673 64.7284 258.408 66.4 261.653L80.69 254.508C78.11 249.134 74.08 244.287 69.55 241.645Z" fill="#07020C"/>
<path opacity="0.1" d="M69.55 241.645C67.4651 240.3 65.0203 239.639 62.55 239.753L54.27 252.413C54.8656 252.366 55.4647 252.404 56.05 252.524C57.18 251.249 58.32 249.205 60.27 249.569C62.53 249.994 64.27 252.302 66.11 253.476C66.5881 253.808 67.1288 254.037 67.6983 254.148C68.2678 254.26 68.8539 254.251 69.42 254.123C70.3931 253.699 71.2708 253.079 72 252.302C72.3662 251.917 72.8169 251.624 73.3155 251.449C73.8141 251.273 74.3467 251.218 74.87 251.29C75.99 251.593 76.43 252.686 76.87 253.648C77.2606 254.39 77.5949 255.161 77.87 255.955L80.73 254.518C78.11 249.134 74.08 244.287 69.55 241.645Z" fill="white"/>
<path opacity="0.05" d="M62.4699 246.948L62.5399 246.999C63.4508 247.613 64.3957 248.174 65.3699 248.679C66.1799 249.104 67.2599 249.458 67.9399 248.841C68.6199 248.223 68.4699 247.029 69.1899 246.523C69.4929 246.345 69.8397 246.257 70.1899 246.27C71.8226 246.291 73.4277 246.7 74.8761 247.462C76.3246 248.225 77.576 249.321 78.5299 250.662C76.257 246.989 73.177 243.897 69.5299 241.625C67.445 240.279 65.0002 239.618 62.5299 239.733L57.6899 247.161C59.4399 245.855 60.6799 245.795 62.4699 246.948Z" fill="white"/>
<path opacity="0.15" d="M188.23 210.212C188.327 209.332 188.377 208.447 188.38 207.561C188.367 206.522 188.301 205.485 188.18 204.454C164.81 218.055 107.79 251.259 97.3599 257.533C84.1699 265.468 51.7099 276.761 43.3599 277.166C41.3599 277.278 40.6599 275.729 40.7099 273.311V273.361C40.3177 273.968 40.0936 274.67 40.061 275.394C40.0285 276.118 40.1886 276.838 40.5248 277.478C40.861 278.118 41.3608 278.655 41.9721 279.033C42.5834 279.41 43.2837 279.615 43.9999 279.625C44.3378 279.62 44.6737 279.573 44.9999 279.484V279.484L78.2499 274.08C88.6054 272.405 98.5699 268.824 107.65 263.514L183.3 219.32C185.94 217.681 187.72 214.564 188.23 210.212Z" fill="#2F589A"/>
<path opacity="0.6" d="M44.9999 279.484L47.8399 279.028L51.6699 278.401C52.0121 277.884 52.2218 277.29 52.2799 276.67C52.2799 276.448 52.2799 276.205 52.2799 275.952C52.2799 275.699 52.2799 275.547 52.2799 275.345C49.3703 276.22 46.388 276.827 43.3699 277.156C41.3699 277.268 40.6699 275.719 40.7199 273.301V273.351C40.3255 273.957 40.0993 274.659 40.0649 275.384C40.0305 276.109 40.1893 276.83 40.5246 277.471C40.8599 278.112 41.3594 278.651 41.9708 279.03C42.5822 279.409 43.283 279.615 43.9999 279.626C44.307 279.622 44.6125 279.581 44.9099 279.504L44.9999 279.484Z" fill="#07020C"/>
<path d="M226.19 234.632L181.38 208.441L97.3601 257.534L142.17 247.717L214.99 244.448L226.19 237.901V234.632Z" fill="#2F589A"/>
<path opacity="0.6" d="M226.19 234.632L181.38 208.441L97.3601 257.534L142.17 247.717L214.99 244.448L226.19 237.901V234.632Z" fill="white"/>
<path d="M142.17 247.717V244.448L97.3601 257.534L142.17 247.717Z" fill="#2F589A"/>
<path d="M142.17 244.449L214.99 241.17V244.449L142.17 247.717V244.449Z" fill="#2F589A"/>
<path opacity="0.3" d="M142.17 244.449L214.99 241.17V244.449L142.17 247.717V244.449Z" fill="white"/>
<path d="M170.18 214.989L214.99 241.169L226.19 234.632L181.38 208.441L170.18 214.989Z" fill="#2F589A"/>
<path opacity="0.3" d="M170.18 214.989L214.99 241.169L226.19 234.632L181.38 208.441L170.18 214.989Z" fill="#07020C"/>
<path d="M226.19 234.632L214.99 241.17V244.448L226.19 237.901V234.632Z" fill="#2F589A"/>
<path opacity="0.5" d="M226.19 234.632L214.99 241.17V244.448L226.19 237.901V234.632Z" fill="#07020C"/>
<path d="M178.59 134.829L172.99 138.107L144.98 187.19L147.77 188.809L170.24 175.683L181.38 136.448L178.59 134.829Z" fill="#2F589A"/>
<path d="M147.77 188.809L170.24 175.683L181.38 136.448L175.78 139.717L147.77 188.809Z" fill="#2F589A"/>
<path opacity="0.5" d="M172.99 138.107L175.78 139.717L181.38 136.448L178.59 134.829L172.99 138.107Z" fill="white"/>
<path opacity="0.6" d="M175.78 139.717L147.77 188.809L170.24 175.683L181.38 136.448L175.78 139.717Z" fill="#07020C"/>
<path opacity="0.8" d="M188 177.899C185.77 173.993 184.56 166.767 191.17 162.355C197.78 157.943 203.04 160.412 203.04 160.412C203.04 160.412 200.55 162.436 200.62 164.379C200.62 164.379 207.79 158.003 213.17 160.695C213.17 160.695 208.77 162.881 209.4 164.834C210.03 166.788 217.67 163.215 220.32 159.623C220.32 159.623 220.7 162.77 217.59 166.646C214.48 170.522 207.84 173.619 207.84 173.619C208.642 173.949 209.507 174.096 210.372 174.047C211.236 173.998 212.08 173.755 212.84 173.335C212.84 173.335 208.67 179.923 202.89 182.747C200.27 184.043 197.256 184.263 194.48 183.359C191.704 182.455 189.381 180.498 188 177.899V177.899Z" fill="#D30490"/>
<path opacity="0.8" d="M191.28 175.946C189.23 172.354 192.7 166.98 199.58 167.607C199.58 167.607 196.41 169.743 197.38 171.574C198.35 173.406 204.8 169.894 206.1 168.842C206.1 168.842 203.93 174.458 199.67 176.938C196.62 178.729 193.2 179.326 191.28 175.946Z" fill="white"/>
<path opacity="0.8" d="M193.73 195.923C195.96 199.829 201.52 204.505 208.62 200.912C215.72 197.32 216.21 191.48 216.21 191.48C216.21 191.48 213.21 192.634 211.61 191.622C211.61 191.622 220.61 188.525 221.03 182.463C221.03 182.463 216.97 185.226 215.6 183.698C214.23 182.17 221.13 177.262 225.53 176.736C225.53 176.736 223.03 174.833 218.15 175.612C213.27 176.391 207.05 181.745 207.05 181.745C206.973 180.832 207.089 179.913 207.39 179.049C207.692 178.185 208.173 177.396 208.8 176.736C204.613 176.88 200.54 178.152 197 180.419C194.577 182.072 192.882 184.611 192.272 187.503C191.662 190.395 192.185 193.413 193.73 195.923V195.923Z" fill="#D30490"/>
<path opacity="0.8" d="M197 194.051C199.05 197.633 205.38 197.279 208.28 190.934C208.28 190.934 204.87 192.654 203.79 190.873C202.71 189.092 208.94 185.216 210.49 184.609C210.49 184.609 204.59 183.698 200.34 186.188C197.31 187.969 195.1 190.671 197 194.051Z" fill="white"/>
<path opacity="0.5" d="M307.76 259.892C306.101 259.892 304.479 259.394 303.099 258.461C301.719 257.528 300.644 256.202 300.009 254.65C299.374 253.099 299.208 251.391 299.531 249.744C299.855 248.097 300.654 246.584 301.827 245.397C303.001 244.21 304.496 243.401 306.123 243.073C307.751 242.746 309.438 242.914 310.971 243.556C312.504 244.199 313.814 245.287 314.736 246.684C315.658 248.08 316.15 249.722 316.15 251.401C316.15 253.653 315.266 255.812 313.693 257.405C312.119 258.997 309.985 259.892 307.76 259.892V259.892ZM307.76 243.598C306.235 243.598 304.745 244.056 303.477 244.913C302.209 245.771 301.221 246.989 300.637 248.415C300.053 249.841 299.901 251.409 300.198 252.923C300.496 254.437 301.23 255.827 302.308 256.918C303.387 258.009 304.76 258.752 306.256 259.053C307.752 259.355 309.302 259.2 310.711 258.609C312.119 258.019 313.324 257.019 314.171 255.736C315.018 254.453 315.47 252.944 315.47 251.401C315.467 249.332 314.654 247.349 313.209 245.887C311.764 244.424 309.804 243.601 307.76 243.598V243.598Z" fill="#2F589A"/>
<path d="M310.12 251.401C310.12 251.873 309.982 252.335 309.722 252.728C309.463 253.12 309.095 253.427 308.663 253.607C308.232 253.788 307.758 253.835 307.3 253.743C306.842 253.651 306.421 253.424 306.091 253.09C305.761 252.756 305.537 252.33 305.445 251.867C305.354 251.403 305.401 250.923 305.58 250.487C305.758 250.05 306.061 249.677 306.449 249.415C306.837 249.153 307.293 249.012 307.76 249.012C308.386 249.012 308.986 249.264 309.429 249.712C309.872 250.16 310.12 250.767 310.12 251.401V251.401Z" fill="white"/>
<path opacity="0.5" d="M201.45 107.292C198.835 107.292 196.279 106.507 194.104 105.037C191.93 103.566 190.236 101.476 189.235 99.0308C188.235 96.5855 187.974 93.895 188.485 91.2995C188.996 88.7041 190.256 86.3202 192.106 84.4496C193.955 82.579 196.312 81.3056 198.877 80.7905C201.442 80.2754 204.101 80.5418 206.516 81.556C208.931 82.5701 210.995 84.2865 212.447 86.4879C213.898 88.6893 214.672 91.2769 214.67 93.9234C214.665 97.4691 213.27 100.868 210.791 103.374C208.313 105.88 204.954 107.289 201.45 107.292ZM201.45 81.233C198.969 81.235 196.543 81.982 194.482 83.3795C192.42 84.7769 190.814 86.762 189.868 89.0834C188.921 91.4048 188.677 93.9582 189.165 96.4203C189.653 98.8825 190.852 101.143 192.611 102.915C194.369 104.687 196.607 105.891 199.042 106.376C201.477 106.86 203.999 106.602 206.289 105.635C208.579 104.668 210.534 103.035 211.907 100.943C213.279 98.8513 214.008 96.3942 214 93.883C213.997 90.5163 212.674 87.2885 210.321 84.9088C207.967 82.5292 204.777 81.1925 201.45 81.1925V81.233Z" fill="#2F589A"/>
<path d="M205.23 93.883C205.23 94.6396 205.008 95.3792 204.593 96.0082C204.178 96.6373 203.587 97.1276 202.897 97.4172C202.206 97.7067 201.446 97.7824 200.713 97.6348C199.979 97.4872 199.306 97.1229 198.777 96.5879C198.249 96.0529 197.889 95.3713 197.743 94.6293C197.597 93.8872 197.672 93.1181 197.958 92.4191C198.244 91.7201 198.728 91.1227 199.35 90.7023C199.972 90.282 200.703 90.0576 201.45 90.0576C201.947 90.0563 202.439 90.1543 202.898 90.3461C203.357 90.5379 203.775 90.8196 204.126 91.1751C204.477 91.5306 204.756 91.9528 204.945 92.4175C205.135 92.8822 205.231 93.3803 205.23 93.883Z" fill="white"/>
<path opacity="0.5" d="M307.21 55.4372C305.551 55.4372 303.929 54.9392 302.549 54.0062C301.169 53.0733 300.094 51.7472 299.459 50.1957C298.824 48.6443 298.658 46.9371 298.981 45.29C299.305 43.643 300.104 42.1301 301.277 40.9427C302.451 39.7552 303.946 38.9466 305.573 38.619C307.201 38.2913 308.888 38.4595 310.421 39.1021C311.954 39.7448 313.264 40.833 314.186 42.2293C315.108 43.6256 315.6 45.2672 315.6 46.9465C315.597 49.1975 314.713 51.3556 313.14 52.9473C311.567 54.5391 309.434 55.4345 307.21 55.4372ZM307.21 39.144C305.685 39.144 304.195 39.6016 302.927 40.4589C301.659 41.3163 300.671 42.5349 300.087 43.9606C299.503 45.3863 299.351 46.9551 299.648 48.4687C299.946 49.9822 300.68 51.3725 301.758 52.4637C302.837 53.5549 304.21 54.298 305.706 54.5991C307.202 54.9001 308.752 54.7456 310.161 54.1551C311.569 53.5645 312.774 52.5645 313.621 51.2813C314.468 49.9982 314.92 48.4897 314.92 46.9465C314.917 44.878 314.104 42.8949 312.659 41.4322C311.214 39.9696 309.254 39.1467 307.21 39.144V39.144Z" fill="#2F589A"/>
<path d="M309.58 46.9464C309.582 47.4212 309.445 47.8859 309.186 48.2817C308.926 48.6774 308.557 48.9864 308.124 49.1695C307.691 49.3526 307.214 49.4016 306.754 49.3102C306.293 49.2188 305.87 48.9911 305.538 48.6561C305.205 48.3211 304.979 47.8937 304.886 47.4282C304.794 46.9627 304.84 46.4799 305.02 46.0411C305.199 45.6022 305.502 45.2271 305.892 44.9631C306.282 44.6991 306.741 44.5581 307.21 44.5581C307.521 44.5568 307.829 44.6176 308.116 44.737C308.404 44.8564 308.665 45.0322 308.885 45.2541C309.106 45.476 309.28 45.7397 309.399 46.0301C309.519 46.3206 309.58 46.632 309.58 46.9464V46.9464Z" fill="white"/>
<path d="M344.48 35.9561C344.275 35.789 344.124 35.5642 344.046 35.3101C343.967 35.056 343.965 34.784 344.039 34.5286C344.113 34.2732 344.261 34.0458 344.463 33.8752C344.665 33.7046 344.912 33.5984 345.174 33.5701C345.435 33.5418 345.699 33.5926 345.932 33.7162C346.165 33.8397 346.357 34.0304 346.483 34.2641C346.609 34.4979 346.663 34.7641 346.64 35.0293C346.616 35.2944 346.515 35.5465 346.35 35.7537C346.129 36.0315 345.807 36.2088 345.457 36.2468C345.106 36.2847 344.755 36.1802 344.48 35.9561Z" fill="#F0F0F0"/>
<path d="M340.54 39.8321C340.46 39.7681 340.393 39.6886 340.344 39.5983C340.295 39.508 340.263 39.4086 340.252 39.306C340.241 39.2033 340.25 39.0995 340.279 39.0004C340.308 38.9014 340.356 38.8091 340.42 38.729C340.55 38.5677 340.736 38.4645 340.941 38.4418C341.145 38.419 341.349 38.4786 341.51 38.6076C341.667 38.74 341.768 38.9289 341.79 39.1346C341.812 39.3404 341.755 39.5469 341.63 39.7107C341.567 39.7917 341.488 39.8592 341.399 39.9092C341.31 39.9592 341.212 39.9908 341.11 40.0021C341.009 40.0134 340.906 40.0042 340.808 39.975C340.71 39.9458 340.619 39.8973 340.54 39.8321V39.8321Z" fill="#FAFAFA"/>
<path d="M232.47 248.061C232.621 248.214 232.723 248.409 232.765 248.621C232.806 248.833 232.784 249.052 232.702 249.252C232.621 249.451 232.482 249.622 232.305 249.742C232.127 249.862 231.918 249.926 231.705 249.926C231.492 249.926 231.283 249.862 231.105 249.742C230.928 249.622 230.789 249.451 230.708 249.252C230.626 249.052 230.604 248.833 230.645 248.621C230.687 248.409 230.789 248.214 230.94 248.061C231.144 247.858 231.419 247.744 231.705 247.744C231.991 247.744 232.266 247.858 232.47 248.061Z" fill="#FAFAFA"/>
<path d="M242.45 252.848C242.618 253.009 242.753 253.203 242.846 253.417C242.94 253.632 242.991 253.863 242.995 254.097C243 254.332 242.959 254.565 242.874 254.783C242.788 255.001 242.662 255.2 242.5 255.368C242.259 255.622 241.949 255.797 241.609 255.873C241.269 255.948 240.914 255.92 240.59 255.792C240.266 255.664 239.987 255.441 239.788 255.152C239.589 254.863 239.479 254.521 239.472 254.169C239.465 253.817 239.561 253.471 239.749 253.174C239.936 252.877 240.206 252.643 240.525 252.502C240.844 252.36 241.197 252.318 241.539 252.38C241.882 252.441 242.199 252.604 242.45 252.848V252.848Z" fill="#FAFAFA"/>
<g opacity="0.5">
<path d="M272.35 121.885C272.548 121.805 272.765 121.786 272.974 121.831C273.183 121.876 273.373 121.982 273.523 122.136C273.672 122.291 273.772 122.486 273.812 122.698C273.851 122.91 273.828 123.13 273.744 123.328C273.661 123.527 273.521 123.696 273.342 123.814C273.164 123.933 272.955 123.995 272.742 123.993C272.528 123.992 272.32 123.926 272.144 123.805C271.967 123.684 271.83 123.512 271.75 123.312C271.644 123.042 271.648 122.741 271.76 122.474C271.873 122.207 272.085 121.995 272.35 121.885Z" fill="#FAFAFA"/>
<path d="M280.74 114.619C281.066 114.49 281.422 114.461 281.763 114.537C282.105 114.613 282.417 114.789 282.66 115.044C282.903 115.299 283.065 115.621 283.127 115.969C283.189 116.317 283.148 116.676 283.009 117.001C282.869 117.326 282.638 117.601 282.344 117.793C282.05 117.984 281.706 118.084 281.356 118.078C281.007 118.072 280.666 117.961 280.379 117.76C280.091 117.559 279.869 117.276 279.74 116.947C279.569 116.504 279.579 116.01 279.766 115.574C279.953 115.138 280.303 114.795 280.74 114.619Z" fill="#FAFAFA"/>
</g>
<g opacity="0.5">
<path d="M288.08 289.017C288.082 289.372 287.98 289.719 287.787 290.015C287.593 290.311 287.318 290.542 286.994 290.679C286.671 290.816 286.315 290.853 285.971 290.785C285.627 290.717 285.311 290.547 285.062 290.297C284.813 290.047 284.644 289.728 284.575 289.38C284.506 289.033 284.54 288.672 284.674 288.344C284.807 288.016 285.034 287.736 285.326 287.538C285.617 287.341 285.96 287.236 286.31 287.236C286.778 287.236 287.226 287.423 287.558 287.757C287.89 288.091 288.077 288.544 288.08 289.017V289.017Z" fill="#FAFAFA"/>
<path d="M282.81 293.895C282.812 294.108 282.751 294.317 282.636 294.494C282.52 294.672 282.355 294.812 282.16 294.894C281.966 294.976 281.752 294.998 281.546 294.957C281.339 294.916 281.15 294.814 281.001 294.663C280.852 294.513 280.751 294.321 280.71 294.112C280.669 293.903 280.691 293.686 280.773 293.49C280.854 293.293 280.992 293.126 281.168 293.009C281.343 292.892 281.55 292.83 281.76 292.832C281.9 292.825 282.04 292.847 282.17 292.898C282.301 292.949 282.42 293.027 282.519 293.127C282.618 293.227 282.695 293.347 282.745 293.48C282.795 293.612 282.817 293.753 282.81 293.895Z" fill="#FAFAFA"/>
<path d="M279.82 287.236C279.828 287.409 279.784 287.58 279.695 287.727C279.605 287.875 279.473 287.991 279.317 288.062C279.161 288.132 278.987 288.153 278.819 288.122C278.651 288.091 278.495 288.009 278.374 287.888C278.252 287.766 278.169 287.61 278.137 287.44C278.104 287.27 278.123 287.094 278.19 286.935C278.258 286.776 278.372 286.642 278.516 286.549C278.661 286.457 278.829 286.41 279 286.416C279.214 286.423 279.417 286.512 279.568 286.664C279.72 286.816 279.81 287.02 279.82 287.236V287.236Z" fill="#FAFAFA"/>
</g>
<path d="M150.78 37.2314C150.78 37.4475 150.717 37.6589 150.598 37.8386C150.479 38.0183 150.311 38.1584 150.113 38.2412C149.916 38.3239 149.699 38.3455 149.489 38.3033C149.28 38.2612 149.087 38.1571 148.936 38.0042C148.785 37.8514 148.683 37.6566 148.641 37.4446C148.599 37.2326 148.621 37.0128 148.702 36.8131C148.784 36.6134 148.923 36.4427 149.1 36.3226C149.278 36.2025 149.487 36.1384 149.7 36.1384C149.987 36.1384 150.261 36.2536 150.464 36.4585C150.666 36.6635 150.78 36.9415 150.78 37.2314V37.2314Z" fill="#FAFAFA"/>
<path d="M155.87 22.8913L158.31 25.3302L161.67 24.6724C161.742 24.6587 161.816 24.6656 161.884 24.6923C161.952 24.719 162.011 24.7644 162.055 24.8234C162.098 24.8824 162.125 24.9526 162.131 25.0261C162.137 25.0996 162.123 25.1734 162.09 25.2391L160.56 28.3561L162.21 31.3921C162.247 31.4567 162.265 31.5306 162.262 31.6052C162.259 31.6798 162.235 31.752 162.193 31.8135C162.152 31.8749 162.093 31.9231 162.026 31.9524C161.958 31.9817 161.883 31.9909 161.81 31.979L158.43 31.4629L156.08 33.9929C156.03 34.047 155.966 34.0856 155.895 34.1044C155.824 34.1232 155.749 34.1214 155.679 34.0992C155.609 34.0771 155.547 34.0354 155.499 33.979C155.452 33.9226 155.421 33.8538 155.41 33.7804L154.85 30.3598L151.75 28.8924C151.685 28.8599 151.63 28.8095 151.591 28.7469C151.553 28.6843 151.532 28.612 151.532 28.5382C151.532 28.4645 151.553 28.3922 151.591 28.3296C151.63 28.267 151.685 28.2166 151.75 28.184L154.75 26.5851L155.18 23.1443C155.18 23.063 155.205 22.9837 155.251 22.9172C155.297 22.8506 155.362 22.8001 155.437 22.7724C155.513 22.7447 155.595 22.7413 155.672 22.7626C155.75 22.7838 155.819 22.8288 155.87 22.8913Z" fill="#FAFAFA"/>
<path d="M71.0001 180.875L71.3801 183.536L73.7501 184.72C73.8008 184.745 73.8436 184.784 73.8735 184.832C73.9034 184.881 73.9193 184.936 73.9193 184.993C73.9193 185.05 73.9034 185.106 73.8735 185.155C73.8436 185.203 73.8008 185.242 73.7501 185.267L71.3801 186.451L70.9901 189.112C70.9808 189.167 70.9567 189.219 70.9204 189.261C70.884 189.303 70.8368 189.335 70.7841 189.351C70.7313 189.368 70.675 189.37 70.6213 189.356C70.5677 189.343 70.5188 189.314 70.4801 189.274L68.6301 187.351L66.0201 187.807C65.964 187.818 65.9059 187.813 65.8527 187.791C65.7995 187.77 65.7534 187.734 65.7197 187.687C65.6861 187.641 65.6664 187.585 65.6629 187.527C65.6594 187.47 65.6723 187.412 65.7001 187.362L66.9301 184.993L65.7001 182.615C65.6797 182.566 65.672 182.513 65.6775 182.461C65.683 182.408 65.7016 182.357 65.7315 182.314C65.7615 182.271 65.8018 182.235 65.8488 182.212C65.8957 182.189 65.9478 182.178 66.0001 182.18L68.6101 182.635L70.4601 180.723C70.4985 180.678 70.5487 180.645 70.6049 180.628C70.6611 180.61 70.721 180.61 70.7775 180.626C70.8341 180.642 70.8851 180.673 70.9245 180.717C70.9638 180.762 70.9901 180.816 71.0001 180.875V180.875Z" fill="#FAFAFA"/>
<path d="M306.05 9.56323L308.65 9.08759L309.74 6.63855C309.765 6.58722 309.803 6.54393 309.851 6.51364C309.899 6.48335 309.954 6.46729 310.01 6.46729C310.066 6.46729 310.122 6.48335 310.169 6.51364C310.217 6.54393 310.256 6.58722 310.28 6.63855L311.54 9.00663L314.17 9.30011C314.225 9.3061 314.278 9.32739 314.321 9.36164C314.365 9.39588 314.399 9.44174 314.418 9.49413C314.438 9.54652 314.443 9.6034 314.433 9.65846C314.423 9.71353 314.397 9.76463 314.36 9.80611L312.53 11.7491L313.07 14.3702C313.08 14.4263 313.075 14.4842 313.055 14.5376C313.036 14.5911 313.002 14.638 312.958 14.6734C312.913 14.7088 312.86 14.7313 312.804 14.7385C312.749 14.7457 312.692 14.7373 312.64 14.7143L310.25 13.5505L308 14.856C307.951 14.8852 307.896 14.8998 307.839 14.8983C307.783 14.8968 307.728 14.8791 307.681 14.8474C307.634 14.8157 307.597 14.7712 307.573 14.719C307.55 14.6668 307.542 14.609 307.55 14.5524L307.91 11.8908L305.91 10.0895C305.868 10.0521 305.837 10.0035 305.821 9.94915C305.804 9.89485 305.804 9.83702 305.818 9.78223C305.833 9.72744 305.862 9.67787 305.903 9.63917C305.944 9.60046 305.995 9.57415 306.05 9.56323V9.56323Z" fill="#FAFAFA"/>
<path d="M147.87 291.78C148.097 291.914 148.28 292.113 148.395 292.352C148.51 292.592 148.553 292.86 148.517 293.124C148.482 293.387 148.37 293.635 148.196 293.834C148.022 294.033 147.793 294.176 147.539 294.244C147.285 294.312 147.016 294.302 146.767 294.215C146.519 294.129 146.301 293.97 146.142 293.758C145.982 293.546 145.888 293.291 145.872 293.026C145.856 292.76 145.918 292.496 146.05 292.266C146.137 292.112 146.253 291.977 146.392 291.869C146.531 291.761 146.69 291.682 146.859 291.637C147.029 291.591 147.205 291.581 147.379 291.605C147.552 291.63 147.719 291.689 147.87 291.78V291.78Z" fill="#F0F0F0"/>
<path d="M151.17 287.337C151.348 287.441 151.479 287.612 151.533 287.813C151.588 288.014 151.561 288.228 151.46 288.41C151.409 288.499 151.341 288.578 151.261 288.64C151.18 288.703 151.087 288.749 150.989 288.776C150.89 288.802 150.787 288.808 150.686 288.794C150.585 288.78 150.488 288.746 150.4 288.693C150.312 288.642 150.235 288.574 150.173 288.492C150.111 288.411 150.065 288.318 150.039 288.219C150.012 288.12 150.006 288.016 150.019 287.914C150.032 287.813 150.064 287.714 150.115 287.625C150.166 287.536 150.233 287.458 150.313 287.395C150.394 287.333 150.485 287.287 150.583 287.26C150.681 287.233 150.784 287.226 150.884 287.239C150.985 287.253 151.082 287.286 151.17 287.337Z" fill="#FAFAFA"/>
<path d="M189.85 311.888L187.34 312.769L186.64 315.349C186.625 315.404 186.595 315.454 186.554 315.492C186.513 315.531 186.462 315.557 186.406 315.567C186.351 315.578 186.294 315.573 186.242 315.552C186.189 315.531 186.144 315.496 186.11 315.45L184.51 313.315L181.86 313.436C181.803 313.44 181.745 313.428 181.695 313.4C181.645 313.371 181.603 313.329 181.576 313.278C181.548 313.227 181.536 313.169 181.54 313.111C181.545 313.053 181.565 312.997 181.6 312.951L183.11 310.755L182.18 308.245C182.158 308.191 182.152 308.132 182.162 308.075C182.172 308.018 182.198 307.965 182.237 307.923C182.276 307.88 182.326 307.85 182.382 307.835C182.437 307.82 182.496 307.822 182.55 307.84L185.09 308.619L187.16 306.95C187.204 306.913 187.257 306.89 187.313 306.883C187.369 306.876 187.426 306.885 187.478 306.91C187.529 306.934 187.572 306.972 187.603 307.021C187.633 307.069 187.65 307.125 187.65 307.182V309.864L189.86 311.342C189.91 311.367 189.952 311.407 189.982 311.456C190.011 311.505 190.025 311.561 190.024 311.618C190.023 311.675 190.006 311.731 189.976 311.778C189.945 311.826 189.901 311.864 189.85 311.888V311.888Z" fill="#FAFAFA"/>
<path d="M361.86 122.34C362.186 122.211 362.542 122.183 362.884 122.258C363.225 122.334 363.537 122.51 363.78 122.765C364.023 123.02 364.185 123.342 364.247 123.69C364.31 124.039 364.268 124.398 364.129 124.722C363.989 125.047 363.758 125.323 363.464 125.514C363.17 125.706 362.826 125.805 362.476 125.799C362.127 125.793 361.787 125.683 361.499 125.482C361.211 125.28 360.989 124.997 360.86 124.668C360.774 124.449 360.732 124.215 360.736 123.979C360.74 123.743 360.789 123.51 360.882 123.294C360.975 123.078 361.109 122.882 361.277 122.719C361.445 122.555 361.643 122.426 361.86 122.34V122.34Z" fill="#FAFAFA"/>
<path d="M80.7073 357.028C80.1886 357.361 79.5569 357.477 78.95 357.351C78.343 357.224 77.8102 356.866 77.4676 356.353V356.353C77.1285 355.839 77.0083 355.213 77.1332 354.614C77.2582 354.014 77.6181 353.488 78.1345 353.152C78.1345 353.152 134.683 317.801 135.399 318.88C136.115 319.958 80.7073 357.028 80.7073 357.028Z" fill="url(#paint0_linear_261_766)"/>
<path d="M73.25 305.35C73.4834 305.116 73.7994 304.984 74.1285 304.985C74.4577 304.986 74.7729 305.119 75.005 305.355C75.2371 305.592 75.3669 305.911 75.366 306.245C75.365 306.578 75.2334 306.897 75 307.132C74.8844 307.248 74.7474 307.34 74.5966 307.403C74.4459 307.465 74.2844 307.497 74.1215 307.497C73.9585 307.496 73.7972 307.463 73.6468 307.4C73.4965 307.336 73.3599 307.243 73.245 307.126C73.1301 307.01 73.0391 306.871 72.9771 306.718C72.9152 306.566 72.8836 306.402 72.884 306.237C72.8845 306.072 72.9171 305.909 72.9799 305.757C73.0426 305.605 73.1344 305.467 73.25 305.35V305.35Z" fill="#FAFAFA"/>
<path opacity="0.3" d="M105.974 125.854C98.5135 125.854 91.2209 123.616 85.018 119.421C78.8151 115.227 73.9805 109.265 71.1256 102.29C68.2707 95.3152 67.5238 87.6401 68.9792 80.2355C70.4346 72.8308 74.027 66.0293 79.3021 60.6908C84.5773 55.3524 91.2982 51.7169 98.615 50.244C105.932 48.7711 113.516 49.527 120.408 52.4162C127.301 55.3053 133.192 60.1979 137.336 66.4753C141.481 72.7526 143.693 80.1327 143.693 87.6824C143.693 97.8063 139.719 107.515 132.645 114.674C125.572 121.833 115.977 125.854 105.974 125.854V125.854ZM105.974 50.4781C98.687 50.4781 91.564 52.6648 85.5053 56.7617C79.4467 60.8585 74.7245 66.6815 71.936 73.4943C69.1476 80.3071 68.418 87.8037 69.8395 95.0361C71.2611 102.269 74.7699 108.912 79.9224 114.126C85.0749 119.341 91.6395 122.892 98.7862 124.33C105.933 125.769 113.341 125.03 120.073 122.208C126.805 119.387 132.559 114.608 136.607 108.476C140.655 102.345 142.816 95.1365 142.816 87.7623C142.816 77.8739 138.934 68.3906 132.025 61.3984C125.116 54.4063 115.745 50.4781 105.974 50.4781V50.4781Z" fill="white"/>
<path opacity="0.2" d="M105.974 128.624C97.981 128.624 90.1677 126.225 83.522 121.732C76.8762 117.238 71.6965 110.851 68.6377 103.378C65.579 95.9045 64.7787 87.6815 66.3381 79.7482C67.8974 71.8149 71.7463 64.5277 77.398 58.8081C83.0498 53.0885 90.2506 49.1935 98.0898 47.6154C105.929 46.0374 114.055 46.8473 121.439 49.9427C128.823 53.0381 135.135 58.28 139.575 65.0056C144.016 71.7311 146.386 79.6381 146.386 87.7268C146.374 98.5699 142.113 108.965 134.537 116.633C126.961 124.3 116.688 128.612 105.974 128.624ZM105.974 47.7173C98.1545 47.7173 90.5108 50.0638 84.0093 54.4602C77.5078 58.8565 72.4405 65.1051 69.4482 72.4159C66.4559 79.7266 65.6729 87.7712 67.1984 95.5323C68.7239 103.293 72.4892 110.422 78.0183 116.018C83.5474 121.613 90.5919 125.424 98.2609 126.968C105.93 128.511 113.879 127.719 121.103 124.691C128.327 121.663 134.502 116.534 138.846 109.955C143.19 103.375 145.509 95.64 145.509 87.7268C145.5 77.1185 141.331 66.9474 133.919 59.4462C126.507 51.945 116.456 47.7267 105.974 47.7173V47.7173Z" fill="white"/>
<path opacity="0.1" d="M105.974 131.997C97.3146 131.997 88.85 129.399 81.6503 124.53C74.4506 119.662 68.8392 112.742 65.5255 104.646C62.2118 96.5504 61.3448 87.6419 63.0341 79.0474C64.7234 70.4529 68.8931 62.5583 75.016 56.362C81.1388 50.1657 88.9398 45.9459 97.4324 44.2364C105.925 42.5268 114.728 43.4042 122.728 46.7576C130.728 50.111 137.565 55.7899 142.376 63.076C147.187 70.3621 149.754 78.9282 149.754 87.6911C149.733 99.4353 145.114 110.692 136.908 118.997C128.702 127.301 117.579 131.976 105.974 131.997ZM105.974 44.2727C97.4881 44.2727 89.1931 46.8192 82.1377 51.5901C75.0822 56.3609 69.5832 63.142 66.3359 71.0756C63.0887 79.0093 62.239 87.7393 63.8945 96.1616C65.5499 104.584 69.6361 112.32 75.6362 118.393C81.6364 124.465 89.2811 128.6 97.6035 130.275C105.926 131.95 114.552 131.091 122.392 127.804C130.232 124.518 136.932 118.953 141.647 111.813C146.361 104.673 148.877 96.2784 148.877 87.6911C148.847 76.1885 144.316 65.1662 136.276 57.0359C128.235 48.9057 117.34 44.3293 105.974 44.3083V44.2727Z" fill="white"/>
<path opacity="0.1" d="M105.974 136.267C96.485 136.267 87.2095 133.42 79.32 128.085C71.4306 122.749 65.2817 115.167 61.651 106.295C58.0202 97.4231 57.0707 87.661 58.9225 78.2431C60.7742 68.8252 65.3442 60.1745 72.0543 53.3851C78.7644 46.5957 87.3133 41.9725 96.6199 40.1003C105.926 38.228 115.573 39.1907 124.339 42.8666C133.104 46.5426 140.596 52.7666 145.867 60.7517C151.137 68.7368 153.949 78.1242 153.947 87.7267C153.933 100.598 148.874 112.937 139.88 122.038C130.886 131.138 118.692 136.255 105.974 136.267V136.267ZM105.974 40.0651C96.6589 40.0651 87.5533 42.8604 79.8083 48.0975C72.0633 53.3346 66.0268 60.7784 62.4622 69.4874C58.8976 78.1964 57.9649 87.7796 59.7822 97.025C61.5994 106.271 66.0849 114.763 72.6715 121.429C79.258 128.094 87.6498 132.634 96.7856 134.473C105.921 136.312 115.391 135.368 123.997 131.76C132.603 128.153 139.958 122.044 145.133 114.206C150.308 106.368 153.07 97.1533 153.07 87.7267C153.056 75.0904 148.09 62.9757 139.261 54.0404C130.431 45.1052 118.46 40.0792 105.974 40.0651V40.0651Z" fill="white"/>
<path d="M105.974 122.738C125.081 122.738 140.57 107.063 140.57 87.7267C140.57 68.3903 125.081 52.7151 105.974 52.7151C86.8666 52.7151 71.3772 68.3903 71.3772 87.7267C71.3772 107.063 86.8666 122.738 105.974 122.738Z" fill="#B72CC0"/>
<path opacity="0.7" d="M105.974 122.738C125.081 122.738 140.57 107.063 140.57 87.7267C140.57 68.3903 125.081 52.7151 105.974 52.7151C86.8666 52.7151 71.3772 68.3903 71.3772 87.7267C71.3772 107.063 86.8666 122.738 105.974 122.738Z" fill="white"/>
<path d="M102.105 66.7144C101.86 66.1107 101.597 65.5248 101.333 64.9389C100.851 63.918 95.5527 54.2863 95.193 54.4283C93.0995 55.1201 91.0758 56.0119 89.1492 57.0915C91.2544 60.2518 93.8948 63.3055 95.7632 66.6078C97.0345 69.068 98.0713 71.6452 98.8597 74.3043C99.1925 75.4386 99.6859 76.518 100.325 77.509C100.649 78.0041 101.069 78.4281 101.559 78.7559C102.048 79.0838 102.598 79.3088 103.175 79.4176C103.36 79.4518 103.551 79.4365 103.728 79.3732C104.14 79.1957 104.254 78.6631 104.29 78.2103C104.435 74.2601 103.688 70.3283 102.105 66.7144V66.7144Z" fill="#B72CC0"/>
<path d="M131.325 111.58C125.465 105.818 114.553 95.0326 109.965 90.159C106.456 86.475 101.684 84.8327 98.1755 81.2818C95.772 78.8583 94.8334 75.3696 93.8773 72.0762C93.3422 70.2208 92.3597 64.3797 89.6141 65.0366C89.5264 65.9953 90.0966 68.1968 89.079 68.8449C88.0615 69.4929 87.3246 67.5577 86.965 66.9984C86.6053 66.4392 83.4562 61.2016 83.5176 61.1572C82.5254 62.0134 81.5823 62.9263 80.6931 63.8914C83.7369 69.5728 88.5878 78.6986 89.7457 80.5805C91.3861 83.3591 89.7457 86.4306 87.7018 83.4479C86.4387 81.5925 80.7896 74.331 76.7106 69.1112C75.3726 71.2498 74.2696 73.53 73.4211 75.9111C76.6317 80.6782 80.2896 86.5638 85.5264 89.2269C86.3791 89.7197 87.3333 90.0051 88.3137 90.0606C89.2942 90.1161 90.2739 89.94 91.1755 89.5465C92.3597 88.9428 93.2983 87.8332 94.5878 87.5314C96.2018 87.1497 97.7896 88.1528 99.1317 89.1381C101.912 91.171 104.623 93.3104 107.193 95.6096C108.53 96.6168 109.751 97.7721 110.833 99.054C111.36 99.8352 111.465 101.548 110.588 102.188C110.588 102.516 109.325 102.463 109.149 102.418C108.686 102.247 108.258 101.991 107.886 101.664C106.737 100.883 105.509 100.199 104.325 99.4712C103.447 98.9031 102.237 98.326 101.325 98.8942C101.334 99.378 101.444 99.8544 101.648 100.292C101.852 100.73 102.146 101.118 102.509 101.433C104.828 103.992 107.386 106.317 110.149 108.375C110.66 108.79 111.235 109.117 111.851 109.343C112.16 109.454 112.491 109.492 112.816 109.451C113.142 109.411 113.454 109.295 113.728 109.112C114.272 108.703 114.526 107.976 115.114 107.629C115.399 107.489 115.715 107.425 116.031 107.444C116.348 107.462 116.654 107.563 116.921 107.736C118.167 108.455 119.114 109.84 120.307 110.701C122.345 112.416 124.254 114.282 126.018 116.285C127.94 114.902 129.718 113.326 131.325 111.58V111.58Z" fill="#B72CC0"/>
<path d="M105.974 122.738C110.291 122.742 114.57 121.923 118.588 120.324C112.903 115.139 103.86 107.008 101.149 105.233C98.7368 103.652 97.0702 106.12 95.6491 107.78C94.9561 108.597 94.1403 109.627 93.0175 109.858C91.4035 110.186 89.8333 108.49 89.7895 106.919C89.8342 105.675 90.3272 104.491 91.1754 103.59C91.9912 102.64 93.0263 101.815 93.4386 100.634C94.0877 98.7965 93.0263 96.8258 92 95.1658C91.6701 94.4479 91.0747 93.89 90.3421 93.6122C89.2895 93.3814 88.386 94.3047 87.6316 95.0681C86.7326 95.9891 85.7319 96.8023 84.6491 97.4916C83.994 97.9811 83.2084 98.2595 82.3947 98.2905C81.5081 98.1655 80.6764 97.7832 80 97.1898C78.258 95.9806 76.7156 94.5006 75.4298 92.8044C74.7193 91.9167 74.0263 90.9668 73.3333 90.0347C72.9474 89.511 71.3684 87.9752 71.3684 87.3716C71.3684 87.487 71.3684 87.6024 71.3684 87.7178C71.3673 92.3171 72.2616 96.8715 74.0002 101.121C75.7389 105.37 78.2879 109.231 81.5015 112.484C84.7151 115.736 88.5304 118.315 92.7294 120.075C96.9285 121.834 101.429 122.739 105.974 122.738V122.738Z" fill="#B72CC0"/>
<path d="M120.123 55.7688C119.956 57.6596 120.763 59.8967 123.43 63.4831C124.824 65.3562 126.281 67.1937 127.754 69.0136C128.903 70.4339 130.974 72.1117 130.956 74.0913C130.956 75.414 129.965 76.5148 128.956 77.3493C128.087 78.074 127.15 78.7103 126.158 79.249C125.342 79.684 124.403 80.2432 124.351 81.1842C124.298 82.1252 125.158 82.6401 125.895 83.075C128.684 84.7262 131.514 86.2945 134.386 87.78C135.631 88.428 137.281 88.9429 138.324 89.8927C139.053 90.5585 139.5 91.5084 140.281 92.1564C140.536 90.6917 140.642 89.2044 140.596 87.7178C140.595 80.9608 138.661 74.3485 135.028 68.6793C131.395 63.01 126.218 58.5261 120.123 55.7688V55.7688Z" fill="#B72CC0"/>
<path d="M119.903 76.728C120.338 76.4038 120.792 76.1073 121.263 75.8402C122.289 75.281 123.482 74.6596 123.754 73.5144C124.105 71.9698 122.579 70.7092 121.237 69.8836L117.061 67.3004C116.367 66.9164 115.732 66.432 115.175 65.8623C114.644 65.2035 114.226 64.4594 113.938 63.6607C113.091 61.612 112.376 59.5096 111.798 57.3668C111.579 56.5767 111.149 53.0614 109.947 52.9282C107.206 52.6128 104.438 52.6337 101.702 52.9903C102.403 52.946 104 57.2159 104.228 57.8462C105.294 60.6254 106.147 63.4834 106.781 66.3949C107.307 69.2534 110.816 70.6826 113.026 72.2361C113.36 72.4293 113.631 72.716 113.807 73.0617C113.92 73.5167 113.851 73.9987 113.614 74.4021C112.905 75.6838 112.123 76.9228 111.272 78.1128C110.424 79.3224 110.077 80.8201 110.307 82.2851C110.753 83.5792 111.553 84.7183 112.614 85.5696C120 92.7247 127.807 99.6134 134.798 107.106C136.29 104.841 137.515 102.406 138.447 99.853C138.702 99.1606 134.667 95.8672 134.14 95.4144C131.763 93.5058 129.088 91.9435 126.702 89.9905L120.061 84.5399C118.988 83.8303 118.155 82.8048 117.675 81.6015C117.536 81.0016 117.533 80.3775 117.667 79.7763C117.801 79.1751 118.068 78.6124 118.447 78.1306C118.861 77.5924 119.352 77.1197 119.903 76.728V76.728Z" fill="#B72CC0"/>
<g opacity="0.2">
<path d="M109.851 108.739C110.096 109.343 110.351 109.92 110.623 110.514C111.105 111.535 116.403 121.167 116.763 121.025C118.859 120.341 120.884 119.449 122.807 118.362C120.702 115.202 118.061 112.148 116.193 108.854C114.918 106.393 113.881 103.812 113.096 101.149C112.763 100.014 112.266 98.934 111.623 97.9444C111.298 97.4519 110.879 97.0302 110.391 96.7039C109.903 96.3777 109.356 96.1535 108.781 96.0446C108.6 95.9916 108.409 95.9916 108.228 96.0446C107.816 96.2133 107.702 96.7459 107.667 97.1987C107.506 101.164 108.253 105.114 109.851 108.739Z" fill="white"/>
<path d="M80.6492 63.9004C86.5088 69.6706 97.4123 80.4475 102.009 85.321C105.518 89.014 110.29 90.6474 113.798 94.1982C116.193 96.6217 117.14 100.11 118.088 103.404C118.623 105.259 119.614 111.1 122.36 110.444C122.447 109.485 121.877 107.283 122.895 106.635C123.912 105.987 124.649 107.914 125 108.482C125.351 109.05 128.509 114.27 128.456 114.323C129.438 113.459 130.375 112.543 131.263 111.58C128.219 105.89 123.316 96.7726 122.211 94.8907C120.57 92.1032 122.211 89.0317 124.246 92.0145C125.518 93.8698 131.158 101.14 135.246 106.351C136.582 104.212 137.685 101.932 138.535 99.5512C135.325 94.7841 131.658 88.8986 126.43 86.2354C125.577 85.7426 124.623 85.4572 123.643 85.4017C122.662 85.3463 121.682 85.5223 120.781 85.9158C119.597 86.5195 118.658 87.6291 117.368 87.9309C115.754 88.3127 114.167 87.3007 112.825 86.3153C110.044 84.2824 107.333 82.143 104.763 79.8527C103.605 78.8141 102 77.6955 101.123 76.3995C100.597 75.6183 100.491 73.905 101.368 73.2658C101.368 72.9374 102.623 72.9906 102.807 73.035C103.266 73.2154 103.693 73.4702 104.07 73.7896C105.219 74.5708 106.447 75.2632 107.632 75.9911C108.509 76.5593 109.711 77.1274 110.632 76.5593C110.624 76.0757 110.513 75.5994 110.307 75.1629C110.101 74.7264 109.805 74.3398 109.439 74.0293C107.13 71.4639 104.573 69.1384 101.807 67.0873C101.296 66.671 100.721 66.3412 100.105 66.1108C99.7941 66.0031 99.4628 65.9679 99.1362 66.0078C98.8097 66.0478 98.4962 66.1619 98.2193 66.3416C97.6843 66.75 97.4211 67.4868 96.8422 67.8241C96.5586 67.9683 96.2427 68.0351 95.9258 68.018C95.6089 68.0008 95.3019 67.9004 95.0351 67.7265C93.7895 66.9985 92.8334 65.6137 91.6492 64.7615C89.6032 63.0558 87.6857 61.1983 85.9123 59.2043C84.0062 60.5863 82.2428 62.1597 80.6492 63.9004V63.9004Z" fill="white"/>
<path d="M105.974 52.7151C101.658 52.7147 97.3795 53.5306 93.3596 55.1208C99.0526 60.314 108.096 68.4366 110.807 70.212C113.219 71.7922 114.886 69.3243 116.307 67.6554C117 66.8476 117.816 65.809 118.939 65.587C120.553 65.2497 122.123 66.9541 122.167 68.5254C122.119 69.7675 121.623 70.9488 120.772 71.8454C119.965 72.7953 118.93 73.6209 118.509 74.7927C117.86 76.6391 118.93 78.6099 119.956 80.261C120.286 80.9811 120.881 81.5419 121.614 81.8234C122.658 82.0542 123.57 81.131 124.325 80.3587C125.221 79.4408 126.219 78.6305 127.298 77.9441C127.955 77.4497 128.744 77.1681 129.561 77.1362C130.447 77.2632 131.279 77.6453 131.956 78.237C133.698 79.4462 135.241 80.9262 136.526 82.6224C137.228 83.5101 137.93 84.4688 138.623 85.4009C139.009 85.9158 140.588 87.4515 140.588 88.0641C140.588 87.9487 140.588 87.8333 140.588 87.7179C140.587 83.1193 139.69 78.5661 137.95 74.3181C136.21 70.0702 133.66 66.2108 130.445 62.9603C127.231 59.7099 123.415 57.1321 119.217 55.3742C115.018 53.6163 110.518 52.7128 105.974 52.7151V52.7151Z" fill="white"/>
<path d="M91.8508 119.685C92.0175 117.794 91.2105 115.548 88.5438 111.971C87.1491 110.089 85.6929 108.26 84.2193 106.44C83.0701 105.02 80.9912 103.333 81.0175 101.353C81.0175 100.031 82.0087 98.9388 83.0175 98.0955C83.8865 97.3736 84.8238 96.7402 85.8158 96.2046C86.6228 95.7608 87.5701 95.2015 87.5701 94.2694C87.5701 93.3373 86.7631 92.8135 86.0351 92.3786C83.2456 90.7274 80.4122 89.1561 77.5351 87.6648C76.2894 87.0167 74.6491 86.5107 73.6052 85.552C72.8684 84.8862 72.421 83.9452 71.6491 83.2883C71.3948 84.7531 71.289 86.2404 71.3333 87.7269C71.3389 94.4899 73.2794 101.107 76.9203 106.778C80.5612 112.449 85.7469 116.932 91.8508 119.685V119.685Z" fill="white"/>
<path d="M92.0526 98.7257C91.6209 99.054 91.1665 99.3506 90.693 99.6134C89.6754 100.182 88.4737 100.794 88.2105 101.948C87.8509 103.493 89.386 104.753 90.7281 105.579L94.9035 108.162C95.5977 108.543 96.233 109.024 96.7895 109.591C97.3204 110.25 97.7385 110.994 98.0263 111.793C98.8754 113.844 99.5904 115.95 100.167 118.096C100.377 118.886 100.816 122.401 102.009 122.534C103.328 122.69 104.654 122.77 105.982 122.774C107.417 122.772 108.849 122.681 110.272 122.499C109.57 122.543 107.965 118.273 107.746 117.634C106.68 114.854 105.823 111.996 105.184 109.085C104.667 106.236 101.158 104.807 98.9474 103.244C98.6099 103.056 98.3375 102.768 98.1667 102.419C98.1076 102.194 98.0943 101.959 98.1275 101.728C98.1606 101.498 98.2396 101.277 98.3597 101.078C99.0711 99.8026 99.85 98.5669 100.693 97.3763C101.544 96.168 101.894 94.6702 101.667 93.204C101.221 91.9099 100.421 90.7708 99.3597 89.9195C91.9649 82.7201 84.1579 75.8403 77.1404 68.3479C75.65 70.614 74.4254 73.0479 73.4912 75.6006C73.2456 76.293 77.2807 79.5775 77.807 80.0392C80.1842 81.9566 82.8597 83.519 85.2368 85.472L91.886 90.9226C92.9546 91.6337 93.7862 92.6547 94.2719 93.8521C94.4092 94.4536 94.411 95.0786 94.2774 95.6809C94.1438 96.2833 93.8781 96.8475 93.5 97.3319C93.0877 97.8658 92.6 98.3355 92.0526 98.7257V98.7257Z" fill="white"/>
</g>
<path opacity="0.1" d="M140.184 92.9822C137.667 105.925 114.561 117.794 96.0789 109.804C76.421 101.291 72.7193 74.3844 82.3421 62.196C78.3132 66.0111 75.2444 70.746 73.3918 76.0056C71.5392 81.2652 70.9565 86.897 71.6924 92.4309C72.4283 97.9647 74.4614 103.24 77.622 107.817C80.7826 112.394 84.9791 116.139 89.8612 118.741C94.7434 121.342 100.17 122.724 105.687 122.772C111.204 122.819 116.653 121.53 121.578 119.013C126.503 116.495 130.761 112.822 133.998 108.3C137.235 103.778 139.356 98.5381 140.184 93.0177V92.9822Z" fill="black"/>
<path opacity="0.6" d="M126.499 73.6739C127.789 65.6308 122.392 58.0522 114.444 56.7467C106.496 55.4411 99.0076 60.9029 97.7175 68.946C96.4274 76.9891 101.824 84.5677 109.772 85.8732C117.72 87.1788 125.209 81.717 126.499 73.6739Z" fill="white"/>
<path opacity="0.6" d="M130.412 93.9054C134.099 93.9054 137.088 90.8808 137.088 87.1498C137.088 83.4188 134.099 80.3943 130.412 80.3943C126.726 80.3943 123.737 83.4188 123.737 87.1498C123.737 90.8808 126.726 93.9054 130.412 93.9054Z" fill="white"/>
<path opacity="0.1" d="M71.3772 87.7267C71.3797 95.3439 73.8363 102.753 78.3744 108.83C82.9125 114.907 89.2847 119.32 96.5251 121.402C103.765 123.484 111.479 123.12 118.496 120.365C125.514 117.611 131.453 112.616 135.412 106.138C134.632 107.372 124.842 122.951 100.658 118.468C75.4737 113.799 71.3772 87.7355 71.807 82.2317C71.5214 84.0491 71.3777 85.8864 71.3772 87.7267V87.7267Z" fill="black"/>
<path d="M357.381 181.051C366.139 162.585 358.447 140.429 340.199 131.565C321.952 122.702 300.059 130.487 291.3 148.953C282.542 167.42 290.234 189.575 308.482 198.439C326.73 207.303 348.622 199.518 357.381 181.051Z" fill="#2F589A"/>
<path opacity="0.116667" d="M351.588 176.167C358.693 159.512 351.111 140.183 334.654 132.993C318.197 125.803 299.097 133.476 291.992 150.13C284.888 166.785 292.469 186.114 308.926 193.304C325.383 200.494 344.484 192.821 351.588 176.167Z" fill="white"/>
<path opacity="0.233333" d="M344.899 173.535C351.517 159.223 345.418 142.192 331.276 135.494C317.134 128.796 300.304 134.968 293.686 149.279C287.067 163.591 293.166 180.623 307.308 187.321C321.45 194.019 338.28 187.847 344.899 173.535Z" fill="white"/>
<path opacity="0.35" d="M339.021 168.831C344.075 156.383 338.202 142.145 325.901 137.029C313.601 131.914 299.532 137.858 294.477 150.306C289.422 162.754 295.296 176.992 307.596 182.107C319.897 187.223 333.966 181.278 339.021 168.831Z" fill="white"/>
<path opacity="0.466667" d="M332.65 165.368C336.791 155.074 331.901 143.332 321.729 139.141C311.557 134.951 299.954 139.899 295.813 150.193C291.672 160.487 296.562 172.229 306.734 176.42C316.906 180.61 328.509 175.662 332.65 165.368Z" fill="white"/>
<path opacity="0.583333" d="M317.892 170.586C325.865 167.133 329.562 157.793 326.15 149.725C322.738 141.657 313.509 137.916 305.536 141.369C297.564 144.822 293.867 154.161 297.279 162.229C300.691 170.297 309.92 174.039 317.892 170.586Z" fill="white"/>
<path opacity="0.7" d="M317.331 162.42C321.825 157.872 321.825 150.498 317.331 145.949C312.837 141.401 305.55 141.401 301.055 145.949C296.561 150.498 296.561 157.872 301.055 162.42C305.55 166.969 312.837 166.969 317.331 162.42Z" fill="white"/>
<path opacity="0.05" d="M358.351 178.771C356.561 183.293 353.909 187.413 350.546 190.897C347.183 194.382 343.175 197.161 338.75 199.078C334.326 200.994 329.571 202.01 324.759 202.067C319.946 202.124 315.169 201.222 310.702 199.411C310.105 199.171 309.526 198.913 308.947 198.647C317.32 198.698 325.457 195.846 332.006 190.567C338.555 185.288 343.121 177.9 344.944 169.63C346.768 161.36 345.739 152.708 342.029 145.112C338.319 137.516 332.152 131.435 324.553 127.878C330.522 127.924 336.39 129.443 341.648 132.305C346.906 135.166 351.394 139.282 354.724 144.297C358.053 149.312 360.123 155.073 360.753 161.08C361.384 167.088 360.556 173.161 358.342 178.771H358.351Z" fill="#455A64"/>
<path opacity="0.1" d="M346.439 138.842C351.865 143.662 355.636 150.104 357.206 157.236C358.777 164.369 358.067 171.821 355.178 178.518C352.288 185.215 347.37 190.808 341.133 194.49C334.897 198.173 327.665 199.753 320.482 199.002C327.284 197.959 333.651 194.972 338.832 190.392C344.013 185.812 347.794 179.829 349.729 173.148C351.664 166.467 351.673 159.365 349.756 152.679C347.838 145.993 344.073 140 338.903 135.406C337.427 134.096 335.849 132.909 334.184 131.855C338.707 133.291 342.882 135.671 346.439 138.842V138.842Z" fill="#455A64"/>
<path opacity="0.5" d="M319.446 183.432C322.045 177.563 319.45 170.672 313.65 168.041C307.85 165.41 301.041 168.036 298.441 173.906C295.842 179.776 298.436 186.667 304.237 189.298C310.037 191.928 316.846 189.302 319.446 183.432Z" fill="white"/>
<path opacity="0.5" d="M323.627 152.611C327.548 147.549 326.671 140.228 321.669 136.26C316.666 132.292 309.432 133.179 305.511 138.241C301.59 143.304 302.466 150.625 307.469 154.593C312.472 158.561 319.706 157.674 323.627 152.611Z" fill="white"/>
<path opacity="0.5" d="M294.562 164.257C293.519 163.835 292.624 163.109 291.989 162.172C291.355 161.235 291.009 160.129 290.996 158.993C290.982 157.857 291.302 156.742 291.915 155.79C292.527 154.838 293.405 154.092 294.437 153.645C295.469 153.198 296.609 153.07 297.713 153.279C298.816 153.487 299.834 154.022 300.637 154.816C301.44 155.61 301.992 156.627 302.224 157.739C302.455 158.85 302.356 160.007 301.939 161.061C301.379 162.475 300.287 163.606 298.904 164.205C297.521 164.804 295.959 164.823 294.562 164.257V164.257Z" fill="white"/>
<g opacity="0.1">
<path d="M397.5 129.45C396.29 127.284 393.202 123.662 386.097 123.662C378.711 123.662 366.623 127.443 350.132 134.909L348.14 135.797L347.369 136.134C347.623 136.338 347.877 136.542 348.123 136.773L348.491 136.613L350.491 135.726C366.851 128.313 378.825 124.558 386.079 124.558C392.728 124.558 395.597 127.905 396.711 129.885C401.623 138.655 392.167 150.364 365.132 169.042C363.547 170.143 361.924 171.24 360.263 172.335C353.053 177.129 345.263 181.932 337.044 186.636C328.614 191.474 320.062 196.011 312.009 199.908C310.211 200.796 308.439 201.621 306.702 202.42C289.219 210.516 276.5 214.617 268.877 214.617C262.219 214.617 259.36 211.271 258.246 209.291C253.509 200.831 261.579 190.249 286.088 172.779L287.886 171.501L288.211 171.261C288.149 170.942 288.105 170.622 288.062 170.294L287.377 170.782L285.623 172.06C260.649 189.814 252.509 200.769 257.553 209.726C258.755 211.892 261.851 215.514 268.956 215.514C276.702 215.514 289.553 211.386 307.149 203.237C309.149 202.349 311.193 201.337 313.29 200.325C321.114 196.508 329.404 192.105 337.579 187.418C345.535 182.855 353.079 178.221 360.097 173.578C362.021 172.306 363.898 171.039 365.728 169.779C393.158 150.773 402.684 138.708 397.5 129.45Z" fill="white"/>
</g>
<g opacity="0.1">
<path d="M363.64 166.84C362.702 167.488 361.754 168.128 360.798 168.776C353.088 173.978 344.684 179.206 335.737 184.373C326.605 189.601 317.316 194.484 308.719 198.576C307.667 199.082 306.623 199.571 305.597 200.05C293.816 205.501 277.886 211.999 268.868 211.999C263.816 211.999 261.544 209.833 260.526 208.013C256.728 201.222 265.079 191.04 287.597 174.998L288.798 174.111C288.868 174.413 288.956 174.714 289.044 174.998L288.105 175.673C266.035 191.404 257.763 201.231 261.29 207.533C262.167 209.14 264.237 211.084 268.868 211.084C277.728 211.084 293.535 204.631 305.237 199.215L307.711 198.053C316.483 193.898 325.965 188.927 335.307 183.574C344.447 178.327 353.044 172.983 360.895 167.666C361.658 167.16 362.404 166.645 363.149 166.13C395.368 143.937 396.009 135.815 393.684 131.66C392.807 130.053 390.737 128.109 386.105 128.109C377.684 128.109 362.886 134.012 351.956 138.966L350.912 139.445C350.693 139.215 350.482 138.984 350.254 138.762L351.597 138.158C362.605 133.169 377.535 127.221 386.105 127.221C391.158 127.221 393.43 129.387 394.447 131.207C396.939 135.655 396.439 144.195 363.64 166.84Z" fill="white"/>
</g>
<g opacity="0.2">
<path d="M362.158 164.639L360.982 165.446C352.877 170.986 343.956 176.552 334.439 182.002C324.71 187.577 314.842 192.744 305.789 196.987L304.509 197.582C288.193 205.128 275.561 209.291 268.868 209.291C265.833 209.291 263.789 208.403 262.816 206.628C259.912 201.443 268.517 191.785 289.132 177.102L289.605 176.765C289.702 177.058 289.798 177.342 289.912 177.653L289.631 177.848C264.86 195.505 261.789 203.015 263.579 206.219C264.386 207.666 266.167 208.403 268.842 208.403C275.386 208.403 287.912 204.275 304.114 196.774L304.86 196.428C314.035 192.149 324.096 186.912 333.982 181.23C343.631 175.673 352.737 170.009 360.956 164.363L361.64 163.893C383.526 148.802 394.096 137.794 391.368 132.938C390.561 131.491 388.781 130.754 386.105 130.754C379.895 130.754 368.149 134.527 353.026 141.407L352.728 141.54L352.149 140.839L352.675 140.599C367.903 133.693 379.781 129.893 386.105 129.893C389.14 129.893 391.184 130.781 392.158 132.556C395.219 137.98 385.132 148.793 362.158 164.639Z" fill="white"/>
</g>
<g opacity="0.3">
<path d="M369.772 143.857L369.596 144.345C369.245 145.313 367.561 148.225 359.5 154.572L359.07 154.909C349.81 161.939 340.088 168.324 329.974 174.022C318.202 180.769 306.789 186.388 297.824 189.841L297.298 190.045C291.886 192.096 287.649 193.232 285.324 193.232C285.031 193.235 284.737 193.211 284.447 193.161L283.947 193.055L284.123 192.566C284.438 191.679 285.877 189.131 292.64 183.6C292.781 183.867 292.93 184.124 293.088 184.382C287.649 188.82 285.816 191.261 285.193 192.371H285.316C287.509 192.371 291.517 191.306 296.667 189.362L297.544 189.042C306.465 185.598 317.842 179.996 329.57 173.276C339.641 167.585 349.318 161.209 358.535 154.19L359.228 153.649C365.754 148.473 367.851 145.73 368.517 144.558H368.368C366.149 144.558 362.026 145.668 356.728 147.683C356.596 147.417 356.456 147.151 356.307 146.893C361.745 144.816 366.026 143.671 368.368 143.671C368.662 143.667 368.956 143.691 369.245 143.742L369.772 143.857Z" fill="white"/>
</g>
<path d="M390.298 133.604C392.588 137.705 380.509 149.317 360.965 162.801C352.895 168.376 343.544 174.262 333.404 180.076C322.877 186.095 312.763 191.341 303.64 195.558C282.64 205.278 267.026 209.602 264.763 205.562C262.623 201.728 273.062 191.315 290.421 178.931C290.904 180.12 291.439 181.283 292.035 182.42C285.456 187.746 281.93 191.9 282.912 193.667C283.895 195.434 289.763 194.386 298.333 191.084C309.465 186.565 320.264 181.249 330.649 175.176C340.81 169.449 350.575 163.031 359.877 155.966C367.632 149.902 371.921 145.162 370.851 143.245C369.781 141.327 364.114 142.499 355.667 145.739C355.018 144.656 354.316 143.609 353.57 142.605C373.456 133.595 388.07 129.707 390.298 133.604Z" fill="url(#paint1_linear_261_766)"/>
</g>
<defs>
<linearGradient id="paint0_linear_261_766" x1="79.4627" y1="355.063" x2="135.135" y2="318.11" gradientUnits="userSpaceOnUse">
<stop stop-color="#00B8FF"/>
<stop offset="0.8" stop-color="#455A64"/>
<stop offset="1" stop-color="#455A64" stop-opacity="0"/>
</linearGradient>
<linearGradient id="paint1_linear_261_766" x1="339.549" y1="196.041" x2="318.768" y2="151.984" gradientUnits="userSpaceOnUse">
<stop stop-color="#B72CC0"/>
<stop offset="0.3" stop-color="#B72CC0"/>
<stop offset="0.99" stop-color="#27DCBE" stop-opacity="0.99"/>
<stop offset="1" stop-color="#00B8FF"/>
</linearGradient>
<clipPath id="clip0_261_766">
<rect width="417" height="372" fill="white"/>
</clipPath>
</defs>
</svg>
