<svg width="208" height="314" viewBox="0 0 208 314" fill="none" xmlns="http://www.w3.org/2000/svg">
<path d="M1.24977 311.35C1.48316 311.116 1.79917 310.984 2.1283 310.985C2.45743 310.986 2.7727 311.119 3.00477 311.355C3.23683 311.592 3.36668 311.911 3.36574 312.245C3.3648 312.578 3.23316 312.897 2.99977 313.132C2.88421 313.248 2.74714 313.34 2.5964 313.403C2.44566 313.465 2.2842 313.497 2.12124 313.497C1.95827 313.496 1.79699 313.463 1.6466 313.4C1.49622 313.336 1.35968 313.243 1.24477 313.126C1.12986 313.01 1.03884 312.871 0.976903 312.718C0.914967 312.566 0.88333 312.402 0.883794 312.237C0.884258 312.072 0.916818 311.909 0.979612 311.757C1.04241 311.605 1.13421 311.467 1.24977 311.35Z" fill="#FAFAFA"/>
<path d="M158.69 1.97192C158.863 1.7959 159.084 1.67587 159.324 1.62703C159.565 1.57819 159.815 1.60274 160.041 1.69756C160.268 1.79239 160.462 1.95323 160.599 2.15971C160.735 2.36619 160.808 2.60901 160.808 2.85742C160.808 3.10583 160.735 3.34866 160.599 3.55513C160.462 3.76161 160.268 3.92245 160.041 4.01728C159.815 4.1121 159.565 4.13665 159.324 4.08781C159.084 4.03897 158.863 3.91894 158.69 3.74292C158.458 3.50774 158.328 3.18934 158.328 2.85742C158.328 2.5255 158.458 2.20711 158.69 1.97192Z" fill="#FAFAFA"/>
</svg>
