<svg width="341" height="177" viewBox="0 0 341 177" fill="none" xmlns="http://www.w3.org/2000/svg">
<path opacity="0.3" d="M47.9737 86.8544C40.5135 86.8544 33.2209 84.6156 27.018 80.4212C20.8151 76.2269 15.9805 70.2652 13.1256 63.2902C10.2707 56.3152 9.52377 48.6401 10.9792 41.2355C12.4346 33.8308 16.027 27.0293 21.3021 21.6908C26.5773 16.3524 33.2982 12.7169 40.615 11.244C47.9319 9.77111 55.516 10.527 62.4083 13.4162C69.3006 16.3053 75.1915 21.1979 79.3362 27.4753C83.4808 33.7526 85.693 41.1327 85.693 48.6824C85.693 58.8063 81.719 68.5155 74.6453 75.6741C67.5715 82.8327 57.9775 86.8544 47.9737 86.8544ZM47.9737 11.4781C40.687 11.4781 33.564 13.6648 27.5053 17.7617C21.4467 21.8585 16.7245 27.6815 13.936 34.4943C11.1476 41.3071 10.418 48.8037 11.8395 56.0361C13.2611 63.2686 16.7699 69.912 21.9224 75.1263C27.0749 80.3405 33.6395 83.8915 40.7862 85.3301C47.9328 86.7688 55.3406 86.0304 62.0726 83.2085C68.8046 80.3865 74.5585 75.6077 78.6068 69.4763C82.6551 63.345 84.8158 56.1365 84.8158 48.7623C84.8158 38.8739 80.9342 29.3906 74.025 22.3984C67.1158 15.4063 57.7448 11.4781 47.9737 11.4781Z" fill="white"/>
<path opacity="0.2" d="M47.9738 89.6241C39.981 89.6241 32.1677 87.2255 25.522 82.7316C18.8762 78.2378 13.6965 71.8505 10.6377 64.3775C7.57904 56.9045 6.77873 48.6815 8.33805 40.7482C9.89737 32.8149 13.7463 25.5277 19.398 19.8081C25.0498 14.0885 32.2506 10.1935 40.0898 8.61544C47.929 7.03741 56.0546 7.84731 63.4389 10.9427C70.8233 14.0381 77.1349 19.28 81.5754 26.0056C86.016 32.7311 88.3861 40.6381 88.3861 48.7268C88.3745 59.5699 84.1131 69.9654 76.5368 77.6326C68.9605 85.2997 58.6883 89.6123 47.9738 89.6241ZM47.9738 8.71733C40.1545 8.71733 32.5108 11.0638 26.0093 15.4602C19.5078 19.8565 14.4405 26.1051 11.4482 33.4159C8.45585 40.7266 7.67292 48.7712 9.19839 56.5323C10.7239 64.2934 14.4892 71.4224 20.0183 77.0178C25.5474 82.6133 32.5919 86.4238 40.2609 87.9676C47.93 89.5114 55.8792 88.719 63.1032 85.6908C70.3273 82.6626 76.5019 77.5345 80.846 70.9549C85.1902 64.3754 87.5089 56.64 87.5089 48.7268C87.4996 38.1185 83.3313 27.9474 75.9191 20.4462C68.5068 12.945 58.4563 8.72673 47.9738 8.71733Z" fill="white"/>
<path opacity="0.1" d="M47.9736 92.9972C39.3146 92.9972 30.85 90.3987 23.6503 85.5303C16.4506 80.6618 10.8392 73.7422 7.5255 65.6463C4.21184 57.5504 3.34484 48.6419 5.03413 40.0474C6.72341 31.4529 10.8931 23.5583 17.016 17.362C23.1388 11.1657 30.9398 6.94592 39.4324 5.23636C47.925 3.5268 56.7279 4.40421 64.7277 7.75763C72.7276 11.111 79.5652 16.7899 84.3759 24.076C89.1866 31.3621 91.7543 39.9282 91.7543 48.6911C91.7334 60.4353 87.1141 71.6925 78.9082 79.9969C70.7022 88.3013 59.5785 92.976 47.9736 92.9972ZM47.9736 5.27275C39.4881 5.27275 31.1931 7.81919 24.1377 12.5901C17.0822 17.3609 11.5832 24.142 8.33592 32.0756C5.08865 40.0093 4.23903 48.7393 5.89447 57.1616C7.54991 65.5839 11.6361 73.3203 17.6362 79.3925C23.6364 85.4647 31.2811 89.5999 39.6035 91.2752C47.926 92.9505 56.5525 92.0907 64.3921 88.8044C72.2317 85.5182 78.9323 79.9531 83.6466 72.813C88.3609 65.6729 90.8771 57.2784 90.8771 48.6911C90.847 37.1885 86.316 26.1662 78.2756 18.0359C70.2351 9.90566 59.3398 5.32935 47.9736 5.30826V5.27275Z" fill="white"/>
<path opacity="0.1" d="M47.9737 97.2672C38.485 97.2672 29.2095 94.4196 21.32 89.0845C13.4306 83.7495 7.28172 76.1666 3.65096 67.2948C0.0202062 58.4231 -0.929322 48.661 0.922464 39.2431C2.77425 29.8252 7.34417 21.1745 14.0543 14.3851C20.7644 7.59572 29.3133 2.97254 38.6199 1.10026C47.9264 -0.772026 57.5726 0.190679 66.3385 3.86663C75.1044 7.54258 82.5963 13.7666 87.8666 21.7517C93.137 29.7368 95.9491 39.1242 95.9474 48.7267C95.9334 61.5977 90.8743 73.9373 81.8803 83.0376C72.8862 92.1379 60.692 97.2555 47.9737 97.2672ZM47.9737 1.06507C38.6589 1.06507 29.5533 3.86038 21.8083 9.09751C14.0633 14.3346 8.02684 21.7784 4.46222 30.4874C0.897599 39.1964 -0.0350657 48.7796 1.78216 58.025C3.59939 67.2705 8.08489 75.763 14.6715 82.4286C21.258 89.0942 29.6498 93.6335 38.7856 95.4726C47.9215 97.3116 57.391 96.3677 65.9967 92.7603C74.6025 89.1529 81.958 83.044 87.133 75.2061C92.308 67.3682 95.0702 58.1533 95.0702 48.7267C95.0563 36.0904 90.0898 23.9757 81.2606 15.0404C72.4313 6.10518 60.4602 1.07917 47.9737 1.06507Z" fill="white"/>
<path d="M47.9739 83.7384C67.0811 83.7384 82.5704 68.0631 82.5704 48.7267C82.5704 29.3903 67.0811 13.7151 47.9739 13.7151C28.8668 13.7151 13.3774 29.3903 13.3774 48.7267C13.3774 68.0631 28.8668 83.7384 47.9739 83.7384Z" fill="#B72CC0"/>
<path opacity="0.7" d="M47.9739 83.7384C67.0811 83.7384 82.5704 68.0631 82.5704 48.7267C82.5704 29.3903 67.0811 13.7151 47.9739 13.7151C28.8668 13.7151 13.3774 29.3903 13.3774 48.7267C13.3774 68.0631 28.8668 83.7384 47.9739 83.7384Z" fill="white"/>
<path d="M44.1056 27.7144C43.8599 27.1107 43.5968 26.5248 43.3336 25.9389C42.8512 24.918 37.5529 15.2863 37.1933 15.4283C35.0998 16.1201 33.0761 17.0119 31.1494 18.0915C33.2547 21.2518 35.895 24.3055 37.7634 27.6078C39.0347 30.068 40.0716 32.6452 40.8599 35.3043C41.1928 36.4386 41.6862 37.518 42.3249 38.509C42.6496 39.0041 43.0693 39.4281 43.559 39.7559C44.0487 40.0838 44.5985 40.3088 45.1757 40.4176C45.3606 40.4518 45.5511 40.4365 45.7284 40.3732C46.1406 40.1957 46.2547 39.6631 46.2898 39.2103C46.4353 35.2601 45.6882 31.3283 44.1056 27.7144Z" fill="#B72CC0"/>
<path d="M73.3249 72.5797C67.4653 66.8184 56.553 56.0326 51.9652 51.159C48.4565 47.475 43.6845 45.8327 40.1758 42.2818C37.7723 39.8583 36.8337 36.3696 35.8775 33.0762C35.3424 31.2208 34.36 25.3797 31.6144 26.0366C31.5266 26.9953 32.0968 29.1968 31.0793 29.8449C30.0617 30.4929 29.3249 28.5577 28.9652 27.9984C28.6056 27.4392 25.4565 22.2016 25.5179 22.1572C24.5256 23.0134 23.5826 23.9263 22.6933 24.8914C25.7372 30.5728 30.5881 39.6986 31.7459 41.5805C33.3863 44.3591 31.7459 47.4306 29.7021 44.4479C28.4389 42.5925 22.7898 35.331 18.7109 30.1112C17.3729 32.2498 16.2699 34.53 15.4214 36.9111C18.6319 41.6782 22.2898 47.5638 27.5266 50.2269C28.3793 50.7197 29.3336 51.0051 30.314 51.0606C31.2944 51.1161 32.2741 50.9401 33.1758 50.5465C34.36 49.9428 35.2986 48.8332 36.5881 48.5314C38.2021 48.1497 39.7898 49.1528 41.1319 50.1381C43.9126 52.171 46.6231 54.3104 49.1933 56.6096C50.5298 57.6168 51.7509 58.7721 52.8337 60.054C53.36 60.8352 53.4653 62.5485 52.5881 63.1876C52.5881 63.5161 51.3249 63.4628 51.1495 63.4184C50.6864 63.2471 50.2583 62.9914 49.8863 62.6639C48.7372 61.8827 47.5091 61.1991 46.3249 60.4712C45.4477 59.9031 44.2372 59.326 43.3249 59.8942C43.3339 60.378 43.4442 60.8544 43.6483 61.292C43.8524 61.7296 44.1458 62.1185 44.5091 62.4331C46.8279 64.9918 49.3867 67.3166 52.1495 69.375C52.66 69.7905 53.235 70.1174 53.8512 70.3426C54.1603 70.4543 54.4909 70.4915 54.8167 70.4515C55.1426 70.4114 55.4547 70.2951 55.7284 70.1118C56.2723 69.7035 56.5266 68.9755 57.1144 68.6293C57.3994 68.489 57.7152 68.4252 58.0316 68.4438C58.348 68.4625 58.6544 68.563 58.9214 68.7359C60.167 69.4549 61.1144 70.8398 62.3074 71.7008C64.3453 73.4159 66.2541 75.2823 68.0179 77.2846C69.9398 75.9022 71.7179 74.3258 73.3249 72.5797Z" fill="#B72CC0"/>
<path d="M47.9739 83.7383C52.2911 83.7417 56.5703 82.9226 60.588 81.3237C54.9037 76.1394 45.8599 68.0079 43.1494 66.2325C40.7371 64.6524 39.0704 67.1202 37.6494 68.7803C36.9564 69.597 36.1406 70.6267 35.0178 70.8575C33.4037 71.186 31.8336 69.4904 31.7897 67.9192C31.8345 66.6755 32.3275 65.4913 33.1757 64.5902C33.9915 63.6404 35.0266 62.8148 35.4388 61.6341C36.088 59.7965 35.0266 57.8258 34.0002 56.1658C33.6703 55.4479 33.0749 54.89 32.3423 54.6122C31.2897 54.3814 30.3862 55.3047 29.6318 56.0681C28.7329 56.9891 27.7321 57.8023 26.6494 58.4916C25.9943 58.9811 25.2087 59.2595 24.395 59.2905C23.5084 59.1655 22.6766 58.7832 22.0002 58.1898C20.2582 56.9806 18.7158 55.5006 17.4301 53.8044C16.7195 52.9167 16.0266 51.9668 15.3336 51.0347C14.9476 50.511 13.3687 48.9752 13.3687 48.3716C13.3687 48.487 13.3687 48.6024 13.3687 48.7178C13.3675 53.3171 14.2618 57.8715 16.0005 62.1209C17.7391 66.3704 20.2881 70.2315 23.5017 73.4836C26.7154 76.7358 30.5307 79.3154 34.7297 81.0749C38.9287 82.8344 43.4292 83.7395 47.9739 83.7383Z" fill="#B72CC0"/>
<path d="M62.1229 16.7688C61.9563 18.6596 62.7633 20.8967 65.4299 24.4831C66.8247 26.3562 68.2808 28.1937 69.7545 30.0136C70.9036 31.4339 72.9738 33.1117 72.9563 35.0913C72.9563 36.414 71.965 37.5148 70.9563 38.3493C70.0874 39.074 69.1502 39.7103 68.158 40.249C67.3422 40.684 66.4036 41.2432 66.351 42.1842C66.2984 43.1252 67.158 43.6401 67.8949 44.075C70.6843 45.7262 73.5147 47.2945 76.3861 48.78C77.6317 49.428 79.2808 49.9429 80.3247 50.8927C81.0527 51.5585 81.5001 52.5084 82.2808 53.1564C82.536 51.6917 82.6418 50.2044 82.5966 48.7178C82.5953 41.9608 80.6614 35.3485 77.0284 29.6793C73.3954 24.01 68.2186 19.5261 62.1229 16.7688Z" fill="#B72CC0"/>
<path d="M61.9039 37.728C62.3385 37.4038 62.7926 37.1073 63.2636 36.8402C64.2899 36.281 65.4828 35.6596 65.7548 34.5144C66.1057 32.9698 64.5793 31.7092 63.2372 30.8836L59.0618 28.3004C58.3673 27.9164 57.732 27.432 57.1758 26.8623C56.6449 26.2035 56.2268 25.4594 55.939 24.6607C55.0912 22.612 54.3763 20.5096 53.7986 18.3668C53.5793 17.5767 53.1495 14.0614 51.9478 13.9282C49.2068 13.6128 46.4382 13.6337 43.7021 13.9903C44.4039 13.946 46.0004 18.2159 46.2285 18.8462C47.2944 21.6254 48.1478 24.4834 48.7811 27.3949C49.3074 30.2534 52.8162 31.6826 55.0267 33.2361C55.3602 33.4293 55.6313 33.716 55.8074 34.0617C55.9207 34.5167 55.8513 34.9987 55.6144 35.4021C54.9052 36.6838 54.1232 37.9228 53.2723 39.1128C52.424 40.3224 52.0777 41.8201 52.3074 43.2851C52.7531 44.5792 53.5532 45.7183 54.6144 46.5696C62.0004 53.7247 69.8074 60.6134 76.7986 68.1057C78.2907 65.8406 79.5154 63.4065 80.4478 60.853C80.7021 60.1606 76.6671 56.8672 76.1407 56.4144C73.7635 54.5058 71.0881 52.9435 68.7021 50.9905L62.0618 45.5399C60.9884 44.8303 60.1557 43.8048 59.6758 42.6015C59.5368 42.0016 59.534 41.3775 59.6677 40.7763C59.8014 40.1751 60.0681 39.6124 60.4478 39.1306C60.8616 38.5924 61.3524 38.1197 61.9039 37.728Z" fill="#B72CC0"/>
<g opacity="0.2">
<path d="M51.8511 69.739C52.0967 70.3427 52.3511 70.9197 52.623 71.5145C53.1055 72.5354 58.4037 82.1671 58.7634 82.0251C60.8597 81.3409 62.8842 80.4488 64.8072 79.3619C62.702 76.2016 60.0616 73.1479 58.1932 69.8544C56.9182 67.3929 55.8812 64.8124 55.0967 62.149C54.7628 61.0137 54.2663 59.934 53.623 58.9444C53.2984 58.4519 52.8797 58.0302 52.3916 57.7039C51.9035 57.3777 51.3559 57.1535 50.7809 57.0446C50.6004 56.9916 50.4088 56.9916 50.2283 57.0446C49.816 57.2133 49.702 57.7459 49.6669 58.1987C49.5061 62.1644 50.2537 66.1141 51.8511 69.739Z" fill="white"/>
<path d="M22.6494 24.9004C28.5091 30.6706 39.4126 41.4475 44.0091 46.321C47.5178 50.014 52.2898 51.6474 55.7985 55.1982C58.1933 57.6217 59.1406 61.1104 60.088 64.4039C60.6231 66.2592 61.6143 72.1004 64.3599 71.4435C64.4477 70.4848 63.8775 68.2832 64.895 67.6352C65.9126 66.9871 66.6494 68.9135 67.0003 69.4816C67.3512 70.0498 70.5091 75.2696 70.4564 75.3228C71.4387 74.4586 72.3756 73.543 73.2634 72.5798C70.2196 66.8895 65.3161 57.7726 64.2108 55.8907C62.5705 53.1032 64.2108 50.0317 66.2459 53.0145C67.5178 54.8698 73.1582 62.1402 77.2459 67.3511C78.5821 65.2115 79.6851 62.9315 80.5354 60.5512C77.3249 55.7841 73.6582 49.8986 68.4301 47.2354C67.5774 46.7426 66.6232 46.4572 65.6428 46.4017C64.6624 46.3463 63.6826 46.5223 62.781 46.9158C61.5968 47.5195 60.6582 48.6291 59.3687 48.9309C57.7547 49.3127 56.167 48.3007 54.8248 47.3153C52.0441 45.2824 49.3336 43.143 46.7634 40.8527C45.6056 39.8141 44.0003 38.6955 43.1231 37.3995C42.5968 36.6183 42.4915 34.905 43.3687 34.2658C43.3687 33.9374 44.6231 33.9906 44.8073 34.035C45.2661 34.2154 45.6928 34.4702 46.0705 34.7896C47.2196 35.5708 48.4477 36.2632 49.6319 36.9911C50.5091 37.5593 51.7108 38.1274 52.6319 37.5593C52.6239 37.0757 52.5132 36.5994 52.3074 36.1629C52.1015 35.7264 51.8053 35.3398 51.4389 35.0293C49.1298 32.4639 46.5732 30.1384 43.8073 28.0873C43.2959 27.671 42.7212 27.3412 42.1056 27.1108C41.7943 27.0031 41.463 26.9679 41.1365 27.0078C40.8099 27.0478 40.4965 27.1619 40.2196 27.3416C39.6845 27.75 39.4213 28.4868 38.8424 28.8241C38.5588 28.9683 38.243 29.0351 37.9261 29.018C37.6092 29.0008 37.3022 28.9004 37.0354 28.7265C35.7898 27.9985 34.8336 26.6137 33.6494 25.7615C31.6035 24.0558 29.6859 22.1983 27.9126 20.2043C26.0064 21.5863 24.2431 23.1597 22.6494 24.9004Z" fill="white"/>
<path d="M47.9739 13.7151C43.6578 13.7147 39.3797 14.5306 35.3599 16.1208C41.0528 21.314 50.0967 29.4366 52.8072 31.212C55.2195 32.7922 56.8862 30.3243 58.3072 28.6554C59.0002 27.8476 59.816 26.809 60.9388 26.587C62.5528 26.2497 64.123 27.9541 64.1669 29.5254C64.1192 30.7675 63.623 31.9488 62.7722 32.8454C61.9651 33.7953 60.93 34.6209 60.509 35.7927C59.8599 37.6391 60.93 39.6099 61.9564 41.261C62.286 41.9811 62.8811 42.5419 63.6142 42.8234C64.6581 43.0542 65.5704 42.131 66.3248 41.3587C67.2209 40.4408 68.2188 39.6305 69.2985 38.9441C69.955 38.4497 70.7439 38.1681 71.5616 38.1362C72.4476 38.2632 73.2789 38.6453 73.9564 39.237C75.6984 40.4462 77.2408 41.9262 78.5265 43.6224C79.2283 44.5101 79.93 45.4688 80.623 46.4009C81.009 46.9158 82.5879 48.4515 82.5879 49.0641C82.5879 48.9487 82.5879 48.8333 82.5879 48.7179C82.5868 44.1193 81.6905 39.5661 79.9502 35.3181C78.21 31.0702 75.6599 27.2108 72.4456 23.9603C69.2312 20.7099 65.4157 18.1321 61.2168 16.3742C57.0179 14.6163 52.5179 13.7128 47.9739 13.7151Z" fill="white"/>
<path d="M33.8511 80.6848C34.0178 78.794 33.2107 76.548 30.5441 72.9705C29.1493 71.0886 27.6932 69.2599 26.2195 67.44C25.0704 66.0197 22.9914 64.333 23.0178 62.3534C23.0178 61.0307 24.009 59.9388 25.0178 59.0955C25.8868 58.3736 26.8241 57.7402 27.816 57.2046C28.623 56.7608 29.5704 56.2015 29.5704 55.2694C29.5704 54.3373 28.7634 53.8135 28.0353 53.3786C25.2458 51.7274 22.4125 50.1561 19.5353 48.6648C18.2897 48.0167 16.6493 47.5107 15.6055 46.552C14.8686 45.8862 14.4213 44.9452 13.6493 44.2883C13.3951 45.7531 13.2892 47.2404 13.3335 48.7269C13.3391 55.4899 15.2796 62.1066 18.9205 67.7776C22.5615 73.4487 27.7471 77.9316 33.8511 80.6848Z" fill="white"/>
<path d="M34.0526 59.7257C33.6209 60.054 33.1665 60.3506 32.693 60.6134C31.6754 61.1815 30.4737 61.794 30.2105 62.9481C29.8509 64.4927 31.386 65.7533 32.7281 66.5788L36.9035 69.1621C37.5977 69.5429 38.233 70.0244 38.7895 70.5913C39.3204 71.2501 39.7385 71.9943 40.0263 72.7929C40.8754 74.8441 41.5904 76.9496 42.1667 79.0957C42.3772 79.8858 42.8158 83.4011 44.0088 83.5343C45.3278 83.6904 46.6545 83.7704 47.9825 83.774C49.4165 83.7724 50.8491 83.6805 52.2719 83.4988C51.5702 83.5432 49.9649 79.2732 49.7456 78.6341C48.6795 75.8541 47.8233 72.9963 47.1842 70.0853C46.6667 67.2358 43.1579 65.8065 40.9474 64.2441C40.6099 64.0561 40.3375 63.768 40.1667 63.4186C40.1076 63.1935 40.0943 62.9587 40.1275 62.7283C40.1606 62.4979 40.2396 62.2767 40.3597 62.0781C41.0711 60.8026 41.85 59.5669 42.693 58.3763C43.5443 57.168 43.8939 55.6702 43.6667 54.204C43.221 52.9099 42.4209 51.7708 41.3597 50.9195C33.9649 43.7201 26.1579 36.8403 19.1404 29.3479C17.65 31.614 16.4254 34.0479 15.4912 36.6006C15.2456 37.293 19.2807 40.5775 19.807 41.0392C22.1842 42.9566 24.8597 44.519 27.2368 46.472L33.886 51.9226C34.9546 52.6337 35.7862 53.6547 36.2719 54.8521C36.4092 55.4536 36.411 56.0786 36.2774 56.6809C36.1438 57.2833 35.8781 57.8475 35.5 58.3319C35.0877 58.8658 34.6 59.3355 34.0526 59.7257Z" fill="white"/>
</g>
<path opacity="0.1" d="M82.1847 53.9822C79.6671 66.9251 56.5619 78.7939 38.0794 70.8044C18.4215 62.2912 14.7197 35.3844 24.3426 23.196C20.3137 27.0111 17.2449 31.746 15.3923 37.0056C13.5397 42.2652 12.957 47.897 13.6929 53.4309C14.4288 58.9647 16.4618 64.2402 19.6225 68.8171C22.7831 73.394 26.9796 77.1394 31.8617 79.7409C36.7439 82.3424 42.17 83.7244 47.6874 83.7717C53.2048 83.819 58.6533 82.5301 63.5782 80.0127C68.5032 77.4952 72.7617 73.8222 75.9985 69.3001C79.2352 64.7781 81.3563 59.5381 82.1847 54.0177V53.9822Z" fill="black"/>
<path opacity="0.6" d="M68.499 34.6739C69.789 26.6308 64.392 19.0522 56.4443 17.7467C48.4966 16.4411 41.0079 21.9029 39.7178 29.946C38.4277 37.9891 43.8247 45.5677 51.7724 46.8732C59.7201 48.1788 67.2089 42.717 68.499 34.6739Z" fill="white"/>
<path opacity="0.6" d="M72.4123 54.9054C76.099 54.9054 79.0877 51.8808 79.0877 48.1498C79.0877 44.4188 76.099 41.3943 72.4123 41.3943C68.7255 41.3943 65.7368 44.4188 65.7368 48.1498C65.7368 51.8808 68.7255 54.9054 72.4123 54.9054Z" fill="white"/>
<path opacity="0.1" d="M13.3774 48.7267C13.38 56.3439 15.8365 63.7525 20.3746 69.8295C24.9127 75.9065 31.285 80.3204 38.5253 82.4022C45.7656 84.4839 53.4792 84.1199 60.4967 81.3654C67.5142 78.6108 73.4529 73.616 77.4125 67.138C76.6318 68.3719 66.8424 83.9514 42.6581 79.4684C17.4739 74.799 13.3774 48.7355 13.8073 43.2317C13.5216 45.0491 13.3779 46.8864 13.3774 48.7267Z" fill="black"/>
<path d="M299.381 142.051C308.14 123.585 300.447 101.429 282.199 92.5655C263.952 83.7019 242.059 91.4867 233.301 109.953C224.542 128.42 232.235 150.575 250.482 159.439C268.73 168.303 290.623 160.518 299.381 142.051Z" fill="#2F589A"/>
<path opacity="0.116667" d="M293.588 137.167C300.693 120.512 293.111 101.183 276.654 93.9927C260.197 86.8029 241.097 94.4756 233.992 111.13C226.888 127.785 234.469 147.114 250.926 154.304C267.383 161.494 286.484 153.821 293.588 137.167Z" fill="white"/>
<path opacity="0.233333" d="M286.899 134.535C293.517 120.223 287.419 103.192 273.277 96.4937C259.135 89.7957 242.305 95.9678 235.686 110.279C229.068 124.591 235.167 141.623 249.309 148.321C263.451 155.019 280.28 148.847 286.899 134.535Z" fill="white"/>
<path opacity="0.35" d="M281.021 129.831C286.075 117.383 280.202 103.145 267.901 98.0294C255.601 92.9139 241.532 98.8581 236.477 111.306C231.422 123.754 237.296 137.992 249.596 143.107C261.897 148.223 275.966 142.278 281.021 129.831Z" fill="white"/>
<path opacity="0.466667" d="M274.65 126.368C278.791 116.074 273.901 104.332 263.729 100.141C253.557 95.9506 241.954 100.899 237.813 111.193C233.672 121.487 238.562 133.229 248.734 137.42C258.906 141.61 270.509 136.662 274.65 126.368Z" fill="white"/>
<path opacity="0.583333" d="M259.892 131.586C267.865 128.133 271.562 118.793 268.15 110.725C264.738 102.657 255.509 98.9157 247.536 102.369C239.564 105.822 235.867 115.161 239.279 123.229C242.691 131.297 251.92 135.039 259.892 131.586Z" fill="white"/>
<path opacity="0.7" d="M259.331 123.42C263.826 118.872 263.826 111.498 259.331 106.949C254.837 102.401 247.55 102.401 243.055 106.949C238.561 111.498 238.561 118.872 243.055 123.42C247.55 127.969 254.837 127.969 259.331 123.42Z" fill="white"/>
<path opacity="0.05" d="M300.351 139.771C298.561 144.293 295.909 148.413 292.546 151.897C289.183 155.382 285.175 158.161 280.75 160.078C276.326 161.994 271.571 163.01 266.759 163.067C261.946 163.124 257.169 162.222 252.702 160.411C252.105 160.171 251.526 159.913 250.947 159.647C259.32 159.698 267.457 156.846 274.006 151.567C280.555 146.288 285.121 138.9 286.944 130.63C288.768 122.36 287.739 113.708 284.029 106.112C280.319 98.5163 274.152 92.4345 266.553 88.8782C272.522 88.924 278.39 90.4434 283.648 93.3047C288.906 96.1659 293.394 100.282 296.724 105.297C300.053 110.312 302.123 116.073 302.753 122.08C303.384 128.088 302.556 134.161 300.342 139.771H300.351Z" fill="#455A64"/>
<path opacity="0.1" d="M288.439 99.8416C293.865 104.662 297.636 111.104 299.206 118.236C300.777 125.369 300.067 132.821 297.178 139.518C294.288 146.215 289.37 151.808 283.133 155.49C276.897 159.173 269.665 160.753 262.482 160.002C269.284 158.959 275.651 155.972 280.832 151.392C286.013 146.812 289.794 140.829 291.729 134.148C293.664 127.467 293.673 120.365 291.756 113.679C289.838 106.993 286.073 101 280.903 96.4061C279.427 95.0961 277.849 93.9086 276.184 92.8552C280.707 94.2908 284.882 96.6709 288.439 99.8416Z" fill="#455A64"/>
<path opacity="0.5" d="M261.446 144.432C264.045 138.563 261.45 131.672 255.65 129.041C249.85 126.41 243.041 129.036 240.441 134.906C237.842 140.776 240.436 147.667 246.237 150.298C252.037 152.928 258.846 150.302 261.446 144.432Z" fill="white"/>
<path opacity="0.5" d="M265.627 113.611C269.548 108.549 268.671 101.228 263.669 97.2597C258.666 93.2916 251.432 94.1788 247.511 99.2414C243.59 104.304 244.466 111.625 249.469 115.593C254.472 119.561 261.706 118.674 265.627 113.611Z" fill="white"/>
<path opacity="0.5" d="M236.562 125.257C235.519 124.835 234.624 124.109 233.989 123.172C233.355 122.235 233.009 121.129 232.996 119.993C232.982 118.857 233.302 117.742 233.915 116.79C234.527 115.838 235.405 115.092 236.437 114.645C237.469 114.198 238.609 114.07 239.713 114.279C240.816 114.487 241.834 115.022 242.637 115.816C243.44 116.61 243.992 117.627 244.224 118.739C244.455 119.85 244.356 121.007 243.939 122.061C243.379 123.475 242.287 124.606 240.904 125.205C239.521 125.804 237.959 125.823 236.562 125.257Z" fill="white"/>
<g opacity="0.1">
<path d="M339.5 90.4496C338.289 88.2835 335.202 84.6616 328.096 84.6616C320.71 84.6616 308.623 88.4433 292.131 95.909L290.14 96.7967L289.368 97.1341C289.623 97.3383 289.877 97.5424 290.123 97.7732L290.491 97.6134L292.491 96.7257C308.851 89.3133 320.824 85.5582 328.079 85.5582C334.728 85.5582 337.596 88.9049 338.71 90.8845C343.623 99.6552 334.167 111.364 307.131 130.042C305.547 131.143 303.924 132.24 302.263 133.335C295.053 138.129 287.263 142.932 279.044 147.636C270.614 152.474 262.061 157.011 254.009 160.908C252.21 161.796 250.438 162.621 248.702 163.42C231.219 171.516 218.5 175.617 210.877 175.617C204.219 175.617 201.36 172.271 200.245 170.291C195.509 161.831 203.579 151.249 228.088 133.779L229.886 132.501L230.21 132.261C230.149 131.942 230.105 131.622 230.061 131.294L229.377 131.782L227.623 133.06C202.649 150.814 194.509 161.769 199.553 170.726C200.754 172.892 203.851 176.514 210.956 176.514C218.702 176.514 231.552 172.386 249.149 164.237C251.149 163.349 253.193 162.337 255.289 161.325C263.114 157.508 271.403 153.105 279.579 148.418C287.535 143.855 295.079 139.221 302.096 134.578C304.02 133.306 305.898 132.039 307.728 130.779C335.158 111.773 344.684 99.7085 339.5 90.4496Z" fill="white"/>
</g>
<g opacity="0.1">
<path d="M305.64 127.84C304.702 128.488 303.754 129.128 302.798 129.776C295.088 134.978 286.684 140.206 277.737 145.373C268.605 150.601 259.316 155.484 250.719 159.576C249.666 160.082 248.623 160.571 247.596 161.05C235.816 166.501 219.886 172.999 210.868 172.999C205.816 172.999 203.544 170.833 202.526 169.013C198.728 162.222 207.079 152.04 229.596 135.998L230.798 135.111C230.868 135.413 230.956 135.714 231.044 135.998L230.105 136.673C208.035 152.404 199.763 162.231 203.289 168.533C204.166 170.14 206.237 172.084 210.868 172.084C219.728 172.084 235.535 165.631 247.237 160.215L249.71 159.053C258.482 154.898 267.965 149.927 277.307 144.574C286.447 139.327 295.044 133.983 302.895 128.666C303.658 128.16 304.403 127.645 305.149 127.13C337.368 104.937 338.009 96.8146 335.684 92.66C334.807 91.0533 332.737 89.1092 328.105 89.1092C319.684 89.1092 304.886 95.0125 293.956 99.966L292.912 100.445C292.693 100.215 292.482 99.9837 292.254 99.7618L293.596 99.1581C304.605 94.1692 319.535 88.2214 328.105 88.2214C333.158 88.2214 335.43 90.3875 336.447 92.2073C338.938 96.6548 338.438 105.195 305.64 127.84Z" fill="white"/>
</g>
<g opacity="0.2">
<path d="M304.158 125.639L302.983 126.446C294.877 131.986 285.956 137.552 276.439 143.002C266.711 148.577 256.842 153.744 247.79 157.987L246.509 158.582C230.193 166.128 217.562 170.291 210.869 170.291C207.834 170.291 205.79 169.403 204.816 167.628C201.912 162.443 210.518 152.785 231.132 138.102L231.605 137.765C231.702 138.058 231.798 138.342 231.912 138.653L231.632 138.848C206.86 156.505 203.79 164.015 205.579 167.219C206.386 168.666 208.167 169.403 210.842 169.403C217.386 169.403 229.912 165.275 246.114 157.774L246.86 157.428C256.035 153.149 266.097 147.912 275.983 142.23C285.632 136.673 294.737 131.009 302.956 125.363L303.641 124.893C325.526 109.802 336.097 98.794 333.369 93.9382C332.562 92.4912 330.781 91.7544 328.105 91.7544C321.895 91.7544 310.149 95.5272 295.026 102.407L294.728 102.54L294.149 101.839L294.676 101.599C309.904 94.6927 321.781 90.8933 328.105 90.8933C331.141 90.8933 333.184 91.781 334.158 93.5565C337.219 98.9804 327.132 109.793 304.158 125.639Z" fill="white"/>
</g>
<g opacity="0.3">
<path d="M311.772 104.857L311.596 105.345C311.245 106.313 309.561 109.225 301.5 115.572L301.07 115.909C291.81 122.939 282.088 129.324 271.974 135.022C260.202 141.769 248.789 147.388 239.824 150.841L239.298 151.045C233.886 153.096 229.649 154.232 227.324 154.232C227.031 154.235 226.737 154.211 226.447 154.161L225.947 154.055L226.123 153.566C226.438 152.679 227.877 150.131 234.64 144.6C234.781 144.867 234.93 145.124 235.088 145.382C229.649 149.82 227.816 152.261 227.193 153.371H227.316C229.509 153.371 233.517 152.306 238.667 150.362L239.544 150.042C248.465 146.598 259.842 140.996 271.57 134.276C281.641 128.585 291.318 122.209 300.535 115.19L301.228 114.649C307.754 109.473 309.851 106.73 310.517 105.558H310.368C308.149 105.558 304.026 106.668 298.728 108.683C298.596 108.417 298.456 108.151 298.307 107.893C303.745 105.816 308.026 104.671 310.368 104.671C310.662 104.667 310.956 104.691 311.245 104.742L311.772 104.857Z" fill="white"/>
</g>
<path d="M332.298 94.604C334.588 98.7052 322.509 110.317 302.965 123.801C294.895 129.376 285.544 135.262 275.403 141.076C264.877 147.095 254.763 152.341 245.64 156.558C224.64 166.278 209.026 170.602 206.763 166.562C204.623 162.728 215.061 152.315 232.421 139.931C232.903 141.12 233.438 142.283 234.035 143.42C227.456 148.746 223.93 152.9 224.912 154.667C225.895 156.434 231.763 155.386 240.333 152.084C251.465 147.565 262.264 142.249 272.649 136.176C282.81 130.449 292.575 124.031 301.877 116.966C309.631 110.902 313.921 106.162 312.851 104.245C311.781 102.327 306.114 103.499 297.667 106.739C297.017 105.656 296.316 104.609 295.57 103.605C315.456 94.5951 330.07 90.7069 332.298 94.604Z" fill="url(#paint0_linear_101_702)"/>
<defs>
<linearGradient id="paint0_linear_101_702" x1="281.548" y1="157.041" x2="260.767" y2="112.984" gradientUnits="userSpaceOnUse">
<stop stop-color="#B72CC0"/>
<stop offset="0.3" stop-color="#B72CC0"/>
<stop offset="0.99" stop-color="#27DCBE" stop-opacity="0.99"/>
<stop offset="1" stop-color="#00B8FF"/>
</linearGradient>
</defs>
</svg>
