<svg width="187" height="146" viewBox="0 0 187 146" fill="none" xmlns="http://www.w3.org/2000/svg">
<path d="M156.9 65.3841C156.813 63.7751 156.353 62.2094 155.557 60.8135C154.762 59.4176 153.653 58.2307 152.32 57.3488C151.901 57.0621 151.425 56.8725 150.925 56.7938C150.426 56.715 149.915 56.7491 149.43 56.8934L129.59 64.7061L139.3 81.5761L155.86 68.1368C156.223 67.7837 156.504 67.3539 156.684 66.8781C156.864 66.4022 156.937 65.8921 156.9 65.3841Z" fill="#F5F5F5"/>
<path d="M145.91 58.2091C146.421 58.0913 146.951 58.08 147.467 58.1756C147.982 58.2713 148.473 58.472 148.91 58.7656C150.382 59.7395 151.608 61.0504 152.487 62.5922C153.366 64.134 153.874 65.8635 153.97 67.6409C153.997 68.1598 153.923 68.679 153.751 69.1687C153.58 69.6585 153.314 70.1091 152.97 70.4947L154.58 69.1791L155.87 68.0963C156.226 67.7468 156.502 67.3232 156.68 66.8549C156.858 66.3866 156.933 65.8847 156.9 65.3841C156.813 63.7751 156.353 62.2094 155.557 60.8135C154.762 59.4176 153.653 58.2307 152.32 57.3488C151.901 57.0621 151.425 56.8725 150.926 56.7938C150.426 56.715 149.915 56.7491 149.43 56.8934L147.75 57.531L145.91 58.2091Z" fill="#2F589A"/>
<path opacity="0.1" d="M156.49 62.9048L135.59 75.1095L139.3 81.5762L155.86 68.1368C156.223 67.7837 156.504 67.354 156.684 66.8781C156.864 66.4023 156.937 65.8922 156.9 65.3842C156.892 64.5412 156.753 63.7046 156.49 62.9048Z" fill="#07020C"/>
<path d="M134 65.3842C135.999 66.7045 137.663 68.4829 138.856 70.5751C140.05 72.6674 140.74 75.0147 140.87 77.427C140.87 81.8595 137.79 83.6508 134 81.475C132.001 80.1546 130.337 78.3763 129.143 76.284C127.95 74.1918 127.26 71.8444 127.13 69.4322C127.13 64.9186 130.21 63.1274 134 65.3842Z" fill="#E0E0E0"/>
<path d="M150.7 46.4193C150.612 44.8118 150.152 43.2478 149.356 41.8537C148.561 40.4596 147.452 39.2745 146.12 38.3942C145.702 38.1054 145.226 37.9147 144.726 37.8359C144.226 37.7571 143.715 37.7923 143.23 37.9388L123.39 45.7514L133.12 62.6821L149.66 49.1922C150.025 48.836 150.307 48.4028 150.487 47.9235C150.666 47.4441 150.739 46.9305 150.7 46.4193Z" fill="#F5F5F5"/>
<path d="M139.71 39.2948C140.213 39.1801 140.734 39.1703 141.242 39.266C141.749 39.3617 142.231 39.5608 142.66 39.8514C144.134 40.8214 145.362 42.1297 146.243 43.6701C147.124 45.2105 147.633 46.9395 147.73 48.7166C147.758 49.2355 147.684 49.7551 147.513 50.245C147.341 50.7349 147.075 51.1854 146.73 51.5704L148.34 50.2649L149.63 49.1821C149.986 48.8234 150.26 48.3902 150.433 47.9129C150.605 47.4356 150.673 46.9258 150.63 46.4193C150.542 44.8118 150.082 43.2478 149.286 41.8537C148.491 40.4596 147.382 39.2745 146.05 38.3942C145.632 38.1054 145.156 37.9147 144.656 37.8359C144.156 37.7571 143.645 37.7923 143.16 37.9388L141.48 38.5662L139.71 39.2948Z" fill="#2F589A"/>
<path opacity="0.1" d="M150.28 43.9802L129.39 56.1951L133.1 62.6516L149.66 49.192C150.016 48.8333 150.29 48.4001 150.463 47.9228C150.635 47.4455 150.703 46.9357 150.66 46.4292C150.657 45.5981 150.529 44.7724 150.28 43.9802Z" fill="#07020C"/>
<path d="M132.652 62.9519C135.336 61.3841 135.337 56.3031 132.656 51.6032C129.974 46.9032 125.626 44.3641 122.942 45.9318C120.259 47.4996 120.258 52.5806 122.939 57.2805C125.62 61.9805 129.969 64.5196 132.652 62.9519Z" fill="#E0E0E0"/>
<path d="M29.3599 107.17L51.7599 80.9891L57.3599 38.4446L68.5599 31.897L113.37 58.0875L29.3599 107.17Z" fill="#2F589A"/>
<path opacity="0.6" d="M29.3599 107.17L51.7599 80.9891L57.3599 38.4446L68.5599 31.897L113.37 58.0875L29.3599 107.17Z" fill="white"/>
<path d="M68.5599 31.897L57.3599 38.4446L102.17 64.625L113.37 58.0875L68.5599 31.897Z" fill="#2F589A"/>
<path opacity="0.3" d="M68.5599 31.897L57.3599 38.4446L102.17 64.625L113.37 58.0875L68.5599 31.897Z" fill="#07020C"/>
<path d="M130.18 41.6425C126.26 39.3553 122.63 38.6874 119.65 39.416C118.897 39.5896 118.173 39.8725 117.5 40.256L117.06 40.4989L49.7699 79.8252C38.7217 86.2837 29.3182 95.2664 22.3099 106.056L0.669922 139.351L4.99992 145.504L38.2499 140.1C48.6054 138.425 58.5699 134.844 67.6499 129.535L143.3 85.3406C145.95 83.6809 147.73 80.5539 148.24 76.2326C148.337 75.3522 148.387 74.4671 148.39 73.5812C148.38 61.8116 140.23 47.5222 130.18 41.6425Z" fill="#2F589A"/>
<path opacity="0.9" d="M130.18 41.6425C126.26 39.3553 122.63 38.6874 119.65 39.416C118.897 39.5896 118.173 39.8725 117.5 40.256L117.06 40.4989L49.7699 79.8252C38.7217 86.2837 29.3182 95.2664 22.3099 106.056L0.669922 139.351L4.99992 145.504L38.2499 140.1C48.6054 138.425 58.5699 134.844 67.6499 129.535L143.3 85.3406C145.95 83.6809 147.73 80.5539 148.24 76.2326C148.337 75.3522 148.387 74.4671 148.39 73.5812C148.38 61.8116 140.23 47.5222 130.18 41.6425Z" fill="white"/>
<path d="M134.64 90.3704C137.29 88.7107 139.07 85.5836 139.58 81.2624C139.677 80.382 139.727 79.4969 139.73 78.6109C139.73 66.8616 131.58 52.5722 121.53 46.7026C117.61 44.4053 113.99 43.7374 111.01 44.466C110.256 44.6377 109.532 44.9208 108.86 45.306L117.5 40.246C118.173 39.8625 118.897 39.5795 119.65 39.406C122.65 38.6774 126.26 39.3453 130.18 41.6325C140.18 47.5122 148.38 61.8016 148.38 73.5509C148.377 74.4369 148.327 75.322 148.23 76.2024C147.72 80.5439 145.94 83.6709 143.29 85.3104L134.64 90.3704Z" fill="#2F589A"/>
<path d="M7.40989 133.401C6.68355 132.931 5.83093 132.701 4.96989 132.743L2.52989 136.497L0.66989 139.361C0.275895 139.971 0.0516456 140.676 0.0207733 141.404C-0.010099 142.132 0.15355 142.854 0.494475 143.495C0.835399 144.137 1.34097 144.673 1.95791 145.048C2.57484 145.423 3.28028 145.623 3.99989 145.626C4.33773 145.62 4.67362 145.573 4.99989 145.484L7.83989 145.029L11.6699 144.401C12.0121 143.884 12.2217 143.29 12.2799 142.671C12.2799 142.448 12.2799 142.205 12.2799 141.952C12.1886 140.24 11.7002 138.573 10.8541 137.088C10.008 135.602 8.8281 134.339 7.40989 133.401Z" fill="#2F589A"/>
<path opacity="0.6" d="M51.76 97.3531C61.59 91.4733 109.09 63.7749 137.2 47.4007C135.154 45.1485 132.797 43.2088 130.2 41.6425C126.28 39.3553 122.65 38.6874 119.67 39.416C118.917 39.5896 118.193 39.8725 117.52 40.256L117.08 40.4989L49.79 79.8252C38.7418 86.2837 29.3383 95.2664 22.33 106.056L1.43003 138.177L0.670026 139.361C0.234274 140.024 0.00122818 140.802 2.73307e-05 141.598C-0.0035937 142.58 0.352712 143.528 1.00003 144.259C-0.999973 139.898 16.77 128.179 26.61 118.777C36.45 109.376 46.23 100.662 51.76 97.3531Z" fill="white"/>
<path d="M41.9301 119.901C39.1101 114.031 34.8501 109.123 30.2401 106.441C28.2012 105.175 25.8793 104.451 23.4901 104.336C23.1001 104.913 22.6901 105.469 22.3101 106.056L13.3101 119.901L14.4001 119.799C14.5365 119.789 14.6736 119.789 14.8101 119.799C16.1145 119.856 17.3822 120.254 18.4901 120.953C21.3264 122.777 23.6374 125.325 25.1901 128.341L25.8301 129.515L42.5301 121.166L41.9301 119.901Z" fill="#2F589A"/>
<path d="M29.55 107.645C27.4651 106.3 25.0203 105.639 22.55 105.753L14.27 118.413C15.9988 118.325 17.7117 118.785 19.17 119.729C22.2328 121.673 24.7284 124.408 26.4 127.653L40.69 120.508C38.11 115.134 34.08 110.287 29.55 107.645Z" fill="#07020C"/>
<path opacity="0.1" d="M29.55 107.645C27.4651 106.3 25.0203 105.639 22.55 105.753L14.27 118.413C14.8656 118.366 15.4647 118.404 16.05 118.524C17.18 117.249 18.32 115.205 20.27 115.569C22.53 115.994 24.27 118.302 26.11 119.476C26.5881 119.808 27.1288 120.037 27.6983 120.148C28.2678 120.26 28.8539 120.251 29.42 120.123C30.3931 119.699 31.2708 119.079 32 118.302C32.3662 117.917 32.8169 117.624 33.3155 117.449C33.8141 117.273 34.3467 117.218 34.87 117.29C35.99 117.593 36.43 118.686 36.87 119.648C37.2606 120.39 37.5949 121.161 37.87 121.955L40.73 120.518C38.11 115.134 34.08 110.287 29.55 107.645Z" fill="white"/>
<path opacity="0.05" d="M22.4699 112.948L22.5399 112.999C23.4508 113.613 24.3957 114.174 25.3699 114.679C26.1799 115.104 27.2599 115.458 27.9399 114.841C28.6199 114.223 28.4699 113.029 29.1899 112.523C29.4929 112.345 29.8397 112.257 30.1899 112.27C31.8226 112.291 33.4277 112.7 34.8761 113.462C36.3246 114.225 37.576 115.321 38.5299 116.662C36.257 112.989 33.177 109.897 29.5299 107.625C27.445 106.279 25.0002 105.618 22.5299 105.733L17.6899 113.161C19.4399 111.855 20.6799 111.795 22.4699 112.948Z" fill="white"/>
<path opacity="0.15" d="M148.23 76.2124C148.328 75.332 148.378 74.4468 148.38 73.5609C148.368 72.5225 148.301 71.4854 148.18 70.4541C124.81 84.0554 67.7902 117.259 57.3602 123.533C44.1702 131.468 11.7102 142.761 3.36017 143.166C1.36017 143.278 0.660169 141.729 0.710169 139.311V139.361C0.317935 139.968 0.0938328 140.67 0.0612662 141.394C0.0286997 142.118 0.188864 142.838 0.525034 143.478C0.861204 144.118 1.36104 144.655 1.97234 145.033C2.58364 145.41 3.28397 145.615 4.00017 145.625C4.33801 145.62 4.6739 145.573 5.00017 145.484L38.2502 140.08C48.6056 138.405 58.5701 134.824 67.6502 129.514L143.3 85.3204C145.94 83.6809 147.72 80.564 148.23 76.2124Z" fill="#2F589A"/>
<path opacity="0.6" d="M5.00019 145.484L7.84019 145.028L11.6702 144.401C12.0124 143.884 12.222 143.29 12.2802 142.67C12.2802 142.448 12.2802 142.205 12.2802 141.952C12.2802 141.699 12.2802 141.547 12.2802 141.345C9.37051 142.22 6.38826 142.827 3.37019 143.156C1.37019 143.268 0.67019 141.719 0.72019 139.301V139.351C0.325753 139.957 0.0995117 140.659 0.0651451 141.384C0.0307784 142.109 0.189547 142.83 0.524839 143.471C0.860131 144.112 1.35962 144.651 1.97102 145.03C2.58242 145.409 3.28326 145.615 4.00019 145.626C4.30723 145.622 4.61275 145.581 4.91019 145.504L5.00019 145.484Z" fill="#07020C"/>
<path d="M186.19 100.632L141.38 74.4414L57.3599 123.534L102.17 113.717L174.99 110.448L186.19 103.901V100.632Z" fill="#2F589A"/>
<path opacity="0.6" d="M186.19 100.632L141.38 74.4414L57.3599 123.534L102.17 113.717L174.99 110.448L186.19 103.901V100.632Z" fill="white"/>
<path d="M102.17 113.717V110.448L57.3599 123.534L102.17 113.717Z" fill="#2F589A"/>
<path d="M102.17 110.449L174.99 107.17V110.449L102.17 113.717V110.449Z" fill="#2F589A"/>
<path opacity="0.3" d="M102.17 110.449L174.99 107.17V110.449L102.17 113.717V110.449Z" fill="white"/>
<path d="M130.18 80.989L174.99 107.169L186.19 100.632L141.38 74.4414L130.18 80.989Z" fill="#2F589A"/>
<path opacity="0.3" d="M130.18 80.989L174.99 107.169L186.19 100.632L141.38 74.4414L130.18 80.989Z" fill="#07020C"/>
<path d="M186.19 100.632L174.99 107.17V110.448L186.19 103.901V100.632Z" fill="#2F589A"/>
<path opacity="0.5" d="M186.19 100.632L174.99 107.17V110.448L186.19 103.901V100.632Z" fill="#07020C"/>
<path d="M138.59 0.828613L132.99 4.10748L104.98 53.1895L107.77 54.8087L130.24 41.683L141.38 2.4478L138.59 0.828613Z" fill="#2F589A"/>
<path d="M107.77 54.8086L130.24 41.683L141.38 2.44775L135.78 5.71651L107.77 54.8086Z" fill="#2F589A"/>
<path opacity="0.5" d="M132.99 4.10748L135.78 5.71656L141.38 2.4478L138.59 0.828613L132.99 4.10748Z" fill="white"/>
<path opacity="0.6" d="M135.78 5.71651L107.77 54.8086L130.24 41.683L141.38 2.44775L135.78 5.71651Z" fill="#07020C"/>
</svg>
