<svg width="187" height="146" viewBox="0 0 187 146" fill="none" xmlns="http://www.w3.org/2000/svg">
<path d="M156.9 65.3841C156.813 63.7751 156.353 62.2094 155.557 60.8135C154.762 59.4176 153.653 58.2307 152.32 57.3488C151.901 57.0621 151.425 56.8725 150.925 56.7938C150.426 56.715 149.915 56.7491 149.43 56.8934L129.59 64.7061L139.3 81.5761L155.86 68.1368C156.223 67.7837 156.504 67.3539 156.684 66.8781C156.864 66.4022 156.937 65.8921 156.9 65.3841Z" fill="#F5F5F5"/>
<path d="M145.91 58.2091C146.421 58.0913 146.951 58.08 147.467 58.1756C147.982 58.2713 148.473 58.472 148.91 58.7656C150.382 59.7395 151.608 61.0504 152.487 62.5922C153.366 64.134 153.874 65.8635 153.97 67.6409C153.997 68.1598 153.923 68.679 153.751 69.1687C153.58 69.6585 153.314 70.1091 152.97 70.4947L154.58 69.1791L155.87 68.0963C156.226 67.7468 156.502 67.3232 156.68 66.8549C156.858 66.3866 156.933 65.8847 156.9 65.3841C156.813 63.7751 156.353 62.2094 155.557 60.8135C154.762 59.4176 153.653 58.2307 152.32 57.3488C151.901 57.0621 151.425 56.8725 150.926 56.7938C150.426 56.715 149.915 56.7491 149.43 56.8934L147.75 57.531L145.91 58.2091Z" fill="#2F589A"/>
<path opacity="0.1" d="M156.49 62.9048L135.59 75.1095L139.3 81.5762L155.86 68.1368C156.223 67.7837 156.504 67.354 156.684 66.8781C156.864 66.4023 156.937 65.8922 156.9 65.3842C156.892 64.5412 156.753 63.7046 156.49 62.9048Z" fill="#07020C"/>
<path d="M134 65.3842C135.999 66.7045 137.663 68.4829 138.856 70.5751C140.05 72.6674 140.74 75.0147 140.87 77.427C140.87 81.8595 137.79 83.6508 134 81.475C132.001 80.1546 130.337 78.3763 129.143 76.284C127.95 74.1918 127.26 71.8444 127.13 69.4322C127.13 64.9186 130.21 63.1274 134 65.3842Z" fill="#E0E0E0"/>
<path d="M150.7 46.4193C150.612 44.8118 150.151 43.2478 149.356 41.8537C148.56 40.4596 147.452 39.2745 146.12 38.3942C145.702 38.1054 145.225 37.9147 144.726 37.8359C144.226 37.7571 143.714 37.7923 143.23 37.9388L123.39 45.7514L133.12 62.6821L149.66 49.1922C150.024 48.836 150.306 48.4028 150.486 47.9235C150.666 47.4441 150.739 46.9305 150.7 46.4193Z" fill="#F5F5F5"/>
<path d="M139.71 39.2948C140.213 39.1801 140.734 39.1703 141.242 39.266C141.749 39.3617 142.231 39.5608 142.66 39.8514C144.134 40.8214 145.362 42.1297 146.243 43.6701C147.124 45.2105 147.633 46.9395 147.73 48.7166C147.758 49.2355 147.684 49.7551 147.513 50.245C147.341 50.7349 147.075 51.1854 146.73 51.5704L148.34 50.2649L149.63 49.1821C149.986 48.8234 150.26 48.3902 150.433 47.9129C150.605 47.4356 150.673 46.9258 150.63 46.4193C150.542 44.8118 150.082 43.2478 149.286 41.8537C148.491 40.4596 147.382 39.2745 146.05 38.3942C145.632 38.1054 145.156 37.9147 144.656 37.8359C144.156 37.7571 143.645 37.7923 143.16 37.9388L141.48 38.5662L139.71 39.2948Z" fill="#2F589A"/>
<path opacity="0.1" d="M150.28 43.9802L129.39 56.1951L133.1 62.6516L149.66 49.192C150.016 48.8333 150.289 48.4001 150.462 47.9228C150.635 47.4455 150.702 46.9357 150.66 46.4292C150.656 45.5981 150.528 44.7724 150.28 43.9802Z" fill="#07020C"/>
<path d="M132.652 62.9519C135.336 61.3841 135.337 56.3031 132.656 51.6032C129.974 46.9032 125.626 44.3641 122.942 45.9318C120.259 47.4996 120.258 52.5806 122.939 57.2805C125.62 61.9805 129.969 64.5196 132.652 62.9519Z" fill="#E0E0E0"/>
<path d="M29.3604 107.17L51.7603 80.9891L57.3604 38.4446L68.5604 31.897L113.37 58.0875L29.3604 107.17Z" fill="#2F589A"/>
<path opacity="0.6" d="M29.3604 107.17L51.7603 80.9891L57.3604 38.4446L68.5604 31.897L113.37 58.0875L29.3604 107.17Z" fill="white"/>
<path d="M68.5603 31.897L57.3604 38.4446L102.17 64.625L113.37 58.0875L68.5603 31.897Z" fill="#2F589A"/>
<path opacity="0.3" d="M68.5603 31.897L57.3604 38.4446L102.17 64.625L113.37 58.0875L68.5603 31.897Z" fill="#07020C"/>
<path d="M130.18 41.6425C126.26 39.3553 122.63 38.6874 119.65 39.416C118.897 39.5896 118.173 39.8725 117.5 40.256L117.06 40.4989L49.7699 79.8252C38.7217 86.2837 29.3182 95.2664 22.3099 106.056L0.669922 139.351L4.99992 145.504L38.2499 140.1C48.6054 138.425 58.5699 134.844 67.6499 129.535L143.3 85.3406C145.95 83.6809 147.73 80.5539 148.24 76.2326C148.337 75.3522 148.387 74.4671 148.39 73.5812C148.38 61.8116 140.23 47.5222 130.18 41.6425Z" fill="#2F589A"/>
<path opacity="0.9" d="M130.18 41.6425C126.26 39.3553 122.63 38.6874 119.65 39.416C118.897 39.5896 118.173 39.8725 117.5 40.256L117.06 40.4989L49.7699 79.8252C38.7217 86.2837 29.3182 95.2664 22.3099 106.056L0.669922 139.351L4.99992 145.504L38.2499 140.1C48.6054 138.425 58.5699 134.844 67.6499 129.535L143.3 85.3406C145.95 83.6809 147.73 80.5539 148.24 76.2326C148.337 75.3522 148.387 74.4671 148.39 73.5812C148.38 61.8116 140.23 47.5222 130.18 41.6425Z" fill="white"/>
<path d="M134.64 90.3704C137.29 88.7107 139.07 85.5836 139.58 81.2624C139.678 80.382 139.728 79.4969 139.73 78.6109C139.73 66.8616 131.58 52.5722 121.53 46.7026C117.61 44.4053 113.99 43.7374 111.01 44.466C110.257 44.6377 109.532 44.9208 108.86 45.306L117.5 40.246C118.173 39.8625 118.897 39.5795 119.65 39.406C122.65 38.6774 126.26 39.3453 130.18 41.6325C140.18 47.5122 148.38 61.8016 148.38 73.5509C148.378 74.4369 148.328 75.322 148.23 76.2024C147.72 80.5439 145.94 83.6709 143.29 85.3104L134.64 90.3704Z" fill="#2F589A"/>
<path d="M7.41038 133.401C6.68404 132.931 5.83142 132.701 4.97038 132.743L2.53038 136.497L0.670378 139.361C0.276383 139.971 0.0521339 140.676 0.0212616 141.404C-0.00961076 142.132 0.154039 142.854 0.494963 143.495C0.835887 144.137 1.34146 144.673 1.9584 145.048C2.57533 145.423 3.28077 145.623 4.00038 145.626C4.33822 145.62 4.67411 145.573 5.00038 145.484L7.84038 145.029L11.6704 144.401C12.0126 143.884 12.2222 143.29 12.2804 142.671C12.2804 142.448 12.2804 142.205 12.2804 141.952C12.1891 140.24 11.7007 138.573 10.8546 137.088C10.0085 135.602 8.82859 134.339 7.41038 133.401Z" fill="#2F589A"/>
<path opacity="0.6" d="M51.76 97.3531C61.59 91.4733 109.09 63.7749 137.2 47.4007C135.154 45.1485 132.797 43.2088 130.2 41.6425C126.28 39.3553 122.65 38.6874 119.67 39.416C118.917 39.5896 118.193 39.8725 117.52 40.256L117.08 40.4989L49.79 79.8252C38.7418 86.2837 29.3383 95.2664 22.33 106.056L1.43003 138.177L0.670026 139.361C0.234274 140.024 0.00122818 140.802 2.73307e-05 141.598C-0.0035937 142.58 0.352712 143.528 1.00003 144.259C-0.999973 139.898 16.77 128.179 26.61 118.777C36.45 109.376 46.23 100.662 51.76 97.3531Z" fill="white"/>
<path d="M41.9296 119.901C39.1096 114.031 34.8496 109.123 30.2396 106.441C28.2007 105.175 25.8788 104.451 23.4896 104.336C23.0996 104.913 22.6896 105.469 22.3096 106.056L13.3096 119.901L14.3996 119.799C14.5361 119.789 14.6731 119.789 14.8096 119.799C16.114 119.856 17.3817 120.254 18.4896 120.953C21.3259 122.777 23.6369 125.325 25.1896 128.341L25.8296 129.515L42.5296 121.166L41.9296 119.901Z" fill="#2F589A"/>
<path d="M29.5505 107.645C27.4656 106.3 25.0208 105.639 22.5505 105.753L14.2705 118.413C15.9993 118.325 17.7122 118.785 19.1705 119.729C22.2333 121.673 24.7289 124.408 26.4005 127.653L40.6905 120.508C38.1105 115.134 34.0805 110.287 29.5505 107.645Z" fill="#07020C"/>
<path opacity="0.1" d="M29.5505 107.645C27.4656 106.3 25.0208 105.639 22.5505 105.753L14.2705 118.413C14.8661 118.366 15.4652 118.404 16.0505 118.524C17.1805 117.249 18.3205 115.205 20.2705 115.569C22.5305 115.994 24.2705 118.302 26.1105 119.476C26.5886 119.808 27.1293 120.037 27.6988 120.148C28.2683 120.26 28.8544 120.251 29.4205 120.123C30.3936 119.699 31.2713 119.079 32.0005 118.302C32.3667 117.917 32.8173 117.624 33.316 117.449C33.8146 117.273 34.3472 117.218 34.8705 117.29C35.9905 117.593 36.4305 118.686 36.8705 119.648C37.2611 120.39 37.5954 121.161 37.8705 121.955L40.7305 120.518C38.1105 115.134 34.0805 110.287 29.5505 107.645Z" fill="white"/>
<path opacity="0.05" d="M22.4704 112.948L22.5404 112.999C23.4513 113.613 24.3962 114.174 25.3704 114.679C26.1804 115.104 27.2604 115.458 27.9404 114.841C28.6204 114.223 28.4704 113.029 29.1904 112.523C29.4933 112.345 29.8401 112.257 30.1904 112.27C31.8231 112.291 33.4282 112.7 34.8766 113.462C36.3251 114.225 37.5765 115.321 38.5304 116.662C36.2575 112.989 33.1775 109.897 29.5304 107.625C27.4455 106.279 25.0007 105.618 22.5304 105.733L17.6904 113.161C19.4404 111.855 20.6804 111.795 22.4704 112.948Z" fill="white"/>
<path opacity="0.15" d="M148.23 76.2124C148.327 75.332 148.377 74.4468 148.38 73.5609C148.367 72.5225 148.3 71.4854 148.18 70.4541C124.81 84.0554 67.7897 117.259 57.3597 123.533C44.1697 131.468 11.7097 142.761 3.35968 143.166C1.35968 143.278 0.659681 141.729 0.709681 139.311V139.361C0.317446 139.968 0.0933445 140.67 0.0607779 141.394C0.0282114 142.118 0.188376 142.838 0.524546 143.478C0.860716 144.118 1.36055 144.655 1.97185 145.033C2.58315 145.41 3.28348 145.615 3.99968 145.625C4.33752 145.62 4.67341 145.573 4.99968 145.484L38.2497 140.08C48.6051 138.405 58.5697 134.824 67.6497 129.514L143.3 85.3204C145.94 83.6809 147.72 80.564 148.23 76.2124Z" fill="#2F589A"/>
<path opacity="0.6" d="M5.00019 145.484L7.84019 145.028L11.6702 144.401C12.0124 143.884 12.222 143.29 12.2802 142.67C12.2802 142.448 12.2802 142.205 12.2802 141.952C12.2802 141.699 12.2802 141.547 12.2802 141.345C9.37051 142.22 6.38826 142.827 3.37019 143.156C1.37019 143.268 0.67019 141.719 0.72019 139.301V139.351C0.325753 139.957 0.0995117 140.659 0.0651451 141.384C0.0307784 142.109 0.189547 142.83 0.524839 143.471C0.860131 144.112 1.35962 144.651 1.97102 145.03C2.58242 145.409 3.28326 145.615 4.00019 145.626C4.30723 145.622 4.61275 145.581 4.91019 145.504L5.00019 145.484Z" fill="#07020C"/>
<path d="M186.19 100.632L141.38 74.4414L57.3604 123.534L102.17 113.717L174.99 110.448L186.19 103.901V100.632Z" fill="#2F589A"/>
<path opacity="0.6" d="M186.19 100.632L141.38 74.4414L57.3604 123.534L102.17 113.717L174.99 110.448L186.19 103.901V100.632Z" fill="white"/>
<path d="M102.17 113.717V110.448L57.3604 123.534L102.17 113.717Z" fill="#2F589A"/>
<path d="M102.17 110.449L174.99 107.17V110.449L102.17 113.717V110.449Z" fill="#2F589A"/>
<path opacity="0.3" d="M102.17 110.449L174.99 107.17V110.449L102.17 113.717V110.449Z" fill="white"/>
<path d="M130.18 80.989L174.99 107.169L186.19 100.632L141.38 74.4414L130.18 80.989Z" fill="#2F589A"/>
<path opacity="0.3" d="M130.18 80.989L174.99 107.169L186.19 100.632L141.38 74.4414L130.18 80.989Z" fill="#07020C"/>
<path d="M186.19 100.632L174.99 107.17V110.448L186.19 103.901V100.632Z" fill="#2F589A"/>
<path opacity="0.5" d="M186.19 100.632L174.99 107.17V110.448L186.19 103.901V100.632Z" fill="#07020C"/>
<path d="M138.59 0.828613L132.99 4.10748L104.98 53.1895L107.77 54.8087L130.24 41.683L141.38 2.4478L138.59 0.828613Z" fill="#2F589A"/>
<path d="M107.771 54.8086L130.241 41.683L141.381 2.44775L135.781 5.71651L107.771 54.8086Z" fill="#2F589A"/>
<path opacity="0.5" d="M132.99 4.10748L135.78 5.71656L141.38 2.4478L138.59 0.828613L132.99 4.10748Z" fill="white"/>
<path opacity="0.6" d="M135.781 5.71651L107.771 54.8086L130.241 41.683L141.381 2.44775L135.781 5.71651Z" fill="#07020C"/>
<path opacity="0.8" d="M148 43.8993C145.77 39.9929 144.56 32.7673 151.17 28.355C157.78 23.9426 163.04 26.4119 163.04 26.4119C163.04 26.4119 160.55 28.4359 160.62 30.379C160.62 30.379 167.79 24.0034 173.17 26.6953C173.17 26.6953 168.77 28.8812 169.4 30.8344C170.03 32.7875 177.671 29.2152 180.321 25.6226C180.321 25.6226 180.7 28.7699 177.59 32.6458C174.48 36.5218 167.84 39.6185 167.84 39.6185C168.643 39.9495 169.507 40.0957 170.372 40.0467C171.237 39.9977 172.08 39.7547 172.84 39.3352C172.84 39.3352 168.67 45.9233 162.89 48.7468C160.271 50.0434 157.257 50.2628 154.48 49.359C151.704 48.4552 149.382 46.4984 148 43.8993Z" fill="#D30490"/>
<path opacity="0.8" d="M151.28 41.9461C149.23 38.3535 152.7 32.9798 159.58 33.6073C159.58 33.6073 156.41 35.7426 157.38 37.5743C158.35 39.406 164.8 35.8944 166.1 34.8419C166.1 34.8419 163.93 40.4585 159.67 42.9379C156.62 44.7291 153.2 45.3262 151.28 41.9461Z" fill="white"/>
<path opacity="0.8" d="M153.73 61.923C155.96 65.8294 161.52 70.5048 168.62 66.9122C175.72 63.3196 176.21 57.4804 176.21 57.4804C176.21 57.4804 173.21 58.634 171.61 57.622C171.61 57.622 180.61 54.5253 181.03 48.4635C181.03 48.4635 176.97 51.2262 175.6 49.6981C174.23 48.17 181.13 43.2618 185.53 42.7355C185.53 42.7355 183.03 40.833 178.15 41.6122C173.27 42.3915 167.05 47.7449 167.05 47.7449C166.973 46.832 167.089 45.9129 167.39 45.049C167.692 44.1851 168.173 43.3963 168.8 42.7355C164.613 42.8803 160.54 44.1519 157 46.4192C154.577 48.0716 152.882 50.6111 152.272 53.503C151.662 56.3949 152.185 59.4134 153.73 61.923Z" fill="#D30490"/>
<path opacity="0.8" d="M157 60.0509C159.05 63.6334 165.38 63.2791 168.28 56.9339C168.28 56.9339 164.87 58.6543 163.79 56.8732C162.71 55.0921 168.94 51.2161 170.49 50.6089C170.49 50.6089 164.59 49.6981 160.34 52.1876C157.31 53.9687 155.1 56.6708 157 60.0509Z" fill="white"/>
</svg>
