<svg width="370" height="310" viewBox="0 0 370 310" fill="none" xmlns="http://www.w3.org/2000/svg">
<path opacity="0.5" d="M312.76 253.892C311.101 253.892 309.479 253.394 308.099 252.461C306.719 251.528 305.644 250.202 305.009 248.65C304.374 247.099 304.208 245.391 304.531 243.744C304.855 242.097 305.654 240.584 306.827 239.397C308.001 238.21 309.496 237.401 311.123 237.073C312.751 236.746 314.438 236.914 315.971 237.556C317.504 238.199 318.814 239.287 319.736 240.684C320.658 242.08 321.15 243.722 321.15 245.401C321.15 247.653 320.266 249.812 318.693 251.405C317.119 252.997 314.985 253.892 312.76 253.892ZM312.76 237.598C311.235 237.598 309.745 238.056 308.477 238.913C307.209 239.771 306.221 240.989 305.637 242.415C305.053 243.841 304.901 245.409 305.198 246.923C305.496 248.437 306.23 249.827 307.308 250.918C308.387 252.009 309.76 252.752 311.256 253.053C312.752 253.355 314.302 253.2 315.711 252.609C317.119 252.019 318.324 251.019 319.171 249.736C320.018 248.453 320.47 246.944 320.47 245.401C320.467 243.332 319.654 241.349 318.209 239.887C316.764 238.424 314.804 237.601 312.76 237.598Z" fill="#2F589A"/>
<path d="M315.12 245.401C315.12 245.873 314.981 246.335 314.722 246.728C314.463 247.12 314.094 247.427 313.663 247.607C313.232 247.788 312.757 247.835 312.299 247.743C311.842 247.651 311.421 247.424 311.091 247.09C310.761 246.756 310.536 246.33 310.445 245.867C310.354 245.403 310.401 244.923 310.58 244.487C310.758 244.05 311.061 243.677 311.449 243.415C311.837 243.153 312.293 243.012 312.76 243.012C313.386 243.012 313.986 243.264 314.429 243.712C314.871 244.16 315.12 244.767 315.12 245.401Z" fill="white"/>
<path opacity="0.5" d="M206.45 101.292C203.835 101.292 201.279 100.507 199.104 99.0365C196.93 97.566 195.236 95.476 194.235 93.0308C193.235 90.5855 192.974 87.895 193.485 85.2995C193.996 82.7041 195.256 80.3202 197.106 78.4496C198.955 76.579 201.312 75.3056 203.877 74.7905C206.442 74.2754 209.101 74.5418 211.516 75.556C213.931 76.5701 215.995 78.2865 217.447 80.4879C218.898 82.6893 219.672 85.2769 219.67 87.9234C219.665 91.4691 218.27 94.8679 215.791 97.3741C213.313 99.8803 209.954 101.289 206.45 101.292ZM206.45 75.233C203.969 75.235 201.543 75.982 199.482 77.3795C197.42 78.7769 195.814 80.762 194.868 83.0834C193.921 85.4048 193.677 87.9582 194.165 90.4203C194.653 92.8825 195.852 95.1427 197.611 96.9148C199.369 98.687 201.607 99.8914 204.042 100.376C206.477 100.86 208.999 100.602 211.289 99.6353C213.579 98.6683 215.534 97.0354 216.907 94.9433C218.279 92.8513 219.008 90.3942 219 87.883C218.997 84.5163 217.674 81.2885 215.321 78.9088C212.967 76.5292 209.777 75.1925 206.45 75.1925V75.233Z" fill="#2F589A"/>
<path d="M210.23 87.883C210.23 88.6396 210.008 89.3792 209.593 90.0082C209.178 90.6373 208.587 91.1276 207.896 91.4172C207.206 91.7067 206.446 91.7824 205.712 91.6348C204.979 91.4872 204.306 91.1229 203.777 90.5879C203.248 90.0529 202.888 89.3713 202.743 88.6293C202.597 87.8872 202.672 87.1181 202.958 86.4191C203.244 85.7201 203.728 85.1227 204.35 84.7023C204.971 84.282 205.702 84.0576 206.45 84.0576C206.947 84.0563 207.439 84.1543 207.898 84.3461C208.357 84.5379 208.774 84.8196 209.126 85.1751C209.477 85.5306 209.755 85.9528 209.945 86.4175C210.134 86.8822 210.231 87.3803 210.23 87.883Z" fill="white"/>
<path opacity="0.5" d="M312.21 49.4372C310.55 49.4372 308.928 48.9392 307.549 48.0062C306.169 47.0733 305.094 45.7472 304.458 44.1957C303.823 42.6443 303.657 40.9371 303.981 39.29C304.305 37.643 305.104 36.1301 306.277 34.9427C307.451 33.7552 308.946 32.9466 310.573 32.619C312.201 32.2913 313.887 32.4595 315.421 33.1021C316.954 33.7448 318.264 34.833 319.186 36.2293C320.108 37.6256 320.6 39.2672 320.6 40.9465C320.597 43.1975 319.712 45.3556 318.14 46.9473C316.567 48.5391 314.434 49.4345 312.21 49.4372ZM312.21 33.144C310.685 33.144 309.194 33.6016 307.926 34.4589C306.658 35.3163 305.67 36.5349 305.087 37.9606C304.503 39.3863 304.35 40.9551 304.648 42.4687C304.945 43.9822 305.68 45.3725 306.758 46.4637C307.836 47.5549 309.21 48.298 310.706 48.5991C312.201 48.9001 313.752 48.7456 315.16 48.1551C316.569 47.5645 317.773 46.5645 318.62 45.2813C319.468 43.9982 319.92 42.4897 319.92 40.9465C319.917 38.878 319.104 36.8949 317.659 35.4322C316.213 33.9696 314.254 33.1467 312.21 33.144Z" fill="#2F589A"/>
<path d="M314.58 40.9464C314.582 41.4212 314.445 41.8859 314.186 42.2817C313.927 42.6774 313.557 42.9864 313.124 43.1695C312.691 43.3526 312.214 43.4016 311.754 43.3102C311.294 43.2188 310.87 42.9911 310.538 42.6561C310.206 42.3211 309.979 41.8937 309.887 41.4282C309.794 40.9627 309.841 40.4799 310.02 40.0411C310.199 39.6022 310.503 39.2271 310.893 38.9631C311.283 38.6991 311.741 38.5581 312.21 38.5581C312.521 38.5568 312.829 38.6176 313.117 38.737C313.404 38.8564 313.665 39.0322 313.886 39.2541C314.106 39.476 314.281 39.7397 314.4 40.0301C314.519 40.3206 314.58 40.632 314.58 40.9464Z" fill="white"/>
<path opacity="0.5" d="M8.68004 108.103C7.02066 108.103 5.39854 107.605 4.01881 106.672C2.63908 105.739 1.56371 104.413 0.928694 102.862C0.293675 101.31 0.127524 99.6028 0.451254 97.9558C0.774984 96.3088 1.57406 94.7959 2.74742 93.6085C3.92078 92.421 5.41574 91.6123 7.04324 91.2847C8.67074 90.9571 10.3577 91.1253 11.8908 91.7679C13.4238 92.4105 14.7342 93.4988 15.6561 94.8951C16.578 96.2914 17.07 97.933 17.07 99.6123C17.07 101.864 16.1861 104.024 14.6127 105.616C13.0392 107.208 10.9052 108.103 8.68004 108.103ZM8.68004 91.8098C7.15515 91.8098 5.6645 92.2674 4.3966 93.1247C3.12869 93.9821 2.14048 95.2007 1.55693 96.6264C0.973381 98.0521 0.820697 99.6209 1.11819 101.134C1.41568 102.648 2.14999 104.038 3.22825 105.129C4.30651 106.221 5.6803 106.964 7.1759 107.265C8.67149 107.566 10.2217 107.411 11.6305 106.821C13.0394 106.23 14.2435 105.23 15.0907 103.947C15.9379 102.664 16.39 101.155 16.39 99.6123C16.3874 97.5437 15.5742 95.5607 14.1289 94.098C12.6836 92.6353 10.7241 91.8124 8.68004 91.8098Z" fill="#2F589A"/>
<path d="M11.0002 99.6121C11.0041 100.087 10.868 100.552 10.6093 100.949C10.3506 101.345 9.98103 101.654 9.54781 101.837C9.1146 102.019 8.63741 102.067 8.17723 101.974C7.71705 101.881 7.29478 101.651 6.96436 101.314C6.63394 100.976 6.41038 100.547 6.32226 100.08C6.23413 99.614 6.28544 99.1315 6.46962 98.6947C6.6538 98.2578 6.96249 97.8865 7.35625 97.6281C7.75001 97.3697 8.21096 97.236 8.68019 97.244C9.29651 97.252 9.88507 97.5046 10.319 97.9476C10.753 98.3905 10.9976 98.9883 11.0002 99.6121Z" fill="white"/>
<path d="M349.48 29.9561C349.275 29.789 349.124 29.5642 349.045 29.3101C348.967 29.056 348.965 28.784 349.039 28.5286C349.113 28.2732 349.261 28.0458 349.463 27.8752C349.664 27.7046 349.912 27.5984 350.173 27.5701C350.435 27.5418 350.699 27.5926 350.932 27.7162C351.165 27.8397 351.357 28.0304 351.483 28.2641C351.608 28.4979 351.663 28.7641 351.64 29.0293C351.616 29.2944 351.515 29.5465 351.35 29.7537C351.128 30.0315 350.807 30.2088 350.456 30.2468C350.106 30.2847 349.754 30.1802 349.48 29.9561Z" fill="#F0F0F0"/>
<path d="M345.54 33.8321C345.46 33.7681 345.393 33.6886 345.344 33.5983C345.295 33.508 345.263 33.4086 345.252 33.306C345.241 33.2033 345.25 33.0995 345.279 33.0004C345.308 32.9014 345.356 32.8091 345.42 32.729C345.55 32.5677 345.736 32.4645 345.941 32.4418C346.145 32.419 346.349 32.4786 346.51 32.6076C346.667 32.74 346.768 32.9289 346.79 33.1346C346.812 33.3404 346.755 33.5469 346.63 33.7107C346.567 33.7917 346.488 33.8592 346.399 33.9092C346.31 33.9592 346.212 33.9908 346.11 34.0021C346.009 34.0134 345.906 34.0042 345.808 33.975C345.71 33.9458 345.619 33.8973 345.54 33.8321Z" fill="#FAFAFA"/>
<path d="M237.47 242.061C237.621 242.214 237.723 242.409 237.765 242.621C237.806 242.833 237.784 243.052 237.702 243.252C237.621 243.451 237.482 243.622 237.305 243.742C237.127 243.862 236.918 243.926 236.705 243.926C236.492 243.926 236.283 243.862 236.105 243.742C235.928 243.622 235.789 243.451 235.708 243.252C235.626 243.052 235.604 242.833 235.645 242.621C235.687 242.409 235.789 242.214 235.94 242.061C236.144 241.858 236.419 241.744 236.705 241.744C236.991 241.744 237.266 241.858 237.47 242.061Z" fill="#FAFAFA"/>
<path d="M247.45 246.848C247.618 247.009 247.753 247.203 247.847 247.417C247.94 247.632 247.991 247.863 247.996 248.097C248 248.332 247.959 248.565 247.874 248.783C247.789 249.001 247.662 249.2 247.5 249.368C247.259 249.622 246.949 249.797 246.609 249.873C246.269 249.948 245.915 249.92 245.59 249.792C245.266 249.664 244.987 249.441 244.788 249.152C244.589 248.863 244.479 248.521 244.472 248.169C244.465 247.817 244.561 247.471 244.749 247.174C244.936 246.877 245.206 246.643 245.525 246.502C245.844 246.36 246.197 246.318 246.54 246.38C246.882 246.441 247.199 246.604 247.45 246.848Z" fill="#FAFAFA"/>
<g opacity="0.5">
<path d="M277.35 115.885C277.548 115.805 277.765 115.786 277.974 115.831C278.183 115.876 278.373 115.982 278.523 116.136C278.672 116.291 278.772 116.486 278.812 116.698C278.851 116.91 278.828 117.13 278.744 117.328C278.661 117.527 278.521 117.696 278.342 117.814C278.164 117.933 277.955 117.995 277.742 117.993C277.528 117.992 277.32 117.926 277.144 117.805C276.967 117.684 276.83 117.512 276.75 117.312C276.644 117.042 276.648 116.741 276.76 116.474C276.873 116.207 277.085 115.995 277.35 115.885Z" fill="#FAFAFA"/>
<path d="M285.74 108.619C286.066 108.49 286.422 108.461 286.764 108.537C287.105 108.613 287.417 108.789 287.66 109.044C287.903 109.299 288.066 109.621 288.128 109.969C288.19 110.317 288.148 110.676 288.009 111.001C287.869 111.326 287.638 111.601 287.344 111.793C287.05 111.984 286.706 112.084 286.357 112.078C286.007 112.072 285.667 111.961 285.379 111.76C285.091 111.559 284.869 111.276 284.74 110.947C284.57 110.504 284.579 110.01 284.766 109.574C284.954 109.138 285.304 108.795 285.74 108.619Z" fill="#FAFAFA"/>
</g>
<g opacity="0.5">
<path d="M293.08 283.017C293.082 283.372 292.98 283.719 292.787 284.015C292.593 284.311 292.318 284.542 291.994 284.679C291.671 284.816 291.315 284.853 290.971 284.785C290.627 284.717 290.311 284.547 290.062 284.297C289.813 284.047 289.644 283.728 289.575 283.38C289.506 283.033 289.54 282.672 289.674 282.344C289.807 282.016 290.034 281.736 290.326 281.538C290.617 281.341 290.96 281.236 291.31 281.236C291.778 281.236 292.226 281.423 292.558 281.757C292.89 282.091 293.077 282.544 293.08 283.017Z" fill="#FAFAFA"/>
<path d="M287.81 287.895C287.812 288.108 287.752 288.317 287.636 288.494C287.52 288.672 287.355 288.812 287.161 288.894C286.967 288.976 286.753 288.998 286.546 288.957C286.34 288.916 286.15 288.814 286.001 288.663C285.852 288.513 285.751 288.321 285.71 288.112C285.67 287.903 285.692 287.686 285.773 287.49C285.854 287.293 285.992 287.126 286.168 287.009C286.344 286.892 286.55 286.83 286.76 286.832C286.9 286.825 287.04 286.847 287.171 286.898C287.301 286.949 287.42 287.027 287.519 287.127C287.618 287.227 287.695 287.347 287.745 287.48C287.795 287.612 287.818 287.753 287.81 287.895Z" fill="#FAFAFA"/>
<path d="M284.82 281.236C284.828 281.409 284.784 281.58 284.695 281.727C284.605 281.875 284.473 281.991 284.317 282.062C284.161 282.132 283.987 282.153 283.819 282.122C283.651 282.091 283.495 282.009 283.374 281.888C283.252 281.766 283.169 281.61 283.137 281.44C283.104 281.27 283.123 281.094 283.19 280.935C283.258 280.776 283.372 280.642 283.516 280.549C283.661 280.457 283.829 280.41 284 280.416C284.214 280.423 284.417 280.512 284.568 280.664C284.72 280.816 284.81 281.02 284.82 281.236Z" fill="#FAFAFA"/>
</g>
<g opacity="0.5">
<path d="M26.6802 277.38C26.6802 277.733 26.5769 278.077 26.3835 278.37C26.1902 278.663 25.9153 278.891 25.5937 279.026C25.2721 279.161 24.9182 279.196 24.5768 279.127C24.2354 279.058 23.9218 278.889 23.6756 278.64C23.4295 278.391 23.2619 278.073 23.194 277.728C23.1261 277.382 23.1609 277.024 23.2941 276.699C23.4273 276.373 23.6529 276.095 23.9424 275.899C24.2318 275.704 24.5721 275.599 24.9202 275.599C25.3869 275.599 25.8346 275.787 26.1647 276.121C26.4947 276.455 26.6802 276.908 26.6802 277.38Z" fill="#FAFAFA"/>
<path d="M21.4099 282.298C21.4001 282.496 21.3332 282.687 21.2176 282.846C21.1019 283.006 20.9426 283.128 20.7592 283.197C20.5758 283.265 20.3765 283.278 20.1859 283.234C19.9954 283.189 19.8219 283.089 19.687 282.946C19.5521 282.802 19.4617 282.622 19.427 282.427C19.3923 282.233 19.4148 282.032 19.4917 281.85C19.5687 281.668 19.6967 281.513 19.8599 281.404C20.0231 281.294 20.2143 281.236 20.4099 281.236C20.5455 281.236 20.6798 281.263 20.8045 281.317C20.9292 281.371 21.0417 281.45 21.1353 281.55C21.2288 281.649 21.3014 281.767 21.3486 281.896C21.3958 282.024 21.4167 282.161 21.4099 282.298Z" fill="#FAFAFA"/>
<path d="M18.43 275.64C18.43 275.81 18.3801 275.976 18.2867 276.117C18.1933 276.259 18.0606 276.369 17.9053 276.434C17.7499 276.499 17.579 276.516 17.4142 276.483C17.2493 276.45 17.0978 276.368 16.9789 276.248C16.8601 276.127 16.7791 275.974 16.7463 275.807C16.7135 275.64 16.7303 275.467 16.7947 275.31C16.859 275.153 16.968 275.019 17.1077 274.924C17.2475 274.83 17.4119 274.779 17.58 274.779C17.8054 274.779 18.0216 274.87 18.181 275.031C18.3404 275.193 18.43 275.411 18.43 275.64Z" fill="#FAFAFA"/>
</g>
<path d="M155.78 31.2314C155.78 31.4475 155.717 31.6589 155.598 31.8386C155.479 32.0183 155.311 32.1584 155.113 32.2412C154.916 32.3239 154.699 32.3455 154.489 32.3033C154.28 32.2612 154.087 32.1571 153.936 32.0042C153.785 31.8514 153.683 31.6566 153.641 31.4446C153.599 31.2326 153.621 31.0128 153.702 30.8131C153.784 30.6134 153.923 30.4427 154.1 30.3226C154.278 30.2025 154.487 30.1384 154.7 30.1384C154.987 30.1384 155.261 30.2536 155.464 30.4585C155.666 30.6635 155.78 30.9415 155.78 31.2314Z" fill="#FAFAFA"/>
<path d="M160.87 16.8913L163.31 19.3302L166.67 18.6724C166.742 18.6587 166.816 18.6656 166.884 18.6923C166.952 18.719 167.011 18.7644 167.055 18.8234C167.098 18.8824 167.125 18.9526 167.131 19.0261C167.137 19.0996 167.123 19.1734 167.09 19.2391L165.56 22.3561L167.21 25.3921C167.247 25.4567 167.265 25.5306 167.262 25.6052C167.259 25.6798 167.235 25.752 167.193 25.8135C167.152 25.8749 167.093 25.9231 167.026 25.9524C166.958 25.9817 166.883 25.9909 166.81 25.979L163.43 25.4629L161.08 27.9929C161.03 28.047 160.966 28.0856 160.895 28.1044C160.824 28.1232 160.749 28.1214 160.679 28.0992C160.609 28.0771 160.547 28.0354 160.499 27.979C160.452 27.9226 160.421 27.8538 160.41 27.7804L159.85 24.3598L156.75 22.8924C156.685 22.8599 156.63 22.8095 156.591 22.7469C156.553 22.6843 156.532 22.612 156.532 22.5382C156.532 22.4645 156.553 22.3922 156.591 22.3296C156.63 22.267 156.685 22.2166 156.75 22.184L159.75 20.5851L160.18 17.1443C160.18 17.063 160.205 16.9837 160.251 16.9172C160.297 16.8506 160.362 16.8001 160.437 16.7724C160.513 16.7447 160.595 16.7413 160.672 16.7626C160.75 16.7838 160.819 16.8288 160.87 16.8913Z" fill="#FAFAFA"/>
<path d="M75.9998 174.875L76.3798 177.536L78.7498 178.72C78.8005 178.745 78.8433 178.784 78.8732 178.832C78.9032 178.881 78.919 178.936 78.919 178.993C78.919 179.05 78.9032 179.106 78.8732 179.155C78.8433 179.203 78.8005 179.242 78.7498 179.267L76.3798 180.451L75.9898 183.112C75.9806 183.167 75.9565 183.219 75.9201 183.261C75.8838 183.303 75.8366 183.335 75.7838 183.351C75.731 183.368 75.6747 183.37 75.6211 183.356C75.5674 183.343 75.5185 183.314 75.4798 183.274L73.6298 181.351L71.0198 181.807C70.9637 181.818 70.9056 181.813 70.8524 181.791C70.7992 181.77 70.7531 181.734 70.7195 181.687C70.6859 181.641 70.6662 181.585 70.6627 181.527C70.6592 181.47 70.6721 181.412 70.6998 181.362L71.9298 178.993L70.6998 176.615C70.6795 176.566 70.6717 176.513 70.6772 176.461C70.6827 176.408 70.7013 176.357 70.7313 176.314C70.7612 176.271 70.8016 176.235 70.8485 176.212C70.8955 176.189 70.9475 176.178 70.9998 176.18L73.6098 176.635L75.4598 174.723C75.4982 174.678 75.5484 174.645 75.6046 174.628C75.6609 174.61 75.7207 174.61 75.7773 174.626C75.8339 174.642 75.8848 174.673 75.9242 174.717C75.9636 174.762 75.9898 174.816 75.9998 174.875Z" fill="#FAFAFA"/>
<path d="M311.05 3.56323L313.65 3.08759L314.74 0.638551C314.764 0.587221 314.803 0.543931 314.851 0.513642C314.898 0.483352 314.954 0.467285 315.01 0.467285C315.066 0.467285 315.121 0.483352 315.169 0.513642C315.217 0.543931 315.255 0.587221 315.28 0.638551L316.54 3.00663L319.17 3.30011C319.225 3.3061 319.277 3.32739 319.321 3.36164C319.365 3.39588 319.399 3.44174 319.418 3.49413C319.438 3.54652 319.443 3.6034 319.433 3.65846C319.422 3.71353 319.397 3.76463 319.36 3.80611L317.53 5.74915L318.07 8.37023C318.08 8.42634 318.075 8.48422 318.055 8.53764C318.035 8.59106 318.002 8.63799 317.957 8.67339C317.913 8.70878 317.86 8.73129 317.804 8.7385C317.748 8.74572 317.691 8.73735 317.64 8.71431L315.25 7.55051L313 8.85599C312.951 8.88515 312.895 8.89981 312.839 8.8983C312.782 8.89678 312.728 8.87914 312.681 8.84742C312.633 8.81569 312.596 8.77116 312.573 8.71896C312.55 8.66677 312.542 8.60903 312.55 8.55239L312.91 5.89083L310.91 4.08947C310.868 4.05207 310.837 4.00346 310.82 3.94915C310.804 3.89485 310.803 3.83702 310.818 3.78223C310.833 3.72744 310.862 3.67787 310.903 3.63917C310.944 3.60046 310.995 3.57415 311.05 3.56323Z" fill="#FAFAFA"/>
<path d="M152.87 285.78C153.097 285.914 153.28 286.113 153.395 286.352C153.51 286.592 153.553 286.86 153.517 287.124C153.482 287.387 153.37 287.635 153.196 287.834C153.022 288.033 152.793 288.176 152.539 288.244C152.285 288.312 152.016 288.302 151.767 288.215C151.519 288.129 151.301 287.97 151.142 287.758C150.982 287.546 150.888 287.291 150.872 287.026C150.856 286.76 150.918 286.496 151.05 286.266C151.137 286.112 151.253 285.977 151.392 285.869C151.531 285.761 151.69 285.682 151.859 285.637C152.029 285.591 152.205 285.581 152.379 285.605C152.552 285.63 152.719 285.689 152.87 285.78Z" fill="#F0F0F0"/>
<path d="M156.17 281.337C156.348 281.441 156.479 281.612 156.533 281.813C156.588 282.014 156.561 282.228 156.46 282.41C156.409 282.499 156.341 282.578 156.261 282.64C156.18 282.703 156.087 282.749 155.989 282.776C155.89 282.802 155.787 282.808 155.686 282.794C155.585 282.78 155.488 282.746 155.4 282.693C155.312 282.642 155.235 282.574 155.173 282.492C155.111 282.411 155.065 282.318 155.039 282.219C155.012 282.12 155.006 282.016 155.019 281.914C155.032 281.813 155.064 281.714 155.115 281.625C155.166 281.536 155.233 281.458 155.313 281.395C155.394 281.333 155.485 281.287 155.583 281.26C155.681 281.233 155.784 281.226 155.884 281.239C155.985 281.253 156.082 281.286 156.17 281.337Z" fill="#FAFAFA"/>
<path d="M194.85 305.888L192.34 306.769L191.64 309.349C191.625 309.404 191.595 309.454 191.554 309.492C191.513 309.531 191.462 309.557 191.406 309.567C191.351 309.578 191.294 309.573 191.242 309.552C191.189 309.531 191.144 309.496 191.11 309.45L189.51 307.315L186.86 307.436C186.803 307.44 186.745 307.428 186.695 307.4C186.645 307.371 186.603 307.329 186.576 307.278C186.548 307.227 186.536 307.169 186.54 307.111C186.545 307.053 186.565 306.997 186.6 306.951L188.11 304.755L187.18 302.245C187.158 302.191 187.152 302.132 187.162 302.075C187.172 302.018 187.198 301.965 187.237 301.923C187.276 301.88 187.326 301.85 187.382 301.835C187.437 301.82 187.496 301.822 187.55 301.84L190.09 302.619L192.16 300.95C192.204 300.913 192.257 300.89 192.313 300.883C192.369 300.876 192.426 300.885 192.478 300.91C192.529 300.934 192.572 300.972 192.603 301.021C192.633 301.069 192.65 301.125 192.65 301.182V303.864L194.86 305.342C194.91 305.367 194.952 305.407 194.982 305.456C195.011 305.505 195.025 305.561 195.024 305.618C195.023 305.675 195.006 305.731 194.976 305.778C194.945 305.826 194.901 305.864 194.85 305.888Z" fill="#FAFAFA"/>
<path d="M366.86 116.34C367.186 116.211 367.542 116.183 367.884 116.258C368.225 116.334 368.537 116.51 368.78 116.765C369.023 117.02 369.185 117.342 369.247 117.69C369.31 118.039 369.268 118.398 369.129 118.722C368.989 119.047 368.758 119.323 368.464 119.514C368.17 119.706 367.826 119.805 367.476 119.799C367.127 119.793 366.787 119.683 366.499 119.482C366.211 119.28 365.989 118.997 365.86 118.668C365.774 118.449 365.732 118.215 365.736 117.979C365.74 117.743 365.789 117.51 365.882 117.294C365.975 117.078 366.109 116.882 366.277 116.719C366.445 116.555 366.643 116.426 366.86 116.34Z" fill="#FAFAFA"/>
</svg>
