<svg width="433" height="123" viewBox="0 0 433 123" fill="none" xmlns="http://www.w3.org/2000/svg">
<path d="M393.71 76.9872L400.35 81.4186C400.35 81.0724 400.3 80.7377 400.3 80.4031V78.1759C400.3 74.2292 402.7 72.6251 405.67 74.5985C406.942 75.5094 408.032 76.7208 408.87 78.1528C409.35 73.1906 412.73 71.3326 416.87 74.0676C421.31 77.0219 424.87 84.2113 424.87 90.1198V93.4779C424.902 94.8058 424.669 96.1245 424.19 97.3323L429.71 101.002C430.582 101.651 431.308 102.528 431.829 103.563C432.351 104.598 432.653 105.761 432.71 106.957C432.71 109.149 431.38 110.038 429.71 108.941L393.71 84.9614C392.839 84.3106 392.114 83.4323 391.593 82.3978C391.072 81.3632 390.769 80.2015 390.71 79.0067C390.73 76.7795 392.07 75.8909 393.71 76.9872Z" fill="#F0F0F0"/>
<path d="M338.54 15.9753L342.2 17.6025V8.28968C342.2 0.904083 347.31 -0.861536 352.85 2.83126C358.39 6.51252 362.85 15.5253 362.85 22.8762V24.238C363.631 23.9616 364.455 23.8928 365.262 24.0367C366.069 24.1806 366.838 24.5335 367.51 25.0688C369.61 26.6534 371.358 28.7856 372.612 31.2934C373.866 33.8012 374.592 36.6143 374.73 39.5054V40.117L379.83 43.579C381.215 44.6177 382.369 46.0193 383.196 47.6697C384.023 49.3201 384.501 51.1726 384.59 53.0764C384.59 56.5384 382.46 57.9925 379.83 56.2499L338.54 28.6462C337.156 27.6063 336.005 26.2041 335.179 24.5538C334.354 22.9035 333.878 21.0516 333.79 19.1488C333.79 15.6407 335.91 14.2212 338.54 15.9753Z" fill="#F0F0F0"/>
<path d="M39.3699 89.9352L32.7299 94.3665C32.7299 94.0203 32.7899 93.6857 32.7899 93.351V91.1699C32.7899 87.2117 30.3799 85.6077 27.4199 87.5925C26.1439 88.4928 25.0522 89.7015 24.2199 91.1353C23.7299 86.1731 20.3499 84.3152 16.2199 87.0502C11.7799 90.0044 8.21988 97.1938 8.21988 103.114V106.426C8.18792 107.754 8.42056 109.072 8.89988 110.28L3.37988 113.95C2.50961 114.601 1.78448 115.479 1.26326 116.514C0.742035 117.548 0.439399 118.71 0.379883 119.905C0.379883 122.097 1.71988 122.986 3.37988 121.889L39.3799 97.9093C40.2518 97.2606 40.9782 96.3828 41.4997 95.3478C42.0211 94.3128 42.3227 93.15 42.3799 91.9547C42.3499 89.739 40.9999 88.8619 39.3699 89.9352Z" fill="#F0F0F0"/>
<path d="M69.06 20.776L65.4 22.4031V13.1134C65.4 5.72781 60.29 3.96219 54.75 7.65499C49.21 11.3363 44.75 20.349 44.75 27.7V29.0501C43.9693 28.7738 43.1445 28.705 42.3374 28.8489C41.5304 28.9928 40.762 29.3456 40.09 29.881C37.9844 31.4617 36.2308 33.5923 34.9713 36.1003C33.7117 38.6084 32.9816 41.4234 32.84 44.3176V44.9292L27.74 48.3335C26.3583 49.3747 25.2089 50.7774 24.3853 52.4277C23.5616 54.078 23.087 55.9292 23 57.8309C23 61.2929 25.13 62.747 27.76 61.0044L69.06 33.47C70.4419 32.428 71.592 31.0253 72.4172 29.3754C73.2424 27.7255 73.7195 25.8747 73.81 23.9726C73.81 20.4644 71.68 19.045 69.06 20.776Z" fill="#F0F0F0"/>
</svg>
