<svg width="255" height="93" viewBox="0 0 255 93" fill="none" xmlns="http://www.w3.org/2000/svg">
<path opacity="0.25" d="M251.6 46.9019C250.034 45.9157 248.314 45.2997 246.54 45.0901C246.48 42.6206 245.04 40.1626 242.21 38.2815C236.42 34.4272 227.04 34.4272 221.21 38.2815C216.21 41.6051 215.54 46.7058 219.15 50.514C212.84 49.7754 206.15 51.0217 201.24 54.2645C198.24 56.2609 196.4 58.7073 195.66 61.2808C186.66 58.2573 175.37 59.2382 167.84 64.2465C166.507 65.1283 165.274 66.1982 164.17 67.4316C155.93 61.9501 142.57 61.9501 134.33 67.4316C131.24 69.4973 129.33 72.0476 128.53 74.7018C127.343 71.8948 125.404 69.6042 123 68.1701C115.94 63.4618 105.11 62.8041 96.9999 66.1737C95.5833 63.6474 93.6363 61.5753 91.3399 60.1499C83.9099 55.1992 72.8299 54.1837 63.8699 57.0687C65.5899 52.7412 63.8699 47.9405 58.8699 44.5478C53.6299 41.0858 46.1499 39.9318 39.5099 41.282C42.2299 37.6469 41.3199 33.1232 36.7799 30.0997C31.0899 26.303 21.8699 26.303 16.1799 30.0997C14.5903 31.0564 13.2845 32.5392 12.4299 34.358C9.35309 33.7943 6.20068 34.3763 3.42989 36.0197C-0.290107 38.5008 -0.290107 42.5283 3.42989 45.0094C5.52196 46.2331 7.83443 46.8708 10.1799 46.8708C12.5254 46.8708 14.8378 46.2331 16.9299 45.0094C17.1099 44.8907 17.2835 44.7597 17.4499 44.617C21.0403 46.3775 24.9612 47.0488 28.8399 46.5673C23.7699 51.6218 24.5699 58.5112 31.2699 62.9771C36.8299 66.6815 44.9199 67.6624 51.8399 65.9545C48.6899 71.6437 50.5099 78.2792 57.3699 82.8375C66.0299 88.6075 79.6399 89.046 89.0699 84.1646C90.2272 85.7605 91.6309 87.0948 93.2099 88.0997C100.92 93.235 113.1 93.5697 121.39 89.1037C121.57 89.2422 121.76 89.3922 121.96 89.5191C124.148 90.805 126.569 91.4754 129.025 91.4754C131.481 91.4754 133.902 90.805 136.09 89.5191C136.404 89.3088 136.704 89.0736 136.99 88.8152C145.24 92.7734 156.79 92.2772 164.21 87.3496C164.926 86.8692 165.611 86.3292 166.26 85.734C166.77 86.1495 167.32 86.5534 167.9 86.888C177.29 93.1427 192.51 93.1427 201.9 86.888C206.22 84.0146 208.52 80.3218 208.9 76.5597C216.06 78.2561 224.34 77.206 230.06 73.3862C237.58 68.3779 237.96 60.4268 231.22 55.1069C232.756 55.1564 234.293 55.0366 235.81 54.7491C236.314 55.3671 236.898 55.8925 237.54 56.307C239.728 57.5874 242.147 58.2547 244.6 58.2547C247.053 58.2547 249.472 57.5874 251.66 56.307C255.5 53.7221 255.5 49.4984 251.6 46.9019Z" fill="black"/>
<path d="M127.5 75.5789C159.632 75.5789 185.68 63.2565 185.68 48.056C185.68 32.8555 159.632 20.5331 127.5 20.5331C95.3679 20.5331 69.3198 32.8555 69.3198 48.056C69.3198 63.2565 95.3679 75.5789 127.5 75.5789Z" fill="#6879C8"/>
<path d="M127.5 75.5789C159.632 75.5789 185.68 63.2565 185.68 48.056C185.68 32.8555 159.632 20.5331 127.5 20.5331C95.3679 20.5331 69.3198 32.8555 69.3198 48.056C69.3198 63.2565 95.3679 75.5789 127.5 75.5789Z" fill="#6879C8"/>
<g opacity="0.9">
<path d="M127.5 75.5789C159.632 75.5789 185.68 63.2565 185.68 48.056C185.68 32.8555 159.632 20.5331 127.5 20.5331C95.3679 20.5331 69.3198 32.8555 69.3198 48.056C69.3198 63.2565 95.3679 75.5789 127.5 75.5789Z" fill="white"/>
</g>
<path d="M66.3697 29.6612C66.5028 21.8527 69.2843 14.4158 74.1167 8.94785C78.949 3.4799 85.4469 0.416992 92.2147 0.416992C98.9825 0.416992 105.48 3.4799 110.313 8.94785C115.145 14.4158 117.927 21.8527 118.06 29.6612C118.06 29.9497 118.06 30.2036 118.06 30.4921C118.06 30.7806 118.06 31.0344 118.06 31.3229C117.76 35.4543 115.24 39.5048 110.49 42.6783C100.41 49.4061 84.0197 49.4061 73.9097 42.6783C69.1897 39.5048 66.6697 35.4543 66.3697 31.3229C66.3697 31.0344 66.3697 30.7806 66.3697 30.4921C66.3697 30.2036 66.3497 29.9497 66.3697 29.6612Z" fill="#6879C8"/>
<g opacity="0.8">
<path d="M66.3697 29.6612C66.5028 21.8527 69.2843 14.4158 74.1167 8.94785C78.949 3.4799 85.4469 0.416992 92.2147 0.416992C98.9825 0.416992 105.48 3.4799 110.313 8.94785C115.145 14.4158 117.927 21.8527 118.06 29.6612C118.06 29.9497 118.06 30.2036 118.06 30.4921C118.06 30.7806 118.06 31.0344 118.06 31.3229C117.76 35.4543 115.24 39.5048 110.49 42.6783C100.41 49.4061 84.0197 49.4061 73.9097 42.6783C69.1897 39.5048 66.6697 35.4543 66.3697 31.3229C66.3697 31.0344 66.3697 30.7806 66.3697 30.4921C66.3697 30.2036 66.3497 29.9497 66.3697 29.6612Z" fill="white"/>
</g>
<g style="mix-blend-mode:lighten" opacity="0.3">
<path d="M80.9998 3.62695C84.8841 1.45732 89.1777 0.445814 93.4882 0.684866C97.7986 0.923917 101.988 2.40591 105.675 4.99539C109.361 7.58487 112.426 11.1992 114.589 15.5081C116.753 19.817 117.946 24.6829 118.06 29.6612C118.06 29.9497 118.06 30.2036 118.06 30.4921C118.06 30.7806 118.06 31.0345 118.06 31.323C117.76 35.4543 115.24 39.5048 110.49 42.6783C106.469 45.2182 102.049 46.8071 97.4898 47.352C104.2 46.0134 108.49 37.3699 106.49 27.8263C104.12 16.7595 94.4198 0.765033 80.9998 3.62695Z" fill="white"/>
</g>
<path opacity="0.1" d="M66.3699 31.323C66.3699 31.0345 66.3699 30.7806 66.3699 30.4921C66.3699 30.2036 66.3699 29.9497 66.3699 29.6612C66.4646 25.5633 67.2936 21.5324 68.8047 17.8224C70.3158 14.1123 72.4762 10.8036 75.1499 8.10449C72.3399 11.4396 66.0899 23.9951 72.8799 33.5733C77.3499 39.8626 98.5399 48.8522 115.98 37.3007C114.482 39.5017 112.615 41.3308 110.49 42.6783C100.41 49.4061 84.0199 49.4061 73.9099 42.6783C69.1899 39.5048 66.6699 35.512 66.3699 31.323Z" fill="#6879C8"/>
<g style="mix-blend-mode:lighten" opacity="0.5">
<path d="M92.4799 7.36585C91.3199 10.4124 93.5399 14.4745 97.4799 16.4594C101.42 18.4443 105.48 17.6134 106.64 14.5322C107.8 11.451 105.57 7.42357 101.64 5.43869C97.7099 3.45381 93.6399 4.35392 92.4799 7.36585Z" fill="white"/>
</g>
<g style="mix-blend-mode:lighten" opacity="0.5">
<path d="M107.45 19.7484C106.85 21.3294 107.73 23.3027 109.45 24.1567C111.17 25.0106 112.98 24.4221 113.58 22.8411C114.18 21.2601 113.31 19.2752 111.63 18.4213C110.922 17.9621 110.086 17.8439 109.303 18.0924C108.52 18.3409 107.854 18.9361 107.45 19.7484Z" fill="white"/>
</g>
<path d="M176.18 30.4574C175.786 24.0508 173.304 18.0542 169.231 13.676C165.159 9.29786 159.8 6.86353 154.235 6.86353C148.669 6.86353 143.31 9.29786 139.238 13.676C135.166 18.0542 132.683 24.0508 132.29 30.4574C132.29 30.6998 132.29 30.9191 132.29 31.1614C132.29 31.4037 132.29 31.623 132.29 31.8653C132.54 35.3273 134.68 38.7893 138.72 41.5128C147.28 47.2251 161.2 47.2251 169.78 41.5128C173.78 38.824 175.94 35.3735 176.18 31.8653C176.18 31.623 176.18 31.4037 176.18 31.1614C176.18 30.9191 176.2 30.6998 176.18 30.4574Z" fill="#6879C8"/>
<g opacity="0.8">
<path d="M176.18 30.4574C175.786 24.0508 173.304 18.0542 169.231 13.676C165.159 9.29786 159.8 6.86353 154.235 6.86353C148.669 6.86353 143.31 9.29786 139.238 13.676C135.166 18.0542 132.683 24.0508 132.29 30.4574C132.29 30.6998 132.29 30.9191 132.29 31.1614C132.29 31.4037 132.29 31.623 132.29 31.8653C132.54 35.3273 134.68 38.7893 138.72 41.5128C147.28 47.2251 161.2 47.2251 169.78 41.5128C173.78 38.824 175.94 35.3735 176.18 31.8653C176.18 31.623 176.18 31.4037 176.18 31.1614C176.18 30.9191 176.2 30.6998 176.18 30.4574Z" fill="white"/>
</g>
<g style="mix-blend-mode:lighten" opacity="0.3">
<path d="M163.76 8.34677C160.461 6.50576 156.815 5.64799 153.155 5.85181C149.495 6.05562 145.938 7.31455 142.808 9.51356C139.678 11.7126 137.075 14.7816 135.238 18.4402C133.401 22.0988 132.387 26.2303 132.29 30.4574C132.29 30.6998 132.29 30.919 132.29 31.1614C132.29 31.4037 132.29 31.623 132.29 31.8653C132.54 35.3273 134.68 38.7893 138.72 41.5128C142.122 43.6656 145.861 45.0152 149.72 45.4825C144.03 44.3285 140.34 37.0006 142.09 28.8995C144.13 19.5059 152.37 5.91183 163.76 8.34677Z" fill="white"/>
</g>
<path opacity="0.1" d="M176.18 31.8653C176.18 31.623 176.18 31.4037 176.18 31.1614C176.18 30.9191 176.18 30.6998 176.18 30.4575C176.102 26.9781 175.4 23.5551 174.118 20.4049C172.835 17.2546 171.001 14.4455 168.73 12.155C171.12 14.9823 176.42 25.6453 170.66 33.781C166.87 39.124 148.87 46.7519 134.06 36.9545C135.332 38.8202 136.917 40.3706 138.72 41.5128C147.28 47.2251 161.2 47.2251 169.78 41.5128C173.79 38.824 175.94 35.3735 176.18 31.8653Z" fill="#6879C8"/>
<g style="mix-blend-mode:lighten" opacity="0.5">
<path d="M154 11.5318C155 14.1052 153.09 17.5672 149.78 19.2405C146.47 20.9138 142.98 20.1868 142 17.6019C141.02 15.0169 142.91 11.5664 146.22 9.89313C149.53 8.21983 153 8.96995 154 11.5318Z" fill="white"/>
</g>
<g style="mix-blend-mode:lighten" opacity="0.5">
<path d="M141.3 22.0447C141.641 22.6093 141.822 23.2816 141.819 23.9696C141.815 24.6576 141.628 25.3276 141.281 25.8877C140.935 26.4478 140.447 26.8707 139.885 27.0983C139.322 27.3259 138.712 27.3472 138.139 27.1592C137.565 26.9711 137.056 26.5831 136.681 26.0481C136.306 25.5131 136.084 24.8574 136.045 24.1709C136.006 23.4844 136.151 22.8007 136.462 22.2135C136.772 21.6262 137.233 21.1642 137.78 20.8907C138.38 20.509 139.086 20.4161 139.746 20.6322C140.405 20.8483 140.963 21.3559 141.3 22.0447Z" fill="white"/>
</g>
<path d="M198.23 35.0388C198.035 30.7529 196.422 26.7168 193.724 23.7628C191.026 20.8087 187.449 19.1619 183.73 19.1619C180.011 19.1619 176.433 20.8087 173.736 23.7628C171.038 26.7168 169.425 30.7529 169.23 35.0388C169.23 35.2003 169.23 35.3388 169.23 35.5004C169.23 35.6619 169.23 35.8119 169.23 35.9735C169.4 38.2815 170.81 40.5895 173.48 42.3436C179.15 46.1172 188.35 46.1172 194.02 42.3436C196.68 40.5664 198.1 38.293 198.26 35.9735C198.26 35.8119 198.26 35.6619 198.26 35.5004C198.26 35.3388 198.24 35.2003 198.23 35.0388Z" fill="#6879C8"/>
<g opacity="0.9">
<path d="M198.23 35.0388C198.035 30.7529 196.422 26.7168 193.724 23.7628C191.026 20.8087 187.449 19.1619 183.73 19.1619C180.011 19.1619 176.433 20.8087 173.736 23.7628C171.038 26.7168 169.425 30.7529 169.23 35.0388C169.23 35.2003 169.23 35.3388 169.23 35.5004C169.23 35.6619 169.23 35.8119 169.23 35.9735C169.4 38.2815 170.81 40.5895 173.48 42.3436C179.15 46.1172 188.35 46.1172 194.02 42.3436C196.68 40.5664 198.1 38.293 198.26 35.9735C198.26 35.8119 198.26 35.6619 198.26 35.5004C198.26 35.3388 198.24 35.2003 198.23 35.0388Z" fill="white"/>
</g>
<g style="mix-blend-mode:lighten" opacity="0.5">
<path d="M190 20.4177C187.818 19.1972 185.406 18.6275 182.984 18.7608C180.562 18.8941 178.208 19.726 176.137 21.1806C174.066 22.6351 172.344 24.6657 171.128 27.0868C169.913 29.5078 169.243 32.2418 169.18 35.0388C169.18 35.2004 169.18 35.3388 169.18 35.5004C169.18 35.662 169.18 35.812 169.18 35.9736C169.35 38.2816 170.76 40.5896 173.43 42.3437C175.684 43.7698 178.163 44.6605 180.72 44.9632C176.95 44.2131 174.51 39.3663 175.67 34.0002C177 27.7917 182.48 18.8021 190 20.4177Z" fill="white"/>
</g>
<path opacity="0.1" d="M198.23 35.9735C198.23 35.812 198.23 35.662 198.23 35.5004C198.23 35.3388 198.23 35.2004 198.23 35.0388C198.179 32.7372 197.714 30.473 196.865 28.3893C196.017 26.3056 194.803 24.4478 193.3 22.9333C194.88 24.8028 198.39 31.8538 194.57 37.2314C192.07 40.7626 180.17 45.8172 170.37 39.3317C171.215 40.5601 172.261 41.5837 173.45 42.3436C179.12 46.1172 188.32 46.1172 193.99 42.3436C196.65 40.5665 198.07 38.2931 198.23 35.9735Z" fill="#6879C8"/>
<g style="mix-blend-mode:lighten" opacity="0.5">
<path d="M183.57 22.518C184.22 24.2259 182.97 26.5108 180.78 27.6186C178.59 28.7265 176.29 28.2418 175.64 26.5339C174.99 24.826 176.24 22.541 178.43 21.4332C180.62 20.3253 182.92 20.81 183.57 22.518Z" fill="white"/>
</g>
<g style="mix-blend-mode:lighten" opacity="0.5">
<path d="M175.16 29.465C175.389 29.8357 175.513 30.2792 175.515 30.7347C175.517 31.1901 175.397 31.6351 175.171 32.0084C174.945 32.3817 174.624 32.665 174.253 32.8194C173.881 32.9738 173.478 32.9917 173.097 32.8706C172.717 32.7494 172.378 32.4953 172.128 32.143C171.878 31.7908 171.728 31.3578 171.7 30.9035C171.672 30.4492 171.766 29.996 171.97 29.6062C172.174 29.2163 172.478 28.909 172.84 28.7264C173.233 28.4749 173.697 28.4114 174.13 28.5495C174.564 28.6876 174.934 29.0162 175.16 29.465Z" fill="white"/>
</g>
<path d="M223.18 42.2628C223.064 36.3145 220.935 30.655 217.248 26.4955C213.562 22.3359 208.611 20.007 203.455 20.007C198.299 20.007 193.348 22.3359 189.661 26.4955C185.975 30.655 183.846 36.3145 183.73 42.2628C183.73 42.4821 183.73 42.6783 183.73 42.8975C183.73 43.1168 183.73 43.313 183.73 43.5322C183.96 46.6827 185.88 49.7754 189.51 52.1872C197.2 57.3225 209.71 57.3225 217.42 52.1872C221.03 49.7754 222.96 46.6827 223.18 43.5322C223.206 43.1097 223.206 42.6854 223.18 42.2628Z" fill="#6879C8"/>
<g opacity="0.7">
<path d="M223.18 42.2628C223.064 36.3145 220.935 30.655 217.248 26.4955C213.562 22.3359 208.611 20.007 203.455 20.007C198.299 20.007 193.348 22.3359 189.661 26.4955C185.975 30.655 183.846 36.3145 183.73 42.2628C183.73 42.4821 183.73 42.6783 183.73 42.8975C183.73 43.1168 183.73 43.313 183.73 43.5322C183.96 46.6827 185.88 49.7754 189.51 52.1872C197.2 57.3225 209.71 57.3225 217.42 52.1872C221.03 49.7754 222.96 46.6827 223.18 43.5322C223.206 43.1097 223.206 42.6854 223.18 42.2628Z" fill="white"/>
</g>
<g style="mix-blend-mode:lighten" opacity="0.3">
<path d="M212 22.391C209.035 20.7349 205.757 19.9628 202.467 20.1452C199.177 20.3277 195.979 21.4588 193.165 23.4353C190.351 25.4118 188.011 28.1706 186.36 31.4596C184.708 34.7486 183.797 38.4629 183.71 42.2629C183.71 42.4822 183.71 42.6783 183.71 42.8976C183.71 43.1169 183.71 43.3131 183.71 43.5323C183.94 46.6827 185.86 49.7755 189.49 52.1873C192.551 54.125 195.917 55.3374 199.39 55.7532C194.27 54.7377 190.95 48.1368 192.53 40.855C194.37 32.4193 201.77 20.21 212 22.391Z" fill="white"/>
</g>
<path opacity="0.1" d="M223.18 43.5899C223.206 43.1674 223.206 42.7431 223.18 42.3205C223.108 39.1924 222.476 36.1154 221.322 33.2832C220.169 30.451 218.521 27.9251 216.48 25.8645C218.62 28.4033 223.39 37.993 218.21 45.2979C214.8 50.11 198.63 56.9648 185.32 48.1482C186.46 49.8293 187.886 51.2234 189.51 52.2449C197.2 57.3802 209.71 57.3802 217.42 52.2449C221 49.7754 223 46.6826 223.18 43.5899Z" fill="#6879C8"/>
<g style="mix-blend-mode:lighten" opacity="0.5">
<path d="M203.26 25.2413C204.14 27.5493 202.44 30.6767 199.47 32.1653C196.5 33.654 193.36 33.0193 192.47 30.6997C191.58 28.3802 193.28 25.2759 196.26 23.7757C199.24 22.2755 202.37 22.9218 203.26 25.2413Z" fill="white"/>
</g>
<g style="mix-blend-mode:lighten" opacity="0.5">
<path d="M191.83 34.6927C192.137 35.1968 192.302 35.7983 192.302 36.4149C192.302 37.0314 192.136 37.6327 191.828 38.1365C191.52 38.6403 191.085 39.0218 190.582 39.2287C190.078 39.4357 189.532 39.458 189.017 39.2926C188.503 39.1272 188.045 38.7822 187.707 38.3048C187.369 37.8275 187.167 37.2411 187.129 36.6262C187.091 36.0112 187.218 35.3977 187.494 34.8697C187.77 34.3418 188.181 33.9252 188.67 33.6771C189.207 33.3376 189.838 33.2537 190.429 33.4434C191.019 33.6331 191.522 34.0814 191.83 34.6927Z" fill="white"/>
</g>
<path d="M243.75 42.3205C243.75 38.6478 242.485 35.1255 240.235 32.5285C237.985 29.9315 234.932 28.4725 231.75 28.4725C228.567 28.4725 225.515 29.9315 223.264 32.5285C221.014 35.1255 219.75 38.6478 219.75 42.3205C219.75 42.4475 219.75 42.5744 219.75 42.7014C219.75 42.8283 219.75 42.9552 219.75 43.0937C219.89 45.0094 221.06 46.9019 223.27 48.3675C227.96 51.5064 235.58 51.5064 240.27 48.3675C242.47 46.9019 243.64 45.0094 243.78 43.0937C243.78 42.9552 243.78 42.8399 243.78 42.7014C243.78 42.5629 243.76 42.4359 243.75 42.3205Z" fill="#6879C8"/>
<g opacity="0.5">
<path d="M243.75 42.3205C243.75 38.6478 242.485 35.1255 240.235 32.5285C237.985 29.9315 234.932 28.4725 231.75 28.4725C228.567 28.4725 225.515 29.9315 223.264 32.5285C221.014 35.1255 219.75 38.6478 219.75 42.3205C219.75 42.4475 219.75 42.5744 219.75 42.7014C219.75 42.8283 219.75 42.9552 219.75 43.0937C219.89 45.0094 221.06 46.9019 223.27 48.3675C227.96 51.5064 235.58 51.5064 240.27 48.3675C242.47 46.9019 243.64 45.0094 243.78 43.0937C243.78 42.9552 243.78 42.8399 243.78 42.7014C243.78 42.5629 243.76 42.4359 243.75 42.3205Z" fill="white"/>
</g>
<g style="mix-blend-mode:lighten" opacity="0.5">
<path d="M237 30.2036C235.193 29.1905 233.194 28.7172 231.187 28.8271C229.181 28.937 227.23 29.6265 225.514 30.8324C223.798 32.0384 222.372 33.7221 221.367 35.7293C220.362 37.7365 219.809 40.0029 219.76 42.3206C219.76 42.4475 219.76 42.5745 219.76 42.7014C219.76 42.8283 219.76 42.9553 219.76 43.0937C219.9 45.0094 221.07 46.902 223.28 48.3675C225.134 49.549 227.174 50.2905 229.28 50.5486C226.16 49.9254 224.14 45.9326 225.1 41.4666C226.19 36.3198 230.7 28.8765 237 30.2036Z" fill="white"/>
</g>
<path opacity="0.2" d="M243.75 43.0937C243.75 42.9552 243.75 42.8398 243.75 42.7013C243.75 42.5629 243.75 42.4474 243.75 42.3205C243.704 40.4149 243.319 38.5406 242.617 36.815C241.915 35.0894 240.911 33.5497 239.67 32.2922C240.97 33.8386 243.88 39.6894 240.72 44.1323C238.65 47.0634 228.79 51.2409 220.72 45.8748C221.413 46.8987 222.281 47.7471 223.27 48.3675C227.96 51.5064 235.58 51.5064 240.27 48.3675C242.44 46.9019 243.61 45.0093 243.75 43.0937Z" fill="#6879C8"/>
<g style="mix-blend-mode:lighten" opacity="0.5">
<path d="M231.61 31.9461C232.15 33.3655 231.11 35.2581 229.3 36.1813C227.49 37.1045 225.58 36.689 225.04 35.2811C224.5 33.8733 225.53 31.9692 227.35 31.0575C229.17 30.1459 231.07 30.5382 231.61 31.9461Z" fill="white"/>
</g>
<g style="mix-blend-mode:lighten" opacity="0.5">
<path d="M224.64 37.7045C224.829 38.0112 224.932 38.3781 224.933 38.7548C224.935 39.1315 224.835 39.4995 224.648 39.8082C224.461 40.1169 224.196 40.3511 223.889 40.4787C223.582 40.6063 223.248 40.621 222.933 40.5207C222.618 40.4205 222.338 40.2103 222.131 39.9189C221.924 39.6276 221.801 39.2694 221.777 38.8937C221.754 38.5179 221.832 38.1431 222.001 37.8206C222.17 37.4982 222.421 37.2439 222.72 37.0929C223.045 36.8837 223.429 36.8307 223.788 36.9451C224.148 37.0595 224.453 37.3322 224.64 37.7045Z" fill="white"/>
</g>
<path d="M232.2 61.1885C232.094 56.203 230.303 51.4629 227.21 47.9801C224.117 44.4973 219.966 42.5479 215.645 42.5479C211.323 42.5479 207.173 44.4973 204.08 47.9801C200.987 51.4629 199.196 56.203 199.09 61.1885C199.09 61.3731 199.09 61.5347 199.09 61.7193C199.09 61.904 199.09 62.0656 199.09 62.2502C199.28 64.8929 200.89 67.4893 203.94 69.5204C210.4 73.8248 220.89 73.8248 227.37 69.5204C230.37 67.4893 232.01 64.9044 232.2 62.2502C232.2 62.0656 232.2 61.904 232.2 61.7193C232.2 61.5347 232.21 61.3731 232.2 61.1885Z" fill="#6879C8"/>
<g opacity="0.6">
<path d="M232.2 61.1885C232.094 56.203 230.303 51.4629 227.21 47.9801C224.117 44.4973 219.966 42.5479 215.645 42.5479C211.323 42.5479 207.173 44.4973 204.08 47.9801C200.987 51.4629 199.196 56.203 199.09 61.1885C199.09 61.3731 199.09 61.5347 199.09 61.7193C199.09 61.904 199.09 62.0656 199.09 62.2502C199.28 64.8929 200.89 67.4893 203.94 69.5204C210.4 73.8248 220.89 73.8248 227.37 69.5204C230.37 67.4893 232.01 64.9044 232.2 62.2502C232.2 62.0656 232.2 61.904 232.2 61.7193C232.2 61.5347 232.21 61.3731 232.2 61.1885Z" fill="white"/>
</g>
<g style="mix-blend-mode:lighten" opacity="0.5">
<path d="M222.83 44.5132C220.342 43.1203 217.591 42.4699 214.829 42.6215C212.067 42.7732 209.382 43.7219 207.02 45.3811C204.658 47.0402 202.694 49.3567 201.309 52.1183C199.923 54.8799 199.16 57.9985 199.09 61.1885C199.09 61.3731 199.09 61.5347 199.09 61.7193C199.09 61.904 199.09 62.0656 199.09 62.2502C199.28 64.8929 200.89 67.4893 203.94 69.5204C206.505 71.1497 209.327 72.1662 212.24 72.5092C207.95 71.6553 205.17 66.1276 206.49 60.0114C208 52.9259 214.23 42.6783 222.83 44.5132Z" fill="white"/>
</g>
<path opacity="0.1" d="M232.2 62.2501C232.2 62.0655 232.2 61.9039 232.2 61.7193C232.2 61.5346 232.2 61.3731 232.2 61.1885C232.143 58.5575 231.614 55.9686 230.647 53.5853C229.679 51.2019 228.295 49.0756 226.58 47.3405C228.37 49.4754 232.38 57.5188 228.03 63.658C225.17 67.6855 211.59 73.4439 200.42 66.0468C201.379 67.4626 202.576 68.6402 203.94 69.5088C210.4 73.8132 220.89 73.8132 227.37 69.5088C230.39 67.4893 232 64.8928 232.2 62.2501Z" fill="#6879C8"/>
<g style="mix-blend-mode:lighten" opacity="0.3">
<path d="M215.48 46.9135C216.22 48.8522 214.79 51.4602 212.29 52.6835C209.79 53.9067 207.17 53.3989 206.43 51.4487C205.69 49.4984 207.11 46.8327 209.61 45.6787C212.11 44.5247 214.73 44.9632 215.48 46.9135Z" fill="white"/>
</g>
<g style="mix-blend-mode:lighten" opacity="0.3">
<path d="M205.88 54.83C206.142 55.253 206.283 55.7591 206.286 56.2788C206.288 56.7985 206.15 57.3063 205.893 57.7323C205.635 58.1583 205.269 58.4817 204.845 58.658C204.421 58.8343 203.961 58.8548 203.527 58.7168C203.092 58.5788 202.706 58.289 202.42 57.8872C202.135 57.4854 201.964 56.9914 201.931 56.4731C201.899 55.9547 202.006 55.4374 202.239 54.9924C202.471 54.5473 202.818 54.1963 203.23 53.9876C203.681 53.7106 204.207 53.6435 204.7 53.8002C205.193 53.9568 205.615 54.3253 205.88 54.83Z" fill="white"/>
</g>
<path d="M205.39 71.286C205.271 65.0885 203.055 59.191 199.215 54.8563C195.375 50.5216 190.217 48.0944 184.845 48.0944C179.473 48.0944 174.315 50.5216 170.475 54.8563C166.635 59.191 164.418 65.0885 164.3 71.286C164.29 71.5051 164.29 71.7246 164.3 71.9438C164.29 72.1667 164.29 72.3901 164.3 72.6131C164.53 75.8904 166.54 79.1101 170.3 81.6258C178.3 86.9804 191.35 86.9804 199.38 81.6258C203.14 79.1101 205.14 75.8558 205.38 72.6131C205.38 72.3823 205.38 72.1746 205.38 71.9438C205.38 71.713 205.4 71.4821 205.39 71.286Z" fill="#6879C8"/>
<g opacity="0.8">
<path d="M205.39 71.286C205.271 65.0885 203.055 59.191 199.215 54.8563C195.375 50.5216 190.217 48.0944 184.845 48.0944C179.473 48.0944 174.315 50.5216 170.475 54.8563C166.635 59.191 164.418 65.0885 164.3 71.286C164.29 71.5051 164.29 71.7246 164.3 71.9438C164.29 72.1667 164.29 72.3901 164.3 72.6131C164.53 75.8904 166.54 79.1101 170.3 81.6258C178.3 86.9804 191.35 86.9804 199.38 81.6258C203.14 79.1101 205.14 75.8558 205.38 72.6131C205.38 72.3823 205.38 72.1746 205.38 71.9438C205.38 71.713 205.4 71.4821 205.39 71.286Z" fill="white"/>
</g>
<g style="mix-blend-mode:lighten" opacity="0.3">
<path d="M193.76 50.514C190.668 48.7821 187.248 47.9748 183.814 48.1664C180.381 48.358 177.045 49.5423 174.111 51.6104C171.178 53.6785 168.743 56.5642 167.028 60.0022C165.314 63.4402 164.376 67.3203 164.3 71.286C164.29 71.5051 164.29 71.7246 164.3 71.9438C164.29 72.1667 164.29 72.3901 164.3 72.6131C164.53 75.8904 166.54 79.1101 170.3 81.6258C173.486 83.6494 176.992 84.913 180.61 85.3417C175.28 84.28 171.83 77.4137 173.47 69.8319C175.38 60.9923 183.09 48.2752 193.76 50.514Z" fill="white"/>
</g>
<path opacity="0.1" d="M205.39 72.5785C205.39 72.3477 205.39 72.14 205.39 71.9092C205.39 71.6784 205.39 71.4822 205.39 71.2514C205.312 67.992 204.649 64.7866 203.445 61.8372C202.24 58.8878 200.519 56.2583 198.39 54.1145C200.62 56.7687 205.59 66.7508 200.19 74.3557C196.64 79.364 179.8 86.5073 165.93 77.3215C167.119 79.069 168.602 80.5212 170.29 81.5912C178.29 86.9458 191.34 86.9458 199.37 81.5912C203.15 79.0755 205.15 75.902 205.39 72.5785Z" fill="#6879C8"/>
<g style="mix-blend-mode:lighten" opacity="0.3">
<path d="M184.63 53.5375C185.55 55.9493 183.79 59.1805 180.69 60.75C177.59 62.3194 174.33 61.6385 173.41 59.2267C172.49 56.8148 174.26 53.5721 177.41 52.0027C180.56 50.4332 183.71 51.1141 184.63 53.5375Z" fill="white"/>
</g>
<g style="mix-blend-mode:lighten" opacity="0.3">
<path d="M172.73 63.3696C173.052 63.8942 173.226 64.5211 173.227 65.1642C173.228 65.8073 173.057 66.4351 172.737 66.9614C172.417 67.4878 171.963 67.887 171.439 68.1042C170.914 68.3213 170.344 68.3459 169.807 68.1744C169.27 68.003 168.792 67.644 168.439 67.1466C168.086 66.6492 167.874 66.0379 167.834 65.3965C167.794 64.7551 167.927 64.115 168.214 63.5641C168.502 63.0131 168.93 62.5784 169.44 62.3194C169.998 61.9633 170.656 61.8737 171.27 62.07C171.885 62.2663 172.409 62.7328 172.73 63.3696Z" fill="white"/>
</g>
<path d="M251.41 50.5139C251.41 48.2919 250.645 46.1609 249.283 44.5897C247.922 43.0185 246.075 42.1359 244.15 42.1359C242.224 42.1359 240.378 43.0185 239.016 44.5897C237.655 46.1609 236.89 48.2919 236.89 50.5139C236.877 50.6674 236.877 50.822 236.89 50.9755C236.991 51.6674 237.237 52.3203 237.606 52.8774C237.976 53.4345 238.458 53.879 239.01 54.1721C240.603 55.1056 242.364 55.5922 244.15 55.5922C245.936 55.5922 247.697 55.1056 249.29 54.1721C249.842 53.879 250.324 53.4345 250.694 52.8774C251.063 52.3203 251.309 51.6674 251.41 50.9755C251.423 50.822 251.423 50.6674 251.41 50.5139Z" fill="#6879C8"/>
<g opacity="0.2">
<path d="M251.41 50.5139C251.41 48.2919 250.645 46.1609 249.283 44.5897C247.922 43.0185 246.075 42.1359 244.15 42.1359C242.224 42.1359 240.378 43.0185 239.016 44.5897C237.655 46.1609 236.89 48.2919 236.89 50.5139C236.877 50.6674 236.877 50.822 236.89 50.9755C236.991 51.6674 237.237 52.3203 237.606 52.8774C237.976 53.4345 238.458 53.879 239.01 54.1721C240.603 55.1056 242.364 55.5922 244.15 55.5922C245.936 55.5922 247.697 55.1056 249.29 54.1721C249.842 53.879 250.324 53.4345 250.694 52.8774C251.063 52.3203 251.309 51.6674 251.41 50.9755C251.423 50.822 251.423 50.6674 251.41 50.5139Z" fill="white"/>
</g>
<g style="mix-blend-mode:lighten" opacity="0.5">
<path d="M247.3 43.2092C246.21 42.5959 245.003 42.3086 243.792 42.3735C242.58 42.4384 241.402 42.8535 240.366 43.5807C239.33 44.3078 238.468 45.3238 237.861 46.5352C237.254 47.7467 236.92 49.1148 236.89 50.514C236.877 50.6674 236.877 50.8221 236.89 50.9756C236.991 51.6674 237.237 52.3203 237.606 52.8775C237.976 53.4346 238.458 53.8791 239.01 54.1722C240.14 54.8822 241.38 55.3291 242.66 55.4877C240.77 55.1069 239.55 52.6835 240.13 49.9947C240.81 46.9019 243.53 42.436 247.3 43.2092Z" fill="white"/>
</g>
<g opacity="0.05">
<path d="M251.41 50.9871C251.423 50.8337 251.423 50.679 251.41 50.5255C251.385 49.3743 251.153 48.2416 250.73 47.1988C250.306 46.156 249.7 45.2259 248.95 44.467C249.74 45.4018 251.49 48.933 249.58 51.6218C248.33 53.3874 242.37 55.9147 237.47 52.672C237.893 53.2867 238.416 53.8002 239.01 54.1837C240.602 55.1172 242.363 55.6038 244.15 55.6038C245.936 55.6038 247.697 55.1172 249.29 54.1837C249.842 53.8906 250.324 53.4461 250.693 52.889C251.063 52.3319 251.309 51.679 251.41 50.9871Z" fill="black"/>
</g>
<g style="mix-blend-mode:lighten" opacity="0.3">
<path d="M244.08 44.2593C244.4 45.1133 243.78 46.2558 242.68 46.8097C241.58 47.3636 240.43 47.1213 240.11 46.2673C239.79 45.4134 240.41 44.2709 241.5 43.717C242.59 43.163 243.75 43.4054 244.08 44.2593Z" fill="white"/>
</g>
<g style="mix-blend-mode:lighten" opacity="0.3">
<path d="M239.87 47.7328C239.998 47.9246 240.07 48.1579 240.077 48.3998C240.084 48.6417 240.024 48.8798 239.907 49.0807C239.79 49.2815 239.621 49.4348 239.425 49.5189C239.228 49.603 239.014 49.6136 238.811 49.5492C238.609 49.4848 238.43 49.3488 238.298 49.1603C238.167 48.9717 238.09 48.7403 238.079 48.4986C238.068 48.257 238.122 48.0173 238.236 47.8137C238.349 47.61 238.515 47.4525 238.71 47.3635C238.907 47.2408 239.138 47.2106 239.354 47.2794C239.57 47.3482 239.755 47.5107 239.87 47.7328Z" fill="white"/>
</g>
<path d="M14.3198 34.6926C14.3198 31.0199 15.5841 27.4976 17.8345 24.9006C20.0849 22.3036 23.1372 20.8446 26.3198 20.8446C29.5024 20.8446 32.5546 22.3036 34.8051 24.9006C37.0555 27.4976 38.3198 31.0199 38.3198 34.6926C38.3198 34.8195 38.3198 34.9465 38.3198 35.0734C38.3198 35.2003 38.3198 35.3273 38.3198 35.4658C38.1798 37.3814 37.0098 39.2624 34.7998 40.7396C30.1098 43.8669 22.4898 43.8669 17.7998 40.7396C15.5998 39.2624 14.4298 37.3814 14.2898 35.4658C14.2898 35.3273 14.2898 35.2119 14.2898 35.0734C14.2898 34.9349 14.3098 34.8195 14.3198 34.6926Z" fill="#6879C8"/>
<g opacity="0.5">
<path d="M14.3198 34.6926C14.3198 31.0199 15.5841 27.4976 17.8345 24.9006C20.0849 22.3036 23.1372 20.8446 26.3198 20.8446C29.5024 20.8446 32.5546 22.3036 34.8051 24.9006C37.0555 27.4976 38.3198 31.0199 38.3198 34.6926C38.3198 34.8195 38.3198 34.9465 38.3198 35.0734C38.3198 35.2003 38.3198 35.3273 38.3198 35.4658C38.1798 37.3814 37.0098 39.2624 34.7998 40.7396C30.1098 43.8669 22.4898 43.8669 17.7998 40.7396C15.5998 39.2624 14.4298 37.3814 14.2898 35.4658C14.2898 35.3273 14.2898 35.2119 14.2898 35.0734C14.2898 34.9349 14.3098 34.8195 14.3198 34.6926Z" fill="white"/>
</g>
<g style="mix-blend-mode:lighten" opacity="0.5">
<path d="M21.1199 22.5756C22.9269 21.5626 24.9254 21.0893 26.9322 21.1992C28.9389 21.309 30.8897 21.9986 32.6055 23.2045C34.3213 24.4104 35.7473 26.0942 36.7527 28.1014C37.7581 30.1086 38.3107 32.3749 38.3599 34.6926C38.3599 34.8196 38.3599 34.9465 38.3599 35.0734C38.3599 35.2004 38.3599 35.3273 38.3599 35.4658C38.2199 37.3814 37.0499 39.2625 34.8399 40.7396C32.9853 41.9173 30.9452 42.655 28.8399 42.9091C31.9599 42.2975 33.9799 38.2931 33.0199 33.8386C31.8799 28.6918 27.3599 21.2485 21.1199 22.5756Z" fill="white"/>
</g>
<path opacity="0.2" d="M14.3198 35.512C14.3198 35.3735 14.3198 35.2581 14.3198 35.1196C14.3198 34.9812 14.3198 34.8657 14.3198 34.7388C14.3609 32.8323 14.7448 30.9565 15.4471 29.2302C16.1495 27.5039 17.155 25.9649 18.3998 24.7106C17.0998 26.2569 14.1898 32.0961 17.3498 36.5506C19.4198 39.4817 29.2798 43.6592 37.3498 38.2931C36.6569 39.317 35.7889 40.1654 34.7998 40.7858C30.1098 43.9131 22.4898 43.9131 17.7998 40.7858C15.6298 39.2625 14.4598 37.3815 14.3198 35.512Z" fill="#6879C8"/>
<g style="mix-blend-mode:lighten" opacity="0.3">
<path d="M26.4599 24.3182C25.9199 25.7376 26.9599 27.6302 28.7699 28.5418C30.5799 29.4535 32.4899 29.0611 33.0299 27.6532C33.5699 26.2454 32.5299 24.3412 30.7199 23.418C28.9099 22.4948 26.9999 22.9103 26.4599 24.3182Z" fill="white"/>
</g>
<g style="mix-blend-mode:lighten" opacity="0.3">
<path d="M33.4298 30.0766C33.2403 30.3833 33.1377 30.7502 33.1362 31.1268C33.1347 31.5035 33.2344 31.8715 33.4215 32.1802C33.6086 32.4889 33.8739 32.7231 34.181 32.8507C34.4882 32.9783 34.822 32.9931 35.1367 32.8928C35.4513 32.7926 35.7313 32.5823 35.9383 32.291C36.1452 31.9996 36.2688 31.6415 36.2922 31.2657C36.3155 30.89 36.2375 30.5152 36.0688 30.1927C35.9 29.8702 35.6489 29.616 35.3498 29.4649C35.0243 29.2558 34.6405 29.2027 34.2813 29.3171C33.9222 29.4316 33.6163 29.7043 33.4298 30.0766Z" fill="white"/>
</g>
<path d="M38.7699 38.2354C38.8789 32.9827 40.7636 27.9875 44.0214 24.3169C47.2793 20.6463 51.6518 18.5916 56.2049 18.5916C60.7579 18.5916 65.1305 20.6463 68.3883 24.3169C71.6461 27.9875 73.5308 32.9827 73.6399 38.2354C73.6399 38.4316 73.6399 38.6047 73.6399 38.8009C73.6399 38.9971 73.6399 39.1701 73.6399 39.3548C73.4399 42.1475 71.7399 44.8825 68.5299 47.0174C61.7299 51.5526 50.6699 51.5526 43.8499 47.0174C40.6599 44.8825 38.9599 42.1475 38.7699 39.3548C38.7597 39.1703 38.7597 38.9853 38.7699 38.8009C38.7598 38.6126 38.7598 38.4237 38.7699 38.2354Z" fill="#6879C8"/>
<g opacity="0.7">
<path d="M38.7699 38.2354C38.8789 32.9827 40.7636 27.9875 44.0214 24.3169C47.2793 20.6463 51.6518 18.5916 56.2049 18.5916C60.7579 18.5916 65.1305 20.6463 68.3883 24.3169C71.6461 27.9875 73.5308 32.9827 73.6399 38.2354C73.6399 38.4316 73.6399 38.6047 73.6399 38.8009C73.6399 38.9971 73.6399 39.1701 73.6399 39.3548C73.4399 42.1475 71.7399 44.8825 68.5299 47.0174C61.7299 51.5526 50.6699 51.5526 43.8499 47.0174C40.6599 44.8825 38.9599 42.1475 38.7699 39.3548C38.7597 39.1703 38.7597 38.9853 38.7699 38.8009C38.7598 38.6126 38.7598 38.4237 38.7699 38.2354Z" fill="white"/>
</g>
<g style="mix-blend-mode:lighten" opacity="0.3">
<path d="M48.6299 20.6716C51.2506 19.2118 54.1464 18.5325 57.053 18.6956C59.9596 18.8587 62.7846 19.8591 65.2702 21.6054C67.7559 23.3517 69.8231 25.7883 71.2833 28.6932C72.7435 31.598 73.5502 34.8785 73.6299 38.2354C73.6299 38.4316 73.6299 38.6047 73.6299 38.8009C73.6299 38.9971 73.6299 39.1702 73.6299 39.3548C73.4299 42.1475 71.7299 44.8825 68.5199 47.0174C65.8159 48.7344 62.8402 49.8058 59.7699 50.1678C64.2999 49.2677 67.2299 43.44 65.8299 37.0007C64.2299 29.5343 57.6899 18.7444 48.6299 20.6716Z" fill="white"/>
</g>
<path opacity="0.1" d="M38.7699 39.3548C38.7597 39.1704 38.7597 38.9854 38.7699 38.8009C38.7598 38.6126 38.7598 38.4237 38.7699 38.2354C38.8331 35.4714 39.3918 32.7525 40.4107 30.25C41.4296 27.7475 42.8866 25.5156 44.6899 23.6951C42.7899 25.9454 38.5799 34.4157 43.1599 40.8781C46.1599 45.1248 60.4699 51.1833 72.2299 43.3938C71.2232 44.8799 69.9642 46.1129 68.5299 47.0174C61.7299 51.5526 50.6699 51.5526 43.8499 47.0174C40.6599 44.8825 38.9999 42.1475 38.7699 39.3548Z" fill="#6879C8"/>
<g style="mix-blend-mode:lighten" opacity="0.5">
<path d="M56.3799 23.1988C55.5999 25.2529 57.0999 27.9995 59.7299 29.3266C62.3599 30.6537 65.1299 30.0767 65.9099 28.0225C66.6899 25.9684 65.1899 23.2334 62.5599 21.8948C59.9299 20.5562 57.1599 21.1447 56.3799 23.1988Z" fill="white"/>
</g>
<g style="mix-blend-mode:lighten" opacity="0.5">
<path d="M66.4799 31.5538C66.2079 31.9997 66.0621 32.5318 66.0625 33.0772C66.0629 33.6225 66.2095 34.1543 66.4821 34.5997C66.7548 35.0451 67.1401 35.3823 67.5854 35.565C68.0306 35.7476 68.514 35.7669 68.9691 35.6201C69.4242 35.4732 69.8288 35.1675 70.1274 34.7449C70.426 34.3222 70.604 33.8033 70.6369 33.2593C70.6699 32.7153 70.5562 32.1728 70.3114 31.7063C70.0667 31.2398 69.7029 30.8722 69.2699 30.6537C68.7948 30.3557 68.2377 30.283 67.7168 30.4511C67.196 30.6191 66.7523 31.0146 66.4799 31.5538Z" fill="white"/>
</g>
<path d="M28.4898 50.514C28.639 45.5636 30.448 40.8734 33.5354 37.4323C36.6228 33.9911 40.7475 32.0677 45.0398 32.0677C49.3322 32.0677 53.4568 33.9911 56.5443 37.4323C59.6317 40.8734 61.4407 45.5636 61.5898 50.514C61.5898 50.6871 61.5898 50.8602 61.5898 51.0448C61.5898 51.2294 61.5898 51.391 61.5898 51.5757C61.3998 54.2183 59.7898 56.8148 56.7398 58.8458C50.2898 63.1503 39.7898 63.1503 33.3198 58.8458C30.3198 56.8148 28.6698 54.2299 28.4898 51.5757C28.4799 51.3989 28.4799 51.2216 28.4898 51.0448C28.4796 50.868 28.4796 50.6907 28.4898 50.514Z" fill="#6879C8"/>
<g opacity="0.6">
<path d="M28.4898 50.514C28.639 45.5636 30.448 40.8734 33.5354 37.4323C36.6228 33.9911 40.7475 32.0677 45.0398 32.0677C49.3322 32.0677 53.4568 33.9911 56.5443 37.4323C59.6317 40.8734 61.4407 45.5636 61.5898 50.514C61.5898 50.6871 61.5898 50.8602 61.5898 51.0448C61.5898 51.2294 61.5898 51.391 61.5898 51.5757C61.3998 54.2183 59.7898 56.8148 56.7398 58.8458C50.2898 63.1503 39.7898 63.1503 33.3198 58.8458C30.3198 56.8148 28.6698 54.2299 28.4898 51.5757C28.4799 51.3989 28.4799 51.2216 28.4898 51.0448C28.4796 50.868 28.4796 50.6907 28.4898 50.514Z" fill="white"/>
</g>
<g style="mix-blend-mode:lighten" opacity="0.5">
<path d="M37.8499 33.8617C40.3365 32.4727 43.085 31.8246 45.8445 31.9765C48.6039 32.1285 51.2865 33.0756 53.6472 34.7315C56.008 36.3875 57.9717 38.6993 59.3591 41.4562C60.7465 44.2131 61.5134 47.3271 61.5899 50.5139C61.5899 50.687 61.5899 50.8601 61.5899 51.0448C61.5899 51.2294 61.5899 51.391 61.5899 51.5756C61.3999 54.2183 59.7899 56.8148 56.7399 58.8458C54.1715 60.4651 51.3505 61.4809 48.4399 61.8347C52.7299 60.9807 55.5099 55.4415 54.1899 49.3369C52.6599 42.2859 46.4499 32.0499 37.8499 33.8617Z" fill="white"/>
</g>
<path opacity="0.15" d="M28.4898 51.668C28.4799 51.4912 28.4799 51.3139 28.4898 51.1372C28.4796 50.9604 28.4796 50.7831 28.4898 50.6063C28.544 47.9747 29.0715 45.3848 30.039 43.0009C31.0064 40.617 32.3927 38.4912 34.1098 36.7583C32.3098 38.8932 28.3098 46.9366 32.6498 53.0643C35.5098 57.1033 49.0898 62.8618 60.2598 55.4647C59.3006 56.8805 58.1033 58.0581 56.7398 58.9267C50.2898 63.2311 39.7898 63.2311 33.3198 58.9267C30.2898 56.8495 28.6698 54.253 28.4898 51.668Z" fill="#6879C8"/>
<g style="mix-blend-mode:lighten" opacity="0.3">
<path d="M45.2098 36.2621C44.4598 38.2123 45.8898 40.8781 48.3898 42.0898C50.8898 43.3015 53.5098 42.7937 54.2498 40.855C54.9898 38.9163 53.5698 36.2967 51.0698 35.0273C48.5698 33.7579 45.9998 34.358 45.2098 36.2621Z" fill="white"/>
</g>
<g style="mix-blend-mode:lighten" opacity="0.3">
<path d="M54.7999 44.1901C54.5383 44.6131 54.3966 45.1192 54.3943 45.6389C54.3921 46.1586 54.5293 46.6664 54.7873 47.0924C55.0452 47.5184 55.4112 47.8418 55.8348 48.0181C56.2585 48.1944 56.7191 48.215 57.1532 48.0769C57.5874 47.9389 57.9739 47.6491 58.2596 47.2473C58.5453 46.8455 58.7161 46.3515 58.7486 45.8332C58.7811 45.3148 58.6737 44.7975 58.4412 44.3525C58.2086 43.9074 57.8623 43.5564 57.4499 43.3477C56.9985 43.0707 56.4724 43.0036 55.9796 43.1603C55.4868 43.3169 55.0646 43.6854 54.7999 44.1901Z" fill="white"/>
</g>
<path d="M52.9198 68.3894C53.0864 62.2309 55.3234 56.3891 59.1572 52.1008C62.991 47.8125 68.1206 45.4144 73.4598 45.4144C78.7991 45.4144 83.9286 47.8125 87.7625 52.1008C91.5963 56.3891 93.8333 62.2309 93.9998 68.3894C94.0097 68.6085 94.0097 68.828 93.9998 69.0472C94.0098 69.2701 94.0098 69.4935 93.9998 69.7165C93.7698 72.9939 91.7598 76.2135 87.9998 78.7408C79.9998 84.0838 66.9998 84.0838 58.9198 78.7408C55.1598 76.2135 53.1598 72.9708 52.9198 69.7165C52.9099 69.4935 52.9099 69.2701 52.9198 69.0472C52.91 68.828 52.91 68.6085 52.9198 68.3894Z" fill="#6879C8"/>
<g opacity="0.8">
<path d="M52.9198 68.3894C53.0864 62.2309 55.3234 56.3891 59.1572 52.1008C62.991 47.8125 68.1206 45.4144 73.4598 45.4144C78.7991 45.4144 83.9286 47.8125 87.7625 52.1008C91.5963 56.3891 93.8333 62.2309 93.9998 68.3894C94.0097 68.6085 94.0097 68.828 93.9998 69.0472C94.0098 69.2701 94.0098 69.4935 93.9998 69.7165C93.7698 72.9939 91.7598 76.2135 87.9998 78.7408C79.9998 84.0838 66.9998 84.0838 58.9198 78.7408C55.1598 76.2135 53.1598 72.9708 52.9198 69.7165C52.9099 69.4935 52.9099 69.2701 52.9198 69.0472C52.91 68.828 52.91 68.6085 52.9198 68.3894Z" fill="white"/>
</g>
<g style="mix-blend-mode:lighten" opacity="0.3">
<path d="M64.5398 47.6982C67.6269 45.9689 71.0406 45.1611 74.4684 45.3487C77.8961 45.5364 81.2282 46.7136 84.1596 48.7724C87.0909 50.8312 89.5278 53.7059 91.247 57.1331C92.9661 60.5604 93.9126 64.4307 93.9998 68.3894C94.0096 68.6086 94.0096 68.8281 93.9998 69.0472C94.0098 69.2702 94.0098 69.4936 93.9998 69.7166C93.7698 72.9939 91.7598 76.2136 87.9998 78.7408C84.8111 80.7554 81.3059 82.0149 77.6898 82.4452C83.0198 81.3835 86.4698 74.5172 84.8298 66.9354C82.9198 58.1419 75.2098 45.4248 64.5398 47.6982Z" fill="white"/>
</g>
<path opacity="0.1" d="M52.9198 69.7166C52.9099 69.4936 52.9099 69.2702 52.9198 69.0472C52.91 68.8281 52.91 68.6085 52.9198 68.3894C52.9974 65.1299 53.6594 61.9243 54.8642 58.9748C56.069 56.0253 57.7904 53.3959 59.9198 51.2526C57.6898 53.9068 52.7198 63.8888 58.1198 71.4937C61.6698 76.5021 78.5198 83.6453 92.3798 74.471C91.1873 76.215 89.705 77.6667 88.0198 78.7408C80.0198 84.0838 67.0198 84.0838 58.9398 78.7408C55.1498 76.2136 53.1498 72.9939 52.9198 69.7166Z" fill="#6879C8"/>
<g style="mix-blend-mode:lighten" opacity="0.3">
<path d="M73.6697 50.6756C72.7497 53.0874 74.5197 56.3186 77.6697 57.8881C80.8197 59.4575 84.0197 58.7766 84.9397 56.3648C85.8597 53.9529 84.0997 50.7102 80.9997 49.1407C77.8997 47.5713 74.5897 48.206 73.6697 50.6756Z" fill="white"/>
</g>
<g style="mix-blend-mode:lighten" opacity="0.3">
<path d="M85.5698 60.5076C85.2475 61.0323 85.0738 61.6592 85.0725 62.3023C85.0712 62.9454 85.2424 63.5732 85.5626 64.0995C85.8827 64.6259 86.3362 65.0251 86.8607 65.2422C87.3852 65.4594 87.9552 65.484 88.4923 65.3125C89.0294 65.1411 89.5074 64.782 89.8607 64.2847C90.2139 63.7873 90.4252 63.176 90.4654 62.5346C90.5057 61.8931 90.373 61.2531 90.0855 60.7022C89.798 60.1512 89.3699 59.7164 88.8598 59.4575C88.3013 59.1013 87.6441 59.0118 87.0292 59.2081C86.4142 59.4044 85.8903 59.8709 85.5698 60.5076Z" fill="white"/>
</g>
<path d="M168 72.6477C167.841 67.0314 165.796 61.7065 162.297 57.7985C158.798 53.8904 154.119 51.7054 149.25 51.7054C144.381 51.7054 139.702 53.8904 136.203 57.7985C132.704 61.7065 130.659 67.0314 130.5 72.6477C130.49 72.8476 130.49 73.048 130.5 73.2478C130.49 73.4515 130.49 73.6557 130.5 73.8594C130.71 76.8483 132.5 79.791 135.99 82.0874C143.3 86.9804 155.2 86.9804 162.53 82.0874C165.96 79.7794 167.79 76.8483 168 73.8594C168.01 73.6557 168.01 73.4515 168 73.2478C168.01 73.048 168.01 72.8476 168 72.6477Z" fill="#6879C8"/>
<g opacity="0.9">
<path d="M168 72.6477C167.841 67.0314 165.796 61.7065 162.297 57.7985C158.798 53.8904 154.119 51.7054 149.25 51.7054C144.381 51.7054 139.702 53.8904 136.203 57.7985C132.704 61.7065 130.659 67.0314 130.5 72.6477C130.49 72.8476 130.49 73.048 130.5 73.2478C130.49 73.4515 130.49 73.6557 130.5 73.8594C130.71 76.8483 132.5 79.791 135.99 82.0874C143.3 86.9804 155.2 86.9804 162.53 82.0874C165.96 79.7794 167.79 76.8483 168 73.8594C168.01 73.6557 168.01 73.4515 168 73.2478C168.01 73.048 168.01 72.8476 168 72.6477Z" fill="white"/>
</g>
<g style="mix-blend-mode:lighten" opacity="0.5">
<path d="M157.41 53.7567C154.592 52.1778 151.476 51.4403 148.346 51.6117C145.217 51.7831 142.175 52.858 139.5 54.7378C136.824 56.6176 134.6 59.2423 133.031 62.3714C131.462 65.5004 130.599 69.0337 130.52 72.6477C130.51 72.8475 130.51 73.0479 130.52 73.2478C130.51 73.4515 130.51 73.6557 130.52 73.8594C130.73 76.8482 132.52 79.7909 136.01 82.0874C138.918 83.9351 142.118 85.0889 145.42 85.4801C140.55 84.5108 137.42 78.2446 138.9 71.3206C140.63 63.2887 147.67 51.6679 157.41 53.7567Z" fill="white"/>
</g>
<path opacity="0.1" d="M168 73.8593C168.01 73.6556 168.01 73.4514 168 73.2477C168.01 73.0479 168.01 72.8475 168 72.6476C167.932 69.6742 167.332 66.7491 166.237 64.0562C165.143 61.3632 163.578 58.9606 161.64 56.9994C163.64 59.4228 168.21 68.5394 163.28 75.4634C160.04 80.0794 144.66 86.5533 132 78.1753C133.093 79.7685 134.454 81.0912 136 82.0643C143.31 86.9572 155.21 86.9572 162.54 82.0643C166 79.7909 167.81 76.8482 168 73.8593Z" fill="#6879C8"/>
<g style="mix-blend-mode:lighten" opacity="0.5">
<path d="M145.679 65.3553C148.524 63.9276 150.154 60.9736 149.319 58.7572C148.484 56.5408 145.5 55.9013 142.655 57.329C139.81 58.7566 138.18 61.7107 139.015 63.9271C139.85 66.1435 142.834 66.7829 145.679 65.3553Z" fill="white"/>
</g>
<g style="mix-blend-mode:lighten" opacity="0.5">
<path d="M138.21 65.516C138.502 65.9952 138.658 66.5668 138.657 67.1524C138.656 67.738 138.498 68.309 138.205 68.787C137.912 69.265 137.497 69.6267 137.019 69.8225C136.541 70.0184 136.022 70.0387 135.533 69.8808C135.045 69.7229 134.61 69.3945 134.29 68.9406C133.969 68.4866 133.778 67.9294 133.743 67.3452C133.707 66.761 133.829 66.1785 134.092 65.6775C134.355 65.1765 134.745 64.7815 135.21 64.5466C135.72 64.2213 136.321 64.1407 136.882 64.3221C137.443 64.5034 137.92 64.9322 138.21 65.516Z" fill="white"/>
</g>
<path d="M89.6897 75.0018C89.8 69.6276 91.7275 64.5164 95.0602 60.7605C98.3929 57.0045 102.866 54.9019 107.525 54.9019C112.183 54.9019 116.657 57.0045 119.989 60.7605C123.322 64.5164 125.249 69.6276 125.36 75.0018C125.37 75.194 125.37 75.3867 125.36 75.5788C125.37 75.7671 125.37 75.956 125.36 76.1443C125.16 78.9947 123.42 81.7989 120.14 83.98C113.14 88.596 101.87 88.596 94.8997 83.98C91.6297 81.7989 89.8997 78.9947 89.6897 76.1443C89.6897 75.9481 89.6897 75.775 89.6897 75.5788C89.6897 75.3827 89.6797 75.198 89.6897 75.0018Z" fill="#6879C8"/>
<g opacity="0.9">
<path d="M89.6897 75.0018C89.8 69.6276 91.7275 64.5164 95.0602 60.7605C98.3929 57.0045 102.866 54.9019 107.525 54.9019C112.183 54.9019 116.657 57.0045 119.989 60.7605C123.322 64.5164 125.249 69.6276 125.36 75.0018C125.37 75.194 125.37 75.3867 125.36 75.5788C125.37 75.7671 125.37 75.956 125.36 76.1443C125.16 78.9947 123.42 81.7989 120.14 83.98C113.14 88.596 101.87 88.596 94.8997 83.98C91.6297 81.7989 89.8997 78.9947 89.6897 76.1443C89.6897 75.9481 89.6897 75.775 89.6897 75.5788C89.6897 75.3827 89.6797 75.198 89.6897 75.0018Z" fill="white"/>
</g>
<g style="mix-blend-mode:lighten" opacity="0.5">
<path d="M99.7798 57.034C102.46 55.5296 105.425 54.8261 108.402 54.9878C111.38 55.1496 114.274 56.1715 116.82 57.9599C119.366 59.7482 121.482 62.2458 122.974 65.2234C124.466 68.201 125.287 71.5633 125.36 75.0018C125.37 75.194 125.37 75.3867 125.36 75.5788C125.37 75.7671 125.37 75.956 125.36 76.1443C125.16 78.9947 123.42 81.7989 120.14 83.98C117.372 85.7311 114.329 86.8294 111.19 87.2111C115.82 86.2879 118.81 80.2872 117.39 73.7324C115.74 66.093 109.05 55.0607 99.7798 57.034Z" fill="white"/>
</g>
<path opacity="0.1" d="M89.6899 76.1442C89.6899 75.9481 89.6899 75.775 89.6899 75.5788C89.6899 75.3826 89.6899 75.198 89.6899 75.0018C89.7534 72.1735 90.3247 69.3911 91.3678 66.8307C92.4109 64.2702 93.9031 61.9875 95.7499 60.1267C93.8099 62.4347 89.4999 71.0897 94.1799 77.7021C97.2599 82.0412 111.89 88.2497 123.93 80.2756C122.898 81.7945 121.608 83.0548 120.14 83.9799C113.14 88.5959 101.87 88.5959 94.8999 83.9799C91.6299 81.7988 89.8899 78.9946 89.6899 76.1442Z" fill="#6879C8"/>
<g style="mix-blend-mode:lighten" opacity="0.5">
<path d="M107.71 59.6191C106.91 61.7194 108.44 64.5236 111.13 65.8853C113.82 67.2471 116.66 66.6585 117.45 64.5582C118.24 62.458 116.72 59.6537 114.03 58.2805C111.34 56.9072 108.51 57.5188 107.71 59.6191Z" fill="white"/>
</g>
<g style="mix-blend-mode:lighten" opacity="0.5">
<path d="M118 68.1587C117.719 68.6151 117.567 69.1607 117.565 69.7207C117.564 70.2807 117.712 70.8275 117.991 71.2862C118.269 71.7448 118.664 72.0927 119.12 72.2821C119.577 72.4716 120.073 72.4932 120.541 72.3441C121.009 72.195 121.425 71.8825 121.733 71.4494C122.04 71.0164 122.224 70.484 122.259 69.9255C122.294 69.367 122.178 68.8096 121.928 68.3301C121.677 67.8505 121.304 67.4721 120.86 67.247C120.375 66.937 119.803 66.8588 119.269 67.0292C118.734 67.1997 118.279 67.6052 118 68.1587Z" fill="white"/>
</g>
<path d="M136 82.2028C136 79.9809 135.235 77.8499 133.873 76.2787C132.512 74.7075 130.665 73.8248 128.74 73.8248C126.814 73.8248 124.968 74.7075 123.606 76.2787C122.245 77.8499 121.48 79.9809 121.48 82.2028C121.466 82.3563 121.466 82.511 121.48 82.6644C121.581 83.3559 121.828 84.0084 122.197 84.5654C122.566 85.1224 123.048 85.5671 123.6 85.861C125.194 86.7883 126.954 87.2714 128.74 87.2714C130.525 87.2714 132.286 86.7883 133.88 85.861C134.432 85.5671 134.913 85.1224 135.282 84.5654C135.652 84.0084 135.898 83.3559 136 82.6644C136.013 82.511 136.013 82.3563 136 82.2028Z" fill="#6879C8"/>
<g opacity="0.9">
<path d="M136 82.2028C136 79.9809 135.235 77.8499 133.873 76.2787C132.512 74.7075 130.665 73.8248 128.74 73.8248C126.814 73.8248 124.968 74.7075 123.606 76.2787C122.245 77.8499 121.48 79.9809 121.48 82.2028C121.466 82.3563 121.466 82.511 121.48 82.6644C121.581 83.3559 121.828 84.0084 122.197 84.5654C122.566 85.1224 123.048 85.5671 123.6 85.861C125.194 86.7883 126.954 87.2714 128.74 87.2714C130.525 87.2714 132.286 86.7883 133.88 85.861C134.432 85.5671 134.913 85.1224 135.282 84.5654C135.652 84.0084 135.898 83.3559 136 82.6644C136.013 82.511 136.013 82.3563 136 82.2028Z" fill="white"/>
</g>
<g style="mix-blend-mode:lighten" opacity="0.6">
<path d="M131.86 74.8749C130.768 74.2673 129.561 73.9851 128.35 74.054C127.139 74.1229 125.962 74.5408 124.927 75.2695C123.892 75.9982 123.031 77.0144 122.424 78.2255C121.816 79.4366 121.482 80.804 121.45 82.2028C121.437 82.3563 121.437 82.5109 121.45 82.6644C121.552 83.3559 121.798 84.0084 122.167 84.5654C122.537 85.1224 123.018 85.5671 123.57 85.861C124.701 86.567 125.941 87.01 127.22 87.165C125.33 86.7957 124.11 84.3608 124.69 81.6835C125.37 78.5677 128.09 74.0786 131.86 74.8749Z" fill="white"/>
</g>
<path opacity="0.1" d="M136 82.6644C136.013 82.5109 136.013 82.3563 136 82.2028C135.975 81.0516 135.743 79.9189 135.32 78.8761C134.897 77.8333 134.29 76.9031 133.54 76.1443C134.33 77.079 136.08 80.6103 134.17 83.2991C132.92 85.0647 126.96 87.592 122.06 84.3492C122.483 84.964 123.006 85.4775 123.6 85.861C125.194 86.7883 126.955 87.2713 128.74 87.2713C130.525 87.2713 132.286 86.7883 133.88 85.861C134.432 85.5671 134.913 85.1224 135.283 84.5654C135.652 84.0084 135.898 83.3559 136 82.6644Z" fill="#6879C8"/>
<g style="mix-blend-mode:lighten" opacity="0.5">
<path d="M128.64 75.902C128.96 76.756 128.34 77.8984 127.24 78.4523C126.14 79.0063 124.99 78.7639 124.67 77.9099C124.35 77.056 124.97 75.9135 126.06 75.3596C127.15 74.8057 128.31 75.0827 128.64 75.902Z" fill="white"/>
</g>
<g style="mix-blend-mode:lighten" opacity="0.5">
<path d="M124.43 79.3639C124.557 79.5558 124.628 79.7888 124.635 80.0301C124.641 80.2714 124.581 80.5088 124.464 80.7091C124.348 80.9093 124.179 81.0622 123.983 81.1462C123.787 81.2302 123.573 81.2411 123.371 81.1775C123.169 81.1138 122.99 80.9787 122.858 80.7912C122.727 80.6036 122.649 80.3732 122.637 80.1322C122.624 79.8912 122.678 79.6519 122.79 79.4478C122.901 79.2437 123.066 79.0852 123.26 78.9947C123.458 78.8683 123.691 78.8362 123.91 78.9052C124.128 78.9742 124.315 79.1387 124.43 79.3639Z" fill="white"/>
</g>
<path d="M2.82985 39.2971C2.89962 37.1274 3.69557 35.0734 5.05039 33.5669C6.40522 32.0604 8.2134 31.2186 10.0948 31.2186C11.9763 31.2186 13.7845 32.0604 15.1393 33.5669C16.4941 35.0734 17.2901 37.1274 17.3598 39.2971V39.7587C17.2571 40.4514 17.0094 41.1046 16.6382 41.6617C16.267 42.2188 15.7836 42.6629 15.2299 42.9553C13.6372 43.8888 11.8761 44.3754 10.0898 44.3754C8.30355 44.3754 6.54247 43.8888 4.94984 42.9553C4.39749 42.6622 3.91559 42.2178 3.5461 41.6606C3.1766 41.1035 2.93072 40.4506 2.82985 39.7587C2.81648 39.6052 2.81648 39.4506 2.82985 39.2971Z" fill="#6879C8"/>
<g opacity="0.2">
<path d="M2.82985 39.2971C2.89962 37.1274 3.69557 35.0734 5.05039 33.5669C6.40522 32.0604 8.2134 31.2186 10.0948 31.2186C11.9763 31.2186 13.7845 32.0604 15.1393 33.5669C16.4941 35.0734 17.2901 37.1274 17.3598 39.2971V39.7587C17.2571 40.4514 17.0094 41.1046 16.6382 41.6617C16.267 42.2188 15.7836 42.6629 15.2299 42.9553C13.6372 43.8888 11.8761 44.3754 10.0898 44.3754C8.30355 44.3754 6.54247 43.8888 4.94984 42.9553C4.39749 42.6622 3.91559 42.2178 3.5461 41.6606C3.1766 41.1035 2.93072 40.4506 2.82985 39.7587C2.81648 39.6052 2.81648 39.4506 2.82985 39.2971Z" fill="white"/>
</g>
<g style="mix-blend-mode:lighten" opacity="0.5">
<path d="M6.93994 31.9807C8.03158 31.3677 9.23914 31.0809 10.4518 31.1465C11.6645 31.2122 12.8435 31.6282 13.8806 32.3564C14.9178 33.0846 15.7798 34.1017 16.3877 35.3144C16.9956 36.5271 17.3299 37.8965 17.3599 39.2971V39.7587C17.2572 40.4513 17.0095 41.1046 16.6383 41.6617C16.2671 42.2187 15.7837 42.6628 15.2299 42.9553C14.1015 43.6704 12.8605 44.1176 11.5799 44.2708C13.4699 43.89 14.6899 41.4666 14.1099 38.7778C13.4399 35.6735 10.7099 31.1729 6.93994 31.9807Z" fill="white"/>
</g>
<g opacity="0.05">
<path d="M2.82985 39.7587C2.81648 39.6052 2.81648 39.4506 2.82985 39.2971C2.85134 38.139 3.08213 36.9988 3.50746 35.9496C3.93279 34.9004 4.54328 33.9652 5.29985 33.204C4.50985 34.1387 2.74985 37.67 4.65985 40.3588C5.90985 42.1244 11.8698 44.6516 16.7698 41.4089C16.3491 42.0264 15.8255 42.5404 15.2299 42.9207C13.6372 43.8542 11.8761 44.3407 10.0898 44.3407C8.30355 44.3407 6.54247 43.8542 4.94984 42.9207C4.4012 42.6308 3.92169 42.1917 3.55244 41.6409C3.1832 41.0902 2.93524 40.4443 2.82985 39.7587Z" fill="black"/>
</g>
<g style="mix-blend-mode:lighten" opacity="0.3">
<path d="M10.1698 33.0308C9.83984 33.8848 10.4698 35.0272 11.5598 35.5812C12.6498 36.1351 13.8098 35.8927 14.1398 35.0388C14.4698 34.1848 13.8398 33.0424 12.7398 32.4884C11.6398 31.9345 10.4898 32.1769 10.1698 33.0308Z" fill="white"/>
</g>
<g style="mix-blend-mode:lighten" opacity="0.3">
<path d="M14.38 36.5043C14.252 36.6961 14.1796 36.9295 14.1729 37.1713C14.1662 37.4132 14.2255 37.6514 14.3425 37.8522C14.4595 38.053 14.6283 38.2063 14.8249 38.2904C15.0216 38.3745 15.2361 38.3851 15.4383 38.3208C15.6404 38.2564 15.82 38.1203 15.9514 37.9318C16.0829 37.7432 16.1597 37.5118 16.1709 37.2701C16.1822 37.0285 16.1273 36.7889 16.0141 36.5852C15.9008 36.3815 15.735 36.2241 15.54 36.1351C15.3432 36.0094 15.1115 35.9776 14.8947 36.0466C14.6778 36.1156 14.493 36.28 14.38 36.5043Z" fill="white"/>
</g>
</svg>
