<svg width="117" height="408" viewBox="0 0 117 408" fill="none" xmlns="http://www.w3.org/2000/svg">
<path d="M87.032 301.264C87.0423 306.026 86.153 310.734 84.426 315.058C82.6989 319.383 80.1757 323.222 77.032 326.306C74.9396 328.287 73.2478 330.772 72.0749 333.587C70.902 336.401 70.2765 339.478 70.242 342.601V399.631C70.242 401.628 69.112 403.636 66.822 405.159C65.4789 406.017 64.0282 406.628 62.522 406.971C59.8821 407.587 57.1619 407.587 54.522 406.971C53.0202 406.623 51.5734 406.012 50.232 405.159C47.952 403.636 46.802 401.628 46.802 399.631V342.451C46.7746 339.357 46.1606 336.307 45.0031 333.516C43.8457 330.725 42.1728 328.26 40.102 326.295C36.8978 323.187 34.3302 319.298 32.5838 314.908C30.8375 310.518 29.9557 305.737 30.002 300.907C30.2265 292.334 33.343 284.201 38.6875 278.241C44.032 272.282 51.182 268.966 58.614 269C66.046 269.035 73.1726 272.417 78.4752 278.427C83.7779 284.436 86.8374 292.598 87.002 301.172L87.032 301.264Z" fill="#6879C8"/>
<g opacity="0.5">
<path d="M87.032 301.264C87.0423 306.026 86.153 310.734 84.426 315.058C82.6989 319.383 80.1757 323.222 77.032 326.306C74.9396 328.287 73.2478 330.772 72.0749 333.587C70.902 336.401 70.2765 339.478 70.242 342.601V399.631C70.242 401.628 69.112 403.636 66.822 405.159C65.4789 406.017 64.0282 406.628 62.522 406.971C59.8821 407.587 57.1619 407.587 54.522 406.971C53.0202 406.623 51.5734 406.012 50.232 405.159C47.952 403.636 46.802 401.628 46.802 399.631V342.451C46.7746 339.357 46.1606 336.307 45.0031 333.516C43.8457 330.725 42.1728 328.26 40.102 326.295C36.8978 323.187 34.3302 319.298 32.5838 314.908C30.8375 310.518 29.9557 305.737 30.002 300.907C30.2265 292.334 33.343 284.201 38.6875 278.241C44.032 272.282 51.182 268.966 58.614 269C66.046 269.035 73.1726 272.417 78.4752 278.427C83.7779 284.436 86.8374 292.598 87.002 301.172L87.032 301.264Z" fill="white"/>
</g>
<path d="M74.4321 301.264C74.4305 304.193 73.8204 307.079 72.6529 309.679C71.4854 312.279 69.7945 314.518 67.7221 316.209C66.0777 317.62 64.7477 319.461 63.8418 321.582C62.9359 323.703 62.4801 326.042 62.5121 328.407V399.631C62.5227 400.245 62.4271 400.856 62.2309 401.426C62.0346 401.997 61.7417 402.517 61.3692 402.955C60.9967 403.394 60.5521 403.742 60.0615 403.98C59.5709 404.217 59.0442 404.34 58.5121 404.34H58.4321C57.9051 404.331 57.3848 404.202 56.9011 403.96C56.4175 403.718 55.98 403.368 55.6139 402.931C55.2478 402.493 54.9602 401.977 54.7677 401.41C54.5751 400.844 54.4815 400.24 54.4921 399.631V328.176C54.5106 325.844 54.0466 323.541 53.1387 321.457C52.2308 319.374 50.9052 317.571 49.2721 316.197C47.1397 314.457 45.4125 312.136 44.2437 309.44C43.075 306.745 42.5008 303.758 42.5721 300.745C42.7171 295.944 44.4867 291.401 47.5013 288.088C50.5159 284.776 54.5353 282.959 58.6975 283.026C62.8596 283.094 66.8329 285.042 69.7651 288.452C72.6973 291.861 74.3548 296.461 74.3821 301.264H74.4321Z" fill="#6879C8"/>
<g opacity="0.7">
<path d="M74.4321 301.264C74.4305 304.193 73.8204 307.079 72.6529 309.679C71.4854 312.279 69.7945 314.518 67.7221 316.209C66.0777 317.62 64.7477 319.461 63.8418 321.582C62.9359 323.703 62.4801 326.042 62.5121 328.407V399.631C62.5227 400.245 62.4271 400.856 62.2309 401.426C62.0346 401.997 61.7417 402.517 61.3692 402.955C60.9967 403.394 60.5521 403.742 60.0615 403.98C59.5709 404.217 59.0442 404.34 58.5121 404.34H58.4321C57.9051 404.331 57.3848 404.202 56.9011 403.96C56.4175 403.718 55.98 403.368 55.6139 402.931C55.2478 402.493 54.9602 401.977 54.7677 401.41C54.5751 400.844 54.4815 400.24 54.4921 399.631V328.176C54.5106 325.844 54.0466 323.541 53.1387 321.457C52.2308 319.374 50.9052 317.571 49.2721 316.197C47.1397 314.457 45.4125 312.136 44.2437 309.44C43.075 306.745 42.5008 303.758 42.5721 300.745C42.7171 295.944 44.4867 291.401 47.5013 288.088C50.5159 284.776 54.5353 282.959 58.6975 283.026C62.8596 283.094 66.8329 285.042 69.7651 288.452C72.6973 291.861 74.3548 296.461 74.3821 301.264H74.4321Z" fill="white"/>
</g>
<g opacity="0.7">
<path d="M62.9919 313.416C62.9919 311.72 63.4277 310.062 64.2441 308.652C65.0605 307.242 66.2209 306.143 67.5786 305.494C68.9363 304.846 70.4302 304.676 71.8715 305.007C73.3127 305.337 74.6366 306.154 75.6758 307.353C76.7149 308.552 77.4225 310.08 77.7092 311.743C77.9959 313.407 77.8487 315.131 77.2864 316.697C76.724 318.264 75.7717 319.603 74.5498 320.545C73.328 321.487 71.8915 321.99 70.4219 321.99C68.4514 321.99 66.5615 321.087 65.1681 319.479C63.7747 317.871 62.9919 315.69 62.9919 313.416V313.416Z" fill="white"/>
</g>
<g opacity="0.7">
<path d="M65.8821 296.348C65.8821 295.312 66.1483 294.299 66.6472 293.438C67.1461 292.576 67.8551 291.904 68.6847 291.508C69.5143 291.111 70.4271 291.008 71.3078 291.21C72.1885 291.412 72.9974 291.911 73.6323 292.644C74.2673 293.376 74.6997 294.31 74.8748 295.326C75.05 296.342 74.9601 297.396 74.6165 298.353C74.2729 299.311 73.691 300.129 72.9444 300.704C72.1978 301.28 71.32 301.587 70.4221 301.587C69.8259 301.587 69.2355 301.452 68.6847 301.189C68.1339 300.925 67.6334 300.539 67.2118 300.053C66.7902 299.566 66.4558 298.989 66.2277 298.353C65.9995 297.718 65.8821 297.036 65.8821 296.348V296.348Z" fill="white"/>
</g>
<g opacity="0.7">
<path d="M57.2419 287.982C57.2419 287.468 57.3739 286.966 57.6211 286.539C57.8684 286.112 58.2198 285.78 58.6309 285.583C59.042 285.387 59.4944 285.335 59.9309 285.435C60.3674 285.535 60.7683 285.783 61.0829 286.146C61.3976 286.509 61.6119 286.972 61.6987 287.475C61.7855 287.979 61.741 288.501 61.5707 288.976C61.4004 289.45 61.112 289.855 60.742 290.141C60.372 290.426 59.937 290.578 59.4919 290.578C58.8952 290.578 58.3229 290.305 57.901 289.818C57.479 289.331 57.2419 288.671 57.2419 287.982V287.982Z" fill="white"/>
</g>
<g opacity="0.7">
<path d="M39.242 291.109C39.24 289.714 39.5966 288.35 40.2668 287.189C40.937 286.028 41.8905 285.122 43.0068 284.587C44.1231 284.051 45.3519 283.91 46.5378 284.181C47.7237 284.452 48.8133 285.122 49.6688 286.108C50.5243 287.093 51.1072 288.35 51.3438 289.718C51.5804 291.086 51.46 292.504 50.9978 293.793C50.5357 295.082 49.7525 296.184 48.7475 296.96C47.7425 297.735 46.5608 298.149 45.352 298.149C43.734 298.146 42.183 297.403 41.038 296.084C39.893 294.765 39.2472 292.976 39.242 291.109V291.109Z" fill="white"/>
</g>
<g opacity="0.7">
<path d="M38.242 303.838C38.24 304.493 38.4066 305.135 38.7208 305.681C39.0349 306.227 39.4825 306.653 40.0067 306.906C40.531 307.158 41.1083 307.226 41.6657 307.099C42.2231 306.973 42.7354 306.658 43.1378 306.195C43.5402 305.733 43.8145 305.142 43.9261 304.5C44.0376 303.857 43.9814 303.19 43.7644 302.585C43.5475 301.979 43.1797 301.461 42.7075 301.096C42.2353 300.732 41.68 300.537 41.112 300.537C40.3525 300.537 39.624 300.885 39.0861 301.503C38.5481 302.122 38.2446 302.961 38.242 303.838V303.838Z" fill="white"/>
</g>
<g opacity="0.7">
<path d="M40.3521 315.401C40.3521 314.34 40.6248 313.302 41.1357 312.42C41.6467 311.537 42.3729 310.849 43.2226 310.443C44.0722 310.037 45.0072 309.931 45.9092 310.138C46.8112 310.345 47.6398 310.856 48.2901 311.606C48.9404 312.357 49.3833 313.313 49.5627 314.354C49.7421 315.395 49.65 316.474 49.2981 317.454C48.9461 318.435 48.3501 319.273 47.5854 319.863C46.8208 320.452 45.9217 320.767 45.002 320.767C43.7688 320.767 42.586 320.202 41.714 319.195C40.842 318.189 40.3521 316.824 40.3521 315.401V315.401Z" fill="white"/>
</g>
<g opacity="0.7">
<path d="M51.4421 323.502C51.4421 322.628 51.6668 321.773 52.0876 321.046C52.5085 320.32 53.1066 319.753 53.8065 319.419C54.5063 319.084 55.2764 318.997 56.0193 319.167C56.7623 319.338 57.4447 319.759 57.9804 320.377C58.516 320.995 58.8808 321.782 59.0285 322.64C59.1763 323.497 59.1005 324.386 58.8106 325.193C58.5207 326.001 58.0298 326.691 57.4 327.177C56.7701 327.663 56.0296 327.922 55.2721 327.922C54.2564 327.922 53.2822 327.456 52.5639 326.627C51.8457 325.798 51.4421 324.674 51.4421 323.502V323.502Z" fill="white"/>
</g>
<g opacity="0.7">
<path d="M32.7821 296.348C32.7722 295.89 32.881 295.438 33.0946 295.051C33.3082 294.664 33.617 294.359 33.9815 294.175C34.3459 293.992 34.7495 293.938 35.1407 294.02C35.5319 294.103 35.893 294.318 36.1777 294.638C36.4624 294.959 36.6579 295.37 36.7392 295.819C36.8206 296.268 36.784 296.735 36.6342 297.16C36.4844 297.585 36.2282 297.949 35.8983 298.205C35.5684 298.462 35.1798 298.599 34.7821 298.599C34.5219 298.606 34.2629 298.554 34.0205 298.444C33.7781 298.335 33.5572 298.17 33.3708 297.96C33.1844 297.751 33.0363 297.5 32.9352 297.223C32.8341 296.946 32.782 296.649 32.7821 296.348V296.348Z" fill="white"/>
</g>
<g opacity="0.7">
<path d="M75.2419 287.036C75.2419 286.449 75.3927 285.876 75.6751 285.388C75.9575 284.9 76.3588 284.52 76.8284 284.296C77.2981 284.071 77.8148 284.012 78.3133 284.127C78.8119 284.241 79.2698 284.524 79.6292 284.938C79.9886 285.353 80.2334 285.882 80.3326 286.457C80.4317 287.032 80.3808 287.629 80.1863 288.171C79.9918 288.712 79.6624 289.176 79.2398 289.502C78.8171 289.827 78.3202 290.001 77.812 290.001C77.1312 289.998 76.479 289.685 75.9976 289.129C75.5162 288.574 75.2446 287.821 75.2419 287.036V287.036Z" fill="white"/>
</g>
<g opacity="0.7">
<path d="M80.392 304.576C81.8224 304.576 82.982 303.238 82.982 301.588C82.982 299.937 81.8224 298.599 80.392 298.599C78.9616 298.599 77.802 299.937 77.802 301.588C77.802 303.238 78.9616 304.576 80.392 304.576Z" fill="white"/>
</g>
<g opacity="0.7">
<path d="M50.9919 304.022C50.9919 303.431 51.1438 302.853 51.4284 302.362C51.713 301.87 52.1175 301.487 52.5908 301.261C53.0641 301.035 53.5848 300.976 54.0872 301.091C54.5896 301.206 55.0511 301.491 55.4133 301.909C55.7756 302.327 56.0222 302.86 56.1222 303.439C56.2221 304.019 56.1708 304.62 55.9748 305.166C55.7788 305.712 55.4468 306.179 55.0209 306.508C54.595 306.836 54.0942 307.011 53.5819 307.011C52.895 307.011 52.2363 306.696 51.7505 306.136C51.2648 305.575 50.9919 304.815 50.9919 304.022V304.022Z" fill="white"/>
</g>
<path d="M76.4902 273.736L58.2902 268.289L40.0802 273.736C40.0802 273.736 37.9002 284.987 40.2802 302.586C42.6602 320.184 53.2802 337.852 58.2802 337.852C63.2802 337.852 73.9002 320.207 76.2802 302.586C78.6602 284.964 76.4902 273.736 76.4902 273.736Z" fill="#6879C8"/>
<g opacity="0.7">
<path d="M76.4902 273.736L58.2902 268.289L40.0802 273.736C40.0802 273.736 37.9002 284.987 40.2802 302.586C42.6602 320.184 53.2802 337.852 58.2802 337.852C63.2802 337.852 73.9002 320.207 76.2802 302.586C78.6602 284.964 76.4902 273.736 76.4902 273.736Z" fill="white"/>
</g>
<path d="M70.2002 276.274H45.2802C41.7202 301.108 53.1502 320.126 57.7402 320.126C62.3302 320.126 73.7602 301.12 70.2002 276.274Z" fill="#6879C8"/>
<path d="M57.7403 276.274H62.0003C63.9857 280.31 64.802 284.972 64.3303 289.58C63.8103 296.285 60.3303 304.997 57.7403 304.997C55.1503 304.997 51.6703 296.285 51.1603 289.58C50.6941 284.989 51.5029 280.347 53.4703 276.321H57.7403" fill="white"/>
<path d="M86.18 266.142L83.8 236.923H32.7L30.33 266.142C29.84 271.301 32.53 276.528 38.45 280.51C49.39 287.791 67.11 287.791 78.03 280.51C84 276.563 86.68 271.301 86.18 266.142Z" fill="#37474F"/>
<path d="M40.1802 250.136C30.1802 243.478 30.1802 232.676 40.1802 226.006C50.1802 219.336 66.4002 219.347 76.4002 226.006C86.4002 232.665 86.4002 243.478 76.4002 250.136C66.4002 256.795 50.1902 256.795 40.1802 250.136Z" fill="#455A64"/>
<path d="M85.6302 258.987L84.8302 249.19C84.1002 252.964 81.5702 256.61 77.2202 259.507C66.7702 266.431 49.8202 266.431 39.3602 259.507C35.0102 256.61 32.4702 252.964 31.7402 249.201L30.9402 258.976C31.5802 263.003 34.2102 266.915 38.8402 269.997C49.5902 277.14 67.0002 277.14 77.7402 269.997C82.3602 266.915 85.0002 263.038 85.6302 258.987Z" fill="#6879C8"/>
<path opacity="0.2" d="M58.6901 268.208C72.9401 268.208 81.5901 262.53 85.4901 257.326L84.9 250.09C78.24 255.399 69.1801 258.284 59.0901 258.284H58.29C51.7554 258.46 45.2508 257.207 39.1201 254.591C39.3901 252.733 39.7 250.713 40.04 248.486L37.8801 236.946H34.8801L32.5001 239.531L30.3401 266.165C29.8501 271.324 32.5401 276.551 38.4601 280.533C49.4001 287.814 67.12 287.814 78.04 280.533C78.41 280.29 78.7701 280.036 79.1101 279.783C79.1101 279.783 70.8301 284.537 58.1101 283.914C45.3901 283.291 37.6001 277.694 37.3701 273.528C37.2672 270.138 37.448 266.745 37.9101 263.396C42.9201 266.281 49.8401 268.208 58.6901 268.208Z" fill="black"/>
<path d="M59.0902 258.283H58.2902C47.0402 258.433 37.0202 255.064 30.0802 248.751C28.8201 247.586 28.0102 245.893 27.8271 244.041C27.644 242.19 28.1024 240.33 29.1025 238.867C30.1026 237.404 31.5632 236.456 33.1662 236.23C34.7692 236.004 36.3845 236.519 37.6602 237.661C42.4202 242 49.7202 244.32 58.2002 244.17H58.3802C66.8702 244.274 74.1602 242 78.9202 237.661C79.5504 237.079 80.2744 236.645 81.0505 236.387C81.8265 236.128 82.6392 236.05 83.4417 236.155C84.2442 236.261 85.0206 236.549 85.7262 237.003C86.4318 237.456 87.0526 238.067 87.5528 238.799C88.053 239.53 88.4227 240.369 88.6406 241.267C88.8586 242.164 88.9204 243.103 88.8225 244.028C88.7247 244.953 88.4691 245.847 88.0705 246.658C87.6719 247.468 87.1382 248.18 86.5002 248.751C79.7302 254.96 70.0002 258.283 59.0902 258.283Z" fill="#455A64"/>
<path d="M33.7902 247.205C35.6302 247.205 42.5302 253.148 57.9102 253.148C73.2902 253.148 83.5602 246.224 88.4702 240.8C88.2469 240.085 87.9263 239.415 87.5202 238.816C86.5111 237.349 85.0391 236.403 83.4269 236.187C81.8147 235.971 80.194 236.501 78.9202 237.662C74.1602 242.001 66.9202 244.274 58.3802 244.17H58.2002C49.7202 244.32 42.4202 242.001 37.6602 237.662C36.3845 236.519 34.7692 236.004 33.1662 236.23C31.5632 236.456 30.1026 237.404 29.1025 238.867C28.1024 240.33 27.644 242.19 27.8271 244.042C28.0102 245.893 28.8201 247.586 30.0802 248.751C37.0202 255.064 47.0802 258.434 58.2902 258.284C52.2051 258.158 46.1893 256.771 40.5302 254.187C34.4102 251.498 32.0002 247.205 33.7902 247.205Z" fill="#37474F"/>
<path d="M58.2901 250.344C48.9601 250.344 40.2101 247.921 33.6301 243.535C27.0501 239.15 23.5201 233.461 23.5201 227.379V226.941C23.1401 219.301 18.9301 132.821 21.4001 101.155C24.3101 63.8576 48.5401 32.942 55.8901 24.3562C56.2056 23.9867 56.5815 23.6933 56.9961 23.493C57.4107 23.2927 57.8557 23.1896 58.3051 23.1896C58.7546 23.1896 59.1996 23.2927 59.6142 23.493C60.0288 23.6933 60.4047 23.9867 60.7201 24.3562C68.0801 32.942 92.3001 63.8576 95.2101 101.155C97.6801 132.775 93.4801 219.255 93.1001 226.941V227.379C93.1001 233.473 89.5101 239.208 83.0001 243.535C76.4901 247.863 67.6101 250.344 58.2901 250.344Z" fill="#F5F5F5"/>
<path d="M58.29 23.6292C58.6886 23.6295 59.0832 23.7216 59.4506 23.8999C59.818 24.0782 60.151 24.3393 60.43 24.6678C67.76 33.2304 91.91 64.0422 94.81 101.189C97.24 132.29 93.2 216.532 92.72 226.445H92.67V227.333C92.67 233.253 89.15 238.873 82.76 243.12C76.37 247.367 67.54 249.859 58.29 249.859C49.04 249.859 40.34 247.471 33.82 243.12C27.3 238.769 23.91 233.253 23.91 227.333V226.445C23.42 216.532 19.39 132.29 21.81 101.189C24.71 64.0422 48.86 33.2304 56.19 24.6678C56.4702 24.3379 56.8048 24.076 57.174 23.8977C57.5433 23.7193 57.9397 23.628 58.34 23.6292M58.34 22.7521C57.8396 22.7495 57.3438 22.8625 56.8818 23.0845C56.4198 23.3065 56.001 23.6329 55.65 24.0446C47.58 33.4612 23.95 63.9615 21.05 101.109C18.84 129.439 22.05 203.919 23.19 227.333C23.19 233.322 26.62 239.312 33.49 243.893C40.36 248.475 49.34 250.748 58.34 250.748C67.34 250.748 76.34 248.44 83.19 243.893C90.04 239.346 93.48 233.322 93.48 227.333C94.65 203.919 97.82 129.439 95.61 101.109C92.67 63.9615 69 33.4612 61 24.0446C60.6502 23.6343 60.233 23.3087 59.7728 23.0868C59.3127 22.8648 58.8187 22.7511 58.32 22.7521H58.34Z" fill="#E0E0E0"/>
<path d="M93.1602 190.336C91.4191 193.554 89.1045 196.308 86.3702 198.414C84.9997 199.45 83.5846 200.405 82.1302 201.276C80.6302 202.049 79.1302 202.903 77.6002 203.503C65.1017 208.55 51.4886 208.55 38.9902 203.503C37.4302 202.915 35.9902 202.049 34.4602 201.287C33.0302 200.353 31.5602 199.522 30.2102 198.425C27.4789 196.319 25.1677 193.565 23.4302 190.347C25.3801 193.318 27.8246 195.81 30.6202 197.675C31.9802 198.668 33.4502 199.418 34.8802 200.249C36.3102 201.08 37.8802 201.691 39.3702 202.199C51.6983 206.603 64.8921 206.603 77.2202 202.199C78.7602 201.691 80.2202 200.93 81.7102 200.249C83.2002 199.568 84.6102 198.656 85.9702 197.664C88.7658 195.798 91.2103 193.307 93.1602 190.336Z" fill="#E0E0E0"/>
<path d="M93.1602 146.646C91.4198 149.864 89.1051 152.618 86.3702 154.724C85.002 155.764 83.5867 156.719 82.1302 157.585C80.6547 158.418 79.1426 159.161 77.6002 159.813C65.1028 164.867 51.4876 164.867 38.9902 159.813C37.4302 159.213 35.9902 158.359 34.4602 157.585C33.0017 156.717 31.5831 155.762 30.2102 154.724C27.4761 152.621 25.1642 149.866 23.4302 146.646C25.3856 149.61 27.829 152.101 30.6202 153.973C31.9802 154.954 33.4502 155.716 34.8802 156.547C36.3102 157.378 37.8802 157.989 39.3702 158.497C51.6983 162.901 64.8921 162.901 77.2202 158.497C78.7602 157.989 80.2202 157.216 81.7102 156.535C83.2002 155.854 84.6102 154.954 85.9702 153.962C88.7626 152.096 91.2065 149.609 93.1602 146.646Z" fill="#E0E0E0"/>
<path d="M59.56 170.06C59.56 170.352 59.4849 170.638 59.3443 170.881C59.2036 171.124 59.0037 171.313 58.7698 171.425C58.5359 171.537 58.2786 171.566 58.0303 171.509C57.782 171.452 57.5539 171.311 57.3749 171.105C57.1959 170.898 57.074 170.635 57.0246 170.348C56.9752 170.062 57.0005 169.765 57.0974 169.495C57.1943 169.225 57.3584 168.994 57.5689 168.832C57.7794 168.67 58.0268 168.583 58.28 168.583C58.6195 168.583 58.945 168.739 59.1851 169.016C59.4251 169.293 59.56 169.668 59.56 170.06Z" fill="#E0E0E0"/>
<path d="M80.03 165.329C80.7369 165.329 81.31 164.667 81.31 163.852C81.31 163.036 80.7369 162.375 80.03 162.375C79.3231 162.375 78.75 163.036 78.75 163.852C78.75 164.667 79.3231 165.329 80.03 165.329Z" fill="#E0E0E0"/>
<path d="M36.53 165.329C37.2369 165.329 37.81 164.667 37.81 163.852C37.81 163.036 37.2369 162.375 36.53 162.375C35.8231 162.375 35.25 163.036 35.25 163.852C35.25 164.667 35.8231 165.329 36.53 165.329Z" fill="#E0E0E0"/>
<path d="M81.3 209.389C81.3 209.681 81.2249 209.966 81.0843 210.209C80.9436 210.452 80.7437 210.641 80.5098 210.753C80.2759 210.865 80.0186 210.894 79.7703 210.837C79.522 210.78 79.2939 210.64 79.1149 210.433C78.9359 210.226 78.814 209.963 78.7646 209.677C78.7152 209.39 78.7405 209.093 78.8374 208.823C78.9343 208.553 79.0984 208.323 79.3089 208.16C79.5194 207.998 79.7668 207.911 80.02 207.911C80.1885 207.91 80.3555 207.947 80.5114 208.021C80.6673 208.094 80.8089 208.203 80.9281 208.341C81.0472 208.478 81.1414 208.642 81.2053 208.821C81.2691 209.001 81.3013 209.194 81.3 209.389Z" fill="#E0E0E0"/>
<path d="M37.81 209.389C37.81 209.681 37.7349 209.966 37.5943 210.209C37.4536 210.452 37.2537 210.641 37.0198 210.753C36.7859 210.865 36.5286 210.894 36.2803 210.837C36.032 210.78 35.8039 210.64 35.6249 210.433C35.4459 210.226 35.324 209.963 35.2746 209.677C35.2252 209.39 35.2505 209.093 35.3474 208.823C35.4443 208.553 35.6084 208.323 35.8189 208.16C36.0294 207.998 36.2768 207.911 36.53 207.911C36.6985 207.91 36.8655 207.947 37.0214 208.021C37.1773 208.094 37.3189 208.203 37.4381 208.341C37.5572 208.478 37.6514 208.642 37.7153 208.821C37.7791 209.001 37.8113 209.194 37.81 209.389Z" fill="#E0E0E0"/>
<path d="M79.2702 85.2181C67.6802 92.9383 48.9002 92.9383 37.2702 85.2181C30.0402 80.3828 27.2702 73.6781 29.1302 67.4696C29.5202 66.4771 29.9202 65.5078 30.3302 64.5499C36.8914 49.6327 45.4046 35.9708 55.5702 24.0445C55.9199 23.636 56.3364 23.3116 56.7956 23.0902C57.2548 22.8688 57.7475 22.7548 58.2451 22.7548C58.7428 22.7548 59.2355 22.8688 59.6947 23.0902C60.1539 23.3116 60.5704 23.636 60.9201 24.0445C71.0677 35.9346 79.5674 49.5577 86.1201 64.4345C86.5601 65.4501 86.9801 66.454 87.3901 67.4811C89.2101 73.7819 86.4802 80.4059 79.2702 85.2181Z" fill="#6879C8"/>
<path opacity="0.15" d="M58.2901 86.5914C51.0301 86.5914 44.2901 84.745 39.2201 81.3869C33.9401 77.9249 31.5801 73.3781 32.7401 69.0506C33.0901 68.1851 33.4401 67.3427 33.8001 66.5003C40.1792 52.0308 48.4379 38.7719 58.2901 27.1835C58.2901 27.1835 51.0901 44.1011 49.4501 58.3415C47.8101 72.5818 52.0801 81.7792 58.2901 86.5914Z" fill="black"/>
<path opacity="0.5" d="M61.3901 30.4377C63.7421 33.0979 65.9496 35.9228 68.0001 38.8966C70.0601 41.8508 72.0001 44.9204 73.8201 48.0593C74.7401 49.6288 75.6101 51.2444 76.4801 52.8369C77.3501 54.4294 78.1801 56.0912 78.9401 57.7645C80.5186 61.0773 81.9179 64.4997 83.1301 68.012L77.8701 58.4569C76.1101 55.2949 74.3401 52.1445 72.5101 49.0287C70.6801 45.9129 68.8601 42.8086 67.0101 39.7044L61.3901 30.4377Z" fill="white"/>
<path d="M60.4801 25.1755L58.2801 0.341431L56.0801 25.1755C56.0989 25.3996 56.169 25.6139 56.2832 25.7964C56.3974 25.9789 56.5517 26.1231 56.7301 26.2141C57.211 26.4932 57.7418 26.6385 58.2801 26.6385C58.8184 26.6385 59.3492 26.4932 59.8301 26.2141C60.0085 26.1231 60.1627 25.9789 60.2769 25.7964C60.3912 25.6139 60.4613 25.3996 60.4801 25.1755Z" fill="#455A64"/>
<path d="M65.7636 143.223C75.7236 138.462 80.4533 125.285 76.3278 113.791C72.2022 102.297 60.7836 96.8393 50.8237 101.6C40.8637 106.361 36.134 119.538 40.2595 131.032C44.3851 142.526 55.8037 147.984 65.7636 143.223Z" fill="#6879C8"/>
<path opacity="0.15" d="M65.7636 143.223C75.7236 138.462 80.4533 125.285 76.3278 113.791C72.2022 102.297 60.7836 96.8393 50.8237 101.6C40.8637 106.361 36.134 119.538 40.2595 131.032C44.3851 142.526 55.8037 147.984 65.7636 143.223Z" fill="black"/>
<path d="M58.29 147.557C69.0706 147.557 77.81 137.472 77.81 125.031C77.81 112.59 69.0706 102.505 58.29 102.505C47.5094 102.505 38.77 112.59 38.77 125.031C38.77 137.472 47.5094 147.557 58.29 147.557Z" fill="#6879C8"/>
<path opacity="0.2" d="M65.3202 146.045L59.0002 126.024L75.0002 136.675C75.1302 136.421 75.2602 136.167 75.3802 135.913L59.3802 125.25L77.5702 121.558C77.5702 121.258 77.4802 120.969 77.4302 120.681L59.2402 124.385L71.1102 108.067C70.9202 107.871 70.7302 107.675 70.5302 107.49L58.6602 123.819V102.517H57.8902V123.819L46.0002 107.49L45.4202 108.067L57.2902 124.385L39.1002 120.681C39.1002 120.969 39.0102 121.258 38.9702 121.558L57.1602 125.25L41.1602 135.913C41.2802 136.167 41.4102 136.421 41.5402 136.675L57.5402 126.024L51.2202 146.045L51.9402 146.346L58.2602 126.324L64.5702 146.346C64.8502 146.253 65.0802 146.149 65.3202 146.045Z" fill="black"/>
<path d="M58.2902 141.303C66.0774 141.303 72.3902 134.018 72.3902 125.031C72.3902 116.045 66.0774 108.76 58.2902 108.76C50.503 108.76 44.1902 116.045 44.1902 125.031C44.1902 134.018 50.503 141.303 58.2902 141.303Z" fill="#37474F"/>
<path d="M58.29 108.76C54.7887 108.77 51.416 110.283 48.8282 113.005C46.2404 115.727 44.6228 119.462 44.29 123.485C44.6038 127.525 46.2137 131.283 48.8042 134.025C51.3946 136.766 54.7789 138.292 58.2936 138.303C61.8083 138.315 65.2 136.811 67.804 134.087C70.4079 131.363 72.0363 127.615 72.37 123.577C72.0548 119.522 70.4339 115.751 67.8273 113.008C65.2207 110.265 61.8177 108.749 58.29 108.76Z" fill="#455A64"/>
<path d="M69.5501 120.888C69.5501 121.849 69.3032 122.788 68.8406 123.587C68.378 124.386 67.7205 125.009 66.9512 125.377C66.1819 125.744 65.3355 125.841 64.5188 125.653C63.7021 125.466 62.952 125.003 62.3632 124.324C61.7744 123.644 61.3735 122.778 61.211 121.836C61.0486 120.894 61.132 119.917 61.4506 119.029C61.7692 118.141 62.3089 117.383 63.0012 116.849C63.6935 116.315 64.5075 116.03 65.3401 116.03C66.4567 116.03 67.5275 116.542 68.3171 117.453C69.1066 118.364 69.5501 119.6 69.5501 120.888Z" fill="#E0E0E0"/>
<path d="M66.9201 130.513C66.9201 131.067 66.7775 131.609 66.5105 132.071C66.2435 132.532 65.864 132.891 65.42 133.103C64.976 133.316 64.4874 133.371 64.016 133.263C63.5446 133.155 63.1116 132.888 62.7718 132.496C62.4319 132.103 62.2005 131.604 62.1067 131.06C62.013 130.516 62.0611 129.952 62.245 129.439C62.429 128.927 62.7404 128.489 63.14 128.181C63.5396 127.873 64.0095 127.708 64.4901 127.708C64.8095 127.707 65.1261 127.778 65.4215 127.919C65.717 128.059 65.9854 128.266 66.2113 128.526C66.4372 128.787 66.6161 129.097 66.7378 129.438C66.8594 129.779 66.9214 130.144 66.9201 130.513Z" fill="#E0E0E0"/>
<path d="M66.5501 196.579C66.5973 195.292 66.4184 194.007 66.0241 192.801C65.6298 191.596 65.0282 190.495 64.2557 189.564C63.4831 188.634 62.5555 187.893 61.5286 187.387C60.5017 186.882 59.3967 186.621 58.2801 186.62C57.1635 186.621 56.0585 186.882 55.0316 187.387C54.0047 187.893 53.077 188.634 52.3045 189.564C51.5319 190.495 50.9304 191.596 50.5361 192.801C50.1418 194.007 49.9629 195.292 50.0101 196.579C50.0101 196.579 50.0101 200.099 50.0101 200.71L51.8601 251.417C51.9042 252.913 52.4504 254.331 53.3833 255.371C54.3163 256.411 55.5629 256.992 56.8601 256.991H59.6401C60.9372 256.992 62.1839 256.411 63.1169 255.371C64.0498 254.331 64.596 252.913 64.6401 251.417L66.5501 200.722C66.5801 200.099 66.5501 196.579 66.5501 196.579Z" fill="#455A64"/>
<path d="M59.6701 256.991H56.8901C55.5929 256.992 54.3463 256.411 53.4133 255.371C52.4804 254.331 51.9342 252.913 51.8901 251.417L50.0001 200.722C49.9529 199.435 50.1318 198.149 50.5261 196.944C50.9204 195.738 51.5219 194.637 52.2945 193.707C53.067 192.777 53.9947 192.036 55.0216 191.53C56.0485 191.024 57.1535 190.763 58.2701 190.763C59.3867 190.763 60.4917 191.024 61.5186 191.53C62.5455 192.036 63.4731 192.777 64.2457 193.707C65.0182 194.637 65.6198 195.738 66.0141 196.944C66.4083 198.149 66.5873 199.435 66.5401 200.722L64.6901 251.429C64.6433 252.927 64.0932 254.345 63.1563 255.383C62.2193 256.421 60.969 256.998 59.6701 256.991Z" fill="#37474F"/>
<path d="M58.2801 291.38C57.636 291.381 57.017 291.092 56.5542 290.575C56.0913 290.058 55.8209 289.354 55.8001 288.611L53.6501 204.576C53.6272 203.858 53.7301 203.142 53.9525 202.471C54.1749 201.8 54.5124 201.188 54.9446 200.671C55.3768 200.154 55.895 199.742 56.4681 199.462C57.0412 199.181 57.6575 199.037 58.2801 199.037C58.9027 199.037 59.519 199.181 60.0921 199.462C60.6652 199.742 61.1834 200.154 61.6156 200.671C62.0478 201.188 62.3853 201.8 62.6077 202.471C62.8301 203.142 62.933 203.858 62.9101 204.576L60.7601 288.611C60.7393 289.354 60.4689 290.058 60.006 290.575C59.5432 291.092 58.9242 291.381 58.2801 291.38Z" fill="#6879C8"/>
<path opacity="0.2" d="M55.8 288.611C55.8 289.376 56.0634 290.11 56.5322 290.651C57.0011 291.192 57.637 291.496 58.3 291.496C58.963 291.496 59.5989 291.192 60.0678 290.651C60.5366 290.11 60.8 289.376 60.8 288.611L61 278.04L60.89 277.705C60.89 277.705 60.54 282.633 58.25 281.41C56.61 280.533 55.6 274.659 55.25 268.82L55.8 288.611Z" fill="black"/>
<path opacity="0.5" d="M62.91 204.576C62.9329 203.858 62.83 203.142 62.6076 202.471C62.3852 201.8 62.0477 201.188 61.6155 200.671C61.1833 200.154 60.6651 199.742 60.092 199.462C59.5189 199.181 58.9026 199.037 58.28 199.037C58.0186 199.04 57.7578 199.067 57.5 199.118C60.33 199.741 61.23 201.726 61.39 209.654C61.55 217.951 60.84 285.172 60.84 285.172L62.91 204.576Z" fill="white"/>
<path d="M96.8502 167.452C95.7302 166.714 94.1802 166.841 92.4502 167.995C90.5636 169.43 89.0079 171.373 87.9173 173.657C86.8267 175.941 86.234 178.497 86.1902 181.104L87.6802 237.038C87.6452 237.515 87.7191 237.994 87.8946 238.427C88.07 238.86 88.3409 239.233 88.6802 239.508C89.2302 239.866 91.2302 241.227 91.8002 241.585C92.18 241.782 92.5981 241.861 93.0124 241.812C93.4267 241.763 93.8226 241.59 94.1602 241.308L96.8602 239.519C97.8265 238.786 98.6356 237.808 99.2263 236.661C99.8171 235.513 100.174 234.226 100.27 232.896L101.78 174.538C101.84 172.045 101.13 170.291 99.9402 169.506L96.8502 167.452Z" fill="#263238"/>
<path d="M94.2101 241.331C92.3801 242.554 90.85 241.562 90.79 239.127L89.29 183.193C89.3326 180.581 89.9257 178.02 91.0181 175.732C92.1106 173.444 93.6695 171.497 95.56 170.06C99.14 167.671 101.94 169.691 101.83 174.561L100.32 232.919C100.224 234.249 99.867 235.536 99.2762 236.684C98.6854 237.831 97.8763 238.809 96.91 239.543L94.2101 241.331Z" fill="#37474F"/>
<path d="M96.8501 167.452C97.3901 167.798 99.46 169.183 99.98 169.529C98.85 168.779 97.3 168.906 95.55 170.06C92.8487 172.093 90.8524 175.156 89.91 178.715L86.8 176.638C87.7488 173.079 89.7479 170.017 92.45 167.983C94.19 166.84 95.7301 166.714 96.8501 167.452Z" fill="#455A64"/>
<path d="M101.48 182.258L98.6601 180.389L95.5601 182.454V273.77C98.8201 275.951 101.86 276.078 104.31 274.416L107.39 272.351C110.47 270.32 112.62 265.554 113.13 258.687L116 221.09C117.05 206.342 110.26 188.132 101.48 182.258Z" fill="#6879C8"/>
<g opacity="0.2">
<path d="M101.48 182.258L98.6601 180.389L95.5601 182.454V273.77C98.8201 275.951 101.86 276.078 104.31 274.416L107.39 272.351C110.47 270.32 112.62 265.554 113.13 258.687L116 221.09C117.05 206.342 110.26 188.132 101.48 182.258Z" fill="white"/>
</g>
<path d="M95.5601 273.77V182.477L98.3701 184.358C107.15 190.209 113.94 208.419 112.84 223.156L110 260.73C109.1 273.089 102.9 278.663 95.5601 273.77Z" fill="#6879C8"/>
<path opacity="0.2" d="M95.5601 273.77V182.477L98.3701 184.358C107.15 190.209 113.94 208.419 112.84 223.156L110 260.73C109.1 273.089 102.9 278.663 95.5601 273.77Z" fill="black"/>
<path opacity="0.2" d="M110.1 259.714C109.65 265.727 104.48 268.046 100.72 263.442C96.9601 258.837 95.5601 252.871 95.5601 234.315V273.77C102.9 278.663 109.1 273.089 110.02 260.765L110.1 259.714Z" fill="black"/>
<path d="M19.7201 167.452C20.8401 166.714 22.3901 166.841 24.1201 167.995C26.0079 169.429 27.5651 171.372 28.6574 173.656C29.7497 175.94 30.3443 178.496 30.3901 181.104L28.8901 237.038C28.9251 237.515 28.8511 237.994 28.6757 238.427C28.5002 238.86 28.2293 239.233 27.8901 239.508C27.3401 239.866 25.3401 241.227 24.7801 241.585C24.3985 241.782 23.9789 241.86 23.5631 241.812C23.1472 241.763 22.7496 241.589 22.4101 241.308L19.7201 239.519C18.7514 238.788 17.94 237.811 17.3474 236.663C16.7548 235.515 16.3966 234.227 16.3001 232.896L14.7901 174.538C14.7401 172.045 15.4501 170.291 16.6401 169.506C17.1101 169.183 19.1801 167.798 19.7201 167.452Z" fill="#263238"/>
<path d="M22.3602 241.331C24.1902 242.554 25.7202 241.562 25.7802 239.127L27.2802 183.193C27.2314 180.581 26.6346 178.022 25.5409 175.734C24.4471 173.447 22.889 171.5 21.0002 170.06C17.4202 167.671 14.6102 169.691 14.7202 174.561L16.2302 232.919C16.3267 234.25 16.6849 235.538 17.2775 236.686C17.8701 237.834 18.6815 238.811 19.6502 239.543L22.3602 241.331Z" fill="#37474F"/>
<path d="M19.7201 167.452C19.1801 167.798 17.1101 169.183 16.5901 169.529C17.7201 168.779 19.2801 168.906 21.0201 170.06C23.7244 172.089 25.7216 175.154 26.6601 178.715L29.7801 176.638C28.8273 173.079 26.8248 170.017 24.1201 167.983C22.3901 166.84 20.8401 166.714 19.7201 167.452Z" fill="#455A64"/>
<path d="M15.0901 182.258L17.9101 180.389L21.0201 182.454V273.77C17.7501 275.951 14.7101 276.078 12.2601 274.416L9.18008 272.351C6.11008 270.32 3.96009 265.554 3.44009 258.687L0.630092 221.09C-0.479908 206.342 6.31008 188.132 15.0901 182.258Z" fill="#6879C8"/>
<g opacity="0.2">
<path d="M15.0901 182.258L17.9101 180.389L21.0201 182.454V273.77C17.7501 275.951 14.7101 276.078 12.2601 274.416L9.18008 272.351C6.11008 270.32 3.96009 265.554 3.44009 258.687L0.630092 221.09C-0.479908 206.342 6.31008 188.132 15.0901 182.258Z" fill="white"/>
</g>
<path d="M21.0001 273.77V182.477L18.1801 184.358C9.4001 190.209 2.61012 208.419 3.71012 223.156L6.55011 260.73C7.47011 273.089 13.6701 278.663 21.0001 273.77Z" fill="#6879C8"/>
<path opacity="0.2" d="M21.0001 273.77V182.477L18.1801 184.358C9.4001 190.209 2.61012 208.419 3.71012 223.156L6.55011 260.73C7.47011 273.089 13.6701 278.663 21.0001 273.77Z" fill="black"/>
<path opacity="0.2" d="M6.47021 259.714C6.92021 265.727 12.1002 268.046 15.8502 263.442C19.6002 258.837 21.0102 252.871 21.0202 234.315V273.77C13.6702 278.663 7.47022 273.089 6.55022 260.765L6.47021 259.714Z" fill="black"/>
</svg>
