<svg width="473" height="98" viewBox="0 0 473 98" fill="none" xmlns="http://www.w3.org/2000/svg">
<path d="M55 81.9099C55 81.9099 56.32 61.8072 52.73 42.5238C49.14 23.2405 40.4199 8.42312 29.7299 2.63004C19.04 -3.16304 6.19995 4.73032 15.43 17.8859C24.66 31.0415 43.7999 54.5947 43.6899 88.9723L55 81.9099Z" fill="#E0E0E0"/>
<path d="M49.5401 81.2059H49.6701C49.7528 81.2029 49.8343 81.1812 49.9097 81.1419C49.9852 81.1025 50.0532 81.0464 50.1098 80.9768C50.1665 80.9071 50.2107 80.8252 50.2399 80.7358C50.2691 80.6465 50.2828 80.5513 50.2801 80.4558C49.2801 38.3464 37.1301 17.2743 23.0901 6.59983C23.0212 6.54679 22.9438 6.50994 22.8626 6.49138C22.7813 6.47282 22.6976 6.47293 22.6164 6.49168C22.5351 6.51043 22.4579 6.54747 22.389 6.60068C22.3202 6.65388 22.2611 6.72222 22.2151 6.80179C22.1691 6.88135 22.1372 6.97058 22.1211 7.06438C22.105 7.15819 22.1051 7.25472 22.1214 7.34848C22.1376 7.44225 22.1697 7.5314 22.2158 7.61085C22.2619 7.6903 22.3212 7.7585 22.3901 7.81154C36.2401 18.3476 48.0001 39.0042 49.0001 80.502C49.0053 80.6735 49.062 80.8375 49.1605 80.9659C49.259 81.0944 49.3933 81.1792 49.5401 81.2059Z" fill="white"/>
<path d="M0.680067 44.0818C0.890067 46.3898 2.52007 48.1901 4.08007 49.7018C5.64007 51.2135 7.33007 52.8291 7.75007 55.1141C8.61007 59.7301 3.86007 63.9999 4.89007 68.5697C5.16494 69.5109 5.60276 70.3779 6.17692 71.1178C6.75109 71.8578 7.44961 72.4553 8.23007 72.8741C9.50837 73.6027 10.8203 74.25 12.1601 74.8128C12.8172 75.0408 13.4849 75.2258 14.1601 75.3667C16.1707 75.5809 18.063 76.5591 19.5401 78.1479C21.7301 80.8829 21.4501 85.0719 22.2301 88.7185C23.1701 93.046 25.4001 95.5848 30.5101 97.6505L48.0001 86.2028C52.3601 81.0675 53.9001 72.2971 49.8801 66.3425C47.4701 62.7651 42.9601 62.3035 40.6801 58.7261C38.6801 55.518 39.8201 50.8789 38.5701 47.1861C37.3201 43.4933 33.9901 42.2008 30.8501 41.5661C27.7101 40.9314 24.3701 42.4316 21.3001 41.1391C18.2301 39.8466 15.3901 37.7579 12.2201 36.8462C10.6656 36.3135 9.02591 36.1997 7.42736 36.5139C5.82881 36.828 4.31412 37.5616 3.00007 38.658C2.26246 39.2785 1.66612 40.0961 1.26208 41.0407C0.858047 41.9852 0.658345 43.0287 0.680067 44.0818Z" fill="#EBEBEB"/>
<path d="M33.3101 62.3034C33.2783 62.2224 33.2303 62.1512 33.1701 62.0957C24.9401 48.64 12.0501 42.2469 7.70014 41.1159C7.58079 41.0853 7.4558 41.1107 7.35265 41.1864C7.24951 41.2622 7.17666 41.3821 7.15014 41.5198C7.12362 41.6576 7.14559 41.8018 7.21123 41.9208C7.27687 42.0399 7.38079 42.1239 7.50014 42.1545C11.6301 43.2162 23.6001 49.0785 31.6601 61.461C28.3745 60.1882 24.897 59.7096 21.4441 60.0551C17.9912 60.4005 14.637 61.5626 11.5901 63.4689C11.4901 63.5487 11.42 63.6692 11.394 63.8063C11.368 63.9434 11.3881 64.0868 11.4501 64.2075C11.4909 64.2778 11.5459 64.3356 11.6103 64.3758C11.6748 64.4161 11.7468 64.4375 11.8201 64.4383C11.9122 64.4459 12.0038 64.4174 12.0801 64.3575C15.1967 62.3993 18.6474 61.2532 22.1892 61C25.7311 60.7468 29.2779 61.3926 32.5801 62.8919C37.3848 70.825 39.7889 80.3647 39.4201 90.034C39.4192 90.1666 39.4604 90.295 39.5359 90.395C39.6115 90.4949 39.7162 90.5594 39.8301 90.5764C39.9505 90.5795 40.0671 90.5281 40.1549 90.4332C40.2428 90.3383 40.2949 90.2074 40.3001 90.0686C40.6738 80.1791 38.2175 70.4223 33.3101 62.3034Z" fill="white"/>
<path d="M428.42 82.937C428.25 68.9389 428.48 56.0257 434.64 36.1192C439.8 19.4208 453.07 2.5724 462.03 3.28788C470.38 3.9572 472.23 15.7857 464.72 26.3679C457.21 36.9501 440.85 57.0527 439.83 71.5816L436.64 88.0838L428.42 82.937Z" fill="#E0E0E0"/>
<path d="M432.12 79.3942C432.235 79.3655 432.338 79.2929 432.412 79.1881C432.487 79.0834 432.528 78.9526 432.53 78.8172C433.84 46.2513 449.6 19.1092 462.75 10.7312C462.872 10.6489 462.962 10.5154 463.001 10.3585C463.04 10.2016 463.026 10.0334 462.96 9.88876C462.927 9.81673 462.881 9.75316 462.826 9.7018C462.771 9.65045 462.707 9.61235 462.639 9.58976C462.571 9.56717 462.5 9.56054 462.43 9.57027C462.36 9.58 462.292 9.60589 462.23 9.64641C448.86 18.1283 432.78 45.7089 431.46 78.7249C431.455 78.8882 431.505 79.0476 431.6 79.1684C431.696 79.2893 431.829 79.3621 431.97 79.3711C432.018 79.3903 432.069 79.3981 432.12 79.3942Z" fill="white"/>
<path d="M439.72 90.0456C440.23 85.1296 444.13 76.4631 451.28 68.5697C459.19 59.8455 470 54.5024 471.83 48.5132C474.03 41.3122 468.52 37.4694 459.4 39.7197C448.4 42.4201 436.28 56.9027 434.24 86.4682L439.72 90.0456Z" fill="#EBEBEB"/>
<path d="M437.26 85.4411C437.36 85.4126 437.451 85.3519 437.521 85.266C437.592 85.1802 437.64 85.0728 437.66 84.9564C441.86 59.1068 456.83 47.5438 464.16 45.0396C464.227 45.0171 464.29 44.9795 464.344 44.9289C464.399 44.8784 464.444 44.816 464.477 44.7452C464.511 44.6744 464.532 44.5967 464.539 44.5165C464.547 44.4363 464.54 44.3552 464.52 44.2779C464.501 44.1992 464.468 44.1258 464.423 44.0621C464.379 43.9983 464.324 43.9455 464.261 43.9067C464.199 43.868 464.13 43.8441 464.06 43.8365C463.989 43.8289 463.918 43.8378 463.85 43.8625C455.75 46.6206 440.85 58.3452 436.61 84.7257C436.597 84.8053 436.598 84.8871 436.613 84.9663C436.627 85.0455 436.656 85.1206 436.696 85.1871C436.736 85.2537 436.787 85.3104 436.846 85.354C436.905 85.3976 436.971 85.4272 437.04 85.4411C437.112 85.4643 437.188 85.4643 437.26 85.4411Z" fill="white"/>
</svg>
