<svg width="442" height="255" viewBox="0 0 442 255" fill="none" xmlns="http://www.w3.org/2000/svg">
<path d="M2.61009 92.6596L243.32 253.066C244.769 253.913 246.371 254.355 247.995 254.355C249.62 254.355 251.221 253.913 252.67 253.066L379.24 168.731C381.83 167.012 381.83 164.219 379.24 162.5L138.54 2.0937C137.089 1.24602 135.486 0.804321 133.86 0.804321C132.234 0.804321 130.631 1.24602 129.18 2.0937L2.61009 86.428C8.79765e-05 88.1475 8.79765e-05 90.9286 2.61009 92.6596Z" fill="#E0E0E0"/>
<path d="M377.49 138.981C412.963 138.981 441.72 119.823 441.72 96.1909C441.72 72.5585 412.963 53.4006 377.49 53.4006C342.017 53.4006 313.26 72.5585 313.26 96.1909C313.26 119.823 342.017 138.981 377.49 138.981Z" fill="#E0E0E0"/>
</svg>
