<svg width="419" height="235" viewBox="0 0 419 235" fill="none" xmlns="http://www.w3.org/2000/svg">
<path d="M57.2598 64.0088C57.4105 64.1833 57.5129 64.4054 57.5543 64.647C57.5957 64.8887 57.5741 65.139 57.4922 65.3665C57.4104 65.594 57.2719 65.7884 57.0944 65.9251C56.9169 66.0619 56.7082 66.1349 56.4948 66.1349C56.2814 66.1349 56.0727 66.0619 55.8952 65.9251C55.7176 65.7884 55.5792 65.594 55.4974 65.3665C55.4155 65.139 55.3939 64.8887 55.4353 64.647C55.4766 64.4054 55.5791 64.1833 55.7298 64.0088C55.9337 63.7769 56.2085 63.647 56.4948 63.647C56.7811 63.647 57.0559 63.7769 57.2598 64.0088Z" fill="#F0F0F0"/>
<path d="M67.24 69.4557C67.4068 69.6413 67.5402 69.8631 67.6328 70.1082C67.7253 70.3534 67.7751 70.6172 67.7792 70.8845C67.7834 71.1519 67.7419 71.4176 67.6571 71.6665C67.5723 71.9153 67.4459 72.1424 67.285 72.3349C67.1241 72.5274 66.932 72.6814 66.7195 72.7882C66.5071 72.8949 66.2785 72.9524 66.0468 72.9572C65.8151 72.962 65.5849 72.9141 65.3693 72.8163C65.1536 72.7184 64.9568 72.5725 64.79 72.3868C64.4532 72.0119 64.2592 71.4979 64.2508 70.958C64.2423 70.418 64.4201 69.8963 64.745 69.5076C65.0699 69.1189 65.5153 68.8951 65.9832 68.8853C66.4511 68.8756 66.9032 69.0808 67.24 69.4557V69.4557Z" fill="#F0F0F0"/>
<path d="M390 9.20539C390.198 9.11413 390.415 9.09262 390.624 9.14355C390.832 9.19449 391.023 9.31559 391.172 9.4916C391.322 9.6676 391.422 9.89062 391.462 10.1325C391.501 10.3744 391.478 10.6244 391.394 10.8509C391.31 11.0774 391.171 11.2703 390.992 11.4052C390.814 11.5402 390.605 11.6111 390.392 11.6092C390.178 11.6072 389.97 11.5324 389.794 11.3942C389.617 11.256 389.48 11.0605 389.4 10.8325C389.294 10.5248 389.298 10.1814 389.41 9.87675C389.523 9.57216 389.734 9.33093 390 9.20539V9.20539Z" fill="#F0F0F0"/>
<path d="M398.35 0.919656C398.564 0.819636 398.794 0.769398 399.026 0.771812C399.257 0.774225 399.486 0.829243 399.699 0.933723C399.912 1.0382 400.106 1.1901 400.268 1.38074C400.43 1.57138 400.558 1.79703 400.645 2.04481C400.731 2.29258 400.775 2.55763 400.773 2.82483C400.771 3.09202 400.723 3.35612 400.633 3.60205C400.542 3.84798 400.41 4.07092 400.245 4.25815C400.08 4.44537 399.884 4.59322 399.67 4.69324C399.236 4.89524 398.751 4.89018 398.32 4.67917C397.89 4.46816 397.55 4.06849 397.375 3.56809C397.2 3.06768 397.204 2.50752 397.387 2.01085C397.57 1.51417 397.916 1.12166 398.35 0.919656V0.919656Z" fill="#F0F0F0"/>
<path d="M334.93 142.977C334.932 143.382 334.829 143.779 334.636 144.116C334.442 144.454 334.166 144.717 333.842 144.874C333.518 145.03 333.161 145.071 332.817 144.993C332.473 144.914 332.156 144.719 331.908 144.433C331.66 144.147 331.491 143.782 331.423 143.384C331.355 142.987 331.391 142.575 331.527 142.202C331.662 141.828 331.89 141.509 332.183 141.286C332.475 141.062 332.819 140.944 333.17 140.946C333.637 140.946 334.084 141.16 334.414 141.541C334.744 141.922 334.93 142.438 334.93 142.977V142.977Z" fill="#F0F0F0"/>
<path d="M329.66 148.539C329.662 148.782 329.601 149.02 329.486 149.223C329.37 149.426 329.204 149.585 329.01 149.679C328.816 149.773 328.602 149.798 328.396 149.751C328.189 149.704 327.999 149.588 327.851 149.416C327.702 149.244 327.601 149.025 327.56 148.787C327.519 148.548 327.541 148.301 327.623 148.077C327.704 147.853 327.842 147.663 328.017 147.529C328.193 147.396 328.399 147.325 328.61 147.328C328.75 147.319 328.89 147.345 329.02 147.403C329.151 147.461 329.269 147.55 329.368 147.664C329.467 147.778 329.544 147.915 329.595 148.066C329.645 148.217 329.667 148.378 329.66 148.539Z" fill="#F0F0F0"/>
<path d="M326.68 140.946C326.68 141.14 326.63 141.33 326.537 141.491C326.443 141.652 326.311 141.778 326.155 141.852C326 141.926 325.829 141.946 325.664 141.908C325.499 141.87 325.348 141.777 325.229 141.64C325.11 141.502 325.029 141.328 324.996 141.137C324.964 140.947 324.98 140.75 325.045 140.571C325.109 140.391 325.218 140.238 325.358 140.13C325.498 140.023 325.662 139.965 325.83 139.965C326.055 139.965 326.272 140.068 326.431 140.252C326.59 140.436 326.68 140.686 326.68 140.946V140.946Z" fill="#F0F0F0"/>
<path d="M223.86 89.316C224.087 89.4679 224.271 89.6942 224.387 89.9662C224.503 90.2383 224.547 90.544 224.512 90.8447C224.478 91.1454 224.367 91.4276 224.194 91.6558C224.021 91.8839 223.793 92.0478 223.54 92.1266C223.286 92.2055 223.017 92.1958 222.768 92.0988C222.519 92.0018 222.301 91.8218 222.14 91.5816C221.98 91.3414 221.885 91.0517 221.867 90.7492C221.849 90.4466 221.909 90.1447 222.04 89.8815C222.127 89.7062 222.243 89.5524 222.382 89.429C222.52 89.3056 222.679 89.2151 222.848 89.1625C223.017 89.11 223.194 89.0965 223.367 89.1228C223.541 89.1492 223.708 89.2148 223.86 89.316V89.316Z" fill="#E0E0E0"/>
<path d="M227.16 84.25C227.295 84.3378 227.403 84.4697 227.473 84.6289C227.542 84.7882 227.569 84.9677 227.55 85.1447C227.531 85.3216 227.467 85.4881 227.366 85.6228C227.265 85.7576 227.131 85.8547 226.982 85.9018C226.833 85.9488 226.675 85.9437 226.529 85.8871C226.382 85.8305 226.253 85.725 226.159 85.5839C226.064 85.4428 226.008 85.2725 225.998 85.0946C225.987 84.9167 226.023 84.7392 226.1 84.5847C226.203 84.3788 226.372 84.228 226.57 84.1653C226.769 84.1026 226.981 84.1331 227.16 84.25V84.25Z" fill="#F0F0F0"/>
<path d="M239 184.648C239.225 184.8 239.406 185.025 239.52 185.296C239.634 185.566 239.676 185.87 239.641 186.168C239.606 186.466 239.495 186.746 239.323 186.971C239.15 187.197 238.924 187.358 238.672 187.435C238.42 187.512 238.154 187.502 237.907 187.404C237.66 187.307 237.444 187.128 237.285 186.889C237.127 186.65 237.033 186.362 237.016 186.062C236.999 185.762 237.06 185.463 237.19 185.202C237.367 184.853 237.657 184.599 237.996 184.495C238.335 184.391 238.696 184.446 239 184.648V184.648Z" fill="#E0E0E0"/>
<path d="M319 72.71C319.225 72.8619 319.406 73.0873 319.52 73.3578C319.634 73.6283 319.676 73.9317 319.641 74.2299C319.606 74.528 319.495 74.8075 319.323 75.033C319.15 75.2585 318.924 75.4201 318.672 75.4972C318.42 75.5743 318.154 75.5636 317.907 75.4664C317.66 75.3691 317.444 75.1898 317.285 74.9509C317.127 74.712 317.033 74.4243 317.016 74.1241C316.999 73.8238 317.06 73.5245 317.19 73.2639C317.367 72.9148 317.657 72.6608 317.996 72.557C318.335 72.4533 318.696 72.5082 319 72.71Z" fill="#E0E0E0"/>
<path d="M242.32 179.582C242.408 179.64 242.486 179.719 242.548 179.812C242.61 179.905 242.656 180.012 242.682 180.126C242.708 180.24 242.714 180.358 242.7 180.475C242.686 180.592 242.652 180.704 242.6 180.805C242.556 180.921 242.491 181.025 242.409 181.109C242.328 181.194 242.232 181.258 242.127 181.297C242.023 181.336 241.913 181.349 241.804 181.336C241.694 181.322 241.589 181.283 241.494 181.219C241.399 181.155 241.317 181.069 241.253 180.966C241.189 180.864 241.145 180.746 241.123 180.622C241.101 180.498 241.101 180.37 241.125 180.247C241.149 180.123 241.195 180.007 241.26 179.905C241.311 179.803 241.378 179.713 241.459 179.642C241.54 179.57 241.633 179.518 241.731 179.488C241.83 179.458 241.933 179.451 242.034 179.467C242.135 179.483 242.232 179.522 242.32 179.582Z" fill="#F0F0F0"/>
<path d="M418.24 134.334L415.74 135.338L415 138.292C414.985 138.354 414.955 138.411 414.914 138.455C414.873 138.499 414.821 138.529 414.766 138.541C414.711 138.553 414.654 138.547 414.601 138.523C414.549 138.499 414.504 138.459 414.47 138.407L412.87 135.961L410.23 136.099C410.173 136.104 410.117 136.091 410.066 136.06C410.016 136.03 409.975 135.983 409.946 135.927C409.918 135.87 409.904 135.805 409.907 135.739C409.909 135.674 409.928 135.611 409.96 135.557L411.48 133.053L410.55 130.179C410.531 130.119 410.526 130.053 410.538 129.99C410.549 129.927 410.575 129.869 410.614 129.822C410.652 129.775 410.701 129.742 410.756 129.725C410.81 129.709 410.867 129.71 410.92 129.729L413.46 130.618L415.53 128.714C415.574 128.672 415.627 128.646 415.683 128.638C415.739 128.63 415.796 128.64 415.847 128.668C415.899 128.696 415.942 128.74 415.973 128.795C416.003 128.85 416.02 128.914 416.02 128.979L416.07 132.037L418.28 133.722C418.326 133.755 418.364 133.803 418.389 133.859C418.413 133.916 418.424 133.979 418.42 134.042C418.416 134.105 418.397 134.165 418.365 134.217C418.334 134.268 418.29 134.309 418.24 134.334V134.334Z" fill="#F0F0F0"/>
<path d="M270.61 125.494L268.1 126.486L267.4 129.441C267.383 129.503 267.352 129.559 267.31 129.602C267.268 129.646 267.216 129.675 267.16 129.687C267.105 129.699 267.047 129.693 266.994 129.67C266.941 129.647 266.895 129.607 266.86 129.556L265.27 127.098L262.62 127.225C262.563 127.233 262.505 127.221 262.453 127.191C262.402 127.16 262.36 127.113 262.332 127.055C262.304 126.996 262.292 126.93 262.297 126.864C262.302 126.797 262.324 126.734 262.36 126.683L263.87 124.178L262.94 121.317C262.918 121.255 262.912 121.188 262.922 121.123C262.932 121.058 262.958 120.998 262.997 120.949C263.036 120.9 263.086 120.866 263.141 120.849C263.197 120.832 263.255 120.834 263.31 120.855L265.85 121.744L267.92 119.839C267.964 119.798 268.017 119.772 268.073 119.764C268.129 119.756 268.186 119.766 268.237 119.794C268.289 119.822 268.332 119.866 268.363 119.921C268.393 119.976 268.409 120.039 268.41 120.105V123.163L270.62 124.848C270.672 124.878 270.716 124.925 270.747 124.982C270.777 125.04 270.793 125.107 270.792 125.175C270.791 125.242 270.773 125.308 270.741 125.365C270.709 125.421 270.663 125.466 270.61 125.494V125.494Z" fill="#F0F0F0"/>
<path d="M400.19 231.685L398.73 232.274L398.31 234.005C398.3 234.04 398.282 234.072 398.258 234.097C398.234 234.121 398.204 234.138 398.173 234.145C398.141 234.152 398.108 234.149 398.078 234.137C398.047 234.124 398.02 234.102 398 234.074L397.06 232.643L395.51 232.724C395.476 232.726 395.443 232.717 395.414 232.699C395.384 232.68 395.36 232.653 395.343 232.619C395.326 232.586 395.318 232.547 395.319 232.509C395.321 232.47 395.331 232.433 395.35 232.401L396.24 230.935L395.7 229.25C395.686 229.215 395.682 229.177 395.687 229.139C395.693 229.101 395.707 229.066 395.73 229.038C395.752 229.01 395.781 228.99 395.813 228.98C395.845 228.971 395.879 228.972 395.91 228.985L397.4 229.504L398.62 228.35C398.646 228.326 398.678 228.312 398.711 228.308C398.744 228.304 398.778 228.311 398.808 228.327C398.838 228.344 398.864 228.37 398.882 228.403C398.9 228.435 398.909 228.473 398.91 228.512V230.3L400.2 231.293C400.245 231.294 400.288 231.316 400.319 231.354C400.35 231.392 400.366 231.443 400.365 231.495C400.364 231.547 400.344 231.596 400.312 231.632C400.279 231.667 400.235 231.687 400.19 231.685V231.685Z" fill="#F0F0F0"/>
<path d="M57.93 145.424L53.93 147.039L52.79 151.782C52.7678 151.884 52.7211 151.976 52.6554 152.048C52.5897 152.12 52.5076 152.169 52.4186 152.19C52.3297 152.21 52.2375 152.201 52.1528 152.164C52.068 152.126 51.9943 152.062 51.94 151.978L49.36 148.043L45.1 148.262C45.0091 148.269 44.9185 148.246 44.8386 148.195C44.7588 148.145 44.693 148.069 44.649 147.977C44.605 147.886 44.5845 147.781 44.59 147.676C44.5955 147.571 44.6267 147.47 44.68 147.385L47.12 143.346L45.62 138.73C45.5866 138.632 45.5783 138.525 45.5959 138.422C45.6135 138.318 45.6563 138.223 45.7193 138.146C45.7823 138.07 45.8629 138.016 45.9516 137.991C46.0403 137.965 46.1334 137.97 46.22 138.003L50.3 139.434L53.64 136.365C53.7112 136.301 53.7964 136.261 53.8861 136.249C53.9757 136.238 54.0664 136.255 54.1481 136.299C54.2298 136.343 54.2993 136.413 54.3491 136.5C54.3988 136.587 54.4268 136.688 54.43 136.792L54.51 141.708L58 144.408C58.0832 144.458 58.1518 144.536 58.1972 144.631C58.2426 144.726 58.2629 144.834 58.2554 144.942C58.248 145.051 58.2132 145.154 58.1553 145.239C58.0974 145.325 58.0191 145.389 57.93 145.424V145.424Z" fill="#F0F0F0"/>
<g opacity="0.5">
<path d="M265 56.0578C263.042 56.0578 261.128 55.3878 259.5 54.1324C257.872 52.8771 256.603 51.0928 255.853 49.0052C255.104 46.9177 254.908 44.6205 255.29 42.4044C255.672 40.1882 256.615 38.1526 257.999 36.5548C259.384 34.9571 261.148 33.869 263.068 33.4281C264.989 32.9873 266.979 33.2136 268.788 34.0783C270.597 34.943 272.144 36.4073 273.231 38.2861C274.319 40.1648 274.9 42.3737 274.9 44.6332C274.897 47.6623 273.853 50.5664 271.997 52.7083C270.141 54.8501 267.625 56.0548 265 56.0578ZM265 33.8087C263.142 33.8087 261.326 34.4445 259.782 35.6357C258.238 36.8269 257.034 38.5199 256.324 40.5007C255.613 42.4814 255.428 44.6607 255.791 46.763C256.154 48.8653 257.049 50.7961 258.364 52.3111C259.678 53.8261 261.352 54.8572 263.174 55.274C264.996 55.6908 266.885 55.4746 268.6 54.6527C270.316 53.8307 271.782 52.4401 272.812 50.6566C273.843 48.8731 274.392 46.7769 274.39 44.6332C274.387 41.7613 273.397 39.0081 271.636 36.9784C269.875 34.9488 267.489 33.8087 265 33.8087V33.8087Z" fill="#6879C8"/>
</g>
<path d="M267.87 44.6448C267.87 45.2887 267.705 45.9182 267.396 46.4543C267.086 46.9903 266.647 47.4088 266.132 47.6573C265.617 47.9058 265.05 47.9731 264.502 47.8508C263.955 47.7285 263.45 47.422 263.053 46.9699C262.656 46.5177 262.383 45.9401 262.269 45.3097C262.156 44.6793 262.206 44.0241 262.414 43.4266C262.622 42.8291 262.979 42.316 263.439 41.9516C263.899 41.5873 264.442 41.388 265 41.3789C265.375 41.3712 265.748 41.4501 266.097 41.611C266.445 41.7718 266.763 42.0113 267.03 42.3155C267.297 42.6197 267.509 42.9824 267.654 43.3824C267.798 43.7823 267.871 44.2115 267.87 44.6448V44.6448Z" fill="#F0F0F0"/>
<g opacity="0.5">
<path d="M10.5499 218.829C8.59144 218.832 6.67639 218.164 5.04703 216.91C3.41767 215.656 2.14721 213.872 1.39636 211.785C0.645523 209.697 0.448041 207.4 0.828905 205.183C1.20977 202.966 2.15186 200.929 3.536 199.33C4.92015 197.732 6.68414 196.642 8.60482 196.201C10.5255 195.759 12.5166 195.984 14.3262 196.849C16.1357 197.713 17.6825 199.177 18.7708 201.056C19.859 202.935 20.4399 205.145 20.4399 207.405C20.4373 210.432 19.3947 213.334 17.5409 215.476C15.687 217.617 13.173 218.823 10.5499 218.829V218.829ZM10.5499 196.569C8.69231 196.566 6.87587 197.2 5.33037 198.389C3.78488 199.579 2.57978 201.27 1.86754 203.25C1.1553 205.23 0.967922 207.409 1.32911 209.512C1.69029 211.614 2.58381 213.546 3.89663 215.063C5.20945 216.58 6.88257 217.613 8.70432 218.032C10.5261 218.451 12.4146 218.237 14.131 217.417C15.8474 216.597 17.3145 215.208 18.3467 213.426C19.3789 211.644 19.9299 209.548 19.9299 207.405C19.9273 204.534 18.9385 201.781 17.1803 199.75C15.422 197.719 13.0377 196.575 10.5499 196.569V196.569Z" fill="#6879C8"/>
</g>
<path d="M13.38 207.405C13.38 208.051 13.214 208.682 12.903 209.219C12.5921 209.756 12.1501 210.175 11.633 210.422C11.1159 210.669 10.5468 210.734 9.99787 210.608C9.4489 210.482 8.94464 210.171 8.54886 209.714C8.15308 209.257 7.88355 208.676 7.77435 208.042C7.66515 207.408 7.7212 206.752 7.93539 206.155C8.14959 205.558 8.51232 205.048 8.97771 204.689C9.4431 204.331 9.99026 204.139 10.55 204.139C11.3005 204.139 12.0204 204.483 12.5511 205.096C13.0818 205.708 13.38 206.539 13.38 207.405V207.405Z" fill="#F0F0F0"/>
</svg>
